<svg width="1400" height="1000" xmlns="http://www.w3.org/2000/svg"><g><path d="M-15.410315408714496,-101.00956745163191L-100.09141318623384,389.6174481286522L-33.03952249450654,21.777566841265504Z" fill="#c78a8b" stroke="#c78a8b"/><path d="M-15.410315408714496,-101.00956745163191L-33.03952249450654,21.777566841265504L25.826074808463815,47.31501323709922Z" fill="#bd918f" stroke="#bd918f"/><path d="M-15.410315408714496,-101.00956745163191L25.826074808463815,47.31501323709922L118.95317395692751,-116.18775909078212Z" fill="#bb9a91" stroke="#bb9a91"/><path d="M118.95317395692751,-116.18775909078212L25.826074808463815,47.31501323709922L243.72133223080596,20.54676884048268Z" fill="#c9ab92" stroke="#c9ab92"/><path d="M118.95317395692751,-116.18775909078212L243.72133223080596,20.54676884048268L267.2223351898177,-56.45541004782852Z" fill="#ccbb96" stroke="#ccbb96"/><path d="M118.95317395692751,-116.18775909078212L267.2223351898177,-56.45541004782852L560.9501550462138,-99.45674663047208Z" fill="#c7d0a5" stroke="#c7d0a5"/><path d="M118.95317395692751,-116.18775909078212L560.9501550462138,-99.45674663047208L965.800536330081,-120.19700473035547Z" fill="#c5edc4" stroke="#c5edc4"/><path d="M267.2223351898177,-56.45541004782852L243.72133223080596,20.54676884048268L357.6440362960756,20.161797711351227Z" fill="#d2cc9f" stroke="#d2cc9f"/><path d="M267.2223351898177,-56.45541004782852L357.6440362960756,20.161797711351227L400.25836455795525,-48.39193982637191Z" fill="#cfd7a6" stroke="#cfd7a6"/><path d="M267.2223351898177,-56.45541004782852L400.25836455795525,-48.39193982637191L560.9501550462138,-99.45674663047208Z" fill="#cae3b0" stroke="#cae3b0"/><path d="M400.25836455795525,-48.39193982637191L357.6440362960756,20.161797711351227L571.2111053643525,18.07057876023152Z" fill="#d3e7b2" stroke="#d3e7b2"/><path d="M400.25836455795525,-48.39193982637191L571.2111053643525,18.07057876023152L560.9501550462138,-99.45674663047208Z" fill="#ceebbd" stroke="#ceebbd"/><path d="M560.9501550462138,-99.45674663047208L571.2111053643525,18.07057876023152L672.1235923729561,-52.1589716596681Z" fill="#cef2c8" stroke="#cef2c8"/><path d="M560.9501550462138,-99.45674663047208L672.1235923729561,-52.1589716596681L846.8023188516213,-70.2647749138575Z" fill="#c4efc0" stroke="#c4efc0"/><path d="M560.9501550462138,-99.45674663047208L846.8023188516213,-70.2647749138575L965.800536330081,-120.19700473035547Z" fill="#bbecb7" stroke="#bbecb7"/><path d="M672.1235923729561,-52.1589716596681L571.2111053643525,18.07057876023152L695.2119580012692,102.79436327498516Z" fill="#d4f2c2" stroke="#d4f2c2"/><path d="M672.1235923729561,-52.1589716596681L695.2119580012692,102.79436327498516L799.8071284140585,42.08609258682792Z" fill="#d0f0ba" stroke="#d0f0ba"/><path d="M672.1235923729561,-52.1589716596681L799.8071284140585,42.08609258682792L846.8023188516213,-70.2647749138575Z" fill="#c5eeb7" stroke="#c5eeb7"/><path d="M846.8023188516213,-70.2647749138575L799.8071284140585,42.08609258682792L1010.8859269977004,105.85850105333938Z" fill="#bae7b1" stroke="#bae7b1"/><path d="M846.8023188516213,-70.2647749138575L1010.8859269977004,105.85850105333938L965.800536330081,-120.19700473035547Z" fill="#a9e2b3" stroke="#a9e2b3"/><path d="M965.800536330081,-120.19700473035547L1010.8859269977004,105.85850105333938L1072.2424120908825,-37.74176810973488Z" fill="#9adab3" stroke="#9adab3"/><path d="M965.800536330081,-120.19700473035547L1072.2424120908825,-37.74176810973488L1225.0233848561616,-20.143097359863077Z" fill="#83ccbc" stroke="#83ccbc"/><path d="M965.800536330081,-120.19700473035547L1225.0233848561616,-20.143097359863077L1426.9139214680383,-120.27236877589294Z" fill="#60b5c9" stroke="#60b5c9"/><path d="M1072.2424120908825,-37.74176810973488L1010.8859269977004,105.85850105333938L1106.7787541154107,64.27343489098828Z" fill="#96d3b6" stroke="#96d3b6"/><path d="M1072.2424120908825,-37.74176810973488L1106.7787541154107,64.27343489098828L1225.0233848561616,-20.143097359863077Z" fill="#7fc4bf" stroke="#7fc4bf"/><path d="M1225.0233848561616,-20.143097359863077L1106.7787541154107,64.27343489098828L1309.963206722459,30.06888002617506Z" fill="#6db5c7" stroke="#6db5c7"/><path d="M1225.0233848561616,-20.143097359863077L1309.963206722459,30.06888002617506L1426.9139214680383,-120.27236877589294Z" fill="#4fa0d3" stroke="#4fa0d3"/><path d="M1426.9139214680383,-120.27236877589294L1309.963206722459,30.06888002617506L1430.1864582497833,73.69924517326552Z" fill="#5493d9" stroke="#5493d9"/><path d="M1426.9139214680383,-120.27236877589294L1430.1864582497833,73.69924517326552L1547.9165819701602,36.13309635893824Z" fill="#5484e1" stroke="#5484e1"/><path d="M1426.9139214680383,-120.27236877589294L1547.9165819701602,36.13309635893824L1609.764948837142,-49.8603327921155Z" fill="#4e77e8" stroke="#4e77e8"/><path d="M1609.764948837142,-49.8603327921155L1547.9165819701602,36.13309635893824L1627.8804167663866,191.61753592766615Z" fill="#5c74e5" stroke="#5c74e5"/><path d="M-33.03952249450654,21.777566841265504L-100.09141318623384,389.6174481286522L-43.99107800617304,175.8707765906807Z" fill="#d28a87" stroke="#d28a87"/><path d="M-33.03952249450654,21.777566841265504L-43.99107800617304,175.8707765906807L25.826074808463815,47.31501323709922Z" fill="#c8908c" stroke="#c8908c"/><path d="M25.826074808463815,47.31501323709922L-43.99107800617304,175.8707765906807L85.3387914244584,209.27905822585143Z" fill="#d3998b" stroke="#d3998b"/><path d="M25.826074808463815,47.31501323709922L85.3387914244584,209.27905822585143L243.72133223080596,20.54676884048268Z" fill="#d6ab8f" stroke="#d6ab8f"/><path d="M243.72133223080596,20.54676884048268L85.3387914244584,209.27905822585143L241.0265682655126,254.55371291732388Z" fill="#e6bb8f" stroke="#e6bb8f"/><path d="M243.72133223080596,20.54676884048268L241.0265682655126,254.55371291732388L410.4098644902008,197.80202053578836Z" fill="#e7d19c" stroke="#e7d19c"/><path d="M243.72133223080596,20.54676884048268L410.4098644902008,197.80202053578836L357.6440362960756,20.161797711351227Z" fill="#ddd8a2" stroke="#ddd8a2"/><path d="M357.6440362960756,20.161797711351227L410.4098644902008,197.80202053578836L484.1814110973424,198.8726721114947Z" fill="#e5e7ab" stroke="#e5e7ab"/><path d="M357.6440362960756,20.161797711351227L484.1814110973424,198.8726721114947L571.2111053643525,18.07057876023152Z" fill="#deeab3" stroke="#deeab3"/><path d="M571.2111053643525,18.07057876023152L484.1814110973424,198.8726721114947L695.2119580012692,102.79436327498516Z" fill="#e2f3c2" stroke="#e2f3c2"/><path d="M695.2119580012692,102.79436327498516L484.1814110973424,198.8726721114947L727.6311844741822,165.6917621191142Z" fill="#e6f4bf" stroke="#e6f4bf"/><path d="M695.2119580012692,102.79436327498516L727.6311844741822,165.6917621191142L799.8071284140585,42.08609258682792Z" fill="#d8f1b6" stroke="#d8f1b6"/><path d="M799.8071284140585,42.08609258682792L727.6311844741822,165.6917621191142L837.2399227008492,214.0467250441109Z" fill="#daf1b0" stroke="#daf1b0"/><path d="M799.8071284140585,42.08609258682792L837.2399227008492,214.0467250441109L1010.8859269977004,105.85850105333938Z" fill="#c7e9af" stroke="#c7e9af"/><path d="M1010.8859269977004,105.85850105333938L837.2399227008492,214.0467250441109L1027.006600014669,172.15971314649067Z" fill="#bee4ad" stroke="#bee4ad"/><path d="M1010.8859269977004,105.85850105333938L1027.006600014669,172.15971314649067L1106.7787541154107,64.27343489098828Z" fill="#a3d6b3" stroke="#a3d6b3"/><path d="M1106.7787541154107,64.27343489098828L1027.006600014669,172.15971314649067L1114.7238913971728,232.85595122079036Z" fill="#a0d0b5" stroke="#a0d0b5"/><path d="M1106.7787541154107,64.27343489098828L1114.7238913971728,232.85595122079036L1255.4015268687917,237.76257678766694Z" fill="#8fc2bc" stroke="#8fc2bc"/><path d="M1106.7787541154107,64.27343489098828L1255.4015268687917,237.76257678766694L1309.963206722459,30.06888002617506Z" fill="#76b5c5" stroke="#76b5c5"/><path d="M1309.963206722459,30.06888002617506L1255.4015268687917,237.76257678766694L1430.1864582497833,73.69924517326552Z" fill="#63a0d0" stroke="#63a0d0"/><path d="M1430.1864582497833,73.69924517326552L1255.4015268687917,237.76257678766694L1480.1220585678416,247.80677376763367Z" fill="#6c96d4" stroke="#6c96d4"/><path d="M1430.1864582497833,73.69924517326552L1480.1220585678416,247.80677376763367L1547.9165819701602,36.13309635893824Z" fill="#6482e0" stroke="#6482e0"/><path d="M1547.9165819701602,36.13309635893824L1480.1220585678416,247.80677376763367L1627.8804167663866,191.61753592766615Z" fill="#6976e2" stroke="#6976e2"/><path d="M-43.99107800617304,175.8707765906807L-100.09141318623384,389.6174481286522L44.74694195354303,367.1272948366295Z" fill="#df8884" stroke="#df8884"/><path d="M-43.99107800617304,175.8707765906807L44.74694195354303,367.1272948366295L85.3387914244584,209.27905822585143Z" fill="#e09888" stroke="#e09888"/><path d="M85.3387914244584,209.27905822585143L44.74694195354303,367.1272948366295L241.0265682655126,254.55371291732388Z" fill="#eba989" stroke="#eba989"/><path d="M241.0265682655126,254.55371291732388L44.74694195354303,367.1272948366295L206.933015770236,428.02494850570866Z" fill="#f6ad88" stroke="#f6ad88"/><path d="M241.0265682655126,254.55371291732388L206.933015770236,428.02494850570866L414.22574586553577,369.1530403446941Z" fill="#fac594" stroke="#fac594"/><path d="M241.0265682655126,254.55371291732388L414.22574586553577,369.1530403446941L410.4098644902008,197.80202053578836Z" fill="#f4d89f" stroke="#f4d89f"/><path d="M410.4098644902008,197.80202053578836L414.22574586553577,369.1530403446941L484.1814110973424,198.8726721114947Z" fill="#f2e6a9" stroke="#f2e6a9"/><path d="M484.1814110973424,198.8726721114947L414.22574586553577,369.1530403446941L526.058653161965,332.9007484544768Z" fill="#f6e6ad" stroke="#f6e6ad"/><path d="M484.1814110973424,198.8726721114947L526.058653161965,332.9007484544768L727.6311844741822,165.6917621191142Z" fill="#f1f3bd" stroke="#f1f3bd"/><path d="M727.6311844741822,165.6917621191142L526.058653161965,332.9007484544768L687.4306783332931,369.5705081086662Z" fill="#f3efb9" stroke="#f3efb9"/><path d="M727.6311844741822,165.6917621191142L687.4306783332931,369.5705081086662L837.2399227008492,214.0467250441109Z" fill="#e9efb1" stroke="#e9efb1"/><path d="M837.2399227008492,214.0467250441109L687.4306783332931,369.5705081086662L793.9273215506905,409.8114105515495Z" fill="#eee9ab" stroke="#eee9ab"/><path d="M837.2399227008492,214.0467250441109L793.9273215506905,409.8114105515495L1017.8651906758998,319.94300757177956Z" fill="#dbe3a9" stroke="#dbe3a9"/><path d="M837.2399227008492,214.0467250441109L1017.8651906758998,319.94300757177956L1027.006600014669,172.15971314649067Z" fill="#c5e2ab" stroke="#c5e2ab"/><path d="M1027.006600014669,172.15971314649067L1017.8651906758998,319.94300757177956L1114.7238913971728,232.85595122079036Z" fill="#b1d5af" stroke="#b1d5af"/><path d="M1114.7238913971728,232.85595122079036L1017.8651906758998,319.94300757177956L1184.2779060135388,389.0689800230818Z" fill="#aac5b3" stroke="#aac5b3"/><path d="M1114.7238913971728,232.85595122079036L1184.2779060135388,389.0689800230818L1255.4015268687917,237.76257678766694Z" fill="#93b8bb" stroke="#93b8bb"/><path d="M1255.4015268687917,237.76257678766694L1184.2779060135388,389.0689800230818L1287.1528831028763,316.3017858229935Z" fill="#86abc1" stroke="#86abc1"/><path d="M1255.4015268687917,237.76257678766694L1287.1528831028763,316.3017858229935L1480.1220585678416,247.80677376763367Z" fill="#749bcc" stroke="#749bcc"/><path d="M1480.1220585678416,247.80677376763367L1287.1528831028763,316.3017858229935L1400.7072505977067,416.7068878734011Z" fill="#798ecf" stroke="#798ecf"/><path d="M1480.1220585678416,247.80677376763367L1400.7072505977067,416.7068878734011L1553.949856663683,353.6030513871471Z" fill="#7a7cd8" stroke="#7a7cd8"/><path d="M1480.1220585678416,247.80677376763367L1553.949856663683,353.6030513871471L1627.8804167663866,191.61753592766615Z" fill="#7473df" stroke="#7473df"/><path d="M1627.8804167663866,191.61753592766615L1553.949856663683,353.6030513871471L1621.5307869190697,506.07856181356397Z" fill="#7b6ddc" stroke="#7b6ddc"/><path d="M1627.8804167663866,191.61753592766615L1621.5307869190697,506.07856181356397L1621.7680494905114,875.9357971401922Z" fill="#805dd6" stroke="#805dd6"/><path d="M-100.09141318623384,389.6174481286522L-111.8567832756446,733.6604004220605L-99.65065827141943,569.3823319377993Z" fill="#e0637a" stroke="#e0637a"/><path d="M-100.09141318623384,389.6174481286522L-99.65065827141943,569.3823319377993L102.8950046701799,492.06645193998014Z" fill="#e77a7e" stroke="#e77a7e"/><path d="M-100.09141318623384,389.6174481286522L102.8950046701799,492.06645193998014L44.74694195354303,367.1272948366295Z" fill="#ec8a82" stroke="#ec8a82"/><path d="M44.74694195354303,367.1272948366295L102.8950046701799,492.06645193998014L206.933015770236,428.02494850570866Z" fill="#f69d84" stroke="#f69d84"/><path d="M206.933015770236,428.02494850570866L102.8950046701799,492.06645193998014L245.8800011537889,534.9650224059004Z" fill="#fca584" stroke="#fca584"/><path d="M206.933015770236,428.02494850570866L245.8800011537889,534.9650224059004L348.359440270505,499.0971527377538Z" fill="#feb58c" stroke="#feb58c"/><path d="M206.933015770236,428.02494850570866L348.359440270505,499.0971527377538L414.22574586553577,369.1530403446941Z" fill="#fec696" stroke="#fec696"/><path d="M414.22574586553577,369.1530403446941L348.359440270505,499.0971527377538L575.3423340534977,570.0692708551019Z" fill="#ffd5a3" stroke="#ffd5a3"/><path d="M414.22574586553577,369.1530403446941L575.3423340534977,570.0692708551019L526.058653161965,332.9007484544768Z" fill="#ffdfad" stroke="#ffdfad"/><path d="M526.058653161965,332.9007484544768L575.3423340534977,570.0692708551019L687.4306783332931,369.5705081086662Z" fill="#ffe6b9" stroke="#ffe6b9"/><path d="M687.4306783332931,369.5705081086662L575.3423340534977,570.0692708551019L734.2554549564796,554.9087062770689Z" fill="#fbdeb0" stroke="#fbdeb0"/><path d="M687.4306783332931,369.5705081086662L734.2554549564796,554.9087062770689L793.9273215506905,409.8114105515495Z" fill="#f7e1ab" stroke="#f7e1ab"/><path d="M793.9273215506905,409.8114105515495L734.2554549564796,554.9087062770689L792.9800708961645,533.7156756810749Z" fill="#f4dba6" stroke="#f4dba6"/><path d="M793.9273215506905,409.8114105515495L792.9800708961645,533.7156756810749L990.0129749350967,484.2444003916381Z" fill="#e7d8a3" stroke="#e7d8a3"/><path d="M793.9273215506905,409.8114105515495L990.0129749350967,484.2444003916381L1017.8651906758998,319.94300757177956Z" fill="#d9d9a5" stroke="#d9d9a5"/><path d="M1017.8651906758998,319.94300757177956L990.0129749350967,484.2444003916381L1184.2779060135388,389.0689800230818Z" fill="#bcc8ab" stroke="#bcc8ab"/><path d="M1184.2779060135388,389.0689800230818L990.0129749350967,484.2444003916381L1149.1446678693055,550.0538950731705Z" fill="#b0b8ad" stroke="#b0b8ad"/><path d="M1184.2779060135388,389.0689800230818L1149.1446678693055,550.0538950731705L1295.4429982655179,560.0496640484579Z" fill="#96a2b7" stroke="#96a2b7"/><path d="M1184.2779060135388,389.0689800230818L1295.4429982655179,560.0496640484579L1400.7072505977067,416.7068878734011Z" fill="#8196c1" stroke="#8196c1"/><path d="M1184.2779060135388,389.0689800230818L1400.7072505977067,416.7068878734011L1287.1528831028763,316.3017858229935Z" fill="#7f9ec4" stroke="#7f9ec4"/><path d="M1400.7072505977067,416.7068878734011L1295.4429982655179,560.0496640484579L1428.4809489839952,548.5859320823038Z" fill="#8081c7" stroke="#8081c7"/><path d="M1400.7072505977067,416.7068878734011L1428.4809489839952,548.5859320823038L1553.949856663683,353.6030513871471Z" fill="#8077d3" stroke="#8077d3"/><path d="M1553.949856663683,353.6030513871471L1428.4809489839952,548.5859320823038L1621.5307869190697,506.07856181356397Z" fill="#8066d8" stroke="#8066d8"/><path d="M-99.65065827141943,569.3823319377993L-111.8567832756446,733.6604004220605L101.22322840975693,633.8349459585004Z" fill="#e76978" stroke="#e76978"/><path d="M-99.65065827141943,569.3823319377993L101.22322840975693,633.8349459585004L102.8950046701799,492.06645193998014Z" fill="#ee7f7d" stroke="#ee7f7d"/><path d="M102.8950046701799,492.06645193998014L101.22322840975693,633.8349459585004L245.8800011537889,534.9650224059004Z" fill="#f99780" stroke="#f99780"/><path d="M245.8800011537889,534.9650224059004L101.22322840975693,633.8349459585004L281.80795535508673,731.7072935135267Z" fill="#fe9b7f" stroke="#fe9b7f"/><path d="M245.8800011537889,534.9650224059004L281.80795535508673,731.7072935135267L422.7558143974833,621.899443548833Z" fill="#feb28d" stroke="#feb28d"/><path d="M245.8800011537889,534.9650224059004L422.7558143974833,621.899443548833L348.359440270505,499.0971527377538Z" fill="#febe93" stroke="#febe93"/><path d="M348.359440270505,499.0971527377538L422.7558143974833,621.899443548833L466.9624987354437,617.2381355003505Z" fill="#ffc89b" stroke="#ffc89b"/><path d="M348.359440270505,499.0971527377538L466.9624987354437,617.2381355003505L575.3423340534977,570.0692708551019Z" fill="#ffcea3" stroke="#ffcea3"/><path d="M575.3423340534977,570.0692708551019L466.9624987354437,617.2381355003505L546.6810442729325,785.9177296356572Z" fill="#ffcba7" stroke="#ffcba7"/><path d="M575.3423340534977,570.0692708551019L546.6810442729325,785.9177296356572L686.3815472931161,684.334126756828Z" fill="#ffcfaf" stroke="#ffcfaf"/><path d="M575.3423340534977,570.0692708551019L686.3815472931161,684.334126756828L734.2554549564796,554.9087062770689Z" fill="#fbd3ac" stroke="#fbd3ac"/><path d="M734.2554549564796,554.9087062770689L686.3815472931161,684.334126756828L769.988070028586,700.4521185094387Z" fill="#f7cea4" stroke="#f7cea4"/><path d="M734.2554549564796,554.9087062770689L769.988070028586,700.4521185094387L792.9800708961645,533.7156756810749Z" fill="#f5d1a3" stroke="#f5d1a3"/><path d="M792.9800708961645,533.7156756810749L769.988070028586,700.4521185094387L1009.7439208306424,637.1885196386085Z" fill="#e8c99e" stroke="#e8c99e"/><path d="M792.9800708961645,533.7156756810749L1009.7439208306424,637.1885196386085L990.0129749350967,484.2444003916381Z" fill="#dacaa0" stroke="#dacaa0"/><path d="M990.0129749350967,484.2444003916381L1009.7439208306424,637.1885196386085L1149.1446678693055,550.0538950731705Z" fill="#bfbba4" stroke="#bfbba4"/><path d="M1149.1446678693055,550.0538950731705L1009.7439208306424,637.1885196386085L1101.358234574413,696.3704203332306Z" fill="#b6ada5" stroke="#b6ada5"/><path d="M1149.1446678693055,550.0538950731705L1101.358234574413,696.3704203332306L1222.9834432852938,627.2320956802914Z" fill="#a49fac" stroke="#a49fac"/><path d="M1149.1446678693055,550.0538950731705L1222.9834432852938,627.2320956802914L1295.4429982655179,560.0496640484579Z" fill="#9397b5" stroke="#9397b5"/><path d="M1295.4429982655179,560.0496640484579L1222.9834432852938,627.2320956802914L1385.2124383503342,669.6813441882668Z" fill="#8084bb" stroke="#8084bb"/><path d="M1295.4429982655179,560.0496640484579L1385.2124383503342,669.6813441882668L1428.4809489839952,548.5859320823038Z" fill="#8079c4" stroke="#8079c4"/><path d="M1428.4809489839952,548.5859320823038L1385.2124383503342,669.6813441882668L1575.565221027937,618.5546469108302Z" fill="#8066cc" stroke="#8066cc"/><path d="M1428.4809489839952,548.5859320823038L1575.565221027937,618.5546469108302L1621.5307869190697,506.07856181356397Z" fill="#805cd4" stroke="#805cd4"/><path d="M1621.5307869190697,506.07856181356397L1575.565221027937,618.5546469108302L1621.7680494905114,875.9357971401922Z" fill="#8050d0" stroke="#8050d0"/><path d="M-111.8567832756446,733.6604004220605L-90.16387393549928,1166.552660552009L-86.32151864359338,922.3562438633511Z" fill="#e14869" stroke="#e14869"/><path d="M-111.8567832756446,733.6604004220605L-86.32151864359338,922.3562438633511L-51.505537671944424,827.3160639474581Z" fill="#e2536f" stroke="#e2536f"/><path d="M-111.8567832756446,733.6604004220605L-51.505537671944424,827.3160639474581L101.22322840975693,633.8349459585004Z" fill="#e86674" stroke="#e86674"/><path d="M101.22322840975693,633.8349459585004L-51.505537671944424,827.3160639474581L124.4129586070517,866.506893551882Z" fill="#f07374" stroke="#f07374"/><path d="M101.22322840975693,633.8349459585004L124.4129586070517,866.506893551882L175.1190565337254,813.8928106798965Z" fill="#f78277" stroke="#f78277"/><path d="M101.22322840975693,633.8349459585004L175.1190565337254,813.8928106798965L281.80795535508673,731.7072935135267Z" fill="#fc8f7a" stroke="#fc8f7a"/><path d="M281.80795535508673,731.7072935135267L175.1190565337254,813.8928106798965L374.0195380942573,874.0343772989022Z" fill="#fe9c80" stroke="#fe9c80"/><path d="M281.80795535508673,731.7072935135267L374.0195380942573,874.0343772989022L422.7558143974833,621.899443548833Z" fill="#ffb28d" stroke="#ffb28d"/><path d="M422.7558143974833,621.899443548833L374.0195380942573,874.0343772989022L546.6810442729325,785.9177296356572Z" fill="#ffbd98" stroke="#ffbd98"/><path d="M422.7558143974833,621.899443548833L546.6810442729325,785.9177296356572L466.9624987354437,617.2381355003505Z" fill="#ffc69f" stroke="#ffc69f"/><path d="M686.3815472931161,684.334126756828L546.6810442729325,785.9177296356572L685.4197687156186,773.4315328060745Z" fill="#fdc9a8" stroke="#fdc9a8"/><path d="M686.3815472931161,684.334126756828L685.4197687156186,773.4315328060745L769.988070028586,700.4521185094387Z" fill="#f8c9a2" stroke="#f8c9a2"/><path d="M769.988070028586,700.4521185094387L685.4197687156186,773.4315328060745L777.5905771280453,811.1054439295524Z" fill="#f6c59d" stroke="#f6c59d"/><path d="M769.988070028586,700.4521185094387L777.5905771280453,811.1054439295524L963.1672195990327,781.8094218100415Z" fill="#ecc097" stroke="#ecc097"/><path d="M769.988070028586,700.4521185094387L963.1672195990327,781.8094218100415L1009.7439208306424,637.1885196386085Z" fill="#ddbf99" stroke="#ddbf99"/><path d="M1009.7439208306424,637.1885196386085L963.1672195990327,781.8094218100415L1101.358234574413,696.3704203332306Z" fill="#c6b39b" stroke="#c6b39b"/><path d="M1101.358234574413,696.3704203332306L963.1672195990327,781.8094218100415L1100.3248205079803,872.6762193678014Z" fill="#bea79a" stroke="#bea79a"/><path d="M1101.358234574413,696.3704203332306L1100.3248205079803,872.6762193678014L1279.8295236521303,870.4061066636513Z" fill="#a391a4" stroke="#a391a4"/><path d="M1101.358234574413,696.3704203332306L1279.8295236521303,870.4061066636513L1222.9834432852938,627.2320956802914Z" fill="#988fac" stroke="#988fac"/><path d="M1222.9834432852938,627.2320956802914L1279.8295236521303,870.4061066636513L1385.2124383503342,669.6813441882668Z" fill="#807eb6" stroke="#807eb6"/><path d="M1385.2124383503342,669.6813441882668L1279.8295236521303,870.4061066636513L1473.6106381006944,876.4248852311212Z" fill="#8067bb" stroke="#8067bb"/><path d="M1385.2124383503342,669.6813441882668L1473.6106381006944,876.4248852311212L1575.565221027937,618.5546469108302Z" fill="#805bc9" stroke="#805bc9"/><path d="M1575.565221027937,618.5546469108302L1473.6106381006944,876.4248852311212L1621.7680494905114,875.9357971401922Z" fill="#8047ca" stroke="#8047ca"/><path d="M-51.505537671944424,827.3160639474581L-86.32151864359338,922.3562438633511L35.403699796951216,1014.3639904499105Z" fill="#e7566b" stroke="#e7566b"/><path d="M-51.505537671944424,827.3160639474581L35.403699796951216,1014.3639904499105L124.4129586070517,866.506893551882Z" fill="#ee656e" stroke="#ee656e"/><path d="M124.4129586070517,866.506893551882L35.403699796951216,1014.3639904499105L244.16962155843362,944.7203833312387Z" fill="#f7756f" stroke="#f7756f"/><path d="M124.4129586070517,866.506893551882L244.16962155843362,944.7203833312387L175.1190565337254,813.8928106798965Z" fill="#fc8473" stroke="#fc8473"/><path d="M175.1190565337254,813.8928106798965L244.16962155843362,944.7203833312387L374.0195380942573,874.0343772989022Z" fill="#fe947b" stroke="#fe947b"/><path d="M374.0195380942573,874.0343772989022L244.16962155843362,944.7203833312387L364.0722714277819,918.2358425767087Z" fill="#fe9f82" stroke="#fe9f82"/><path d="M374.0195380942573,874.0343772989022L364.0722714277819,918.2358425767087L496.9919396314592,918.6140261663207Z" fill="#ffaf8d" stroke="#ffaf8d"/><path d="M374.0195380942573,874.0343772989022L496.9919396314592,918.6140261663207L546.6810442729325,785.9177296356572Z" fill="#ffb797" stroke="#ffb797"/><path d="M546.6810442729325,785.9177296356572L496.9919396314592,918.6140261663207L633.7948666649426,960.1683327684154Z" fill="#ffbca0" stroke="#ffbca0"/><path d="M546.6810442729325,785.9177296356572L633.7948666649426,960.1683327684154L685.4197687156186,773.4315328060745Z" fill="#fec2a6" stroke="#fec2a6"/><path d="M685.4197687156186,773.4315328060745L633.7948666649426,960.1683327684154L777.5905771280453,811.1054439295524Z" fill="#f9c09e" stroke="#f9c09e"/><path d="M777.5905771280453,811.1054439295524L633.7948666649426,960.1683327684154L833.2181320240338,915.7951230788805Z" fill="#f6bb97" stroke="#f6bb97"/><path d="M777.5905771280453,811.1054439295524L833.2181320240338,915.7951230788805L963.1672195990327,781.8094218100415Z" fill="#e8ba94" stroke="#e8ba94"/><path d="M963.1672195990327,781.8094218100415L833.2181320240338,915.7951230788805L958.4339929909895,974.1875774084084Z" fill="#dcb091" stroke="#dcb091"/><path d="M963.1672195990327,781.8094218100415L958.4339929909895,974.1875774084084L1100.3248205079803,872.6762193678014Z" fill="#caaa91" stroke="#caaa91"/><path d="M1100.3248205079803,872.6762193678014L958.4339929909895,974.1875774084084L1134.035973304594,1102.7943374816834Z" fill="#bc9793" stroke="#bc9793"/><path d="M1100.3248205079803,872.6762193678014L1134.035973304594,1102.7943374816834L1181.2207866274832,915.6573775618702Z" fill="#a98a9b" stroke="#a98a9b"/><path d="M1100.3248205079803,872.6762193678014L1181.2207866274832,915.6573775618702L1279.8295236521303,870.4061066636513Z" fill="#9c86a3" stroke="#9c86a3"/><path d="M1279.8295236521303,870.4061066636513L1181.2207866274832,915.6573775618702L1240.1568565857801,941.3491749879223Z" fill="#907ca7" stroke="#907ca7"/><path d="M1279.8295236521303,870.4061066636513L1240.1568565857801,941.3491749879223L1451.4868065527708,997.1889683469432Z" fill="#8068af" stroke="#8068af"/><path d="M1279.8295236521303,870.4061066636513L1451.4868065527708,997.1889683469432L1473.6106381006944,876.4248852311212Z" fill="#805bb8" stroke="#805bb8"/><path d="M1473.6106381006944,876.4248852311212L1451.4868065527708,997.1889683469432L1619.7006459620331,991.494171292919Z" fill="#8042c2" stroke="#8042c2"/><path d="M1473.6106381006944,876.4248852311212L1619.7006459620331,991.494171292919L1621.7680494905114,875.9357971401922Z" fill="#803ec5" stroke="#803ec5"/><path d="M-86.32151864359338,922.3562438633511L-90.16387393549928,1166.552660552009L35.403699796951216,1014.3639904499105Z" fill="#e64a66" stroke="#e64a66"/><path d="M35.403699796951216,1014.3639904499105L-90.16387393549928,1166.552660552009L117.64848979096128,1124.45793141353Z" fill="#ec5365" stroke="#ec5365"/><path d="M35.403699796951216,1014.3639904499105L117.64848979096128,1124.45793141353L178.9281135153528,1091.2810341908603Z" fill="#f56668" stroke="#f56668"/><path d="M35.403699796951216,1014.3639904499105L178.9281135153528,1091.2810341908603L244.16962155843362,944.7203833312387Z" fill="#f9736c" stroke="#f9736c"/><path d="M244.16962155843362,944.7203833312387L178.9281135153528,1091.2810341908603L430.1532986659227,1080.9462446728428Z" fill="#fe8c76" stroke="#fe8c76"/><path d="M244.16962155843362,944.7203833312387L430.1532986659227,1080.9462446728428L364.0722714277819,918.2358425767087Z" fill="#fe9e81" stroke="#fe9e81"/><path d="M364.0722714277819,918.2358425767087L430.1532986659227,1080.9462446728428L496.9919396314592,918.6140261663207Z" fill="#ffac8c" stroke="#ffac8c"/><path d="M496.9919396314592,918.6140261663207L430.1532986659227,1080.9462446728428L482.70824550061434,1102.6723121721013Z" fill="#ffaa8e" stroke="#ffaa8e"/><path d="M496.9919396314592,918.6140261663207L482.70824550061434,1102.6723121721013L633.7948666649426,960.1683327684154Z" fill="#ffb299" stroke="#ffb299"/><path d="M633.7948666649426,960.1683327684154L482.70824550061434,1102.6723121721013L640.8138214186796,1113.4693591216956Z" fill="#ffb19c" stroke="#ffb19c"/><path d="M633.7948666649426,960.1683327684154L640.8138214186796,1113.4693591216956L833.2181320240338,915.7951230788805Z" fill="#f9b597" stroke="#f9b597"/><path d="M833.2181320240338,915.7951230788805L640.8138214186796,1113.4693591216956L776.2484767721508,1181.9813517769899Z" fill="#f6ad8f" stroke="#f6ad8f"/><path d="M833.2181320240338,915.7951230788805L776.2484767721508,1181.9813517769899L964.8912870086697,1092.729464885842Z" fill="#e8a88a" stroke="#e8a88a"/><path d="M833.2181320240338,915.7951230788805L964.8912870086697,1092.729464885842L958.4339929909895,974.1875774084084Z" fill="#dca98d" stroke="#dca98d"/><path d="M958.4339929909895,974.1875774084084L964.8912870086697,1092.729464885842L1134.035973304594,1102.7943374816834Z" fill="#c79a8b" stroke="#c79a8b"/><path d="M1181.2207866274832,915.6573775618702L1134.035973304594,1102.7943374816834L1220.2053174109599,1068.4398414396817Z" fill="#9e7d9c" stroke="#9e7d9c"/><path d="M1181.2207866274832,915.6573775618702L1220.2053174109599,1068.4398414396817L1240.1568565857801,941.3491749879223Z" fill="#957ba2" stroke="#957ba2"/><path d="M1240.1568565857801,941.3491749879223L1220.2053174109599,1068.4398414396817L1451.4868065527708,997.1889683469432Z" fill="#8067aa" stroke="#8067aa"/><path d="M1451.4868065527708,997.1889683469432L1220.2053174109599,1068.4398414396817L1476.4558041295093,1131.3834850306882Z" fill="#8053af" stroke="#8053af"/><path d="M1451.4868065527708,997.1889683469432L1476.4558041295093,1131.3834850306882L1523.9995579101774,1119.417044215384Z" fill="#803fb9" stroke="#803fb9"/><path d="M1451.4868065527708,997.1889683469432L1523.9995579101774,1119.417044215384L1619.7006459620331,991.494171292919Z" fill="#8039bf" stroke="#8039bf"/><path d="M-90.16387393549928,1166.552660552009L776.2484767721508,1181.9813517769899L117.64848979096128,1124.45793141353Z" fill="#fe806f" stroke="#fe806f"/><path d="M117.64848979096128,1124.45793141353L776.2484767721508,1181.9813517769899L482.70824550061434,1102.6723121721013Z" fill="#ffa288" stroke="#ffa288"/><path d="M117.64848979096128,1124.45793141353L482.70824550061434,1102.6723121721013L430.1532986659227,1080.9462446728428Z" fill="#fe947b" stroke="#fe947b"/><path d="M117.64848979096128,1124.45793141353L430.1532986659227,1080.9462446728428L178.9281135153528,1091.2810341908603Z" fill="#fe7f6f" stroke="#fe7f6f"/><path d="M482.70824550061434,1102.6723121721013L776.2484767721508,1181.9813517769899L640.8138214186796,1113.4693591216956Z" fill="#fdac98" stroke="#fdac98"/><path d="M776.2484767721508,1181.9813517769899L1476.4558041295093,1131.3834850306882L1134.035973304594,1102.7943374816834Z" fill="#ab7e92" stroke="#ab7e92"/><path d="M776.2484767721508,1181.9813517769899L1134.035973304594,1102.7943374816834L964.8912870086697,1092.729464885842Z" fill="#d49c86" stroke="#d49c86"/><path d="M1134.035973304594,1102.7943374816834L1476.4558041295093,1131.3834850306882L1220.2053174109599,1068.4398414396817Z" fill="#8565a3" stroke="#8565a3"/></g></svg>