<?xml version="1.0" encoding="UTF-8" standalone="no"?>
<!-- Created with Inkscape (http://www.inkscape.org/) -->

<svg
   version="1.1"
   id="svg2"
   width="511.5687"
   height="332.87686"
   viewBox="0 0 511.56869 332.87686"
   sodipodi:docname="pinephone.svg"
   inkscape:version="1.2.2 (b0a8486541, 2022-12-01)"
   inkscape:export-filename="pinephone.png"
   inkscape:export-xdpi="96"
   inkscape:export-ydpi="96"
   xml:space="preserve"
   xmlns:inkscape="http://www.inkscape.org/namespaces/inkscape"
   xmlns:sodipodi="http://sodipodi.sourceforge.net/DTD/sodipodi-0.dtd"
   xmlns:xlink="http://www.w3.org/1999/xlink"
   xmlns="http://www.w3.org/2000/svg"
   xmlns:svg="http://www.w3.org/2000/svg"><defs
     id="defs6"><linearGradient
       inkscape:collect="always"
       id="linearGradient27018"><stop
         style="stop-color:#090909;stop-opacity:0;"
         offset="0"
         id="stop27006" /><stop
         style="stop-color:#2c2c2c;stop-opacity:0;"
         offset="0.02465571"
         id="stop27008" /><stop
         style="stop-color:#3b3b3b;stop-opacity:0;"
         offset="0.06370372"
         id="stop27010" /><stop
         style="stop-color:#373737;stop-opacity:0;"
         offset="0.92752731"
         id="stop27012" /><stop
         style="stop-color:#3b3b3b;stop-opacity:0;"
         offset="0.95184338"
         id="stop27014" /><stop
         style="stop-color:#151516;stop-opacity:1;"
         offset="1"
         id="stop27016" /></linearGradient><linearGradient
       inkscape:collect="always"
       id="linearGradient16579"><stop
         style="stop-color:#090909;stop-opacity:1;"
         offset="0"
         id="stop16575" /><stop
         style="stop-color:#2c2c2c;stop-opacity:1;"
         offset="0.02465571"
         id="stop20793" /><stop
         style="stop-color:#3b3b3b;stop-opacity:1;"
         offset="0.06370372"
         id="stop20795" /><stop
         style="stop-color:#373737;stop-opacity:1;"
         offset="0.92752731"
         id="stop22453" /><stop
         style="stop-color:#3b3b3b;stop-opacity:1;"
         offset="0.95184338"
         id="stop19135" /><stop
         style="stop-color:#151516;stop-opacity:1;"
         offset="1"
         id="stop16577" /></linearGradient><rect
       x="343.30034"
       y="69.119688"
       width="109.60155"
       height="53.440432"
       id="rect8292" /><rect
       x="210.91148"
       y="157.9395"
       width="175.27135"
       height="104.96752"
       id="rect1205" /><rect
       x="210.91148"
       y="157.9395"
       width="175.27135"
       height="104.96752"
       id="rect1205-5" /><rect
       x="210.91148"
       y="157.9395"
       width="175.27135"
       height="104.96752"
       id="rect1205-5-3" /><rect
       x="210.91148"
       y="157.9395"
       width="175.27135"
       height="104.96752"
       id="rect1205-5-3-0" /><rect
       x="210.91148"
       y="157.9395"
       width="175.27135"
       height="104.96752"
       id="rect1205-5-3-0-6" /><rect
       x="210.91148"
       y="157.9395"
       width="175.27135"
       height="104.96752"
       id="rect1205-5-3-0-6-4" /><rect
       x="210.91148"
       y="157.9395"
       width="175.27135"
       height="104.96752"
       id="rect1205-5-3-0-6-4-0" /><rect
       x="210.91148"
       y="157.9395"
       width="175.27135"
       height="104.96752"
       id="rect1205-5-3-0-6-4-0-6" /><linearGradient
       inkscape:collect="always"
       xlink:href="#linearGradient16579"
       id="linearGradient16581"
       x1="408.96875"
       y1="166.43843"
       x2="566.10284"
       y2="166.43843"
       gradientUnits="userSpaceOnUse"
       gradientTransform="translate(420,130.75051)" /><linearGradient
       inkscape:collect="always"
       xlink:href="#linearGradient16579-2"
       id="linearGradient16581-1"
       x1="408.96875"
       y1="2.1855631"
       x2="408.96875"
       y2="330.69131"
       gradientUnits="userSpaceOnUse"
       gradientTransform="translate(420.00011,130.7505)" /><linearGradient
       inkscape:collect="always"
       id="linearGradient16579-2"><stop
         style="stop-color:#090909;stop-opacity:1;"
         offset="0"
         id="stop16575-9" /><stop
         style="stop-color:#2c2c2c;stop-opacity:0;"
         offset="0.02465571"
         id="stop20793-3" /><stop
         style="stop-color:#3b3b3b;stop-opacity:0;"
         offset="0.06370372"
         id="stop20795-1" /><stop
         style="stop-color:#373737;stop-opacity:0;"
         offset="0.92752731"
         id="stop22453-9" /><stop
         style="stop-color:#3b3b3b;stop-opacity:0;"
         offset="0.95184338"
         id="stop19135-4" /><stop
         style="stop-color:#151516;stop-opacity:1;"
         offset="1"
         id="stop16577-7" /></linearGradient><radialGradient
       inkscape:collect="always"
       xlink:href="#linearGradient27018"
       id="radialGradient25908"
       cx="644.03577"
       cy="241.59267"
       fx="644.03577"
       fy="241.59267"
       r="79.067032"
       gradientTransform="matrix(1.6576683,-3.8452446e-7,0,2.3809274,-159.56192,-278.02544)"
       gradientUnits="userSpaceOnUse" /></defs><sodipodi:namedview
     id="namedview4"
     pagecolor="#505050"
     bordercolor="#eeeeee"
     borderopacity="1"
     inkscape:showpageshadow="0"
     inkscape:pageopacity="0"
     inkscape:pagecheckerboard="0"
     inkscape:deskcolor="#505050"
     showgrid="false"
     inkscape:zoom="1.4142136"
     inkscape:cx="252.79067"
     inkscape:cy="233.34523"
     inkscape:window-width="960"
     inkscape:window-height="1058"
     inkscape:window-x="0"
     inkscape:window-y="0"
     inkscape:window-maximized="1"
     inkscape:current-layer="svg2" /><g
     inkscape:groupmode="layer"
     id="layer1"
     inkscape:label="Parts"><rect
       style="display:inline;fill:#131414;fill-opacity:1;stroke:#4d4d4d;stroke-width:1.27918"
       id="rect12128"
       width="156.85489"
       height="327.22656"
       x="89.428505"
       y="2.5693812"
       ry="21.483541" /><g
       id="g25913"
       transform="translate(-557.66865,-131.00627)"
       style="display:inline"><rect
         style="display:inline;fill:url(#linearGradient16581);fill-opacity:1;stroke:#4d4d4d;stroke-width:1.27918"
         id="rect12128-2"
         width="156.85489"
         height="327.22656"
         x="829.60834"
         y="133.57565"
         ry="21.483541" /><rect
         style="display:inline;fill:url(#linearGradient16581-1);fill-opacity:1;stroke:#4d4d4d;stroke-width:1.27918"
         id="rect12128-2-8"
         width="156.85489"
         height="327.22656"
         x="829.6084"
         y="133.57565"
         ry="21.483541" /><rect
         style="display:inline;fill:url(#radialGradient25908);fill-opacity:1;stroke:#4d4d4d;stroke-width:1.27918"
         id="rect12128-2-8-0"
         width="156.85489"
         height="327.22656"
         x="829.60834"
         y="133.57565"
         ry="21.483541" /></g><rect
       style="fill:#4b4a4b;fill-opacity:1;stroke:#333333;stroke-width:1.49516;stroke-linecap:butt;stroke-linejoin:round"
       id="rect25971"
       width="43.892059"
       height="18.508438"
       x="300.56616"
       y="8.0539703"
       ry="9.2542191" /><g
       class="a"
       id="g26"
       style="isolation:isolate;fill:#ffffff"
       transform="matrix(0.13568262,0,0,0.13568262,320.03807,12.331487)"><path
         class="b"
         d="m 239.073,61.61 3.738,9.374 -12.121,-5.347 z"
         transform="translate(-199.243,-53.212)"
         id="path6"
         style="fill:#ffffff" /><path
         class="c"
         d="m 229.33,163.263 19,-8.343 v 16.767 z"
         transform="translate(-198.069,-133.802)"
         id="path8"
         style="fill:#ffffff" /><path
         class="d"
         d="m 227.81,296.973 15.859,6.979 7.268,-16.643 z"
         transform="translate(-196.756,-248.145)"
         id="path10"
         style="fill:#ffffff" /><path
         class="e"
         d="M 152.633,10.342 146.85,7.789 153.928,0 h -0.011 l 7.078,7.789 -5.823,2.571 a 3.282,3.282 0 0 1 -0.363,0.147 c -0.079,0.027 -0.155,0.05 -0.23,0.07 a 2.365,2.365 0 0 1 -1.088,0.02 c -0.059,-0.012 -0.119,-0.026 -0.179,-0.041 a 5.974,5.974 0 0 1 -0.6,-0.181 c -0.025,-0.01 -0.052,-0.02 -0.079,-0.033 z"
         transform="translate(-126.832)"
         id="path12"
         style="fill:#ffffff" /><path
         class="b"
         d="m 81.6,61.61 -3.74,9.374 12.12,-5.348 z"
         transform="translate(-67.246,-53.212)"
         id="path14"
         style="fill:#ffffff" /><path
         class="b"
         d="m 89.856,114.695 a 1.412,1.412 0 0 1 -0.243,-0.082 L 73.3,107.5 v 0 l 16.351,-7.127 a 1.4,1.4 0 0 1 0.209,-0.074 2.327,2.327 0 0 1 0.543,-0.063 2.218,2.218 0 0 1 0.532,0.063 1.46,1.46 0 0 1 0.209,0.074 l 16.351,7.127 v 0 q -8.159,3.556 -16.318,7.113 a 1.435,1.435 0 0 1 -0.211,0.074 h -0.005 a 2.2,2.2 0 0 1 -1.028,0.022 z"
         transform="translate(-63.308,-86.576)"
         id="path16"
         style="fill:#ffffff" /><path
         class="c"
         d="m 47.777,163.263 -19,-8.343 v 16.767 z"
         transform="translate(-24.857,-133.802)"
         id="path18"
         style="fill:#ffffff" /><path
         class="d"
         d="M 23.126,296.973 7.268,303.953 0,287.31 Z"
         transform="translate(0,-248.145)"
         id="path20"
         style="fill:#ffffff" /><path
         class="d"
         d="m 90.662,368.291 a 1.821,1.821 0 0 0 -0.281,0.044 3.462,3.462 0 0 0 -0.552,0.17 l -16.209,7.226 14.841,6.554 a 0.634,0.634 0 0 1 0.378,0.579 v 8.58 h 3.674 v -8.58 a 0.634,0.634 0 0 1 0.378,-0.579 l 14.841,-6.554 -16.211,-7.231 a 3.414,3.414 0 0 0 -0.552,-0.17 1.843,1.843 0 0 0 -0.281,-0.044"
         transform="translate(-63.584,-318.086)"
         id="path22"
         style="fill:#ffffff" /><path
         class="c"
         d="m 75.246,243.634 c -0.438,-0.2 -8.175,-3.531 -18.816,-8.115 0,0 18,-7.82 18.538,-8.054 a 2.216,2.216 0 0 1 1.723,0 c 0.543,0.232 18.538,8.054 18.538,8.054 l -18.816,8.115 a 1.724,1.724 0 0 1 -0.484,0.123 0.715,0.715 0 0 1 -0.187,0 1.933,1.933 0 0 1 -0.496,-0.123 z"
         transform="translate(-48.738,-196.308)"
         id="path24"
         style="fill:#ffffff" /></g><path
       style="fill:#666666;fill-opacity:1;stroke:none;stroke-width:1.27918;stroke-linecap:butt;stroke-linejoin:round"
       d="m 113.07707,3.1943807 c 0,0 74.88214,-0.015165 112.32321,-0.015165 7.23845,0 20.23182,5.6251694 20.23182,21.1680603 0,22.749996 0.0114,48.722106 0.0114,48.722106 z"
       id="path13843"
       sodipodi:nodetypes="csscc" /><rect
       style="display:inline;fill:#181818;fill-opacity:1;stroke:none;stroke-width:0.439228"
       id="rect8833"
       width="141.1875"
       height="280.62686"
       x="97.012192"
       y="25.500004" /><circle
       style="fill:#727273;fill-opacity:1;stroke:none;stroke-width:0.440782"
       id="path10649"
       cx="191.73094"
       cy="14.0625"
       r="3.03125" /><circle
       style="fill:#5b5b5b;fill-opacity:1;stroke:none;stroke-width:0.61346"
       id="path10649-0"
       cx="311.00903"
       cy="17.308189"
       r="4.21875" /><circle
       style="fill:#c2c2c2;fill-opacity:1;stroke:none;stroke-width:0.468047"
       id="path10649-0-2"
       cx="336.76221"
       cy="17.308189"
       r="3.21875" /><rect
       style="fill:#303030;fill-opacity:1;stroke:none;stroke-width:0.440782"
       id="rect11393"
       width="20.506096"
       height="2.8284271"
       x="157.11028"
       y="12.648287" /><ellipse
       style="fill:#303030;fill-opacity:1;stroke:none;stroke-width:0.318107"
       id="path11999"
       cx="177.61638"
       cy="14.0625"
       rx="0.55242497"
       ry="1.4142137" /><ellipse
       style="fill:#303030;fill-opacity:1;stroke:none;stroke-width:0.318107"
       id="path11999-7"
       cx="157.11028"
       cy="14.0625"
       rx="0.55242497"
       ry="1.4142137" /><rect
       style="fill:#303030;fill-opacity:1;stroke:none;stroke-width:0.341428"
       id="rect12104"
       width="1.3258252"
       height="20.329321"
       x="246.92297"
       y="112.60674" /><rect
       style="fill:#303030;fill-opacity:1;stroke:none;stroke-width:0.481801"
       id="rect12104-9"
       width="1.3258252"
       height="40.481865"
       x="246.92297"
       y="57.098873" /><rect
       style="fill:#303030;fill-opacity:1;stroke:none;stroke-width:0.341428"
       id="rect12104-3"
       width="1.3258252"
       height="20.329321"
       x="269.84927"
       y="112.60674" /><rect
       style="fill:#303030;fill-opacity:1;stroke:none;stroke-width:0.481801"
       id="rect12104-9-7"
       width="1.3258252"
       height="40.481865"
       x="269.84927"
       y="57.098873" /></g></svg>
