<?xml version="1.0" encoding="UTF-8" standalone="no"?>
<!-- Created with Inkscape (http://www.inkscape.org/) -->

<svg
   version="1.1"
   id="svg2"
   width="511.5687"
   height="332.87686"
   viewBox="0 0 511.56869 332.87686"
   sodipodi:docname="pinetime.svg"
   inkscape:version="1.2.2 (b0a8486541, 2022-12-01)"
   inkscape:export-filename="pinetime.png"
   inkscape:export-xdpi="96"
   inkscape:export-ydpi="96"
   xml:space="preserve"
   xmlns:inkscape="http://www.inkscape.org/namespaces/inkscape"
   xmlns:sodipodi="http://sodipodi.sourceforge.net/DTD/sodipodi-0.dtd"
   xmlns="http://www.w3.org/2000/svg"
   xmlns:svg="http://www.w3.org/2000/svg"><defs
     id="defs6"><rect
       x="210.91148"
       y="157.9395"
       width="175.27135"
       height="104.96752"
       id="rect1205" /><rect
       x="210.91148"
       y="157.9395"
       width="175.27135"
       height="104.96752"
       id="rect1205-5" /><rect
       x="210.91148"
       y="157.9395"
       width="175.27135"
       height="104.96752"
       id="rect1205-5-3" /><rect
       x="210.91148"
       y="157.9395"
       width="175.27135"
       height="104.96752"
       id="rect1205-5-3-0" /><rect
       x="210.91148"
       y="157.9395"
       width="175.27135"
       height="104.96752"
       id="rect1205-5-3-0-6" /><rect
       x="210.91148"
       y="157.9395"
       width="175.27135"
       height="104.96752"
       id="rect1205-5-3-0-6-4" /><rect
       x="210.91148"
       y="157.9395"
       width="175.27135"
       height="104.96752"
       id="rect1205-5-3-0-6-4-0" /><rect
       x="210.91148"
       y="157.9395"
       width="175.27135"
       height="104.96752"
       id="rect1205-5-3-0-6-4-0-6" /></defs><sodipodi:namedview
     id="namedview4"
     pagecolor="#505050"
     bordercolor="#eeeeee"
     borderopacity="1"
     inkscape:showpageshadow="0"
     inkscape:pageopacity="0"
     inkscape:pagecheckerboard="0"
     inkscape:deskcolor="#505050"
     showgrid="false"
     inkscape:zoom="1"
     inkscape:cx="221.5"
     inkscape:cy="30"
     inkscape:window-width="1920"
     inkscape:window-height="1058"
     inkscape:window-x="0"
     inkscape:window-y="0"
     inkscape:window-maximized="1"
     inkscape:current-layer="svg2" /><rect
     style="fill:#1a1a1a;fill-opacity:1;stroke:none;stroke-width:21.3705;stroke-linejoin:round;stroke-opacity:1"
     id="rect16913"
     width="87.396957"
     height="332.52509"
     x="207.22911"
     y="5.5511151e-15"
     ry="8.0591888" /><rect
     style="fill:#1a1a1a;fill-opacity:1;stroke:none;stroke-width:6.8209;stroke-linejoin:round;stroke-opacity:1"
     id="rect16858"
     width="11.469575"
     height="44.440372"
     x="147.9877"
     y="143.07556"
     ry="5.4639802" /><path
     id="rect2619-7"
     style="fill:#343636;stroke-width:9.33226;stroke-linejoin:round"
     d="m 186.8971,62.761183 c 20.33201,-2.828427 42.66767,-2.703405 64.03003,-2.703405 21.36236,0 42.50991,-0.05389 64.03003,2.703405 17.10681,2.19183 27.74211,14.220743 31.13114,31.131135 4.5,22.453822 4.00128,46.289492 4.0551,69.493242 0.0585,25.20826 -1.04479,50.13169 -4.0551,75.51619 -2.03102,17.12664 -13.98932,29.23247 -31.13114,31.13113 -23.09516,2.55806 -45.98593,2.50126 -69.00018,2.43307 -19.70324,-0.0583 -39.49478,0.0131 -59.05988,-2.43307 -17.1134,-2.13968 -28.27471,-14.12267 -31.13113,-31.13113 -4.15425,-24.73634 -4.05511,-48.29871 -4.05511,-72.50472 0,-24.20601 -0.17159,-48.46148 4.05511,-72.504712 2.9861,-16.986174 14.04898,-28.754802 31.13113,-31.131135 z"
     sodipodi:nodetypes="sssssssssssss" /><rect
     style="fill:#000000;fill-opacity:1;stroke:#1a1a1a;stroke-width:8.36828;stroke-linejoin:round;stroke-opacity:1"
     id="rect2619"
     width="170.66322"
     height="185.86183"
     x="165.59552"
     y="73.466118"
     ry="27.915482" /><g
     class="a"
     id="g26"
     style="isolation:isolate;fill:#ffffff"
     transform="matrix(1.6130722,0,0,1.6130722,207.2282,107.10618)"><path
       class="b"
       d="m 239.073,61.61 3.738,9.374 -12.121,-5.347 z"
       transform="translate(-199.243,-53.212)"
       id="path6"
       style="fill:#ffffff" /><path
       class="c"
       d="m 229.33,163.263 19,-8.343 v 16.767 z"
       transform="translate(-198.069,-133.802)"
       id="path8"
       style="fill:#ffffff" /><path
       class="d"
       d="m 227.81,296.973 15.859,6.979 7.268,-16.643 z"
       transform="translate(-196.756,-248.145)"
       id="path10"
       style="fill:#ffffff" /><path
       class="e"
       d="M 152.633,10.342 146.85,7.789 153.928,0 h -0.011 l 7.078,7.789 -5.823,2.571 a 3.282,3.282 0 0 1 -0.363,0.147 c -0.079,0.027 -0.155,0.05 -0.23,0.07 a 2.365,2.365 0 0 1 -1.088,0.02 c -0.059,-0.012 -0.119,-0.026 -0.179,-0.041 a 5.974,5.974 0 0 1 -0.6,-0.181 c -0.025,-0.01 -0.052,-0.02 -0.079,-0.033 z"
       transform="translate(-126.832)"
       id="path12"
       style="fill:#ffffff" /><path
       class="b"
       d="m 81.6,61.61 -3.74,9.374 12.12,-5.348 z"
       transform="translate(-67.246,-53.212)"
       id="path14"
       style="fill:#ffffff" /><path
       class="b"
       d="m 89.856,114.695 a 1.412,1.412 0 0 1 -0.243,-0.082 L 73.3,107.5 v 0 l 16.351,-7.127 a 1.4,1.4 0 0 1 0.209,-0.074 2.327,2.327 0 0 1 0.543,-0.063 2.218,2.218 0 0 1 0.532,0.063 1.46,1.46 0 0 1 0.209,0.074 l 16.351,7.127 v 0 q -8.159,3.556 -16.318,7.113 a 1.435,1.435 0 0 1 -0.211,0.074 h -0.005 a 2.2,2.2 0 0 1 -1.028,0.022 z"
       transform="translate(-63.308,-86.576)"
       id="path16"
       style="fill:#ffffff" /><path
       class="c"
       d="m 47.777,163.263 -19,-8.343 v 16.767 z"
       transform="translate(-24.857,-133.802)"
       id="path18"
       style="fill:#ffffff" /><path
       class="d"
       d="M 23.126,296.973 7.268,303.953 0,287.31 Z"
       transform="translate(0,-248.145)"
       id="path20"
       style="fill:#ffffff" /><path
       class="d"
       d="m 90.662,368.291 a 1.821,1.821 0 0 0 -0.281,0.044 3.462,3.462 0 0 0 -0.552,0.17 l -16.209,7.226 14.841,6.554 a 0.634,0.634 0 0 1 0.378,0.579 v 8.58 h 3.674 v -8.58 a 0.634,0.634 0 0 1 0.378,-0.579 l 14.841,-6.554 -16.211,-7.231 a 3.414,3.414 0 0 0 -0.552,-0.17 1.843,1.843 0 0 0 -0.281,-0.044"
       transform="translate(-63.584,-318.086)"
       id="path22"
       style="fill:#ffffff" /><path
       class="c"
       d="m 75.246,243.634 c -0.438,-0.2 -8.175,-3.531 -18.816,-8.115 0,0 18,-7.82 18.538,-8.054 a 2.216,2.216 0 0 1 1.723,0 c 0.543,0.232 18.538,8.054 18.538,8.054 l -18.816,8.115 a 1.724,1.724 0 0 1 -0.484,0.123 0.715,0.715 0 0 1 -0.187,0 1.933,1.933 0 0 1 -0.496,-0.123 z"
       transform="translate(-48.738,-196.308)"
       id="path24"
       style="fill:#ffffff" /></g></svg>
