<?xml version="1.0" encoding="UTF-8"?>
<!DOCTYPE svg PUBLIC "-//W3C//DTD SVG 1.1//EN" "http://www.w3.org/Graphics/SVG/1.1/DTD/svg11.dtd">
<!-- Creator: CorelDRAW 2018 (64-Bit) -->
<svg xmlns="http://www.w3.org/2000/svg" xml:space="preserve" width="211px" height="83px" version="1.1" style="shape-rendering:geometricPrecision; text-rendering:geometricPrecision; image-rendering:optimizeQuality; fill-rule:evenodd; clip-rule:evenodd" viewBox="0 0 132.237 51.932" xmlns:xlink="http://www.w3.org/1999/xlink">
 <defs>
  <style type="text/css">
   <![CDATA[
    .fil0 {fill:#194894;fill-rule:nonzero}
    .fil1 {fill:#F26E44;fill-rule:nonzero}
   ]]>
  </style>
 </defs>
 <g id="Layer_x0020_1">
  <metadata id="CorelCorpID_0Corel-Layer"/>
  <g id="_1844439141168">
   <polygon class="fil0" points="76.48,28.229 76.48,41.384 69.05,41.384 69.05,13.766 76.51,13.766 84.185,26.95 84.185,13.766 91.615,13.766 91.615,41.384 84.185,41.384 84.185,41.384 84.135,41.384 "/>
   <polygon class="fil0" points="101.397,30.088 108.73,30.088 108.73,24.099 101.397,24.099 101.397,19.856 108.586,19.856 111.975,13.766 93.935,13.766 93.935,41.384 111.919,41.384 111.919,35.301 101.397,35.301 "/>
   <polygon class="fil0" points="114.312,13.766 110.916,19.868 118.05,19.868 118.05,41.384 125.511,41.384 125.511,19.868 132.237,19.868 132.237,13.766 "/>
   <polygon class="fil0" points="49.591,25.539 43.042,13.766 51.606,13.766 53.872,17.841 "/>
   <polygon class="fil0" points="60.419,29.612 66.967,41.384 58.404,41.384 56.138,37.31 "/>
  </g>
  <path class="fil1" d="M7.462 29.823l0 5.8 2.399 0c2.33,0 3.494,-0.983 3.494,-2.948 0,-2.09 -1.611,-2.852 -3.645,-2.852l-2.248 0zm22.744 0l0 5.8 2.399 0c2.33,0 3.495,-0.983 3.495,-2.948 0,-2.09 -1.612,-2.852 -3.646,-2.852l-2.248 0zm35.111 -28.042l-28.139 50.077 8.564 0 26.208 -46.638 -1.489 -5.22 -5.144 1.781zm-35.111 22.583l2.021 0c1.863,0 3.363,-0.682 3.363,-2.626 0,-1.549 -1.171,-2.324 -3.514,-2.324l-1.87 0 0 4.95zm-7.462 -10.598l9.407 0c3.753,0 6.54,0.558 8.36,1.672 1.819,1.114 2.73,2.849 2.73,5.204 0,1.549 -0.397,2.871 -1.191,3.967 -0.793,1.096 -1.838,1.801 -3.135,2.116l0 0.189c1.712,0.453 2.953,1.209 3.721,2.267 0.768,1.058 1.153,2.431 1.153,4.118 0,2.506 -0.942,4.48 -2.824,5.922 -1.884,1.443 -4.449,2.163 -7.698,2.163l-10.523 0 0 -27.618zm-15.282 10.598l2.021 0c1.863,0 3.363,-0.683 3.363,-2.626 0,-1.549 -1.171,-2.324 -3.514,-2.324l-1.87 0 0 4.95zm-7.462 -10.598l9.408 0c3.753,0 6.539,0.558 8.358,1.672 1.821,1.114 2.731,2.849 2.731,5.204 0,1.549 -0.397,2.871 -1.19,3.967 -0.794,1.096 -1.84,1.801 -3.136,2.116l0 0.189c1.712,0.453 2.953,1.209 3.721,2.267 0.768,1.058 1.153,2.431 1.153,4.118 0,2.506 -0.942,4.48 -2.825,5.922 -1.883,1.443 -4.448,2.163 -7.698,2.163l-10.522 0 0 -27.618z"/>
  <path class="fil0" d="M55.611 46.719c0,-0.024 0.009,-0.046 0.026,-0.063 0.018,-0.018 0.039,-0.026 0.064,-0.026l0.876 0c0.025,0 0.046,0.008 0.064,0.026 0.017,0.017 0.026,0.039 0.026,0.063l0 5.063c0,0.026 -0.009,0.047 -0.026,0.064 -0.018,0.018 -0.039,0.026 -0.064,0.026l-0.876 0c-0.025,0 -0.046,-0.008 -0.064,-0.026 -0.017,-0.017 -0.026,-0.038 -0.026,-0.064l0 -2.067c0,-0.024 -0.013,-0.037 -0.037,-0.037l-1.656 0c-0.025,0 -0.037,0.013 -0.037,0.037l0 2.067c0,0.026 -0.009,0.047 -0.026,0.064 -0.018,0.018 -0.039,0.026 -0.064,0.026l-0.876 0c-0.025,0 -0.046,-0.008 -0.064,-0.026 -0.017,-0.017 -0.026,-0.038 -0.026,-0.064l0 -5.063c0,-0.024 0.009,-0.046 0.026,-0.063 0.018,-0.018 0.039,-0.026 0.064,-0.026l0.876 0c0.025,0 0.046,0.008 0.064,0.026 0.017,0.017 0.026,0.039 0.026,0.063l0 2.015c0,0.025 0.012,0.038 0.037,0.038l1.656 0c0.024,0 0.037,-0.013 0.037,-0.038l0 -2.015zm5.284 5.153c-0.05,0 -0.085,-0.022 -0.105,-0.067l-0.936 -2.075c-0.01,-0.02 -0.025,-0.03 -0.045,-0.03l-0.697 0c-0.025,0 -0.037,0.013 -0.037,0.038l0 2.044c0,0.026 -0.009,0.047 -0.026,0.064 -0.018,0.018 -0.039,0.026 -0.064,0.026l-0.876 0c-0.026,0 -0.047,-0.008 -0.064,-0.026 -0.018,-0.017 -0.026,-0.038 -0.026,-0.064l0 -5.063c0,-0.024 0.008,-0.046 0.026,-0.063 0.017,-0.018 0.038,-0.026 0.064,-0.026l2.142 0c0.319,0 0.6,0.065 0.842,0.194 0.242,0.13 0.43,0.315 0.562,0.555 0.132,0.239 0.198,0.516 0.198,0.831 0,0.34 -0.084,0.63 -0.254,0.872 -0.17,0.243 -0.407,0.414 -0.712,0.514 -0.025,0.01 -0.032,0.027 -0.022,0.052l1.018 2.12c0.01,0.019 0.015,0.034 0.015,0.045 0,0.039 -0.027,0.059 -0.082,0.059l-0.921 0zm-1.783 -4.336c-0.025,0 -0.037,0.012 -0.037,0.037l0 1.281c0,0.025 0.012,0.038 0.037,0.038l0.981 0c0.21,0 0.381,-0.063 0.513,-0.188 0.133,-0.125 0.199,-0.287 0.199,-0.486 0,-0.2 -0.066,-0.364 -0.199,-0.491 -0.132,-0.128 -0.303,-0.191 -0.513,-0.191l-0.981 0zm4.086 4.336c-0.026,0 -0.047,-0.008 -0.064,-0.026 -0.018,-0.017 -0.026,-0.038 -0.026,-0.064l0 -5.063c0,-0.024 0.008,-0.046 0.026,-0.063 0.017,-0.018 0.038,-0.026 0.064,-0.026l1.872 0c0.374,0 0.703,0.066 0.985,0.198 0.282,0.133 0.5,0.318 0.655,0.558 0.155,0.24 0.232,0.517 0.232,0.832l0 2.067c0,0.314 -0.077,0.591 -0.232,0.831 -0.155,0.24 -0.373,0.426 -0.655,0.558 -0.282,0.132 -0.611,0.198 -0.985,0.198l-1.872 0zm0.966 -0.943c0,0.025 0.012,0.037 0.037,0.037l0.906 0c0.23,0 0.416,-0.077 0.558,-0.232 0.143,-0.155 0.216,-0.362 0.221,-0.622l0 -1.722c0,-0.26 -0.071,-0.467 -0.213,-0.622 -0.143,-0.155 -0.333,-0.232 -0.573,-0.232l-0.899 0c-0.025,0 -0.037,0.012 -0.037,0.037l0 3.356zm4.153 0.943c-0.026,0 -0.047,-0.008 -0.064,-0.026 -0.018,-0.017 -0.026,-0.038 -0.026,-0.064l0 -5.063c0,-0.024 0.008,-0.046 0.026,-0.063 0.017,-0.018 0.038,-0.026 0.064,-0.026l0.876 0c0.025,0 0.046,0.008 0.063,0.026 0.018,0.017 0.027,0.039 0.027,0.063l0 5.063c0,0.026 -0.009,0.047 -0.027,0.064 -0.017,0.018 -0.038,0.026 -0.063,0.026l-0.876 0zm5.38 -5.153c0,-0.024 0.009,-0.046 0.027,-0.063 0.017,-0.018 0.038,-0.026 0.063,-0.026l0.877 0c0.025,0 0.046,0.008 0.063,0.026 0.018,0.017 0.027,0.039 0.027,0.063l0 5.063c0,0.026 -0.009,0.047 -0.027,0.064 -0.017,0.018 -0.038,0.026 -0.063,0.026l-0.847 0c-0.05,0 -0.084,-0.02 -0.104,-0.059l-1.94 -3.206c-0.01,-0.015 -0.02,-0.021 -0.03,-0.019 -0.01,0.003 -0.015,0.014 -0.015,0.034l0.015 3.16c0,0.026 -0.009,0.047 -0.026,0.064 -0.018,0.018 -0.039,0.026 -0.064,0.026l-0.876 0c-0.025,0 -0.047,-0.008 -0.064,-0.026 -0.017,-0.017 -0.026,-0.038 -0.026,-0.064l0 -5.063c0,-0.024 0.009,-0.046 0.026,-0.063 0.017,-0.018 0.039,-0.026 0.064,-0.026l0.846 0c0.05,0 0.085,0.02 0.105,0.06l1.932 3.19c0.01,0.015 0.02,0.022 0.03,0.019 0.01,-0.003 0.015,-0.014 0.015,-0.034l-0.008 -3.146zm4.258 5.213c-0.399,0 -0.749,-0.063 -1.048,-0.191 -0.3,-0.127 -0.531,-0.309 -0.693,-0.546 -0.162,-0.238 -0.243,-0.513 -0.243,-0.828l0 -0.165c0,-0.025 0.008,-0.046 0.026,-0.063 0.017,-0.018 0.039,-0.027 0.063,-0.027l0.854 0c0.025,0 0.046,0.009 0.064,0.027 0.017,0.017 0.026,0.038 0.026,0.063l0 0.112c0,0.2 0.092,0.369 0.277,0.506 0.185,0.137 0.435,0.206 0.749,0.206 0.265,0 0.462,-0.056 0.592,-0.168 0.13,-0.113 0.195,-0.251 0.195,-0.416 0,-0.12 -0.04,-0.221 -0.12,-0.303 -0.08,-0.083 -0.189,-0.155 -0.326,-0.218 -0.137,-0.062 -0.356,-0.148 -0.655,-0.258 -0.335,-0.115 -0.618,-0.232 -0.85,-0.352 -0.233,-0.12 -0.427,-0.283 -0.585,-0.491 -0.157,-0.207 -0.235,-0.463 -0.235,-0.767 0,-0.3 0.077,-0.562 0.232,-0.787 0.154,-0.224 0.369,-0.397 0.644,-0.516 0.274,-0.12 0.591,-0.18 0.951,-0.18 0.379,0 0.718,0.067 1.015,0.202 0.297,0.135 0.529,0.323 0.696,0.565 0.168,0.243 0.251,0.524 0.251,0.843l0 0.112c0,0.025 -0.009,0.047 -0.026,0.064 -0.017,0.017 -0.039,0.026 -0.064,0.026l-0.861 0c-0.025,0 -0.046,-0.009 -0.064,-0.026 -0.017,-0.017 -0.026,-0.039 -0.026,-0.064l0 -0.06c0,-0.209 -0.086,-0.388 -0.258,-0.535 -0.173,-0.147 -0.409,-0.221 -0.708,-0.221 -0.235,0 -0.418,0.05 -0.55,0.15 -0.133,0.1 -0.199,0.237 -0.199,0.412 0,0.124 0.039,0.229 0.116,0.314 0.078,0.085 0.192,0.161 0.345,0.229 0.152,0.067 0.388,0.158 0.707,0.273 0.355,0.13 0.633,0.245 0.836,0.345 0.202,0.099 0.384,0.248 0.546,0.445 0.163,0.197 0.244,0.453 0.244,0.768 0,0.469 -0.173,0.84 -0.517,1.112 -0.345,0.272 -0.811,0.408 -1.401,0.408zm3.239 -0.06c-0.025,0 -0.046,-0.008 -0.063,-0.026 -0.018,-0.017 -0.026,-0.038 -0.026,-0.064l0 -5.063c0,-0.024 0.008,-0.046 0.026,-0.063 0.017,-0.018 0.038,-0.026 0.063,-0.026l0.877 0c0.025,0 0.046,0.008 0.063,0.026 0.018,0.017 0.026,0.039 0.026,0.063l0 2.098c0,0.015 0.005,0.023 0.015,0.026 0.01,0.002 0.021,-0.001 0.031,-0.011l1.73 -2.15c0.029,-0.035 0.067,-0.052 0.112,-0.052l0.989 0c0.039,0 0.064,0.011 0.074,0.033 0.01,0.023 0.005,0.049 -0.015,0.079l-1.67 2.135c-0.015,0.02 -0.017,0.037 -0.007,0.052l1.767 2.839c0.01,0.029 0.015,0.047 0.015,0.052 0,0.035 -0.025,0.052 -0.075,0.052l-0.988 0c-0.05,0 -0.085,-0.02 -0.105,-0.059l-1.333 -2.158c-0.005,-0.01 -0.013,-0.015 -0.023,-0.015 -0.01,0 -0.02,0.005 -0.03,0.015l-0.472 0.592c-0.01,0.02 -0.015,0.035 -0.015,0.045l0 1.49c0,0.026 -0.008,0.047 -0.026,0.064 -0.017,0.018 -0.038,0.026 -0.063,0.026l-0.877 0zm6.505 -0.007c-0.025,0 -0.046,-0.009 -0.064,-0.026 -0.017,-0.018 -0.026,-0.039 -0.026,-0.064l0 -1.895c0,-0.02 -0.002,-0.035 -0.007,-0.045l-1.543 -3.1c-0.01,-0.021 -0.015,-0.036 -0.015,-0.045 0,-0.04 0.027,-0.06 0.082,-0.06l0.944 0c0.05,0 0.085,0.022 0.105,0.067l0.936 1.992c0.015,0.03 0.03,0.03 0.045,0l0.936 -1.992c0.02,-0.045 0.055,-0.067 0.105,-0.067l0.958 0c0.036,0 0.059,0.008 0.072,0.026 0.012,0.017 0.011,0.043 -0.004,0.079l-1.558 3.1c-0.005,0.01 -0.007,0.025 -0.007,0.045l0 1.895c0,0.025 -0.009,0.046 -0.027,0.064 -0.017,0.017 -0.038,0.026 -0.063,0.026l-0.869 0zm0.022 -5.692c-0.035,0 -0.057,-0.01 -0.067,-0.03 -0.01,-0.02 -0.008,-0.045 0.007,-0.075l0.397 -0.757c0.02,-0.044 0.058,-0.067 0.113,-0.067l0.756 0c0.035,0 0.059,0.011 0.071,0.034 0.013,0.022 0.009,0.048 -0.011,0.078l-0.532 0.757c-0.025,0.04 -0.059,0.06 -0.105,0.06l-0.629 0zm8.182 0.546c0,-0.024 0.009,-0.046 0.027,-0.063 0.017,-0.018 0.038,-0.026 0.063,-0.026l0.877 0c0.025,0 0.046,0.008 0.063,0.026 0.018,0.017 0.027,0.039 0.027,0.063l0 5.063c0,0.026 -0.009,0.047 -0.027,0.064 -0.017,0.018 -0.038,0.026 -0.063,0.026l-0.847 0c-0.05,0 -0.084,-0.02 -0.104,-0.059l-1.94 -3.206c-0.01,-0.015 -0.02,-0.021 -0.03,-0.019 -0.01,0.003 -0.015,0.014 -0.015,0.034l0.015 3.16c0,0.026 -0.009,0.047 -0.026,0.064 -0.018,0.018 -0.039,0.026 -0.064,0.026l-0.876 0c-0.025,0 -0.047,-0.008 -0.064,-0.026 -0.017,-0.017 -0.026,-0.038 -0.026,-0.064l0 -5.063c0,-0.024 0.009,-0.046 0.026,-0.063 0.017,-0.018 0.039,-0.026 0.064,-0.026l0.846 0c0.05,0 0.085,0.02 0.105,0.06l1.932 3.19c0.01,0.015 0.02,0.022 0.03,0.019 0.01,-0.003 0.015,-0.014 0.015,-0.034l-0.008 -3.146zm6.056 0.727c0,0.025 -0.009,0.046 -0.027,0.064 -0.017,0.017 -0.038,0.026 -0.063,0.026l-2.457 0c-0.025,0 -0.037,0.012 -0.037,0.037l0 1.161c0,0.025 0.012,0.038 0.037,0.038l1.61 0c0.025,0 0.047,0.009 0.064,0.026 0.017,0.017 0.026,0.039 0.026,0.063l0 0.727c0,0.025 -0.009,0.046 -0.026,0.064 -0.017,0.017 -0.039,0.026 -0.064,0.026l-1.61 0c-0.025,0 -0.037,0.013 -0.037,0.037l0 1.214c0,0.025 0.012,0.037 0.037,0.037l2.457 0c0.025,0 0.046,0.009 0.063,0.026 0.018,0.018 0.027,0.039 0.027,0.064l0 0.726c0,0.026 -0.009,0.047 -0.027,0.064 -0.017,0.018 -0.038,0.026 -0.063,0.026l-3.46 0c-0.026,0 -0.047,-0.008 -0.064,-0.026 -0.018,-0.017 -0.026,-0.038 -0.026,-0.064l0 -5.063c0,-0.024 0.008,-0.046 0.026,-0.063 0.017,-0.018 0.038,-0.026 0.064,-0.026l3.46 0c0.025,0 0.046,0.008 0.063,0.026 0.018,0.017 0.027,0.039 0.027,0.063l0 0.727zm4.841 -0.816c0.026,0 0.047,0.008 0.064,0.026 0.018,0.017 0.026,0.039 0.026,0.063l0 0.735c0,0.024 -0.008,0.046 -0.026,0.063 -0.017,0.018 -0.038,0.026 -0.064,0.026l-1.34 0c-0.025,0 -0.038,0.013 -0.038,0.038l0 4.201c0,0.026 -0.008,0.047 -0.026,0.064 -0.017,0.018 -0.038,0.026 -0.064,0.026l-0.876 0c-0.025,0 -0.046,-0.008 -0.063,-0.026 -0.018,-0.017 -0.027,-0.038 -0.027,-0.064l0 -4.201c0,-0.025 -0.012,-0.038 -0.037,-0.038l-1.303 0c-0.025,0 -0.046,-0.008 -0.064,-0.026 -0.017,-0.017 -0.026,-0.039 -0.026,-0.063l0 -0.735c0,-0.024 0.009,-0.046 0.026,-0.063 0.018,-0.018 0.039,-0.026 0.064,-0.026l3.774 0zm7.194 5.13c0.02,0.03 0.03,0.05 0.03,0.06 0,0.035 -0.028,0.052 -0.082,0.052l-0.982 0c-0.044,0 -0.082,-0.017 -0.112,-0.052l-0.292 -0.315c-0.01,-0.014 -0.028,-0.017 -0.052,-0.007 -0.465,0.289 -0.964,0.434 -1.498,0.434 -0.47,0 -0.86,-0.111 -1.173,-0.333 -0.312,-0.222 -0.468,-0.55 -0.468,-0.985 0,-0.334 0.09,-0.617 0.27,-0.846 0.18,-0.23 0.424,-0.437 0.734,-0.622 0.03,-0.02 0.032,-0.037 0.007,-0.052 -0.249,-0.305 -0.414,-0.541 -0.494,-0.708 -0.08,-0.167 -0.12,-0.346 -0.12,-0.536 0,-0.234 0.064,-0.45 0.191,-0.647 0.128,-0.198 0.307,-0.352 0.54,-0.465 0.232,-0.112 0.498,-0.168 0.797,-0.168 0.305,0 0.578,0.057 0.82,0.172 0.243,0.115 0.431,0.276 0.566,0.483 0.135,0.207 0.202,0.443 0.202,0.708 0,0.309 -0.086,0.578 -0.258,0.805 -0.173,0.227 -0.406,0.433 -0.701,0.618 -0.025,0.015 -0.027,0.032 -0.007,0.052l0.667 0.757c0.02,0.02 0.039,0.02 0.059,0 0.19,-0.21 0.345,-0.41 0.465,-0.599 0.03,-0.055 0.07,-0.065 0.119,-0.03l0.652 0.367c0.055,0.03 0.068,0.069 0.038,0.12 -0.21,0.329 -0.43,0.616 -0.659,0.861 -0.016,0.015 -0.01,0.037 0.015,0.067l0.726 0.809zm-2.681 -4.231c-0.15,0 -0.27,0.038 -0.36,0.116 -0.09,0.077 -0.135,0.18 -0.135,0.31 0,0.07 0.025,0.148 0.075,0.232 0.05,0.085 0.16,0.23 0.33,0.435 0.01,0.02 0.027,0.025 0.052,0.015 0.18,-0.115 0.316,-0.225 0.409,-0.33 0.092,-0.104 0.138,-0.222 0.138,-0.352 0,-0.13 -0.047,-0.233 -0.142,-0.31 -0.095,-0.078 -0.217,-0.116 -0.367,-0.116zm-0.27 3.52c0.24,0 0.509,-0.085 0.809,-0.255 0.03,-0.02 0.032,-0.038 0.007,-0.053l-0.232 -0.262 -0.172 -0.187c-0.11,-0.115 -0.237,-0.254 -0.382,-0.419 -0.01,-0.015 -0.027,-0.018 -0.052,-0.008 -0.18,0.11 -0.317,0.215 -0.412,0.315 -0.095,0.1 -0.15,0.214 -0.165,0.344 -0.005,0.015 -0.007,0.04 -0.007,0.075 0,0.135 0.056,0.244 0.168,0.326 0.112,0.082 0.258,0.124 0.438,0.124zm9.395 -4.419c0.026,0 0.047,0.008 0.064,0.026 0.018,0.017 0.026,0.039 0.026,0.063l0 0.735c0,0.024 -0.008,0.046 -0.026,0.063 -0.017,0.018 -0.038,0.026 -0.064,0.026l-1.34 0c-0.025,0 -0.038,0.013 -0.038,0.038l0 4.201c0,0.026 -0.008,0.047 -0.026,0.064 -0.017,0.018 -0.038,0.026 -0.063,0.026l-0.877 0c-0.025,0 -0.046,-0.008 -0.063,-0.026 -0.018,-0.017 -0.026,-0.038 -0.026,-0.064l0 -4.201c0,-0.025 -0.013,-0.038 -0.038,-0.038l-1.303 0c-0.025,0 -0.046,-0.008 -0.064,-0.026 -0.017,-0.017 -0.026,-0.039 -0.026,-0.063l0 -0.735c0,-0.024 0.009,-0.046 0.026,-0.063 0.018,-0.018 0.039,-0.026 0.064,-0.026l3.774 0zm2.648 5.242c-0.05,0 -0.083,-0.025 -0.097,-0.075l-1.543 -5.062 -0.008 -0.031c0,-0.049 0.028,-0.074 0.083,-0.074l0.943 0c0.055,0 0.09,0.025 0.105,0.074l0.996 3.656c0.005,0.015 0.013,0.022 0.023,0.022 0.01,0 0.017,-0.007 0.022,-0.022l0.981 -3.656c0.015,-0.049 0.05,-0.074 0.105,-0.074l0.921 0c0.03,0 0.053,0.01 0.068,0.03 0.015,0.02 0.017,0.044 0.007,0.075l-1.565 5.062c-0.015,0.05 -0.047,0.075 -0.097,0.075l-0.944 0z"/>
 </g>
</svg>