<?xml version="1.0" encoding="UTF-8" standalone="no"?>
<!-- Created with Inkscape (http://www.inkscape.org/) -->

<svg
   width="500"
   height="460"
   viewBox="0 0 500 460"
   version="1.1"
   id="svg1"
   xml:space="preserve"
   inkscape:version="1.3.2 (091e20ef0f, 2023-11-25)"
   sodipodi:docname="community_top_left.svg"
   inkscape:export-filename="top.png"
   inkscape:export-xdpi="150"
   inkscape:export-ydpi="150"
   xmlns:inkscape="http://www.inkscape.org/namespaces/inkscape"
   xmlns:sodipodi="http://sodipodi.sourceforge.net/DTD/sodipodi-0.dtd"
   xmlns="http://www.w3.org/2000/svg"
   xmlns:svg="http://www.w3.org/2000/svg"><sodipodi:namedview
     id="namedview1"
     pagecolor="#ffffff"
     bordercolor="#ffffff"
     borderopacity="1"
     inkscape:showpageshadow="false"
     inkscape:pageopacity="0"
     inkscape:pagecheckerboard="true"
     inkscape:deskcolor="#505050"
     inkscape:document-units="px"
     showguides="true"
     inkscape:zoom="0.51354167"
     inkscape:cx="860.68964"
     inkscape:cy="544.25963"
     inkscape:window-width="1920"
     inkscape:window-height="1058"
     inkscape:window-x="0"
     inkscape:window-y="0"
     inkscape:window-maximized="0"
     inkscape:current-layer="layer1"
     shape-rendering="auto"
     borderlayer="false"
     showborder="false" /><defs
     id="defs1"><rect
       x="1160.568"
       y="669.85803"
       width="903.52942"
       height="424.50305"
       id="rect4" /><rect
       x="647.15332"
       y="73.368881"
       width="710.4917"
       height="303.99927"
       id="rect3" /></defs><g
     inkscape:label="Layer 1"
     inkscape:groupmode="layer"
     id="layer1"><path
       style="fill:#002255;stroke-width:0.283916"
       d="m 69.627205,375.27654 c -0.749779,-0.19267 -0.864618,-0.46242 -0.435031,-1.02205 l 0.293388,-0.3822 7.89602,-1.03696 c 8.749752,-1.1492 14.319442,-1.63888 14.141938,-1.24443 -0.06393,0.14215 -0.393594,0.29687 -0.732491,0.34384 l -0.616234,0.085 0.397287,0.18439 c 0.911197,0.42291 -19.565945,3.42603 -20.944963,3.07174 z M 262.8852,349.96963 c -0.63527,-0.0797 -0.79134,-1.00862 -0.22145,-1.31783 1.7806,-0.96608 20.08865,-2.75763 20.19142,-1.97585 l 0.0652,0.49604 -1.03266,0.31325 c -1.16729,0.35407 -18.21648,2.58309 -19.00257,2.48438 z M 68.136612,372.45757 c -0.481703,-0.88783 0.257986,-1.02339 17.67739,-3.23958 l 17.445898,-2.21953 0.074,0.56298 0.074,0.56299 -17.521468,2.37702 -17.52146,2.37703 z M 212.82377,353.43662 c -0.48952,-0.90223 0.30148,-1.02569 37.10001,-5.79053 l 36.86993,-4.77414 0.074,0.56299 0.074,0.56298 -36.94509,4.92926 -36.94506,4.92925 z M 63.714694,370.05443 c -0.116501,-0.88624 -1.283582,-0.7147 51.597556,-7.58328 50.30944,-6.53448 50.99212,-6.61182 50.78516,-5.75013 l -0.10959,0.45629 -51.09992,6.71737 -51.099914,6.71737 z M 196.32049,352.79544 c -0.0281,-0.21328 0.10287,-0.5538 0.29091,-0.75672 l 0.34193,-0.36895 45.35445,-5.88797 45.35449,-5.88787 0.37032,0.28431 c 0.20371,0.15636 0.30336,0.43321 0.22148,0.61519 l -0.14891,0.33088 -45.86685,6.02945 -45.86684,6.02946 z m -128.919917,14.25628 -4.584436,0.52398 -0.08763,-0.66663 c -0.137928,-1.04923 -4.739639,-0.40276 113.590843,-15.95795 118.43161,-15.56851 113.71788,-14.99163 113.85688,-13.93424 l 0.0885,0.67361 -3.86301,0.56611 c -5.93997,0.87051 -213.796,28.2002 -219.001203,28.79499 z m 3.931979,-3.30896 c -0.162308,-0.0365 -0.826597,-0.13067 -1.476243,-0.20916 -4.105494,-0.49653 -6.941644,-3.86111 -7.605131,-9.02228 -0.522334,-4.06293 -0.523474,-4.05924 9.895702,-31.38804 1.611961,-4.22807 4.344268,-11.41688 6.071797,-15.97514 3.912958,-10.32474 5.056523,-12.40539 6.955484,-12.65502 0.762145,-0.10018 0.305701,-0.47897 -0.992354,-0.8235 -1.676433,-0.44495 -3.431771,-1.93042 -4.055615,-3.43211 l -0.484129,-1.16538 -7.790517,-59.54161 c -4.930324,-37.68149 -7.738958,-59.92913 -7.650045,-60.59714 0.203658,-1.53009 1.798533,-3.73407 3.437685,-4.75062 l 1.400034,-0.86825 81.35162,-10.69413 81.35164,-10.69412 1.57687,0.47692 c 2.02431,0.61226 3.95925,2.28685 4.76597,4.12473 l 0.61269,1.39582 7.72974,59.3858 7.72983,59.38577 -0.35886,1.1926 c -0.49251,1.63681 -1.66943,3.17309 -3.16962,4.13751 l -1.25917,0.80948 0.79993,0.0537 c 2.8568,0.19184 3.09643,0.48089 19.84727,23.93712 3.54731,4.96733 7.84307,10.97454 9.54615,13.34935 1.70305,2.37483 4.0895,5.79 5.3032,7.58929 l 2.20669,3.27143 0.50187,3.81782 0.50187,3.81782 -0.48661,1.29389 c -1.01562,2.70042 -2.54966,4.34967 -5.36013,5.76263 l -1.16657,0.58649 -104.71798,13.74731 c -57.5949,7.561 -104.850781,13.71747 -105.01307,13.68098 z M 282.41977,330.09617 c 0.81219,-0.51968 1.69974,-1.36497 1.97234,-1.87845 0.65957,-1.2423 0.56349,-1.84626 -0.15406,-0.96942 -0.30575,0.37355 -1.26879,1.13468 -2.1401,1.69144 l -1.58425,1.01229 -104.14138,13.77691 -104.141385,13.77691 -1.591584,-0.12643 c -1.802607,-0.14316 -3.635531,-0.71007 -4.741791,-1.46656 l -0.750644,-0.51332 0.447383,0.65709 c 0.982013,1.44231 2.601541,2.37148 4.494226,2.5785 0.479386,0.0524 48.117805,-6.13482 105.863145,-13.74944 l 104.99154,-13.8448 z m -9.80186,-1.39173 c 7.21259,-1.15249 9.1054,-2.03926 10.27683,-4.81472 l 0.57894,-1.37167 -0.29174,-1.07917 c -0.16317,-0.60362 -1.52427,-2.78425 -3.08875,-4.94859 -3.44439,-4.76516 -9.93353,-13.87445 -18.24141,-25.60692 -10.71356,-15.12984 -10.78166,-15.18624 -17.76021,-14.71623 -5.07203,0.34162 -148.674941,19.21537 -153.02514,20.11198 l -3.378185,0.69639 -1.044667,0.71846 c -0.993046,0.68295 -2.735588,2.90339 -2.450339,3.12237 0.0739,0.0568 0.7361,-0.42802 1.471656,-1.07714 0.735557,-0.64909 1.847158,-1.39773 2.470225,-1.66362 l 1.132839,-0.48344 79.238911,-10.4282 79.23892,-10.4282 1.49689,0.49519 c 2.69445,0.89139 5.38431,3.49553 4.42169,4.28082 -0.50887,0.41512 -0.93444,0.20554 -1.67867,-0.8266 -0.87849,-1.21835 -2.21227,-1.94315 -3.91224,-2.12595 l -1.36309,-0.14654 -78.24623,10.28592 -78.246238,10.2859 -1.652178,0.7626 c -1.961118,0.9052 -3.22554,2.088 -3.980253,3.72329 -0.625928,1.35623 -0.989261,1.52935 -1.434922,0.6837 l -0.309293,-0.58687 -1.174066,3.14432 c -0.645742,1.72937 -2.106544,5.65083 -3.24622,8.71434 -3.821613,10.27264 -4.865705,13.05498 -8.251498,21.98884 -1.85314,4.88976 -3.639253,9.73882 -3.969139,10.77568 l -0.599794,1.88521 0.292278,0.97384 c 0.414282,1.3803 1.760579,2.61419 3.575308,3.27675 l 1.560515,0.56975 15.784945,-1.8603 c 8.68172,-1.02317 15.985305,-1.82892 16.230205,-1.79057 0.61369,0.0961 162.95962,-21.48368 169.57411,-22.54067 z M 74.31733,353.77296 c -3.7048,0.25924 -5.558979,-0.35168 -6.895153,-2.27179 -1.151094,-1.65417 -0.726731,-3.3179 0.440753,-1.728 1.080729,1.47177 1.848891,2.08544 3.079573,2.46024 l 1.216648,0.37051 13.974967,-1.83104 13.974972,-1.83103 0.24996,0.4607 c 0.15665,0.28871 0.0841,0.61898 -0.1942,0.8846 l -0.444132,0.42388 -11.282989,1.43147 c -6.205652,0.78733 -12.55987,1.52082 -14.120487,1.63003 z m 67.60159,-9.44902 c -1.26557,-0.97149 -1.27878,-1.43938 -0.34967,-12.38187 l 0.48772,-5.74385 0.65165,-0.84897 0.65166,-0.84898 28.62579,-3.83917 28.62578,-3.83917 0.83019,0.22209 c 1.36045,0.36394 1.78275,1.28697 5.88977,12.873 l 1.3853,3.90797 -0.27298,1.00563 c -0.45862,1.68943 1.0175,1.42603 -33.43991,5.96704 l -32.15804,4.23805 z m 54.73958,-8.36432 c 4.89068,-0.64493 9.04774,-1.30323 9.23794,-1.46203 l 0.34588,-0.28875 -1.90966,-5.44324 c -2.77266,-7.9031 -3.04728,-8.58651 -3.65988,-9.10725 l -0.55472,-0.47152 -27.53624,3.61979 -27.53625,3.6198 -0.31663,0.68592 c -0.48733,1.05566 -1.59373,14.24636 -1.27532,15.20441 l 0.15867,0.47729 17.89262,-2.18497 c 9.84094,-1.20176 19.77563,-2.4755 22.07708,-2.83054 2.30144,-0.35509 8.18589,-1.17351 13.07653,-1.81894 z m 69.71966,-7.34247 c -0.54765,-0.0803 -0.63834,-0.28049 -0.46116,-1.01825 l 0.1123,-0.46773 5.24626,-0.70225 5.24624,-0.70226 1.00663,-0.51576 c 1.49423,-0.76556 2.68519,-2.07938 3.10281,-3.42284 0.40266,-1.29548 0.89426,-1.59342 1.27785,-0.77448 0.60362,1.28874 -1.07563,4.01241 -3.28697,5.33129 l -1.07564,0.64151 -5.32869,0.85279 c -2.93081,0.46898 -5.55864,0.81906 -5.83967,0.77794 z m -3.27419,-0.0992 c -0.29939,-0.55181 -0.0872,-1.27715 0.39214,-1.34016 0.57618,-0.0757 1.15838,0.5595 1.02435,1.11766 -0.14511,0.60409 -1.12586,0.75815 -1.41648,0.22251 z M 72.111616,352.03822 c -1.244235,-0.20077 -2.919218,-1.56542 -3.429778,-2.79439 -0.985781,-2.37291 0.923521,-8.61669 2.427903,-7.9397 l 0.408221,0.18371 -0.875366,2.4507 -0.875371,2.4507 0.184987,1.40723 0.184989,1.40724 0.892323,0.68497 c 0.572415,0.4394 1.351048,0.7004 2.171795,0.72799 1.668838,0.0561 2.335633,0.31703 2.204831,0.86147 -0.118263,0.49242 -1.869014,0.79005 -3.294534,0.56008 z M 274.55139,324.89651 c -0.0455,-0.34636 0.19167,-0.63555 0.67871,-0.82743 1.21202,-0.47749 2.36955,-1.56553 2.88568,-2.71243 l 0.48161,-1.07021 -0.29048,-1.07441 c -0.15978,-0.59092 -0.85982,-1.78341 -1.55572,-2.64998 -1.27824,-1.59173 -1.48144,-2.51165 -0.54244,-2.45568 0.70318,0.042 2.59806,2.31344 3.35222,4.0185 l 0.62969,1.42365 -0.20154,1.05884 c -0.37231,1.95629 -2.86012,4.49199 -4.63618,4.72546 l -0.73158,0.0962 z m -192.928599,3.4339 c -0.996097,-0.34317 -1.044398,-1.03794 -0.183371,-2.63794 0.925902,-1.72057 2.716665,-5.81902 6.270485,-14.35104 l 2.586796,-6.21037 0.902,-0.61927 0.901991,-0.61926 77.129308,-10.1385 77.12932,-10.1385 0.91276,0.40845 0.91278,0.40844 2.95963,3.99822 c 1.62779,2.19902 3.36942,4.56342 3.87029,5.25422 4.08038,5.62759 8.34847,10.54909 7.15007,8.24463 -0.29677,-0.5707 -8.25834,-11.3478 -10.77266,-14.58236 -1.01644,-1.30751 -1.87587,-2.58875 -1.90983,-2.84709 l -0.0617,-0.46974 0.63961,0.007 0.63961,0.007 3.0715,4.03477 c 5.51263,7.24147 10.09989,13.58291 10.54241,14.57383 l 0.26975,0.60408 -0.61646,0.80307 -0.61647,0.80308 -90.53792,11.84544 -90.537903,11.84554 z M 257.56531,302.42093 c -0.0245,-0.18612 -0.64439,-1.10486 -1.37759,-2.04168 -0.73321,-0.9368 -2.40202,-3.17353 -3.70848,-4.97051 -1.30643,-1.79697 -2.87481,-3.9103 -3.48525,-4.69629 -0.61046,-0.78598 -1.59462,-2.14622 -2.18702,-3.02276 -0.59239,-0.87651 -1.27887,-1.72076 -1.52551,-1.87608 l -0.44839,-0.28239 -75.77657,10.03337 -75.776539,10.03337 -1.617086,4.0784 c -0.889395,2.24313 -2.687044,6.62233 -3.994768,9.73155 -1.30772,3.10924 -2.368511,5.72294 -2.357299,5.80824 0.01121,0.0853 38.783082,-4.93259 86.159692,-11.15087 l 86.13928,-11.30604 z m -168.9266,20.73203 c -0.685644,-0.37515 -0.604247,-1.03844 0.341881,-2.78605 l 0.684567,-1.26448 7.457818,-0.98037 7.457814,-0.98038 0.0579,0.44043 c 0.43002,3.27127 -0.75244,3.94624 -8.756657,4.99844 l -6.683717,0.87862 z m 17.38749,-2.09556 c -0.75069,-0.19399 -0.30894,-2.81998 0.64813,-3.85276 l 0.35816,-0.38648 64.01953,-8.34351 64.01954,-8.34352 1.02895,1.46315 c 0.59787,0.85018 0.97932,1.66977 0.91047,1.9564 l -0.11849,0.49327 -65.2479,8.55461 c -35.88634,4.70506 -65.41464,8.51148 -65.61843,8.45885 z m 132.91282,-17.74055 c -0.67045,-0.51466 -1.576,-2.09207 -1.68737,-2.93924 l -0.0886,-0.67397 7.53981,-0.9149 7.53981,-0.9149 1.04121,1.48077 1.04119,1.48078 -0.31478,0.49983 -0.31476,0.49983 -7.12353,0.93644 -7.12348,0.93641 z m -147.673104,13.53857 -0.49892,-0.54454 0.177154,-0.74767 c 0.09739,-0.41122 0.342874,-1.13658 0.545449,-1.61193 l 0.368313,-0.86425 2.121146,-0.27682 c 1.166568,-0.15268 7.565052,-1.01565 14.218792,-1.91806 l 12.0977,-1.64084 0.10208,0.99836 c 0.0562,0.5491 -0.0736,1.52243 -0.28821,2.16299 l -0.39046,1.16461 -13.97692,1.91159 -13.976923,1.91157 z m 30.875664,-3.75664 -0.68733,-0.17595 0.0918,-0.65837 c 0.0508,-0.36207 0.21071,-1.20413 0.35551,-1.87125 l 0.26324,-1.21293 2.00849,-0.44655 c 2.77267,-0.61647 57.66655,-7.79195 58.08308,-7.59238 0.52842,0.25323 1.03463,1.10684 1.43208,2.41497 l 0.36589,1.20435 -0.35064,0.29264 c -0.48174,0.40207 -60.68576,8.26993 -61.56263,8.04544 z m 63.33583,-8.75312 c -0.31234,-0.36288 -0.70597,-1.25875 -0.87468,-1.99084 l -0.30676,-1.33107 7.81736,-1.22698 c 8.94355,-1.40376 23.99391,-3.37787 25.3357,-3.32346 l 0.90368,0.0368 0.61331,0.99068 c 0.33733,0.54486 0.62897,1.42911 0.64808,1.96501 l 0.0348,0.97431 -16.80176,2.28251 -16.80176,2.28253 z m 36.27936,-4.6198 c -0.60641,-0.50056 -1.48463,-2.16869 -1.59874,-3.03671 l -0.0605,-0.45996 4.85484,-0.64525 c 2.67015,-0.35505 8.90346,-1.21539 13.85176,-1.91227 10.37943,-1.46156 9.51239,-1.47458 10.62944,0.15914 1.85218,2.70889 2.40138,2.5217 -13.55086,4.6187 l -13.51924,1.77718 z m -21.80329,-2.49752 -16.14038,2.04781 -0.53495,-0.92038 c -0.2942,-0.50621 -0.60207,-1.43115 -0.68413,-2.05541 l -0.1492,-1.13501 16.44716,-2.16208 16.44714,-2.16206 0.78813,1.48211 c 1.58242,2.97582 3.41699,2.41945 -16.17377,4.90502 z m 37.12444,-4.87719 -6.04098,0.7107 -0.4639,-0.29113 c -0.61521,-0.38607 -1.76138,-2.24624 -1.87376,-3.04096 l -0.0892,-0.63257 7.87614,-1.03536 7.8761,-1.03536 1.04183,1.36642 c 1.72987,2.2689 1.47905,2.95748 -1.15107,3.16017 -0.62367,0.0481 -3.85238,0.40717 -7.17492,0.79807 z M 93.523459,310.70537 c -0.266027,-0.49033 0.28062,-2.4657 0.9372,-3.38674 l 0.46164,-0.64757 6.885621,-0.90516 6.88563,-0.90515 0.05,0.38023 c 0.0852,0.64786 -0.32636,2.33834 -0.78487,3.22426 l -0.43734,0.84498 -6.88626,0.90524 -6.886267,0.90524 z m 16.364241,-2.07694 c -0.24654,-0.45439 0.2541,-2.78636 0.7532,-3.50833 l 0.39186,-0.56685 5.19997,-0.68357 5.19999,-0.68357 -0.0319,1.14569 c -0.0175,0.63011 -0.18568,1.61868 -0.37356,2.19679 l -0.34164,1.0511 -5.30508,0.69739 -5.30507,0.69738 z m 12.76943,-2.10637 c -0.0567,-0.43166 0.1076,-1.38748 0.36509,-2.12408 l 0.46825,-1.33925 7.53373,-1.0666 7.53372,-1.0666 -0.0529,1.0855 c -0.0291,0.59702 -0.17712,1.58506 -0.32903,2.19564 l -0.27615,1.11015 -7.56977,0.99508 -7.56975,0.99508 z m 17.37287,-1.7787 c -0.2751,-0.33723 -0.14857,-1.84677 0.26021,-3.10442 l 0.31638,-0.9734 7.40745,-0.97376 7.40744,-0.97374 0.14921,1.13502 c 0.0821,0.62425 0.0234,1.59842 -0.13035,2.16481 l -0.27956,1.02981 -7.45733,0.9803 c -4.78631,0.62919 -7.53474,0.88542 -7.67345,0.71538 z m 17.11246,-2.39824 c -0.26127,-0.48156 -0.24312,-1.9108 0.0381,-3.07083 l 0.19753,-0.81344 11.55517,-1.519 11.55516,-1.51898 0.39704,0.73529 c 0.21837,0.40441 0.54777,1.32757 0.73202,2.05146 l 0.33496,1.31616 -12.29301,1.61598 -12.29301,1.61599 z m 61.6402,-8.36293 c -0.53065,-0.61646 -1.758,-3.09099 -1.62137,-3.26898 0.15661,-0.20404 8.86953,-1.33491 9.18636,-1.19237 0.37009,0.16653 1.83505,2.22456 2.29422,3.22298 l 0.27945,0.60757 -4.79789,0.63072 -4.79787,0.6307 z M 79.835546,325.21208 c -0.168856,-0.7551 -0.04145,-1.13493 2.106423,-6.27973 1.207794,-2.89301 2.799884,-6.75689 3.537973,-8.58639 1.830839,-4.53807 1.90949,-4.68956 2.473218,-4.76367 1.053536,-0.13849 1.208339,-0.59234 -4.856005,14.23716 -2.030662,4.9657 -2.999041,6.56678 -3.261609,5.39263 z m 0.265216,-11.31075 c -0.147746,-1.12392 2.110071,-6.13238 2.805703,-6.22382 0.700661,-0.0921 0.515301,0.925 -0.668808,3.6698 -1.11514,2.58494 -1.994648,3.63612 -2.136895,2.55402 z m 5.699908,-10.27134 c -0.400047,-0.49039 0.399348,-1.69892 1.52857,-2.31089 l 1.197885,-0.6492 80.321865,-10.57429 80.32184,-10.57439 0.97383,0.31448 c 2.30403,0.74405 2.28999,2.04328 -0.0168,1.55816 l -1.67238,-0.3517 -80.15281,10.61056 -80.152806,10.61057 -0.721916,0.73921 c -0.745865,0.76372 -1.331786,0.98964 -1.627254,0.62744 z m 155.1816,-29.33218 c -0.0246,-0.18696 -24.756,2.96795 -73.63096,9.39284 -48.759,6.40964 -73.640183,9.77704 -73.730934,9.9787 -0.09117,0.20262 24.524034,-2.93746 73.630964,-9.39283 48.99096,-6.44014 73.7555,-9.7918 73.73093,-9.97871 z m 9.94908,-4.25475 c 0.45066,-0.40176 1.04425,-1.27768 1.31909,-1.9465 l 0.49971,-1.21605 -4.11882,-31.67382 c -2.26542,-17.42059 -4.70155,-35.46305 -5.41381,-40.09433 l -1.29499,-8.4205 1.5804,13.65608 c 0.86922,7.51083 3.12934,25.4391 5.02249,39.84058 l 3.44211,26.18451 -0.42537,1.28302 c -0.2566,0.77398 -0.92239,1.75914 -1.67809,2.48307 -1.81078,1.73466 -0.89371,1.65213 1.06725,-0.0961 z M 85.091749,292.04438 c -1.387719,-0.69712 -2.36397,-1.5882 -2.973122,-2.71371 l -0.444003,-0.8204 -3.280057,-24.48196 c -1.804049,-13.46505 -4.263604,-31.31115 -5.465685,-39.65795 l -2.185606,-15.17603 1.319919,10.56491 c 5.88986,47.14354 8.454587,66.82149 8.928316,68.50284 l 0.530584,1.88312 0.884878,0.89036 c 0.996396,1.00256 2.525029,1.76874 3.322852,1.66548 l 0.532023,-0.0689 z M 246.85205,268.94446 c 0.63896,-0.47773 1.47517,-1.46856 1.85825,-2.20183 l 0.69653,-1.33323 -7.59905,-58.3241 -7.59896,-58.32411 -0.77325,-1.00797 c -2.53047,-3.29868 4.59124,-3.95797 -83.95151,7.77171 l -76.97835,10.1977 -1.401632,1.03599 c -0.770892,0.56979 -1.677329,1.51649 -2.014305,2.10379 l -0.612677,1.06783 7.567103,58.16049 7.567104,58.16049 0.584923,1.09142 c 0.754754,1.4083 2.012123,2.31653 3.82838,2.76533 l 1.45214,0.35882 78.106814,-10.32689 78.1068,-10.32688 z m -135.95615,16.72677 -21.130528,2.63454 -0.905936,-0.35647 c -1.14005,-0.44859 -2.408513,-1.49169 -3.254267,-2.67611 l -0.654264,-0.91625 -7.308272,-55.59498 -7.30827,-55.59497 0.53981,-1.31607 c 0.332543,-0.81073 0.989683,-1.66679 1.71143,-2.22947 l 1.171612,-0.91343 77.410735,-10.17607 77.41074,-10.17608 1.20529,0.45539 c 1.47935,0.55894 2.1404,1.10412 2.87835,2.37379 l 0.56919,0.97933 7.25726,55.25294 7.25725,55.25293 -0.3685,1.19388 c -0.48213,1.56193 -1.50086,2.86082 -2.97276,3.79021 l -1.18983,0.7513 -55.59409,7.31522 c -30.57668,4.02351 -65.10271,8.50103 -76.7245,9.95004 z m 38.07959,-7.66995 c -0.26839,-2.04173 -3.0778,-4.13809 -5.38481,-4.01813 -1.70097,0.0885 -2.31824,-0.1279 -2.41523,-0.84656 -0.25654,-1.89782 -1.84501,-3.74594 -3.82472,-4.44855 l -1.222,-0.4337 -0.46312,0.38142 c -0.25471,0.20977 -0.77066,0.42184 -1.14655,0.47125 l -0.68344,0.0898 -1.46793,-2.23324 -1.46792,-2.23323 -1.82365,-1.38054 c -6.63863,-5.02562 -15.80857,-3.18654 -20.89339,4.19026 l -1.47375,2.13802 -1.13623,-0.23434 c -0.66108,-0.13639 -2.25349,-0.0797 -3.80801,0.13555 l -2.671772,0.36997 -1.968789,1.00048 c -4.120453,2.09387 -6.607284,4.79345 -8.503753,9.23124 l -1.153777,2.69986 0.248648,0.64902 c 0.326101,0.85121 1.187754,1.72036 2.13487,2.15347 l 0.761683,0.34829 29.20601,-3.83122 29.20599,-3.83122 z m -58.530262,4.52873 -0.572876,-0.31346 0.329744,-1.30113 c 1.195446,-4.71712 6.657169,-10.33628 7.413458,-7.62716 l 0.166599,0.59679 -1.605654,1.14725 c -1.904781,1.36099 -3.025489,2.96649 -3.996679,5.72555 -0.762105,2.16508 -0.850836,2.25572 -1.734587,1.77215 z m 91.255292,-9.96055 c 0.32162,-3.12629 1.96975,-5.41753 4.75208,-6.60637 l 1.32889,-0.5678 0.23501,-1.14437 c 0.53812,-2.61991 3.31606,-5.47456 5.62518,-5.78056 l 1.00021,-0.13249 0.69038,-1.91215 c 0.63293,-1.75296 3.08651,-5.45482 3.66594,-5.53098 0.44805,-0.0589 -0.3038,-4.26871 -1.25607,-7.03317 -2.49624,-7.24662 -8.06425,-14.02965 -14.80027,-18.02988 -2.66312,-1.58152 -2.71312,-1.58217 -1.76322,-0.0226 7.01615,11.51855 -0.49661,28.69801 -13.8583,31.68987 -0.91409,0.20468 -2.10445,0.48849 -2.64524,0.63072 -8.77215,2.30689 -20.37715,-4.30885 -24.12143,-13.75109 l -0.85426,-2.15424 -0.43561,-3.2754 -0.43561,-3.27542 0.37435,-2.44369 c 0.20585,-1.34404 0.43845,-2.70729 0.51676,-3.02944 l 0.14239,-0.58576 -1.02757,0.98847 c -7.03069,6.76308 -11.13277,16.97362 -10.56737,26.30333 l 0.16247,2.68081 2.24459,1.81653 c 1.23453,0.99909 2.70042,2.44944 3.25754,3.223 l 1.01293,1.40647 0.99487,-0.0562 c 2.45995,-0.13889 6.05486,2.08346 7.0567,4.36241 l 0.35119,0.79885 1.5567,0.30755 c 2.83548,0.56017 5.56941,2.92853 6.32978,5.48336 l 0.32897,1.10536 14.98997,-1.97051 14.98995,-1.97051 z m -16.50037,0.25484 c -1.31635,-1.83567 -1.79026,-12.09688 -0.56613,-12.2578 1.03469,-0.13602 1.34132,0.80459 2.0705,6.35153 0.71083,5.40733 0.65518,6.17628 -0.45747,6.32254 -0.38809,0.051 -0.84095,-0.12903 -1.0469,-0.41627 z m 17.91006,-12.04194 c -2.63865,-1.67303 -5.55814,-6.02094 -4.49056,-6.68764 l 0.66053,-0.41249 0.57367,0.39657 c 1.15888,0.80113 5.14526,5.49568 5.03974,5.93502 -0.0586,0.24376 -0.33769,0.60902 -0.62032,0.81169 l -0.51384,0.36847 z m -37.99171,4.86952 c -1.31121,-1.00653 2.55352,-8.22034 4.0929,-7.63971 0.97495,0.36774 0.833,1.10374 -0.8736,4.5296 l -1.61543,3.2429 -0.61084,0.0803 c -0.33596,0.0442 -0.78283,-0.0517 -0.99302,-0.21313 z M 133.88255,254.2428 c -1.08139,-0.83011 -0.21449,-1.97606 3.43992,-4.5471 l 2.00218,-1.40864 0.54204,0.24434 c 1.55427,0.70065 0.986,1.57218 -2.81243,4.31332 -2.44166,1.76201 -2.60425,1.83369 -3.17171,1.39808 z m 54.83352,-8.30827 c -1.4959,-0.59671 -3.04231,-1.33055 -3.43646,-1.63079 l -0.71661,-0.54587 0.35639,-0.68409 c 0.54446,-1.04503 5.08585,0.20707 7.28784,2.00935 l 0.72086,0.59 -0.43775,0.63326 c -0.59944,0.86712 -0.6906,0.85815 -3.77427,-0.37186 z m 47.47133,20.2069 c -0.14674,-1.1163 -1.427,-2.90532 -2.67856,-3.743 -1.13431,-0.7592 -1.39999,-1.60268 -0.58968,-1.87207 1.08605,-0.36106 3.74977,2.32065 4.91676,4.95001 0.30119,0.67859 0.6803,1.12759 0.92489,1.09544 l 0.41453,-0.0545 -0.29617,-0.98675 c -1.02349,-3.41014 -4.26132,-5.98353 -8.29169,-6.59013 l -1.67979,-0.25285 -0.0684,-0.52066 c -0.0377,-0.28637 0.0797,-0.68102 0.2617,-0.87691 l 0.33012,-0.35625 1.14673,0.15523 c 4.3439,0.58656 8.9614,4.26413 10.2221,8.14126 l 0.33485,1.02983 0.69933,-0.0919 c 1.01262,-0.13311 2.11979,-1.10032 2.54754,-2.22549 l 0.3716,-0.97742 -0.55429,-1.14896 c -1.97419,-4.09232 -7.92,-8.06121 -13.03178,-8.69885 -2.58789,-0.32285 -6.30242,0.30841 -6.42834,1.0924 -0.0285,0.17825 -0.0829,0.68241 -0.11989,1.12048 l -0.0679,0.79641 -0.83376,0.1096 -0.83376,0.1096 -0.2878,-0.74966 c -3.06277,-7.97736 -17.24209,-8.92384 -22.99359,-1.53483 l -1.4001,1.79869 -0.8402,2.53472 c -0.90623,2.73387 -1.39968,3.23513 -2.61013,2.6514 l -0.74938,-0.36135 -0.90591,0.52653 c -0.49829,0.2896 -1.30017,1.13188 -1.78199,1.87175 l -0.87605,1.34522 -0.002,1.37963 c -0.002,1.70107 -0.17123,1.88239 -2.14957,2.30313 l -1.58167,0.33639 -0.93229,0.92654 c -0.90949,0.90389 -1.73886,2.88629 -1.6214,3.87561 l 0.0588,0.49339 26.03815,-3.42286 26.03815,-3.42286 z m -25.16614,-3.1744 -0.55807,-0.30534 0.3244,-0.88097 c 0.85004,-2.30836 3.38803,-4.55425 6.43869,-5.69763 l 1.75897,-0.65925 0.76141,0.18037 c 0.87825,0.20809 1.15891,1.17374 0.43193,1.48627 -0.26088,0.11215 -1.03217,0.36777 -1.71395,0.56804 -1.97624,0.5805 -4.03589,2.08298 -5.35007,3.90277 -1.33663,1.85085 -1.31113,1.83373 -2.09331,1.40574 z m 26.67808,-58.55113 -6.80587,-51.52144 -0.59616,-0.69253 c -0.32788,-0.38088 -0.96653,-0.87114 -1.4192,-1.08944 l -0.82308,-0.39692 -76.43788,10.04818 -76.437901,10.0482 -0.844702,0.61701 c -0.464589,0.33936 -1.014694,1.05599 -1.222446,1.59249 l -0.377743,0.97547 5.672228,43.35348 c 3.119746,23.84441 6.254719,47.29153 6.966686,52.10469 l 1.294453,8.75122 0.550603,-1.11892 c 2.601724,-5.28707 8.291755,-9.15757 14.718452,-10.01184 l 2.60329,-0.34625 -0.41312,-3.15795 -0.41311,-3.15796 0.25836,-3.47025 c 3.63697,-48.85242 55.0175,-74.96382 94.10447,-47.82357 12.8704,8.93661 23.30593,24.59308 25.90593,38.86671 l 0.60179,3.3038 1.69348,-0.40554 c 5.47408,-1.31089 14.0251,1.68062 17.45616,6.10692 l 0.6704,0.86484 0.0502,-0.95955 c 0.0275,-0.52776 -3.0125,-24.14421 -6.75575,-52.481 z M 91.403059,264.27632 c -2.405608,-0.62149 3.394019,-3.97917 7.895139,-4.57087 0.765192,-0.10059 1.622532,0.6291 1.366812,1.16328 -0.51516,1.07603 -7.846408,3.77328 -9.261951,3.40759 z M 231.40422,245.47239 c -1.38683,-0.10831 -3.05073,-0.26732 -3.69752,-0.35341 l -1.17603,-0.15607 -0.10506,-0.79916 c -0.0578,-0.43954 0.0514,-0.968 0.24259,-1.17435 l 0.34768,-0.37517 2.14517,0.2778 c 1.17989,0.15254 3.09854,0.31403 4.26379,0.35819 1.16524,0.0442 2.41875,0.26736 2.78557,0.49587 l 0.66698,0.41552 -0.24324,0.55104 -0.24328,0.55105 -1.23257,0.20298 c -0.67794,0.11161 -2.36729,0.11437 -3.75415,0.006 z M 90.51158,255.49831 c -0.189488,-0.2691 -0.261096,-0.74833 -0.169911,-1.13724 l 0.157573,-0.67214 4.560612,-0.52085 4.560614,-0.52074 0.37512,0.45181 0.375122,0.45181 -0.24561,0.53341 -0.245602,0.53343 -4.520207,0.67277 -4.520211,0.67277 z m 134.89828,-17.42868 c -0.47171,-0.1218 -0.62583,-1.2248 -0.2412,-1.72588 l 0.29338,-0.38219 4.3799,-0.57575 4.37986,-0.57577 0.44601,0.54151 0.44597,0.54152 -0.41464,0.5998 -0.41463,0.59979 -4.25207,0.53637 c -2.33862,0.29502 -4.4188,0.49332 -4.62259,0.44063 z m -128.704633,6.09146 c -2.755685,0.004 -5.704469,0.0252 -6.552853,0.0475 -0.848383,0.0223 -1.760663,-0.12691 -2.027291,-0.33155 l -0.484778,-0.37212 0.243781,-0.79706 0.243786,-0.79706 1.489906,-0.0156 c 0.819453,-0.009 3.867305,-0.0653 6.77301,-0.12608 5.727252,-0.11974 6.583632,-0.0199 6.688772,0.77996 0.072,0.5474 -0.64457,1.58786 -1.101,1.59873 -0.14463,0.004 -2.517632,0.009 -5.273337,0.0133 z M 219.72992,227.99486 c -1.27828,-1.18457 -0.54957,-1.60445 5.44639,-3.1382 8.53615,-2.18353 8.73063,-2.20339 8.90075,-0.90925 0.11535,0.87746 -0.47194,1.12292 -6.37893,2.66612 -6.69943,1.75025 -7.4329,1.87739 -7.96821,1.38133 z m -114.32203,4.87264 -0.55922,-0.47539 0.23674,-0.62765 c 0.39958,-1.05938 2.46116,-0.97991 2.60316,0.10033 0.14484,1.10176 -1.37704,1.77085 -2.28068,1.00271 z m 107.34831,-14.09611 -0.68117,-0.4176 0.25473,-0.67532 0.25473,-0.67533 0.90755,-0.031 0.90759,-0.0309 0.17907,0.71162 0.17908,0.7116 -0.66025,0.41231 -0.6602,0.4123 z M 95.512234,231.8183 c -3.041597,-0.3739 -6.081374,-0.7171 -6.755085,-0.76248 -1.979605,-0.13347 -3.069839,-1.4773 -1.883048,-2.32106 l 0.458291,-0.32583 5.39081,0.70977 c 7.355018,0.96773 8.509658,1.18866 8.931738,1.70916 l 0.36433,0.44925 -0.48846,0.61076 -0.48844,0.61076 z m 122.694326,-15.24496 -0.67198,-0.51582 0.31808,-0.64942 c 0.17496,-0.35719 0.61256,-0.77611 0.97247,-0.93091 0.3599,-0.15482 1.93881,-0.80341 3.50867,-1.44133 1.56986,-0.63791 4.10507,-1.69971 5.63378,-2.35955 l 2.77947,-1.19973 0.60048,0.2265 c 2.28844,0.86318 1.07258,1.79039 -6.13705,4.68009 -3.25981,1.30657 -6.01809,2.44993 -6.12947,2.5408 -0.11133,0.0909 -0.50489,-0.0669 -0.87445,-0.35063 z m -122.338834,7.35878 c -0.532589,-0.9816 0.490407,-2.04482 1.339971,-1.39266 0.708004,0.54347 0.444999,1.58755 -0.428843,1.70242 -0.38148,0.0502 -0.791489,-0.0892 -0.911128,-0.30976 z M 219.7553,207.3393 c -0.57607,-1.06176 0.54018,-2.03374 1.4944,-1.30125 l 0.49985,0.38372 -0.2194,0.58166 c -0.26408,0.70017 -1.45495,0.92552 -1.77485,0.33587 z m -113.05473,14.39562 c -0.9509,-0.72994 -0.19171,-2.16812 0.9226,-1.7478 0.88818,0.33502 0.71033,1.87677 -0.23078,2.00048 -0.17031,0.0224 -0.48162,-0.0913 -0.69184,-0.25268 z m 102.42232,-13.52228 c -0.22905,-0.21224 -0.35795,-0.64546 -0.29579,-0.99384 l 0.11028,-0.61759 0.76132,-0.0118 0.76137,-0.0118 0.11101,0.84448 0.11101,0.84448 -0.57658,0.16123 c -0.31711,0.0887 -0.75928,-0.008 -0.98258,-0.21509 z m -94.28888,10.37867 c -0.88064,-0.81609 0.23255,-2.08357 1.18671,-1.35115 l 0.52729,0.40475 -0.24283,0.52767 c -0.32524,0.70672 -0.96416,0.88857 -1.47117,0.41873 z m 85.60635,-11.21925 c -0.609,-0.56435 -0.26143,-1.34876 0.60343,-1.36196 l 0.7494,-0.0115 0.0925,0.70374 0.0925,0.70374 -0.57658,0.16122 c -0.31712,0.0887 -0.74969,8.1e-4 -0.9613,-0.19523 z m -90.10235,9.83257 c -1.06984,-0.53421 -3.71819,-1.62222 -13.010933,-5.34525 -2.743169,-1.09901 -5.502327,-2.23792 -6.131455,-2.53093 l -1.143871,-0.53271 -0.09068,-0.68984 c -0.05095,-0.38756 0.125337,-0.84474 0.402296,-1.04335 l 0.492978,-0.35351 1.313804,0.48312 c 0.722575,0.26571 3.968628,1.56361 7.213403,2.88422 14.112328,5.74362 13.744908,5.55042 13.216948,6.95011 -0.29144,0.77268 -0.96551,0.82576 -2.26249,0.17814 z m 93.22579,-11.99566 c -0.21508,-0.19931 -0.38604,-0.64465 -0.37993,-0.98966 l 0.0111,-0.62729 8.6804,-6.68388 c 4.77422,-3.67615 8.82943,-6.84472 9.01157,-7.04129 0.44193,-0.47688 1.44076,-0.27139 1.91836,0.39466 l 0.38549,0.53753 -0.45356,0.5806 c -0.24944,0.31932 -3.43907,2.86609 -7.08804,5.65949 -3.64895,2.79338 -7.59228,5.83213 -8.76297,6.75278 -2.28459,1.79664 -2.71481,1.98014 -3.32243,1.41706 z m 27.22922,-6.78832 c -0.51975,-0.13863 -0.62572,-1.3538 -0.14093,-1.61681 0.71343,-0.38708 1.3193,-0.0457 1.33113,0.75019 0.0109,0.73055 -0.44794,1.06464 -1.19017,0.86662 z m -147.292193,18.2931 c -0.689081,-0.37703 -0.618769,-1.36006 0.111932,-1.5649 0.690773,-0.19365 1.385498,0.37559 1.233059,1.01032 -0.156736,0.65263 -0.732157,0.8899 -1.344991,0.55458 z m 107.993403,-15.5409 c -0.7767,-0.32538 -0.75734,-1.09452 0.053,-2.1046 1.37549,-1.71456 2.88469,-0.2647 1.54333,1.48268 -0.68171,0.88806 -0.82637,0.94445 -1.5963,0.62192 z m -70.08156,8.54767 c -1.54604,-1.26538 -0.45837,-2.78257 1.26236,-1.76087 0.89329,0.53038 1.14682,1.2304 0.67039,1.85104 -0.45393,0.59135 -1.13914,0.55938 -1.93275,-0.0902 z m -4.80163,-3.59177 c -0.60177,-0.41691 -2.81613,-1.9931 -4.92081,-3.50267 -2.10467,-1.50954 -4.1975,-2.96481 -4.6507,-3.23391 -0.45322,-0.26909 -0.98637,-0.71566 -1.18479,-0.99234 l -0.36075,-0.50308 0.22729,-0.60261 c 0.13004,-0.34474 0.51539,-0.64045 0.90058,-0.69109 l 0.67326,-0.0885 5.86367,4.14682 c 5.83656,4.12767 6.36184,4.65541 5.60937,5.63566 -0.5499,0.71637 -0.92212,0.68732 -2.15712,-0.16828 z m 78.19839,-9.91738 c -0.86843,-0.73821 -0.60031,-1.3516 1.90871,-4.36635 1.25478,-1.5077 3.22372,-3.90523 4.37543,-5.32787 2.05266,-2.53549 2.83997,-3.07074 3.62755,-2.46616 0.79448,0.60986 0.38053,1.3159 -3.96657,6.76577 -4.69072,5.88062 -5.02091,6.18024 -5.94512,5.39461 z m -64.09871,4.76412 c -0.97744,-1.09762 -1.20138,-1.9888 -0.64944,-2.58442 l 0.37493,-0.40457 0.69735,0.33628 c 0.38355,0.18496 1.00617,0.76458 1.38361,1.28806 l 0.68627,0.95177 -0.24195,0.52866 c -0.13305,0.29075 -0.49917,0.60235 -0.81357,0.69242 l -0.57161,0.1638 z m 49.22546,-5.80017 -0.38606,-0.35778 0.19912,-0.8485 c 0.47464,-2.02179 2.15421,-3.16054 2.75855,-1.87029 0.60009,1.28122 -1.62999,3.94918 -2.57165,3.07656 z m -24.63582,0.86442 c -0.79903,-0.61337 -0.20674,-2.79581 0.7434,-2.73917 l 0.55817,0.0332 0.16602,1.26287 0.16601,1.26285 -0.70332,0.17719 c -0.38684,0.0975 -0.80545,0.0988 -0.93027,0.003 z m -13.07092,-1.21447 c -1.13569,-0.9654 -1.54001,-2.76249 -0.72145,-3.20662 1.3185,-0.71536 3.22287,2.39972 2.00218,3.27509 -0.65662,0.47084 -0.64558,0.47144 -1.28072,-0.0685 z m 25.69005,-3.29571 -0.51968,-0.39892 0.14518,-1.06289 c 0.189,-1.3875 0.48046,-1.82288 1.28984,-1.92929 l 0.6639,-0.0873 0.26529,0.67077 c 0.6096,1.54139 -0.76601,3.63541 -1.84438,2.80762 z m -43.49842,1.56527 c -1.4426,-1.71295 -3.66275,-4.34121 -4.93369,-5.84057 l -2.31075,-2.72612 0.0807,-0.69784 0.0807,-0.69786 0.91068,-0.0307 0.9107,-0.0308 4.00106,4.77166 c 2.20058,2.62442 4.39438,5.26074 4.87509,5.85851 l 0.87403,1.08684 -0.23336,0.61868 c -0.13926,0.36922 -0.51539,0.65574 -0.93286,0.71062 l -0.69949,0.0919 z m 58.02807,-4.72084 c -0.50129,-0.69906 -0.48808,-0.73444 2.85557,-7.64904 3.83607,-7.93298 3.73819,-7.798 4.96972,-6.85264 l 0.6443,0.49457 -0.24632,0.67012 c -0.2357,0.6413 -0.89398,2.03195 -4.76658,10.06986 l -1.73068,3.59221 -0.68214,0.0897 c -0.38552,0.0507 -0.83945,-0.12964 -1.04387,-0.41475 z m -27.70528,2.04994 -0.56993,-0.31163 -1.61425,-11.64531 c -1.83638,-13.24761 -1.77805,-15.16795 0.3886,-12.80326 l 0.52043,0.56801 1.51136,11.49712 c 0.90802,6.90741 1.42895,11.7156 1.30491,12.04444 -0.29008,0.76903 -0.87388,1.01551 -1.54114,0.65064 z m 67.84925,-9.54325 c -0.32605,-0.25026 -0.36384,-1.04265 -0.0681,-1.42788 0.34243,-0.44609 1.27677,-0.32746 1.56209,0.19789 0.41367,0.76244 -0.80057,1.76182 -1.49391,1.22957 z M 81.615401,198.91406 c -0.61477,-0.5697 -0.315893,-1.55947 0.503424,-1.66717 0.793149,-0.10427 1.275777,0.54933 0.941726,1.27533 -0.30809,0.66956 -0.955909,0.84522 -1.44515,0.39184 z m 56.964959,-10.02002 c -0.26898,-0.31901 -0.7124,-1.13053 -0.98536,-1.80339 -0.27296,-0.67284 -2.17421,-4.76041 -4.22502,-9.08346 -3.6411,-7.6754 -3.93618,-8.52545 -3.11428,-8.97139 1.25166,-0.67909 1.34513,-0.53521 5.55583,8.55313 1.75392,3.7856 3.52389,7.52025 3.93328,8.2992 1.38195,2.62939 0.48041,4.95661 -1.16445,3.00591 z m 30.80298,-3.85448 -0.42484,-0.3937 0.3279,-1.95601 c 1.01468,-6.05238 3.03012,-17.18022 3.27507,-18.08248 l 0.2851,-1.05036 0.70821,-0.0931 c 0.4011,-0.0527 0.85877,0.11726 1.05556,0.39133 l 0.34737,0.48443 -1.80283,10.19593 c -2.10194,11.88763 -2.14602,12.01033 -3.77156,10.50396 z m -71.579996,7.10449 c -0.431064,-0.33089 -0.529578,-2.34146 -0.125469,-2.56072 0.607703,-0.3297 2.617855,0.95561 2.609895,1.6688 l -0.007,0.60048 -1.125202,0.23293 c -0.61884,0.12815 -1.227508,0.15431 -1.352515,0.0585 z M 210.06907,177.05071 c -0.74426,-0.63264 -0.73467,-0.95999 0.0422,-1.44512 0.36386,-0.22725 0.64347,-0.55095 0.62134,-0.71939 -0.0222,-0.16843 0.31335,-0.31193 0.74555,-0.31891 l 0.78581,-0.0127 0.18438,0.83483 c 0.23779,1.07692 0.0307,1.45556 -0.99761,1.82417 l -0.83704,0.30003 z M 86.431009,188.37046 c -0.972948,-2.19919 -2.49953,-3.47492 -4.65773,-3.89231 -2.207782,-0.42699 -2.225765,-0.67246 -0.130463,-1.78174 2.132168,-1.12882 2.943497,-2.27228 3.424407,-4.82629 0.447199,-2.37496 0.709473,-2.4089 1.763997,-0.22785 1.136336,2.34983 2.564041,3.49447 4.865031,3.9005 2.130894,0.37598 2.13018,0.52165 -0.0075,1.55945 l -1.746618,0.84794 -0.807817,1.24045 c -0.483088,0.7418 -0.908428,1.93991 -1.058077,2.98041 -0.316669,2.20178 -0.73692,2.25286 -1.645131,0.20002 z m 0.803445,-5.363 c -0.02803,-0.21327 -0.251918,-0.51431 -0.497512,-0.66898 l -0.446533,-0.2812 -0.219692,0.58243 c -0.12082,0.32033 -0.129176,0.65191 -0.01856,0.73682 0.375676,0.28837 1.233523,0.0206 1.1823,-0.36907 z M 221.56456,170.4254 c -1.17739,-2.31949 -2.35213,-3.26197 -4.7194,-3.78632 l -1.87824,-0.41604 0.46744,-0.44615 c 0.25711,-0.24537 0.95555,-0.64891 1.55211,-0.89674 1.6128,-0.67001 2.78766,-2.4002 3.24179,-4.77421 0.45353,-2.37091 0.71302,-2.40797 1.82572,-0.26077 1.45667,2.81092 1.86124,3.10439 5.86596,4.25482 l 1.03331,0.29681 -1.82891,0.88789 c -2.39098,1.16077 -3.39341,2.45151 -3.77071,4.85528 -0.37579,2.39417 -0.69296,2.44478 -1.78907,0.28542 z m 0.94754,-5.10536 c 0.0786,-0.17473 -0.0358,-0.48343 -0.25446,-0.68598 l -0.39742,-0.36828 -0.3429,0.37002 c -0.18859,0.20352 -0.31995,0.54453 -0.29192,0.75781 0.0594,0.45189 1.0764,0.39373 1.2867,-0.0735 z m -120.93978,15.8392 c -0.22419,-0.32489 -0.70721,-0.77907 -1.07342,-1.00926 l -0.665812,-0.41854 0.647902,-0.72453 c 0.35634,-0.3985 0.69773,-0.9566 0.75863,-1.24022 0.18804,-0.8756 0.72541,-0.70921 1.92128,0.5949 0.84541,0.92193 0.99685,1.38308 0.4775,1.45403 -0.19342,0.0263 -0.51756,0.45561 -0.72037,0.95377 -0.44046,1.08186 -0.79697,1.18515 -1.34571,0.38985 z m 104.00323,-13.23166 c -0.21367,-0.0502 -0.54367,-0.37942 -0.73342,-0.73171 -0.18971,-0.35229 -0.53809,-0.61512 -0.77415,-0.5841 -0.61861,0.0813 -0.66861,-0.98648 -0.0596,-1.27173 0.28196,-0.13208 0.54998,-0.56259 0.59558,-0.95667 0.11263,-0.97356 0.47906,-0.95219 1.77401,0.10346 1.3049,1.0638 1.28291,0.99344 0.58494,1.87318 -0.30399,0.38317 -0.65313,0.91314 -0.77585,1.17772 -0.12274,0.26458 -0.39791,0.44002 -0.61155,0.38985 z m -12.64215,0.6821 c -0.63351,-0.25267 -0.78715,-1.09573 -0.29619,-1.62552 l 0.36016,-0.38863 0.62184,0.23457 c 0.342,0.12901 0.65398,0.47898 0.69326,0.77773 0.0931,0.70806 -0.68978,1.27678 -1.37907,1.00185 z m 16.30613,-8.49831 -0.55962,-0.3062 0.11685,-0.65449 0.11686,-0.65448 0.76133,-0.0118 0.76135,-0.0118 0.1833,0.65941 c 0.27612,0.99322 -0.43392,1.49716 -1.38002,0.97946 z M 96.375604,174.85044 c -0.378495,-0.29054 -0.385753,-1.39713 -0.01181,-1.80065 0.806163,-0.86993 2.164819,0.0787 1.737049,1.21279 -0.210785,0.55878 -1.285889,0.92512 -1.725234,0.58786 z m 14.457126,-2.69173 c -0.37418,-0.68965 -0.0621,-1.30053 0.71661,-1.4029 l 0.73127,-0.0961 0.0127,0.7858 0.0127,0.78582 -0.62277,0.17354 c -0.37356,0.10408 -0.7139,0.006 -0.85048,-0.24613 z m 84.50754,-12.82715 c -0.37627,-0.69354 -0.0628,-1.34885 0.64176,-1.34154 l 0.64648,0.007 0.0925,0.70374 0.0925,0.70373 -0.62278,0.17355 c -0.37355,0.10408 -0.7139,0.006 -0.85048,-0.24615 z m 25.55705,85.30602 c -11.40574,-38.75115 -57.17446,-56.4155 -88.53096,-34.16834 -16.23617,11.51942 -28.2611,35.52583 -26.0854,52.0766 0.4401,3.34793 0.67073,3.00804 0.49162,-0.72456 -0.19405,-4.04361 0.81683,-11.81776 1.72398,-13.25821 0.77045,-1.22338 1.46353,0.446 0.95487,2.29998 -0.49113,1.79019 -1.06724,7.80755 -0.97247,10.15676 l 0.0877,2.17402 0.61982,-0.52977 c 0.3409,-0.29138 0.86833,-0.73279 1.17208,-0.98092 l 0.55224,-0.45115 -0.10422,-2.30033 c -1.14113,-25.18641 18.82479,-49.23663 44.63097,-53.76077 l 3.77875,-0.66248 4.00417,-0.0368 c 24.27134,-0.22294 46.91726,16.7257 52.57356,39.34705 0.93487,3.73879 0.95042,3.77003 2.14699,4.30851 1.81729,0.81781 1.26469,-2.49609 -1.44645,-8.6743 -1.52864,-3.48341 -1.63604,-4.10197 -0.73287,-4.2207 l 0.54126,-0.0711 0.62539,1.11459 c 1.21257,2.16113 3.10722,7.28881 3.83793,10.38705 0.40662,1.72403 0.84176,3.31442 0.96699,3.53421 0.5219,0.91594 -0.0506,-2.89077 -0.83598,-5.55933 z m -52.24284,9.88454 c 6.57456,-2.69895 11.05455,-8.18286 12.38015,-15.15437 l 0.44677,-2.34959 -0.46946,-3.66095 -0.46945,-3.66093 -1.02036,-1.84233 c -3.03993,-5.48857 -9.06553,-9.19747 -15.79438,-9.7217 l -2.1699,-0.16906 -3.64152,0.61716 -3.64152,0.61719 -1.48735,0.76431 c -7.35338,3.77873 -10.83831,8.51156 -11.31339,15.36454 l -0.1639,2.36431 0.47369,2.25088 c 2.54173,12.07773 15.6461,19.18838 26.87073,14.58052 z m -9.30451,-9.17612 c -2.56879,-0.88447 -3.83497,-2.42213 -2.94699,-3.5789 0.58393,-0.76071 1.05273,-0.69176 2.39967,0.35291 0.69568,0.53958 1.7275,1.02532 2.36784,1.11471 l 1.13486,0.15871 1.09469,-0.45462 c 0.67977,-0.28232 1.42378,-0.92062 1.96293,-1.68402 0.97552,-1.38128 1.45344,-1.56006 2.28371,-0.85429 1.72846,1.4693 -1.50176,4.74848 -5.18353,5.2621 l -1.56169,0.2179 z m -12.08229,-9.17418 c -1.74961,-1.34305 1.15446,-5.67579 4.25935,-6.35474 3.75297,-0.82069 8.97659,3.27187 6.28928,4.92747 -0.83393,0.51378 -1.24343,0.35432 -2.03105,-0.7909 -1.92193,-2.79457 -4.74429,-2.40391 -6.37166,0.88197 -0.68124,1.37553 -1.46165,1.86148 -2.14592,1.3362 z m 16.90882,-2.57889 -0.53264,-0.61876 0.27072,-0.99337 c 1.2591,-4.6199 6.76055,-6.00934 9.98012,-2.52059 2.65644,2.87847 1.19514,4.98624 -1.51057,2.17888 l -1.3376,-1.38783 -1.15446,-0.18681 -1.15445,-0.18681 -0.82732,0.47744 c -0.55601,0.32087 -0.99119,0.94322 -1.32704,1.89774 -0.68158,1.93718 -1.5003,2.39303 -2.40675,1.34004 z M 126.28785,250.144 c 1.01309,-7.80383 5.80575,-16.83307 11.72182,-22.08369 1.97652,-1.7542 7.40506,-6.10903 8.90276,-7.1419 1.79506,-1.23792 0.4506,-0.90502 -2.35732,0.5837 -10.29605,5.45885 -17.16585,14.24122 -20.08404,25.67555 -1.01125,3.96234 -1.44028,10.69641 -0.70662,11.0918 0.0817,0.0441 0.61826,0.22176 1.19225,0.3949 l 1.04364,0.3148 -0.0359,-3.03376 c -0.0198,-1.66858 0.12578,-4.2792 0.3234,-5.8014 z m 76.46631,-1.90498 0.98673,-0.57351 -0.38189,-1.43892 c -3.49847,-13.18188 -12.87547,-23.09938 -25.94313,-27.43851 -3.53821,-1.17487 -8.109,-2.23039 -8.34231,-1.92646 -0.0656,0.0855 0.24025,0.197 0.67968,0.24786 0.90653,0.1049 8.89979,3.57475 12.12969,5.26549 9.60815,5.02947 17.01937,14.45487 18.9989,24.16236 0.5222,2.56083 0.47224,2.51543 1.87233,1.70169 z m 11.31764,-3.26326 c -4.77914,-20.39758 -25.34928,-36.8311 -47.98944,-38.33884 l -2.59999,-0.17315 -6.05211,0.79559 -6.05211,0.79557 -2.43254,0.83157 c -21.21588,7.25268 -37.32466,29.34508 -36.12403,49.54235 l 0.0887,1.49173 0.35496,-0.0467 c 0.21292,-0.028 0.3498,-0.59026 0.34208,-1.40517 -0.0436,-4.60628 0.75596,-10.48786 1.98187,-14.57842 l 0.55837,-1.86314 0.58063,-0.0763 0.58065,-0.0763 0.0894,0.6804 c 0.0492,0.37422 -0.0735,1.26014 -0.27249,1.96873 -1.0463,3.72461 -1.97287,11.44766 -1.65947,13.83177 l 0.0848,0.64528 0.56297,-0.074 0.563,-0.074 -0.10734,-0.81651 c -2.41513,-18.3722 13.12509,-40.20525 32.99425,-46.35486 l 2.75163,-0.85164 5.62948,-0.74306 5.62948,-0.74306 2.88117,0.13384 c 14.75619,0.68544 29.31076,8.79423 37.37071,20.82031 l 2.33024,3.47694 1.47935,3.5282 c 0.81363,1.94049 1.79729,4.8072 2.18586,6.37047 l 0.70655,2.84229 0.54728,-0.072 0.5473,-0.0719 -0.44478,-2.03647 c -0.54706,-2.50469 -1.40213,-4.81033 -2.95008,-7.95487 -1.23538,-2.50956 -1.35664,-3.41558 -0.47235,-3.53182 l 0.52381,-0.0689 0.7471,1.40516 c 1.97802,3.72046 4.14374,9.34676 4.42688,11.50059 0.12178,0.92639 0.3442,1.25946 0.80091,1.19942 0.14832,-0.0195 0.0712,-0.82664 -0.18236,-1.90895 z m -92.39302,4.95601 c 4.35519,-31.02323 42.5096,-46.12819 68.49165,-27.11516 7.52333,5.50537 14.33709,15.8034 15.29774,23.12037 l 0.14204,1.08178 1.41708,-0.28705 1.41708,-0.28704 -0.36998,-1.42556 c -5.84403,-22.51651 -27.70078,-36.35047 -51.46274,-32.57278 l -5.6829,0.90348 -3.39423,1.34193 c -17.49669,6.91741 -30.19635,25.24799 -28.93199,41.76017 l 0.13021,1.70103 1.28523,-0.0258 1.28522,-0.0258 -0.01,-2.67818 c -0.005,-1.47298 0.16803,-3.94413 0.38524,-5.49143 z m 115.83233,-99.91262 c -0.33491,-2.79708 -2.16525,-5.84598 -3.41119,-5.6822 -0.15483,0.0203 0.1,0.34306 0.56626,0.71711 1.25695,1.00839 1.99057,2.69028 2.3758,5.44679 0.38864,2.77998 0.80808,2.34918 0.46913,-0.4817 z M 65.958272,170.24284 c -2.68e-4,-0.71203 0.334166,-1.87357 0.814072,-2.82743 l 0.814523,-1.61892 -0.689019,0.80647 c -1.092278,1.27848 -1.472394,2.93341 -1.152931,5.01964 0.153674,1.00354 0.264634,1.37553 0.246594,0.82667 -0.01802,-0.54887 -0.033,-1.54177 -0.03324,-2.20643 z m -6.044224,194.13001 c -0.410211,-0.75608 0.210289,-1.03455 2.907892,-1.30503 l 2.659667,-0.26672 0.173215,0.62153 0.173205,0.62155 -2.843346,0.37377 -2.843352,0.37377 z M 286.23951,334.63018 c -0.42733,-0.7876 0.20199,-1.03934 3.46493,-1.38585 l 3.22396,-0.34241 0.074,0.56298 0.074,0.56299 -3.3025,0.51482 -3.30251,0.51482 z M 148.76744,144.45803 c -1.06553,-2.19257 -1.76377,-2.83925 -3.57507,-3.31112 -2.03085,-0.52907 -2.05598,-0.6237 -0.39147,-1.47336 1.62512,-0.82955 2.46529,-2.08798 2.78483,-4.1711 0.30531,-1.9905 0.49239,-2.01103 1.35995,-0.14932 0.87107,1.86933 2.31104,3.15656 3.80066,3.39755 1.4732,0.23832 1.47074,0.46558 -0.0138,1.26795 -1.51453,0.81858 -2.28163,1.99533 -2.64567,4.05845 -0.34637,1.963 -0.52546,2.0147 -1.31944,0.3809 z"
       id="path1" /><path
       style="fill:#002255;stroke-width:0.261666"
       d="m 369.30034,227.12586 c -2.10886,-0.59988 -6.98264,-2.7607 -20.67158,-9.16486 -3.51693,-1.64535 -9.65828,-4.4348 -14.3916,-6.53679 -1.3672,-0.60715 -4.78194,-2.16633 -7.5883,-3.46483 -4.90191,-2.26812 -11.04471,-5.06979 -20.54074,-9.36843 -9.49591,-4.29858 -10.96582,-5.34915 -12.86724,-9.19639 l -0.99592,-2.01512 -0.0957,-2.7957 -0.0957,-2.7957 0.52345,-2.06386 0.52345,-2.06386 26.94831,-54.03392 c 14.82158,-29.718668 29.54889,-59.282609 32.72736,-65.697658 l 5.77905,-11.663722 1.35808,-1.358088 c 1.65344,-1.653439 3.97998,-2.841685 6.3246,-3.230201 l 1.75413,-0.290671 1.69664,0.281144 c 0.97294,0.16122 3.23311,0.948017 5.29873,1.844561 8.16937,3.545772 21.70883,9.511214 35.13277,15.479394 12.40658,5.515875 17.08019,7.575959 29.19933,12.870845 4.42542,1.933478 6.65876,4.257175 8.51465,8.859096 l 1.10485,2.739638 0.11414,2.878321 0.11414,2.878321 -0.66301,1.971981 c -0.6723,1.999582 -1.64472,4.027489 -14.23659,29.689549 -3.88395,7.91538 -7.74315,15.8046 -8.57601,17.53159 -0.83288,1.72699 -4.42282,9.02746 -7.97763,16.22326 -35.87724,72.62394 -33.1572,67.4026 -36.37234,69.81947 -3.61745,2.71928 -8.25713,3.74908 -12.04134,2.67263 z m 6.81243,-3.30502 c 4.79958,-1.57562 5.86041,-2.96757 12.41302,-16.28768 6.34879,-12.90576 14.27087,-28.93285 24.0784,-48.71275 4.42424,-8.9228 8.84071,-17.87176 9.81442,-19.88658 0.97371,-2.01482 3.56291,-7.31355 5.75379,-11.77495 2.19087,-4.4614 4.60539,-9.40688 5.3656,-10.98995 0.76025,-1.58308 3.5832,-7.3528 6.27328,-12.82161 6.13341,-12.468972 7.12282,-14.824131 6.89494,-16.412742 -0.0772,-0.537968 -5.43694,9.896754 -9.90883,19.291062 -0.82208,1.72699 -3.34741,6.90797 -5.61184,11.51328 -2.26442,4.60532 -5.0908,10.37504 -6.28086,12.82161 -3.68984,7.58588 -10.13731,20.65433 -20.37897,41.30642 -5.4141,10.91741 -9.84383,19.87941 -9.84383,19.91556 0,0.0361 -2.88662,5.92469 -6.41471,13.08565 l -6.4147,13.01992 -1.54009,1.50698 c -1.75871,1.7209 -3.61372,2.70683 -5.98751,3.18233 l -1.64792,0.33011 -1.88456,-0.41111 c -1.78919,-0.3903 -4.51118,-1.59846 -24.64946,-10.9407 -2.7344,-1.2685 -7.44438,-3.42528 -10.46662,-4.79285 -3.02224,-1.36756 -9.67508,-4.3977 -14.7841,-6.73364 -5.10902,-2.33594 -9.819,-4.48293 -10.46662,-4.77109 -10.06893,-4.48012 -12.37431,-5.72794 -14.36369,-7.77455 l -1.14958,-1.18264 0.19635,0.65135 c 0.94471,3.13388 2.6303,4.35751 11.55627,8.3891 2.28423,1.03172 6.44926,2.93604 9.25563,4.23183 4.59938,2.12368 10.86535,4.98128 16.22326,7.39863 1.07937,0.48698 5.2006,2.37813 9.15829,4.20255 3.95769,1.82441 9.19754,4.22715 11.64411,5.33941 2.44658,1.11226 7.07894,3.2207 10.29414,4.68542 7.60606,3.46503 9.27061,3.80404 12.87239,2.62163 z m -0.52123,-4.7315 1.68284,-0.56831 1.39686,-1.39686 1.39686,-1.39686 5.24493,-10.6602 c 2.88473,-5.8631 6.39422,-13.01518 7.79889,-15.8935 2.52439,-5.17276 9.37246,-19.03584 21.7152,-43.95981 3.49219,-7.05188 6.96886,-14.11685 7.72591,-15.69993 1.80656,-3.77778 7.98079,-16.42578 16.60545,-34.01652 4.92629,-10.047616 4.97823,-10.17673 4.97797,-12.37338 l -2.1e-4,-1.756556 -0.74548,-1.575844 c -0.46917,-0.991709 -1.23566,-2.016525 -2.06779,-2.764684 l -1.32227,-1.188841 -3.62326,-1.589544 C 423.1195,68.432113 416.19647,65.377367 410.12015,62.662622 398.08348,57.284948 391.35612,54.311983 384.3461,51.272529 c -3.74181,-1.622402 -8.21629,-3.597336 -9.94328,-4.388741 -7.24018,-3.317845 -11.05662,-2.411109 -13.74083,3.264639 l -0.76487,1.617331 0.28786,0.346856 c 0.32648,0.393375 0.64532,0.540742 8.19953,3.789735 3.02224,1.299837 9.96946,4.339634 15.43826,6.755105 15.80098,6.979003 22.65212,9.991506 28.25987,12.426118 6.54936,2.843404 8.91071,3.885777 11.34037,5.005954 1.05621,0.486965 1.96234,0.88539 2.0136,0.88539 0.16942,0 11.48012,5.019794 12.69818,5.635569 1.53838,0.777711 1.88025,1.213596 1.89207,2.412514 l 0.01,0.979377 -2.36682,4.840811 c -2.55265,5.220933 -3.7656,7.711463 -14.14572,29.044873 -3.74633,7.69951 -10.95784,22.35932 -16.02562,32.57736 -5.06778,10.21804 -12.86002,25.99647 -17.3161,35.06318 -9.15701,18.63151 -8.86173,18.13197 -10.02829,16.96542 -0.76201,-0.76201 -0.76403,-0.75734 8.11868,-18.79708 2.40939,-4.89315 5.29401,-10.78062 6.41033,-13.08328 1.11629,-2.30265 6.47183,-13.13561 11.9012,-24.07322 5.42935,-10.93762 10.55248,-21.29958 11.3847,-23.02657 0.83223,-1.72699 3.46909,-7.13125 5.85966,-12.00946 2.39057,-4.87821 4.3465,-8.89836 4.3465,-8.93367 0,-0.0353 2.06061,-4.27152 4.57914,-9.413793 5.37108,-10.966531 5.09657,-9.730198 2.42041,-10.900168 C 429.72653,85.87482 416.35205,79.988581 406.45714,75.617791 355.16866,52.96259 358.88493,54.410419 357.74521,56.640024 351.49553,68.866119 296.75792,179.14068 296.54337,179.93744 c -1.10977,4.1214 1.17912,6.47531 10.15067,10.439 1.98057,0.87502 7.89889,3.56974 13.15183,5.98825 10.95384,5.04328 29.16473,13.36698 34.93234,15.96663 2.15874,0.97301 6.16223,2.80204 8.89663,4.0645 7.79255,3.59777 8.65927,3.79367 11.91701,2.69352 z M 351.5099,206.44693 c -0.18521,-0.22317 -0.25254,-0.66952 -0.15788,-1.04666 l 0.16503,-0.65756 h 0.63997 c 0.36492,0 0.7564,0.21752 0.91085,0.50612 0.59591,1.11347 -0.76172,2.15751 -1.55797,1.1981 z m -5.62862,-2.12812 c -1.15133,-0.51255 -3.44745,-1.55435 -5.10248,-2.31511 -1.65504,-0.76077 -5.30527,-2.41785 -8.11163,-3.6824 -2.80636,-1.26455 -5.37357,-2.47412 -5.70489,-2.68792 l -0.60242,-0.38873 0.0791,-0.81136 0.0791,-0.81137 0.79736,-0.078 c 0.51579,-0.0505 1.62462,0.30892 3.13999,1.01775 3.82527,1.78931 17.18155,7.82608 17.31511,7.82608 1.12431,0 1.9504,1.73427 1.16475,2.44527 -0.62724,0.56764 -0.62184,0.56855 -3.05396,-0.51417 z m 22.17797,-3.51698 c -1.83794,-0.72698 -3.96072,-2.71432 -4.91859,-4.60477 l -0.77446,-1.52848 v -2.48582 -2.48582 l 0.71822,-1.46247 c 0.90475,-1.84226 2.52652,-3.45996 4.3825,-4.37149 l 1.44092,-0.70768 h 2.48582 2.48583 l 1.43916,0.67959 c 3.02926,1.43047 4.95219,4.30077 5.17606,7.72618 l 0.12184,1.86413 -0.57814,1.73732 -0.57815,1.73731 -1.30149,1.42404 c -0.77033,0.84287 -1.90049,1.71711 -2.76923,2.14214 l -1.46775,0.7181 -2.24531,0.0802 -2.24531,0.0802 z m 5.99684,-2.53931 c 2.37237,-1.05599 3.87921,-3.41988 3.87921,-6.08561 v -1.58154 l -0.62826,-1.23421 c -0.34555,-0.67882 -0.9343,-1.51968 -1.30833,-1.86858 l -0.68006,-0.63435 v 0.79771 c 0,0.43874 0.17213,1.28558 0.38251,1.88187 0.47661,1.35086 0.29774,1.85995 -0.65348,1.85995 -1.47867,0 -2.05443,-1.41582 -1.5547,-3.82303 l 0.30695,-1.47854 -0.35272,-0.22352 c -4.89203,-3.10025 -10.88347,4.9873 -7.49005,10.11043 1.47535,2.22738 2.16217,2.21996 2.59379,-0.028 0.35845,-1.86683 0.72202,-2.33161 1.64307,-2.10044 l 0.67631,0.16974 v 1.15547 c 0,0.63552 -0.10051,1.42808 -0.22335,1.76126 -0.12284,0.33318 -0.30602,0.94674 -0.40705,1.36347 l -0.1837,0.75769 1.43407,-0.14801 c 0.78874,-0.0814 1.94334,-0.37469 2.56579,-0.65175 z m -0.68125,-2.56597 c -0.97064,-0.97064 -0.17351,-2.20546 1.42372,-2.20546 1.69437,0 1.78196,1.54978 0.12668,2.2414 -1.10554,0.46192 -1.05128,0.46318 -1.5504,-0.0359 z m -6.75388,-2.00921 c -0.42632,-0.32855 -0.54911,-0.72069 -0.49161,-1.57 l 0.031,-0.45791 h 0.75601 c 0.4158,0 1.03122,0.22285 1.36759,0.49523 l 0.61157,0.49522 -0.36514,0.68227 c -0.39736,0.74248 -1.21059,0.89376 -1.90942,0.35519 z m 2.22146,-4.24968 c -0.46772,-0.20329 -0.85041,-0.44192 -0.85041,-0.53029 0,-0.52791 0.64077,-1.1711 1.42434,-1.4297 l 0.90502,-0.29868 0.53615,0.28693 c 1.76058,0.94223 -0.12926,2.79141 -2.0151,1.97174 z m -45.96902,4.16557 c -0.48646,-0.48646 -0.49063,-0.52144 -0.14032,-1.17601 0.30528,-0.57042 1.03697,-0.66361 1.50846,-0.19213 0.47148,0.47149 0.37829,1.20318 -0.19213,1.50846 -0.65457,0.35031 -0.68955,0.34614 -1.17601,-0.14032 z m 20.91455,-2.83403 c -2.90982,-0.92266 -4.90537,-2.76361 -5.91123,-5.45326 l -0.56636,-1.51443 0.11747,-2.02911 0.11746,-2.02911 0.67512,-1.47464 c 1.20877,-2.6403 3.41529,-4.28015 6.66138,-4.95062 l 1.57438,-0.32518 1.65348,0.35089 c 1.08925,0.23115 2.19659,0.715 3.24504,1.41791 l 1.59155,1.06702 0.85519,1.43557 c 4.27979,7.18435 -2.23543,15.9713 -10.01348,13.50496 z m 4.59795,-2.64982 c 0.63728,-0.22003 1.43046,-0.60837 1.76262,-0.86299 l 0.60392,-0.46292 -0.73476,-0.81481 c -0.4278,-0.47442 -1.11735,-0.88981 -1.65058,-0.99436 -1.36802,-0.2682 -2.01861,-0.78478 -3.06262,-2.4318 -0.51964,-0.81979 -1.27951,-1.87731 -1.68858,-2.35004 -0.88603,-1.02392 -0.92188,-1.38402 -0.20257,-2.03499 l 0.54122,-0.48979 0.67805,0.38382 c 0.37293,0.2111 1.27744,1.2563 2.01003,2.32266 1.3868,2.01864 1.64785,2.2489 2.83175,2.49767 0.39313,0.0826 1.13511,0.51925 1.64884,0.97031 1.11979,0.98319 1.38461,0.81485 1.6017,-1.01815 0.80778,-6.8204 -9.00066,-9.80948 -12.05782,-3.67457 l -0.6733,1.35115 v 1.69766 c 0,4.44432 4.15796,7.37307 8.3921,5.91115 z m -6.49502,-2.64671 c -0.47651,-0.19933 -0.40053,-1.38978 0.10098,-1.58223 0.62117,-0.23836 1.27276,0.27062 1.27276,0.9942 0,0.62798 -0.63176,0.89841 -1.37374,0.58803 z m -23.53629,-6.12522 c -1.7656,-0.69585 -3.85469,-2.59007 -4.71549,-4.27563 l -0.68253,-1.33648 -0.11911,-1.98473 c -0.24432,-4.07103 2.54011,-8.80677 4.83882,-8.22983 0.38742,0.0972 0.76572,-0.026 1.09711,-0.35739 0.75095,-0.75095 3.03135,-0.9627 4.80738,-0.44639 7.73624,2.24899 8.75924,12.76693 1.58412,16.2871 l -1.52518,0.74827 -1.96249,0.0656 -1.96249,0.0656 z m 5.24713,-2.43939 c 4.0551,-1.69433 5.08407,-6.50574 2.10091,-9.82374 l -1.19496,-1.32907 -1.44824,-0.42102 c -6.09844,-1.77286 -10.41551,5.66849 -5.92225,10.20823 1.56948,1.58572 4.47085,2.19862 6.46454,1.3656 z m -4.04209,-2.07209 -1.15323,-0.6002 -0.58875,-1.15607 c -2.35806,-4.63031 3.76455,-8.40903 6.92061,-4.27123 l 0.73311,0.96115 v 1.45953 1.45953 l -0.61079,0.85634 c -1.28531,1.80204 -3.35191,2.30532 -5.30095,1.29095 z m 3.04531,-2.39706 c 0.84337,-0.84337 0.8253,-1.79243 -0.0472,-2.47873 -1.91265,-1.50449 -4.04641,0.76392 -2.3316,2.47873 0.35325,0.35325 0.88848,0.64227 1.18939,0.64227 0.30092,0 0.83614,-0.28902 1.18939,-0.64227 z m 62.40016,2.80101 c -0.30709,-0.39577 -0.89259,-1.20217 -1.30116,-1.792 l -0.74284,-1.07243 -1.3767,-0.16305 c -1.85992,-0.22028 -3.28968,-1.19875 -3.95742,-2.70828 l -0.52374,-1.184 0.1356,-1.21739 c 0.87168,-7.82529 0.82031,-7.58364 1.65677,-7.79358 0.88256,-0.22151 1.26615,0.0298 2.67822,1.75483 l 1.15272,1.40816 1.48421,0.006 1.4842,0.006 0.92417,0.70481 c 2.24564,1.71265 2.39785,4.94296 0.3364,7.13847 l -0.7308,0.7783 0.82694,1.49275 c 1.48231,2.67583 -0.26758,4.93471 -2.04657,2.64187 z m -0.91117,-5.82665 c 1.85817,-0.89952 2.46233,-2.85036 1.25626,-4.05643 -0.42262,-0.42261 -1.01286,-0.42154 -2.35104,0.004 l -0.56198,0.17881 -1.07343,-0.96979 -1.07345,-0.9698 v 0.58408 c 0,0.32124 -0.20392,1.15823 -0.45316,1.85997 l -0.45315,1.27588 0.46588,0.86509 c 0.921,1.7102 2.37738,2.13158 4.24407,1.22793 z m -23.69022,-3.23987 c -0.86803,-0.32526 -9.09602,-3.93326 -10.93606,-4.7955 -2.61918,-1.22734 0.52,-11.58495 3.51116,-11.58495 0.34582,0 2.30508,0.7483 4.35391,1.66288 2.04884,0.91459 4.87654,2.16524 6.28378,2.77922 3.9412,1.71955 3.96522,1.81671 1.75585,7.10222 -2.07304,4.95936 -2.78651,5.6538 -4.96864,4.83613 z m 2.39014,-4.74995 c 0.55008,-1.28776 1.13132,-2.56324 1.29164,-2.83441 l 0.29151,-0.49304 -0.6129,0.13417 c -0.3371,0.0738 -1.95088,0.52431 -3.58618,1.00114 l -2.97328,0.86698 -0.6833,-0.38353 c -0.37581,-0.21093 -1.43901,-1.59328 -2.36268,-3.07189 l -1.67939,-2.68837 -1.00943,2.23466 c -1.18279,2.61847 -1.18639,2.64475 -0.42067,3.07274 1.16419,0.6507 10.27564,4.59634 10.50745,4.55016 0.1304,-0.026 0.68715,-1.10085 1.23723,-2.38861 z m -2.97061,-4.34361 c 2.40034,-0.71145 2.37142,-0.76572 -1.25249,-2.35 -1.64996,-0.72133 -3.1489,-1.43513 -3.33097,-1.58624 -0.64936,-0.53892 0.28783,1.30907 1.84958,3.64711 0.67494,1.01043 0.39881,0.98123 2.73388,0.28913 z m -28.63528,-1.26473 c -3.41488,-0.8952 -5.42748,-2.37867 -6.68174,-4.92505 l -0.60485,-1.22794 v -2.22416 -2.22416 l 0.77618,-1.40132 c 3.02808,-5.46696 11.35507,-6.39511 14.64692,-1.63261 l 0.76983,1.11376 0.11003,1.5211 c 0.13899,1.92155 -0.28011,3.1987 -1.42554,4.34413 l -0.90136,0.90136 0.27173,0.97844 c 1.2378,4.45702 -1.36557,6.24333 -6.9612,4.77645 z m 4.48012,-2.18963 0.48429,-0.35412 -0.35239,-1.98329 -0.3524,-1.98329 -1.41349,-0.54091 c -1.72239,-0.65912 -2.14,-0.66998 -3.19135,-0.083 l -0.82017,0.45791 -0.48511,-0.58779 c -1.68477,-2.04136 1.82689,-3.36589 5.37904,-2.02886 2.1369,0.80432 2.98539,0.47397 2.983,-1.16142 -0.007,-4.6927 -8.70827,-4.85011 -10.87485,-0.19673 -1.92027,4.12436 0.24747,7.15158 6.03502,8.42781 2.0356,0.44887 2.04052,0.44894 2.60841,0.0337 z m 56.00465,-0.79957 c -6.56887,-1.62769 -9.48244,-8.83882 -5.79953,-14.35402 4.6581,-6.97556 15.61419,-4.60551 17.18091,3.71664 1.19688,6.35771 -5.05841,12.20412 -11.38138,10.63738 z m 3.97125,-2.63959 c 5.99188,-1.77939 6.6912,-9.74116 1.10035,-12.5272 l -1.3802,-0.68778 -1.58402,0.006 c -2.64837,0.01 -4.98141,1.4248 -6.24546,3.7884 l -0.55976,1.04666 -0.006,1.9625 -0.006,1.96249 0.72541,1.23404 c 1.64538,2.79902 4.91188,4.1191 7.95581,3.21514 z m -3.57095,-2.37771 c -4.06675,-1.76392 -3.71283,-7.07384 0.56391,-8.46063 l 0.96421,-0.31266 1.11965,0.30148 c 1.42455,0.3836 2.94101,1.8804 3.376,3.33223 l 0.33125,1.10561 -0.30299,1.01123 c -0.80964,2.70237 -3.58955,4.09082 -6.05203,3.02274 z m 3.01326,-2.58292 c 0.43533,-0.43533 0.64226,-0.93506 0.64226,-1.551 v -0.90873 l -0.68944,-0.54232 c -1.8731,-1.47337 -4.18531,0.27781 -3.20569,2.42785 0.58187,1.27708 2.25469,1.57237 3.25287,0.5742 z m -29.62394,-2.45874 c -2.3815,-0.82299 -4.11579,-2.42098 -5.36645,-4.94471 l -0.81021,-1.63492 0.12791,-2.44539 0.12791,-2.44539 0.74708,-1.37263 c 2.26056,-4.1534 7.39383,-6.07524 11.81484,-4.42334 l 1.51439,0.56585 1.59321,1.59289 1.59321,1.5929 0.49635,1.43916 c 0.3187,0.92406 0.4953,2.14839 0.49341,3.42076 l -0.003,1.9816 -0.85002,1.72664 c -0.5478,1.11275 -1.34881,2.18251 -2.25292,3.00881 l -1.4029,1.28217 -1.73627,0.56998 c -2.10178,0.68997 -4.25033,0.72019 -6.08661,0.0856 z m 5.79001,-2.67818 c 0.63873,-0.30024 1.29371,-0.7054 1.45552,-0.90037 l 0.29419,-0.35448 -1.36516,-2.12816 -1.36516,-2.12817 -1.25984,0.17327 -1.25984,0.17327 -0.84623,-1.20055 c -0.46543,-0.66031 -0.91187,-1.19833 -0.99211,-1.1956 -0.0802,0.003 -1.029,0.2799 -2.10837,0.61593 l -1.96249,0.61097 0.073,1.11021 c 0.27715,4.21425 5.39378,7.07697 9.33648,5.22368 z m 4.08602,-6.19751 c -2.6e-4,-3.60037 -2.99546,-6.40549 -6.84776,-6.41333 l -1.72555,-0.004 -1.37066,0.74601 c -1.88265,1.02466 -3.77717,3.48828 -2.22423,2.89236 0.2263,-0.0868 1.17996,-0.36267 2.11924,-0.61295 l 1.70776,-0.45506 0.56283,0.69989 c 0.30956,0.38493 0.74243,0.95538 0.96194,1.26765 l 0.39911,0.56778 1.00015,-0.27616 1.00015,-0.27615 0.61867,0.66755 c 0.34026,0.36716 1.16958,1.55147 1.84292,2.6318 l 1.22426,1.96425 0.36565,-1.01044 c 0.20111,-0.55574 0.36559,-1.6311 0.36552,-2.38969 z m -34.69041,0.34921 c -9.74659,-3.79909 -10.04031,-4.75578 -4.88553,-15.91329 l 1.02848,-2.22614 1.40519,-0.46418 c 0.77286,-0.2553 1.75844,-0.72961 2.19019,-1.05402 0.43175,-0.32441 1.27095,-0.71908 1.8649,-0.87704 l 1.07991,-0.28721 1.77579,0.54849 c 2.98199,0.92104 4.28343,1.94336 4.54829,3.57281 l 0.15459,0.95105 1.30305,0.67066 c 2.89598,1.49049 3.07375,3.16882 0.93464,8.82386 -2.11959,5.60345 -2.6773,6.2639 -5.04837,5.97837 l -1.23716,-0.14898 -1.04199,0.53158 c -1.32423,0.67557 -2.12009,0.65486 -4.07198,-0.10596 z m 3.58187,-2.39715 c 0.44462,-0.22992 1.52307,-0.43598 2.39655,-0.45792 l 1.58815,-0.0399 0.86128,-2.08857 c 0.4737,-1.14872 0.86127,-2.12616 0.86127,-2.1721 0,-0.14087 -1.7933,-0.84181 -2.1537,-0.84181 -0.18637,0 -0.45509,0.25565 -0.59716,0.56812 -0.14206,0.31247 -0.69522,0.91806 -1.22924,1.34575 l -0.97094,0.77763 -1.30148,0.12505 -1.30148,0.12506 -1.21816,-0.5897 c -0.69891,-0.33834 -1.54274,-1.03778 -1.97964,-1.6409 l -0.76148,-1.05119 v -1.65485 -1.65485 l -0.79457,-0.41088 -0.79456,-0.41089 -0.93834,2.03958 c -0.51609,1.12176 -0.99426,2.51057 -1.06261,3.08624 l -0.12428,1.04666 0.59535,0.75454 c 1.40035,1.77482 7.45132,3.90699 8.92504,3.1449 z m 0.38155,-5.31933 c 0.4928,-0.30049 0.94536,-0.87153 1.12708,-1.42216 l 0.30365,-0.92006 -0.40228,-0.77791 c -1.0347,-2.0009 -2.80334,-2.41083 -4.23304,-0.98112 l -0.88967,0.88966 v 1.02387 1.02387 l 0.71958,0.67048 c 1.2096,1.12705 2.11772,1.25981 3.37468,0.49337 z m -2.17417,-0.82171 c -1.27974,-0.4758 -0.8731,-2.65455 0.52539,-2.81508 1.42176,-0.16319 2.31287,1.47541 1.28326,2.35969 -0.66073,0.56747 -1.16542,0.69454 -1.80865,0.45539 z m 8.67737,-2.47197 v -1.30474 l -1.83166,-0.91583 -1.83166,-0.91583 -0.0791,-1.08389 c -0.16772,-2.29873 -4.35495,-3.84055 -5.93922,-2.18693 l -0.75207,0.785 h -0.97637 -0.97637 l -0.57451,0.92959 c -0.31599,0.51128 -0.53166,0.95914 -0.47926,0.99524 0.0524,0.0361 0.56827,0.27093 1.14638,0.52182 l 1.05112,0.45617 1.27771,-0.56519 1.2777,-0.56518 1.16779,0.13162 c 1.57623,0.17767 3.16399,1.33656 4.03695,2.94653 l 0.7041,1.29854 0.99673,0.45444 c 0.5482,0.24995 1.17335,0.42496 1.38923,0.38892 l 0.3925,-0.0655 z m -0.0785,-37.336082 c -0.65725,-0.657244 -0.16802,-1.779326 0.77579,-1.779326 0.25398,0 0.59307,0.245293 0.75352,0.545096 l 0.29172,0.545099 -0.45391,0.501563 c -0.52308,0.578009 -0.92196,0.632734 -1.36712,0.187568 z m 2.04099,-5.148939 c 0,-0.91192 0.56851,-1.444344 1.29577,-1.213519 1.19804,0.380245 0.5577,1.966477 -0.79384,1.966477 h -0.50193 z m 78.85467,-1.736198 c -0.20965,-0.546282 0.37227,-1.174161 1.08818,-1.174161 0.64124,0 0.98687,0.546496 0.74476,1.177495 -0.19895,0.518385 -1.63377,0.515776 -1.83294,-0.0033 z m -2.96125,-1.030758 c -0.40129,-0.483511 -0.26684,-1.185737 0.29472,-1.539344 l 0.43598,-0.27454 0.41443,0.343949 c 0.56637,0.470046 0.521,1.251078 -0.0917,1.578989 -0.64822,0.346909 -0.67755,0.343873 -1.05344,-0.109054 z m -74.14899,-0.317848 c -0.44324,-0.443245 -0.037,-1.709521 1.69073,-5.2705 1.02584,-2.1143 2.36259,-4.903926 2.97055,-6.19917 0.60795,-1.295245 1.42758,-2.737676 1.8214,-3.205403 l 0.71603,-0.850413 h 0.88759 0.88758 l 0.16846,0.671193 0.16846,0.671191 -0.65749,0.702553 c -0.36162,0.386402 -1.92565,3.351914 -3.47562,6.590025 -3.52806,7.370636 -4.02982,8.038388 -5.17769,6.890524 z m 51.63532,-8.96792 c -1.22328,-0.562919 -5.22676,-2.338806 -8.89662,-3.946419 -7.85423,-3.440613 -8.64917,-4.021608 -7.17574,-5.244462 l 0.4126,-0.342405 0.96115,0.279678 c 1.13029,0.328885 14.05892,5.964828 16.53027,7.205994 l 1.70083,0.854191 0.0804,0.694277 c 0.0562,0.485243 -0.0992,0.820073 -0.51614,1.112079 -0.7564,0.529802 -0.50549,0.579466 -3.09671,-0.612933 z m -40.77535,-5.738294 c -0.19751,-0.125926 -0.31068,-0.54912 -0.26166,-0.978498 l 0.0864,-0.756603 0.70198,-0.0811 c 0.48763,-0.05633 0.78697,0.0777 0.98031,0.43896 0.28413,0.530904 0.13313,1.342967 -0.24973,1.342967 -0.11674,0 -0.36908,0.05764 -0.56075,0.128082 -0.19166,0.07045 -0.5051,0.02823 -0.69652,-0.09381 z m 19.0534,-3.647988 c -1.19327,-0.966263 -0.26627,-3.198812 1.15227,-2.775068 1.75075,0.522978 1.5555,3.248795 -0.23272,3.248795 -0.18398,0 -0.59778,-0.213179 -0.91955,-0.473727 z m -9.98701,-3.853174 c -1.15146,-0.625224 -1.27253,-2.433345 -0.20133,-3.006636 2.01813,-1.080067 4.05906,1.192048 2.48482,2.766283 -0.72959,0.729599 -1.27645,0.78716 -2.28349,0.240353 z"
       id="path1-93" /><path
       d="m 389.6697,425.63209 c 1.51571,-0.0971 2.61127,-0.41041 2.43459,-0.69628 -0.17667,-0.28588 -0.74515,-0.35713 -1.26324,-0.15837 -0.65829,0.25259 -0.80743,0.14376 -0.49517,-0.36148 0.35018,-0.56665 -0.65869,-0.65694 -4.66718,-0.41767 -2.81271,0.16797 -5.69838,0.31922 -6.41266,0.33625 -2.59257,0.062 -1.22393,1.16454 1.44298,1.16253 1.50792,-0.001 3.52088,0.0685 4.47324,0.15467 0.95237,0.0862 2.97173,0.0772 4.48744,-0.0196 z m -17.18566,-0.62902 c 1.45452,-0.67335 2.83095,-1.93583 3.72006,-3.41217 l 1.41123,-2.3434 9.55282,0.0246 c 9.41573,0.0244 9.57359,0.0456 10.99839,1.47335 3.65576,3.66359 11.17664,6.19642 12.42097,4.18303 0.22097,-0.35753 1.4638,-0.44568 3.14297,-0.22293 2.38333,0.31615 2.95879,0.18717 4.05523,-0.90932 0.92927,-0.92928 1.45091,-1.10459 1.91266,-0.64285 3.89931,3.89933 7.55492,-2.7369 4.04698,-7.3467 l -1.46191,-1.92108 1.36255,-0.9535 c 7.00835,-4.90428 10.88622,-13.91415 10.88622,-25.29299 0,-3.54437 0.0543,-3.68584 1.29868,-3.38451 11.2114,2.71492 11.85776,-5.91716 1.76936,-23.6296 -6.98734,-12.26787 -7.06314,-12.46438 -6.62915,-17.18803 3.59895,-39.17132 -15.81268,-62.97739 -50.11778,-61.46348 -30.39175,1.3412 -45.02092,18.94485 -45.23073,54.42735 l -0.0788,13.3325 -5.8413,8.60081 c -14.06259,20.70592 -13.80707,30.80591 0.63907,25.2624 0.9784,-0.37544 1.02879,-0.0862 0.72553,4.16569 -0.41922,5.87798 -0.62314,6.31192 -3.50419,7.45643 -10.84769,4.30928 -2.46802,13.65909 17.10924,19.09016 3.07453,0.85291 5.59005,1.80411 5.59005,2.11376 0,0.30964 -0.45454,0.38442 -1.01009,0.16623 -4.62839,-1.81825 -25.06202,-3.85419 -25.85208,-2.57582 -0.18367,0.2972 0.13592,0.562 0.71017,0.58846 0.57431,0.0264 1.56362,0.12849 2.19853,0.22672 0.63491,0.0982 2.62622,0.32791 4.42516,0.51035 1.79893,0.18237 4.91577,0.58425 6.9263,0.89295 5.67876,0.87189 9.90808,1.38198 11.01473,1.32844 0.63133,-0.0305 1.01008,0.37059 1.01008,1.06966 0,1.28299 -0.17627,1.31844 -2.80567,0.56434 -1.06272,-0.30478 -3.52855,-0.71624 -5.47951,-0.9143 -1.95097,-0.19808 -4.27648,-0.45115 -5.16778,-0.56239 -5.00841,-0.62511 -16.21447,-0.90092 -15.69523,-0.3863 0.31745,0.31459 2.13561,0.74027 4.04034,0.94597 1.90474,0.20571 5.02157,0.607 6.92631,0.89184 5.44886,0.81486 7.70505,1.06262 13.39853,1.47126 3.5794,0.25689 5.54687,0.65766 6.01844,1.22592 1.10336,1.32939 3.74153,2.49971 5.63506,2.49971 0.95324,0 2.39714,0.30255 3.20873,0.67234 1.03681,0.47238 2.03189,0.5021 3.34604,0.0999 1.35155,-0.41367 2.35061,-0.36724 3.60191,0.16732 2.32014,0.99132 3.06148,0.95251 5.77192,-0.30218 z m 31.87958,-4.41002 c -2.7947,-1.89905 -2.74351,-1.99936 1.02039,-1.99936 3.14249,0 3.17456,0.0174 3.17456,1.73158 0,2.19701 -1.23942,2.27611 -4.19495,0.26778 z m -37.25722,-0.41538 c -0.23019,-2.0011 0.88056,-2.48516 4.11301,-1.79242 l 2.41901,0.51842 -1.5983,1.61386 c -2.13988,2.16068 -4.66614,1.98666 -4.93372,-0.33986 z m -6.93652,-0.35777 c -0.25783,-1.81438 0.64899,-2.60863 2.45964,-2.15417 1.69695,0.42589 1.91172,1.57343 0.54943,2.93572 -1.26803,1.26803 -2.77341,0.87704 -3.00907,-0.78155 z m 51.95211,-0.0748 c -1.44579,-1.20496 -1.24455,-2.30569 0.42153,-2.30569 0.96858,0 2.24166,1.09889 3.17622,2.74166 0.66346,1.16622 -2.07326,0.83458 -3.59775,-0.43597 z m -57.8195,-0.94257 c 0,-1.50625 1.17926,-2.27577 2.63269,-1.71803 0.80605,0.3093 0.79629,0.5233 -0.0927,2.02822 -1.14578,1.93963 -2.53999,1.76936 -2.53999,-0.31019 z m 64.24984,-0.30936 c -1.61256,-1.51491 -1.69762,-2.20815 -0.27096,-2.20815 0.99834,0 2.2669,1.08339 3.21029,2.74166 0.69638,1.22409 -1.49109,0.82706 -2.93933,-0.53351 z m -50.81824,-5.32344 c -16.42994,-2.57911 -20.49631,-7.03372 -20.60292,-22.56976 -0.0745,-10.84864 0.74423,-13.67675 5.34676,-18.47013 8.41927,-8.76841 12.25788,-16.85799 11.70782,-24.6733 -0.0393,-0.55463 -0.97811,-2.01254 -2.0869,-3.23979 -9.58589,-10.61042 -7.2957,-30.62199 4.14753,-36.241 9.84297,-4.83323 19.48179,-0.52938 25.00771,11.16621 l 1.82872,3.87055 -1.0124,2.97842 c -2.30224,6.77316 11.25005,10.67742 13.81961,3.98128 0.60263,-1.57043 0.44485,-1.93106 -2.00996,-4.5942 l -2.36973,-2.57087 0.96403,-4.33312 c 5.85274,-26.30695 28.54534,-8.17267 24.52861,19.60148 -1.34481,9.29882 -1.30851,13.03701 0.21857,22.51049 2.49186,15.45869 2.63503,17.00389 2.43315,26.26224 -0.46042,21.11575 -5.18865,25.08068 -32.63993,27.37072 -5.25216,0.43816 -24.11041,-0.23761 -29.28067,-1.04922 z m 22.35436,-1.50223 c 0,-0.31748 -0.3896,-0.57721 -0.86584,-0.57721 -0.47619,0 -0.86579,0.25973 -0.86579,0.57721 0,0.31745 0.3896,0.57718 0.86579,0.57718 0.47624,0 0.86584,-0.25973 0.86584,-0.57718 z m -2.30882,0 c 0,-0.72983 -1.17944,-0.72983 -2.30877,0 -0.67462,0.436 -0.51538,0.56145 0.72149,0.56835 0.873,0.005 1.58728,-0.2509 1.58728,-0.56835 z m -5.19473,0 c 0,-0.31748 -0.63399,-0.57721 -1.40893,-0.57721 -0.77488,0 -1.56944,0.25973 -1.76563,0.57721 -0.20808,0.33674 0.37881,0.57718 1.40893,0.57718 0.97112,0 1.76563,-0.25973 1.76563,-0.57718 z m 24.09779,-1.00079 c 1.46394,-0.98251 1.73631,-2.46237 0.45321,-2.46237 -0.88154,0 -2.24934,2.01841 -1.93362,2.85336 0.1,0.26434 0.76614,0.0884 1.48041,-0.39099 z m -3.88446,0.12107 c 0.40156,-0.48386 0.56951,-1.04034 0.37321,-1.23663 -0.41921,-0.41922 -2.11634,0.87175 -2.11634,1.60984 0,0.79506 0.94071,0.59364 1.74313,-0.37321 z m -4.91769,-0.27465 c 1.01396,-1.12045 1.00813,-1.15439 -0.19913,-1.15439 -0.85909,0 -1.24385,0.35711 -1.24385,1.15439 0,0.63491 0.0896,1.15439 0.19914,1.15439 0.10949,0 0.66925,-0.51948 1.24384,-1.15439 z m -5.57567,-0.45033 c 1.5108,-0.5036 0.51578,-1.28136 -1.63923,-1.28136 -1.26988,0 -2.30882,0.23026 -2.30882,0.51168 0,0.56261 2.88307,1.12468 3.94805,0.76968 z m -21.52961,-0.16383 c 0.17045,-0.27581 -1.29129,-1.30976 -3.24832,-2.29766 -1.95697,-0.9879 -4.82804,-2.98396 -6.38005,-4.43569 -3.05358,-2.85628 -3.94834,-2.91867 -2.82085,-0.19678 1.35582,3.27317 11.29114,8.80383 12.44922,6.93004 z m 41.83523,-0.8429 c 0.40156,-0.48386 0.56951,-1.04034 0.37322,-1.23663 -0.41921,-0.41922 -2.11637,0.87175 -2.11637,1.60985 0,0.79505 0.94073,0.59363 1.74315,-0.37322 z m -25.69665,0.30254 c 0.19624,-0.31746 -0.16271,-0.57719 -0.79762,-0.57719 -0.63491,0 -1.3149,0.25973 -1.51115,0.57719 -0.19619,0.31745 0.16277,0.5772 0.79768,0.5772 0.63491,0 1.3149,-0.25975 1.51109,-0.5772 z m 30.43983,-0.61947 c 1.10561,-0.64413 2.4793,-2.85283 1.75896,-2.82815 -0.24926,0.009 -1.36228,0.78076 -2.47337,1.71604 -1.94227,1.63494 -1.46315,2.38077 0.71441,1.11211 z m -37.36614,0.0423 c 0.19625,-0.31745 -0.17806,-0.57718 -0.83173,-0.57718 -0.65361,0 -1.18844,0.25973 -1.18844,0.57718 0,0.31746 0.37431,0.57719 0.83174,0.57719 0.45748,0 0.99225,-0.25973 1.18843,-0.57719 z m -7.55971,-0.42474 c 0.71335,-0.71337 0.27128,-1.24023 -2.30998,-2.75296 -3.82003,-2.23869 -4.67185,-0.98596 -0.90538,1.33155 1.57873,0.97143 3.02569,1.61107 3.21536,1.42141 z m -13.86842,-1.1639 c -0.99197,-0.87226 -2.52689,-2.70028 -3.41098,-4.06228 -1.07155,-1.65093 -1.79974,-2.28398 -2.18455,-1.89921 -0.80813,0.80812 2.05555,4.9915 4.39202,6.41612 2.67084,1.62852 3.30166,1.39025 1.20351,-0.45463 z m -6.97248,-11.49548 c 0.16536,-0.26754 0.1623,-1.21013 -0.007,-2.09458 -0.37258,-1.94906 -1.68702,-1.73932 -1.41239,0.22537 0.22257,1.59239 0.9765,2.58542 1.41914,1.86921 z m -0.74758,-8.59464 c 0,-1.22252 -0.23371,-1.90981 -0.57719,-1.69752 -0.31746,0.19612 -0.5772,1.12062 -0.5772,2.05424 0,0.93362 0.25974,1.69752 0.5772,1.69752 0.31745,0 0.57719,-0.92442 0.57719,-2.05424 z m 61.18238,-10.0368 c 0,-1.60815 -0.28759,-2.48533 -0.89068,-2.71677 -1.30556,-0.50099 -1.48872,-0.0487 -0.97725,2.41294 0.64792,3.11848 1.86793,3.31693 1.86793,0.30383 z m -9.0547,1.90601 c 0.60073,-0.60073 0.47513,-4.24477 -0.14631,-4.24477 -0.74699,0 -1.03818,0.58179 -1.27471,2.547 -0.19353,1.60824 0.58288,2.53591 1.42101,1.69777 z m -11.50243,-2.59297 c 1.23802,-1.76753 1.22215,-3.52417 -0.0294,-3.28139 -1.19918,0.23257 -2.29371,3.22203 -1.47825,4.0375 0.38233,0.38231 0.88824,0.12871 1.50791,-0.75611 z m 29.21501,-9.39667 c 0,-1.99253 -0.57412,-3.22177 -1.50473,-3.22177 -0.94334,0 -1.02582,1.07309 -0.24113,3.13697 0.71133,1.87096 1.74586,1.9212 1.74586,0.0849 z m -45.13806,-1.06053 c 0.93811,-1.13037 1.42913,-3.72724 0.78054,-4.1281 -0.78389,-0.48446 -2.39506,1.89576 -2.39506,3.53827 0,1.45291 0.68922,1.70472 1.61452,0.58983 z m 31.17434,-2.26067 c -0.19021,-2.58075 -1.29039,-3.58139 -1.88339,-1.71302 -0.512,1.61317 0.23318,4.12121 1.22447,4.12121 0.62513,0 0.79157,-0.60832 0.65892,-2.40819 z m -7.77717,2.02339 c 0.61985,-0.61985 0.44167,-4.12947 -0.23082,-4.54505 -0.8315,-0.51392 -0.92189,-0.35277 -1.38936,2.47678 -0.39035,2.36289 0.3634,3.32508 1.62018,2.06827 z m -7.5035,-1.73157 c 0.88784,-0.88781 0.4277,-3.83251 -0.48097,-3.07836 -0.47618,0.3952 -0.86579,1.33609 -0.86579,2.09085 0,1.33956 0.5739,1.76037 1.34676,0.98751 z m -15.07833,-33.12558 c 2.44828,-1.42728 1.83068,-6.54297 -1.01493,-8.40751 -2.92279,-1.91508 -6.7853,1.58843 -5.70081,5.17099 0.95842,3.16634 4.17615,4.71705 6.71574,3.23652 z m 44.14859,-0.83325 c 3.22066,-2.25586 1.42965,-8.29091 -2.47807,-8.35023 -3.68199,-0.0559 -4.5528,6.96111 -1.0613,8.55193 1.86528,0.8499 2.0533,0.83916 3.53937,-0.20179 z m -81.78716,24.92058 c 0,-0.42086 0.64934,-1.3752 1.44298,-2.12078 1.74571,-1.64002 2.17399,-0.033 0.48772,1.83042 -1.12419,1.24224 -1.9307,1.36353 -1.9307,0.29036 z m 56.64856,-26.66397 c -0.59116,-0.59117 1.34521,-2.00769 2.74449,-2.00769 2.31622,0 4.67908,1.77658 3.18697,2.3962 -1.04558,0.4342 -5.39351,0.14943 -5.93146,-0.38851 z M 384.9025,293.48732 c 0.006,-0.23809 0.2505,-0.81496 0.54585,-1.28196 0.66498,-1.05152 1.44517,-0.3939 0.97776,0.82417 -0.34522,0.89959 -1.53995,1.25858 -1.52361,0.45779 z m 8.07191,-1.87588 c 0,-0.31745 0.25974,-0.57718 0.57719,-0.57718 0.31746,0 0.5772,0.25973 0.5772,0.57718 0,0.31747 -0.25974,0.57721 -0.5772,0.57721 -0.31745,0 -0.57719,-0.25974 -0.57719,-0.57721 z m -42.38967,131.84304 c -0.61621,-0.45125 -1.91489,-0.85679 -2.88596,-0.90118 -2.71869,-0.12435 -5.47934,-0.3331 -9.26907,-0.70092 -1.90473,-0.18478 -6.06052,-0.49743 -9.23507,-0.69462 -3.17456,-0.19721 -5.94075,-0.4002 -6.1471,-0.4512 -0.20634,-0.051 -0.41402,0.1671 -0.46146,0.48449 -0.10315,0.68956 2.37185,1.25467 7.47435,1.70662 2.06346,0.18281 4.53095,0.46562 5.48332,0.62856 4.74527,0.81189 16.17321,0.75738 15.04099,-0.0718 z m 43.39976,-1.80531 c 5.08344,-0.97913 -6.89139,-1.83254 -13.27548,-0.9461 -1.19045,0.16536 -2.16447,0.53744 -2.16447,0.82698 0,0.51591 12.86457,0.61515 15.43995,0.11912 z m -73.44774,-0.74704 c -0.19619,-0.31745 -1.00605,-0.57718 -1.79969,-0.57718 -0.81499,0 -1.28771,0.25117 -1.08627,0.57718 0.19624,0.31745 1.0061,0.57718 1.79974,0.57718 0.81499,0 1.28772,-0.25117 1.08622,-0.57718 z"
       style="fill:#002255;stroke-width:2.18151"
       id="path1-2" /><path
       d="m 237.65604,72.202031 c -2.67549,-3.72638 -0.0508,-8.67463 4.39369,-8.28342 5.15126,0.45341 6.37328,7.55865 1.6621,9.66414 -1.99543,0.89179 -4.89954,0.22966 -6.05579,-1.38072 z m 3.60819,-0.58326 c 2.86211,0.36783 4.21259,-3.60426 1.71557,-5.0459 -2.34888,-1.35614 -5.00884,1.35402 -3.69389,3.76318 0.45189,0.82784 0.94925,1.1503 1.97814,1.28255 z m -2.34184,-10.32159 c -0.16588,-0.77076 0.38539,-1.25853 1.86175,-1.64729 3.91833,-1.03184 8.6393,1.82475 9.47718,5.73453 0.56996,2.65948 -1.48572,3.05183 -2.35116,0.44876 -1.08043,-3.24961 -3.39752,-4.61923 -6.61526,-3.91023 -1.66162,0.36605 -2.18903,0.22694 -2.37251,-0.62577 z m -1.8977,-3.31276 c -0.26103,-0.97428 0.34868,-1.49271 2.51493,-2.13839 6.55562,-1.95392 14.02167,2.81008 14.74821,9.41066 0.15462,1.40484 -0.12993,2.09563 -0.93446,2.26878 -0.80759,0.17381 -1.26962,-0.41259 -1.40621,-1.78469 -0.61017,-6.13061 -6.61264,-9.4529 -13.06248,-7.22994 -1.25502,0.43251 -1.6316,0.32593 -1.85999,-0.52642 z m -1.24844,-3.99858 c -0.16413,-2.90556 9.89836,-3.26994 14.64362,-0.53026 4.92158,2.84147 9.59401,11.34994 7.13201,12.98731 -0.82505,0.54872 -1.42743,0.0437 -1.75309,-1.46975 -1.79328,-8.33378 -8.47533,-12.59209 -16.60207,-10.58013 -2.77127,0.68616 -3.36265,0.61575 -3.42047,-0.40717 z"
       style="fill:#002255;stroke-width:0.802745"
       id="path1-1" /><path
       d="m 428.67247,210.56375 c -0.2329,-0.5856 -0.8837,-2.2649 -1.4463,-3.73177 -1.4662,-3.82293 -4.055,-6.43197 -8.7024,-8.77036 -5.1303,-2.58135 -5.1393,-3.10838 -0.096,-5.5989 5.6953,-2.81226 7.9504,-5.35248 9.5582,-10.76674 1.2339,-4.15496 2.8648,-4.20332 4.0108,-0.1189 1.4621,5.21096 3.9166,8.0611 9.4105,10.92753 4.3163,2.25196 4.3687,2.76892 0.4894,4.82384 -5.8321,3.08932 -7.6827,5.19335 -9.8519,11.20057 -1.1367,3.1482 -2.5831,4.02076 -3.3727,2.03476 z m 2.2627,-9.44638 c 0.8465,-1.47494 3.5306,-4.0364 5.9593,-5.68702 0.5418,-0.36821 0.5608,-0.5198 0.089,-0.70973 -1.3509,-0.54395 -4.5107,-3.27462 -5.5078,-4.75987 -1.3934,-2.07533 -1.5124,-2.0863 -2.7602,-0.25407 -0.5831,0.85628 -2.1848,2.45424 -3.5593,3.55105 -2.742,2.188 -2.9163,2.49857 -1.6314,2.9064 0.4773,0.15154 1.9173,1.32495 3.2001,2.6077 1.2827,1.28275 2.4562,2.72277 2.6077,3.20005 0.373,1.17526 0.466,1.12568 1.6025,-0.85451 z"
       style="fill:#002255;stroke-width:1.73582"
       id="path1-06-6" /><path
       d="m 40.0119,309.01731 c -0.2329,-0.5856 -0.8837,-2.2649 -1.4463,-3.73177 -1.4662,-3.82293 -4.055,-6.43197 -8.7024,-8.77036 -5.1303,-2.58135 -5.1393,-3.10838 -0.096,-5.5989 5.6953,-2.81226 7.9504,-5.35248 9.5582,-10.76674 1.2339,-4.15496 2.8648,-4.20332 4.0108,-0.1189 1.4621,5.21096 3.9166,8.0611 9.4105,10.92753 4.3163,2.25196 4.3687,2.76892 0.4894,4.82384 -5.8321,3.08932 -7.6827,5.19335 -9.8519,11.20057 -1.1367,3.1482 -2.5831,4.02076 -3.3727,2.03476 z m 2.2627,-9.44638 c 0.8465,-1.47494 3.5306,-4.0364 5.9593,-5.68702 0.5418,-0.36821 0.5608,-0.5198 0.089,-0.70973 -1.3509,-0.54395 -4.5107,-3.27462 -5.5078,-4.75987 -1.3934,-2.07533 -1.5124,-2.0863 -2.7602,-0.25407 -0.5831,0.85628 -2.1848,2.45424 -3.5593,3.55105 -2.742,2.188 -2.9163,2.49857 -1.6314,2.9064 0.4773,0.15154 1.9173,1.32495 3.2001,2.6077 1.2827,1.28275 2.4562,2.72277 2.6077,3.20005 0.373,1.17526 0.466,1.12568 1.6025,-0.85451 z"
       style="fill:#002255;stroke-width:1.73582"
       id="path1-06-4" /><path
       d="m 86.433807,89.460566 c -0.2329,-0.5856 -0.8837,-2.2649 -1.4463,-3.73177 -1.4662,-3.82293 -4.055,-6.43197 -8.7024,-8.770361 -5.1303,-2.58135 -5.1393,-3.10838 -0.096,-5.5989 5.6953,-2.81226 7.9504,-5.35248 9.5582,-10.76674 1.2339,-4.15496 2.8648,-4.20332 4.0108,-0.1189 1.4621,5.21096 3.9166,8.0611 9.4105,10.92753 4.316303,2.25196 4.368703,2.76892 0.4894,4.82384 -5.8321,3.089321 -7.6827,5.193351 -9.8519,11.200571 -1.1367,3.1482 -2.5831,4.02076 -3.3727,2.03476 z m 2.2627,-9.44638 c 0.8465,-1.47494 3.5306,-4.036401 5.9593,-5.687021 0.5418,-0.36821 0.5608,-0.5198 0.089,-0.70973 -1.3509,-0.54395 -4.5107,-3.27462 -5.5078,-4.75987 -1.3934,-2.07533 -1.5124,-2.0863 -2.7602,-0.25407 -0.5831,0.85628 -2.1848,2.45424 -3.5593,3.55105 -2.742,2.188 -2.9163,2.49857 -1.6314,2.9064 0.4773,0.15154 1.9173,1.32495 3.2001,2.6077 1.2827,1.282751 2.4562,2.722771 2.6077,3.200051 0.373,1.17526 0.466,1.12568 1.6025,-0.85451 z"
       style="fill:#002255;stroke-width:1.73582"
       id="path1-06-47" /></g></svg>
