<?xml version="1.0" encoding="UTF-8" standalone="no"?>
<!-- Created with Inkscape (http://www.inkscape.org/) -->

<svg
   width="500"
   height="460"
   viewBox="0 0 500 460"
   version="1.1"
   id="svg1"
   xml:space="preserve"
   inkscape:version="1.3.2 (091e20ef0f, 2023-11-25)"
   sodipodi:docname="community_top_right.svg"
   inkscape:export-filename="top.png"
   inkscape:export-xdpi="150"
   inkscape:export-ydpi="150"
   xmlns:inkscape="http://www.inkscape.org/namespaces/inkscape"
   xmlns:sodipodi="http://sodipodi.sourceforge.net/DTD/sodipodi-0.dtd"
   xmlns="http://www.w3.org/2000/svg"
   xmlns:svg="http://www.w3.org/2000/svg"><sodipodi:namedview
     id="namedview1"
     pagecolor="#ffffff"
     bordercolor="#ffffff"
     borderopacity="1"
     inkscape:showpageshadow="false"
     inkscape:pageopacity="0"
     inkscape:pagecheckerboard="true"
     inkscape:deskcolor="#505050"
     inkscape:document-units="px"
     showguides="true"
     inkscape:zoom="0.51354167"
     inkscape:cx="897.68761"
     inkscape:cy="690.30425"
     inkscape:window-width="1920"
     inkscape:window-height="1058"
     inkscape:window-x="0"
     inkscape:window-y="0"
     inkscape:window-maximized="0"
     inkscape:current-layer="layer1"
     shape-rendering="auto"
     borderlayer="false"
     showborder="false" /><defs
     id="defs1"><rect
       x="1160.568"
       y="669.85803"
       width="903.52942"
       height="424.50305"
       id="rect4" /><rect
       x="647.15332"
       y="73.368881"
       width="710.4917"
       height="303.99927"
       id="rect3" /></defs><g
     inkscape:label="Layer 1"
     inkscape:groupmode="layer"
     id="layer1"><path
       style="fill:#002255;stroke-width:2.20582"
       d="m 347.63703,376.98147 c 1.2101,-0.48801 0.8248,-2.51873 -0.5836,-3.07607 -0.7223,-0.28582 -2.9723,-1.10671 -5.0001,-1.8242 -3.2851,-1.16237 -3.591,-1.4004 -2.8072,-2.18419 0.7838,-0.78382 1.0402,-0.77447 2.3532,0.0858 0.9547,0.62553 2.6988,0.96549 4.9533,0.96549 2.455,0 5.7217,0.70785 11.0923,2.40345 4.187,1.32191 8.0142,2.24937 8.5051,2.06101 1.0712,-0.41108 1.1942,-2.65692 0.1629,-2.97576 -0.4012,-0.12396 -3.8154,-1.17398 -7.5871,-2.33317 -5.8838,-1.80838 -6.8575,-2.2802 -6.8575,-3.32285 0,-1.08477 0.2348,-1.17314 2.1885,-0.82343 1.2038,0.21551 6.7582,1.95179 12.3431,3.8585 5.5851,1.90671 10.7439,3.46673 11.4641,3.46673 1.3445,0 2.4157,-1.59887 1.5995,-2.38742 -0.2513,-0.24277 -6.4881,-2.40363 -13.8597,-4.80191 -7.3716,-2.39827 -13.489,-4.61898 -13.5944,-4.9349 -0.1053,-0.31591 2.009,-2.03852 4.6985,-3.82804 8.492,-5.6504 16.2537,-15.08551 20.1918,-24.54531 0.9983,-2.3981 1.8152,-4.72861 1.8152,-5.17892 0,-1.4085 0.6124,-1.53516 3.1168,-0.64457 3.5707,1.26985 10.0249,2.54942 12.8594,2.54942 4.0765,0 4.6189,-0.76919 4.3712,-6.19962 -0.1955,-4.28743 -0.4829,-5.21261 -3.6043,-11.60467 -4.9831,-10.20462 -10.2887,-18.99455 -17.2131,-28.51762 -1.7787,-2.44623 -2.1153,-3.43862 -2.4168,-7.12534 -0.1927,-2.3558 -0.1108,-7.11737 0.1822,-10.58128 0.9709,-11.48231 0.6906,-24.31059 -0.6668,-30.51829 -3.6124,-16.51969 -12.8527,-30.4094 -25.8097,-38.79618 -3.6341,-2.35224 -12.0849,-6.25213 -15.1944,-7.01196 -1.1246,-0.27478 -1.7262,-1.05692 -2.5095,-3.26214 -0.8036,-2.26247 -1.7622,-3.4778 -4.357,-5.52374 -5.5978,-4.41375 -11.1644,-7.46583 -17.5254,-9.60891 l -6.0763,-2.04718 -1.1107,-3.61809 c -2.2423,-7.30394 -9.0518,-11.92762 -15.7076,-10.66537 -6.9837,1.32444 -10.9847,5.79546 -11.5188,12.87198 -0.2788,3.69448 1.4474,8.60481 3.6358,10.34213 2.0445,1.62313 2.0864,2.04827 0.6481,6.58716 -1.7549,5.53839 -2.2131,8.07607 -2.3316,12.91451 l -0.096,3.91117 -4.4992,4.49916 c -9.2919,9.29194 -14.9002,21.12061 -15.9432,33.62638 -0.2108,2.5278 -0.5896,4.38538 -0.8417,4.12799 -1.3825,-1.41138 -4.8763,-8.07169 -6.691,-12.7551 -2.3528,-6.0723 -4.0881,-8.18477 -6.1972,-7.54406 -2.5679,0.78 -3.9987,2.76719 -5.4341,7.54706 -2.8281,9.41692 -3.8062,18.58134 -3.1811,29.80495 0.7316,13.13408 4.0507,22.33624 10.7725,29.86625 l 3.2273,3.61543 -0.5971,3.67985 c -0.9668,5.95775 -0.7279,17.02195 0.4957,22.94974 2.1927,10.62376 7.5903,20.7256 15.5316,29.06813 2.711,2.84793 9.2515,7.98151 10.169,7.98151 0.3454,0 0.628,0.42206 0.628,0.93789 0,0.661 -0.3015,0.8163 -1.0213,0.52611 -0.5618,-0.22647 -1.9804,-0.5483 -3.1524,-0.71519 -1.7544,-0.24979 -2.2486,-0.0838 -2.7957,0.93846 -0.573,1.07055 -0.4803,1.31037 0.672,1.7383 0.7351,0.27303 2.3183,0.67579 3.5181,0.89503 1.8428,0.33672 3.3629,1.64982 3.3629,2.90488 0,0.16433 -1.4338,-0.19455 -3.1862,-0.79749 -6.5208,-2.24347 -14.529,-4.1682 -15.9053,-3.82275 -1.0127,0.25418 -1.3592,0.69272 -1.2272,1.55363 0.1538,1.00426 1.2446,1.47207 6.7012,2.87418 6.4176,1.649 8.8574,2.44543 16.7081,5.45403 2.1813,0.83592 4.9389,1.52089 6.128,1.52217 1.1892,0.001 5.7748,1.17424 10.1904,2.60663 4.4155,1.43239 8.4207,2.45378 8.9002,2.26975 0.4796,-0.18397 0.8719,-0.81002 0.8719,-1.39113 0,-1.11195 -0.086,-1.15053 -10.6267,-4.75201 -3.2489,-1.11012 -5.4474,-2.15435 -5.1538,-2.44797 0.5313,-0.53136 3.856,0.0984 10.5279,1.9939 2.0865,0.5928 8.9263,2.53513 15.1995,4.31628 6.2733,1.78115 11.8261,3.23847 12.3396,3.23847 1.0398,0 1.9362,-1.72067 1.2235,-2.34842 -0.6223,-0.54808 -10.1744,-3.53617 -17.8196,-5.57436 -3.4507,-0.91992 -6.274,-1.82252 -6.274,-2.00573 0,-0.41509 8.9049,-0.16985 11.6725,0.32159 1.1234,0.1994 5.1942,1.36857 9.0461,2.59807 5.8715,1.87413 19.5666,6.15222 21.594,6.74557 0.321,0.094 0.912,0.0384 1.3132,-0.12331 z m -45.8022,-9.88748 c 0.1939,-0.19389 0.6973,-0.21463 1.1186,-0.0461 0.4656,0.18639 0.3272,0.32461 -0.3526,0.3526 -0.6153,0.0254 -0.96,-0.1125 -0.766,-0.30652 z m -3.368,-8.65386 c -12.9449,-3.09159 -21.6037,-8.43286 -30.3122,-18.69844 -8.7115,-10.26894 -13.0245,-25.28806 -11.101,-38.65681 0.9919,-6.89483 1.5218,-8.82842 4.0162,-14.65626 3.9108,-9.13702 5.1206,-15.78052 4.9519,-27.19364 -0.2655,-17.97123 0.2005,-22.51774 2.9434,-28.71856 1.4465,-3.27028 6.0589,-8.17527 9.0515,-9.62577 7.2821,-3.52966 16.5427,-0.63765 20.2957,6.33815 1.9525,3.62939 2.9179,8.29324 2.6805,12.94976 l -0.1915,3.75516 -3.1731,1.86023 c -3.5199,2.06356 -5.2894,3.92126 -5.2894,5.55284 0,1.50791 2.592,3.80525 6.7116,5.94855 4.9479,2.57426 8.6328,2.54037 13.5993,-0.12507 3.3688,-1.80806 6.5357,-4.64969 6.5357,-5.86451 0,-1.15168 -3.2802,-4.24918 -5.9123,-5.58295 l -2.842,-1.44018 v -3.17137 c 0,-7.03386 2.2246,-12.89123 6.5009,-17.11638 10.2992,-10.17598 26.6851,-6.62142 33.9384,7.36215 4.0954,7.89544 4.3902,13.01637 1.8877,32.78841 -1.2129,9.5826 -1.5029,13.82277 -1.2275,17.94262 1.0508,15.71772 5.761,27.72951 13.9763,35.64193 3.4798,3.35148 3.7967,3.85312 3.5027,5.54444 -1.4643,8.42286 -6.5826,17.39844 -13.0881,22.95143 -8.2519,7.04368 -16.6937,10.71952 -29.4408,12.81943 -6.3631,1.04825 -22.5555,0.69845 -28.0139,-0.60516 z m 41.3644,-6.42866 c 2.9018,-1.05085 3.4889,-1.67161 3.0095,-3.18204 -0.4855,-1.5298 -0.5375,-1.52784 -4.7344,0.17955 -5.6451,2.2967 -4.0403,5.09017 1.7249,3.0024 z m 11.5711,-6.50345 c 2.8806,-2.16256 3.9282,-4.0137 2.8702,-5.07175 -0.8212,-0.8212 -2.5976,0.12331 -5.8874,3.13048 -2.0863,1.9071 -2.3781,2.4279 -1.7704,3.16005 1.0455,1.25987 1.7118,1.09027 4.7876,-1.21878 z m -13.2213,0.76037 c 1.767,-1.5199 1.6798,-3.36659 -0.1555,-3.29128 -1.7731,0.0728 -4.5413,2.03235 -4.5413,3.21476 0,1.72815 2.7251,1.77255 4.6968,0.0765 z m 11.1906,-7.04088 c 1.8563,-1.75394 2.5738,-2.83737 2.3188,-3.50173 -0.6081,-1.58473 -2.2822,-1.08348 -5.3531,1.60283 -2.5408,2.2226 -2.806,2.6597 -2.1171,3.48973 1.2211,1.47137 2.245,1.15519 5.1514,-1.59083 z m -9.7658,-80.90631 c 0.8636,-1.61375 0.1376,-4.09733 -1.1977,-4.09733 -0.7655,0 -1.1864,0.58053 -1.4536,2.00481 -0.2069,1.10264 -0.2033,2.28447 0.01,2.62631 0.6143,0.99407 1.9723,0.71984 2.6432,-0.53379 z m -3.8655,0.27346 c 0.5273,-1.37414 -0.2693,-4.37079 -1.1619,-4.37079 -0.562,0 -0.8024,0.787 -0.8024,2.62629 0,1.85576 0.2385,2.62631 0.813,2.62631 0.4471,0 0.9652,-0.39682 1.1513,-0.88181 z m -3.8611,0.49273 c 0.7712,-0.30848 0.9696,-2.39154 0.3753,-3.94036 -0.5361,-1.39696 -1.9123,-1.10553 -2.3126,0.48974 -0.674,2.68489 0.156,4.16312 1.9373,3.45062 z m -48.6839,-0.58364 c 1.0273,-1.02731 0.155,-4.86351 -1.1059,-4.86351 -0.8635,0 -1.77,3.63554 -1.1547,4.63111 0.4309,0.69715 1.6687,0.8244 2.2606,0.2324 z m -4.1222,-0.0176 c 1.2575,-2.22671 0.6301,-5.86695 -0.7699,-4.46691 -0.8896,0.88962 -1.0171,4.39744 -0.1708,4.69653 0.3718,0.13147 0.7951,0.028 0.9407,-0.22962 z m -3.0757,-1.85254 c 0,-2.60282 -0.7677,-3.46767 -2.0981,-2.36357 -1.3827,1.14753 -0.8372,4.28733 0.7849,4.5177 1.1745,0.16677 1.3132,-0.0607 1.3132,-2.15413 z m 58.776,-7.08788 c 2.6312,-1.05917 2.7205,-7.37899 0.1339,-9.47449 -1.6645,-1.34851 -4.7703,-1.31471 -6.0193,0.0655 -2.4144,2.66778 -2.2838,8.07894 0.2273,9.42285 1.3081,0.70009 3.9004,0.69373 5.6581,-0.0133 z m -50.4515,0.21484 c 1.1642,-0.33259 2.7643,-3.08677 2.7643,-4.75827 0,-2.36934 -1.2818,-4.6629 -3.1758,-5.68293 -3.6394,-1.9599 -6.7458,0.58656 -6.7458,5.52965 0,1.27046 0.4427,2.784 1.0213,3.49203 1.0253,1.25442 4.1684,1.98157 6.136,1.41952 z m -33.8889,33.85894 c -0.107,-0.74621 0.2202,-1.38524 0.8288,-1.61877 1.2099,-0.4643 1.9417,0.52748 1.5355,2.08104 -0.3874,1.48149 -2.1346,1.1399 -2.3643,-0.46227 z m -3.262,-5.39175 c -0.7051,-2.45867 0.444,-3.8906 1.7272,-2.1521 0.8803,1.19279 1.1135,3.35595 0.4349,4.03459 -0.7533,0.75326 -1.6234,-0.005 -2.1621,-1.88249 z m 4.8978,0.26446 c 0,-1.42973 0.679,-2.67403 1.4591,-2.67403 0.9323,0 1.5351,1.45721 1.0865,2.62629 -0.4267,1.11193 -2.5456,1.15168 -2.5456,0.0476 z m 49.2917,-26.62306 c -1.158,-0.96105 -0.5531,-1.52557 2.6696,-2.4915 2.3543,-0.70565 2.8624,-0.66915 5.2337,0.37617 l 2.6263,1.15769 -2.3345,1.08935 c -2.5755,1.20177 -6.6676,1.13602 -8.1951,-0.13169 z m 60.5324,-28.77152 c -0.1272,-0.65604 0.2055,-0.97299 1.0213,-0.97299 0.6656,0 1.2101,0.35017 1.2101,0.77817 0,1.78749 -1.8905,1.95255 -2.2314,0.19478 z m -5.7008,-6.88614 c -1.4507,-2.09328 -1.516,-2.39739 -0.6923,-3.22113 0.8237,-0.82372 1.1085,-0.69719 3.0159,1.34014 2.427,2.59223 3.2377,4.76082 2.0533,5.49277 -0.9546,0.58992 -2.1471,-0.39418 -4.3769,-3.61178 z m -10.0426,-8.78617 c -2.1274,-1.33412 -2.3006,-2.99556 -0.3416,-3.27663 1.4818,-0.21264 6.2616,3.29029 6.5528,4.80218 0.3285,1.7058 -1.1364,2.14811 -2.8,0.84542 -0.8173,-0.63998 -2.3524,-1.7069 -3.4112,-2.37097 z m -60.7089,-8.43665 c -0.6881,-1.22959 -0.2388,-2.95092 0.8826,-3.38123 0.4801,-0.18419 2.7522,-0.48029 5.0492,-0.65795 7.5598,-0.58468 18.2833,-3.6111 27.3306,-7.71337 2.9591,-1.34169 4.0622,-1.59387 4.9204,-1.12488 1.4381,0.78578 1.9429,1.5857 1.5866,2.51424 -0.739,1.9257 -20.122,8.25123 -31.9958,10.44161 -5.6949,1.05054 -7.15,1.03587 -7.7736,-0.0785 z m 1.1797,-8.72251 c -0.2383,-1.66768 0.9879,-2.52916 4.0279,-2.82984 4.4387,-0.43904 12.8719,-2.67384 18.235,-4.8323 5.0397,-2.02834 5.2115,-2.05551 7.1494,-1.13141 3.7613,1.79364 2.4562,2.85741 -7.3524,5.99289 -2.4074,0.76957 -6.8721,1.91624 -9.9216,2.54814 -9.8635,2.04391 -11.8764,2.0858 -12.1383,0.25252 z m 1.6421,-6.80648 c 0.018,-1.41594 0.9014,-2.044 4.2311,-3.00554 2.1968,-0.63439 4.101,-1.68678 5.4862,-3.03194 1.9413,-1.88533 2.3223,-2.0264 4.4853,-1.66093 3.3063,0.55858 6.5192,1.73494 6.4421,2.35863 -0.1533,1.24115 -9.9279,4.49471 -16.2765,5.41782 -1.926,0.28003 -3.6987,0.54117 -3.9395,0.5803 -0.2407,0.0393 -0.4336,-0.25711 -0.4287,-0.65834 z m -3.6591,-10.81283 c -1.7019,-1.49459 -2.3588,-5.00692 -1.3762,-7.35865 2.2964,-5.4959 10.4513,-5.27342 12.1304,0.33094 1.1403,3.80581 -1.112,7.30066 -5.2092,8.08331 -2.5592,0.48883 -4.126,0.19058 -5.545,-1.0556 z m -1.691,203.62112 c 0.4329,-0.2743 0.6955,-0.96062 0.5837,-1.52517 -0.1526,-0.77034 -2.0964,-1.57134 -7.7905,-3.21033 -4.1729,-1.20115 -12.0382,-3.54362 -17.4784,-5.20548 -10.7796,-3.29289 -14.4784,-3.66975 -14.7876,-1.50668 -0.148,1.03525 0.6768,1.38128 7.2952,3.06037 4.1042,1.04121 12.7148,3.46785 19.1346,5.39253 13.044,3.91061 11.9824,3.66687 13.043,2.99476 z m 108.491,-5.65492 c 1.7885,-1.33022 0.1607,-2.62943 -5.4118,-4.31932 -2.8787,-0.87298 -9.6673,-2.95452 -15.0858,-4.62565 -10.047,-3.09855 -13.3279,-3.50612 -13.6702,-1.6981 -0.1456,0.76961 0.7496,1.25767 4.0806,2.22454 2.347,0.68123 9.8457,3.0259 16.6639,5.21037 10.6059,3.39799 12.5449,3.86143 13.4233,3.20816 z m 7.7384,-4.87042 c 0,-1.94013 0.2623,-1.8294 -13.2343,-5.58608 -8.2913,-2.30784 -10.4024,-2.43676 -10.4024,-0.63523 0,0.95165 1.7179,1.63043 11.3806,4.49667 6.2593,1.8567 11.5776,3.38769 11.8183,3.40221 0.2408,0.0155 0.4378,-0.74039 0.4378,-1.67757 z"
       id="path1-8"
       sodipodi:nodetypes="ssssssssssssssssssssssssssssssssscsssssscsssssssscsssssssssssssssssssssssssssssssssscsssssssssssscsssssscssssssssssscscccssssssssssssssssssssssssssssssssssssssssssscsssccsssssssssssssscssccssscsssssssssssssssssscssssssccssssssscsssssccsssssssssssssssssssssssscs" /><path
       d="m 88.321034,372.21499 c -5.7186,0.33678 -6.5031,-5.2496 -0.8612,-6.13491 3.6117,-0.56673 3.9243,-1.1971 3.877,-7.81766 l -0.032,-4.42645 -19.1361,2.70792 c -28.9227,4.09281 -25.7078,8.72453 -35.3779,-50.96887 -10.3329,-63.78403 -18.8248,-54.52932 62.017,-67.5879 83.385796,-13.4695 72.332896,-19.43298 82.360396,44.43694 9.45,60.22326 11.082,55.03711 -19.006,60.56715 -12.9395,2.37824 -18.2085,3.68621 -17.8288,4.42588 0.2965,0.57745 1.3191,2.86342 2.2725,5.07992 1.6732,3.88933 1.8703,4.00853 5.6472,3.41586 6.5682,-1.03065 6.7548,4.5663 0.2155,6.45937 -4.4479,1.2876 -57.747196,9.46578 -64.147696,9.84272 z m 49.013196,-17.7383 c -2.5604,-7.21304 -1.8634,-7.06495 -19.9158,-4.23222 l -16.2274,2.54636 -0.717,5.3574 c -0.3943,2.94658 -0.694596,5.49898 -0.667496,5.67204 0.027,0.17307 8.767796,-1.05341 19.423596,-2.72549 l 19.3743,-3.04014 z m 43.648,-23.09477 c 2.1961,-3.01898 1.7519,-6.53697 -7.9756,-63.16004 -6.9422,-40.4091 3.9805,-36.64628 -71.8398,-24.74879 -76.206996,11.95815 -69.872496,-0.19449 -52.435796,100.59668 1.8861,10.90342 -3.4362,11.04727 80.253096,-2.16926 l 50.1022,-7.91227 z m -66.3957,10.67294 c -1.1545,-1.01752 -1.3224,-1.91991 -0.7437,-3.99584 1.0225,-3.66768 6.8789,-4.28959 7.9319,-0.8423 1.3378,4.37942 -3.7915,7.83182 -7.1882,4.83814 z m 38.8801,-8.26416 c -2.2438,-1.63511 -1.2186,-4.19551 1.8787,-4.69229 1.765,-0.28302 4.8329,-1.05183 6.8176,-1.70836 3.0246,-1.00048 3.6526,-0.91333 3.8804,0.53842 0.2138,1.36264 0.5254,1.44444 1.4603,0.38359 1.5267,-1.73213 3.1516,0.62167 1.7536,2.54009 -0.9939,1.36387 -14.5018,3.87764 -15.7906,2.93855 z m -97.703896,4.76572 c -2.9039,-2.34584 -14.786,-74.88148 -12.8101,-78.20073 1.5741,-2.64437 116.259596,-20.82996 118.958596,-18.86315 3.996,2.91207 15.6894,76.07442 12.6466,79.12705 -3.2157,3.22612 -115.936896,20.24585 -118.795196,17.93684 z m 108.089196,-56.84696 -5.5045,-35.07915 -54.9408,8.88271 -54.940796,8.88268 4.0133,25.18228 c 2.2077,13.85019 4.7347,29.51027 5.616,34.8001 l 1.6033,9.61772 54.829196,-8.60362 54.8289,-8.60359 z m -98.343096,37.70939 -0.3875,-2.46978 15.8065,-2.48032 15.8066,-2.48032 0.3876,2.46978 0.3875,2.46978 -15.8066,2.48032 -15.8065,2.48032 z m 40.054296,-5.22448 c -1.5087,-2.62245 0.2021,-3.40212 11.6774,-5.32198 11.979,-2.00413 14.8945,-1.77987 14.2788,1.09839 -0.5082,2.3751 -24.7503,6.31978 -25.9562,4.22359 z m 50.9203,-14.24295 c -1.3055,-1.1507 -1.2872,-1.6248 0.1172,-3.03384 2.3461,-2.35359 4.1987,-2.40839 4.5554,-0.13477 0.4402,2.80506 -2.6825,4.92261 -4.6726,3.16861 z m -93.336096,8.65478 c -1.6834,-2.92606 0.6918,-3.64387 22.4465,-6.78364 20.957796,-3.02475 21.717496,-3.06468 22.016796,-1.15703 0.4307,2.74434 -42.991496,10.49906 -44.463296,7.94067 z m -1.359,-12.89722 -0.3875,-2.46978 35.4824,-5.56779 c 27.497596,-4.31484 35.622996,-5.30511 36.106996,-4.4005 1.8285,3.41751 0.9767,3.64263 -35.355196,9.34372 l -35.4591,5.56413 z m -2.9062,-12.07038 c -0.4493,-2.86277 2.613,-3.57327 42.119196,-9.77245 l 36.4292,-5.71636 0.3876,2.46978 0.3875,2.46978 -39.516396,6.20079 c -37.9798,5.95966 -39.5278,6.12878 -39.8071,4.34846 z m -1.878,-11.96793 c -0.3075,-1.95942 0.2711,-2.07776 42.7349,-8.74104 40.464896,-6.34963 43.042796,-6.64792 42.985096,-4.97368 -0.1033,2.99235 -85.264496,16.61766 -85.719996,13.71472 z m -5.6756,104.81123 c -2.1953,-1.9349 -1.0204,-4.57209 2.2669,-5.08792 2.6066,-0.40902 2.9359,-0.15885 3.0373,2.30704 0.1295,3.15367 -3.0123,4.80089 -5.3042,2.78088 z m 11.8549,-1.86024 c -2.1938,-1.93362 -1.0392,-4.7261 2.0052,-4.84855 2.0613,-0.0829 2.7224,0.43354 3.0252,2.3637 0.4513,2.87591 -2.7772,4.4707 -5.0304,2.48485 z M 173.30163,357.16513 c -1.2992,-2.25839 -0.2991,-4.50813 2.1769,-4.89666 2.9325,-0.46015 4.0113,0.7952 3.0501,3.54941 -0.8839,2.53307 -4.072,3.3548 -5.227,1.34725 z m 11.5122,-1.46401 c -2.9182,-2.12657 -2.2547,-4.69746 1.2663,-4.9073 2.7242,-0.16234 3.3229,0.21123 3.6468,2.27553 0.4381,2.79188 -2.5194,4.37612 -4.9131,2.63177 z"
       style="fill:#002255;stroke-width:3.77953"
       id="path1-0" /><path
       d="m 358.59963,111.76496 c -0.2329,-0.5856 -0.8837,-2.2649 -1.4463,-3.73177 -1.4662,-3.82293 -4.055,-6.43197 -8.7024,-8.770361 -5.1303,-2.58135 -5.1393,-3.10838 -0.096,-5.5989 5.6953,-2.81226 7.9504,-5.35248 9.5582,-10.76674 1.2339,-4.15496 2.8648,-4.20332 4.0108,-0.1189 1.4621,5.21096 3.9166,8.0611 9.4105,10.92753 4.3163,2.25196 4.3687,2.76892 0.4894,4.82384 -5.8321,3.089321 -7.6827,5.193351 -9.8519,11.200571 -1.1367,3.1482 -2.5831,4.02076 -3.3727,2.03476 z m 2.2627,-9.44638 c 0.8465,-1.47494 3.5306,-4.036401 5.9593,-5.687021 0.5418,-0.36821 0.5608,-0.5198 0.089,-0.70973 -1.3509,-0.54395 -4.5107,-3.27462 -5.5078,-4.75987 -1.3934,-2.07533 -1.5124,-2.0863 -2.7602,-0.25407 -0.5831,0.85628 -2.1848,2.45424 -3.5593,3.55105 -2.742,2.188 -2.9163,2.49857 -1.6314,2.9064 0.4773,0.15154 1.9173,1.32495 3.2001,2.6077 1.2827,1.282751 2.4562,2.722771 2.6077,3.200051 0.373,1.17526 0.466,1.12568 1.6025,-0.85451 z"
       style="fill:#002255;stroke-width:1.73582"
       id="path1-06" /><path
       d="m 227.42093,111.27866 c -0.7218,-1.36504 -2.0747,-3.20183 -3.0066,-4.0818 -1.7734,-1.67472 -2.0991,-3.81367 -1.0042,-6.59353 0.3576,-0.907814 0.4685,-2.068514 0.2463,-2.579384 -0.3116,-0.71666 1.2319,-11.68152 1.8941,-13.45517 0.069,-0.19307 -0.692,-2.68548 -1.6972,-5.541 -10.7198,-30.452987 24.6678,-52.349966 46.6038,-28.837267 13.4865,14.455817 8.7382,34.057307 -10.804,44.600687 -2.8757,1.55154 -3.8234,2.54455 -6.5601,6.873804 -1.7594,2.78316 -3.6622,5.26172 -4.2284,5.50795 -0.5663,0.24626 -1.4432,1.49755 -1.9486,2.78069 -1.1685,2.96645 -2.5356,4.12108 -4.5664,3.85692 -0.8841,-0.11504 -3.1225,0.29427 -4.9743,0.90946 -4.46,1.48182 -7.9979,0.25873 -9.9544,-3.44136 z m 10.3696,-2.98194 c 5.6496,0.24232 5.1634,-0.43758 -2.4599,-3.44048 -7.3997,-2.9148 -8.3582,-2.79447 -4.7361,0.59456 2.8951,2.70875 2.7609,2.65569 7.1962,2.84518 z m 6.6591,-5.50025 c 2.9342,0.0259 0.7965,-1.35454 -6.6239,-4.277494 -7.2526,-2.85684 -9.9073,-3.35825 -7.9488,-1.50133 0.9162,0.86864 13.2694,5.767304 14.5727,5.778764 z m -10.605,-12.754074 c 0.1189,-0.30187 1.0426,-5.43451 2.0528,-11.40587 2.832,-16.7408 3.6566,-17.80389 9.3207,-12.01507 4.2529,4.34671 4.2157,4.33594 11.1665,3.22622 5.6707,-0.90538 4.9003,2.41871 -3.5637,15.37613 -7.3705,11.28349 -6.9119,10.20487 -4.7083,11.07288 1.5161,0.59718 1.9048,0.47412 2.3894,-0.75631 0.9994,-2.53712 2.9678,-4.1858 7.7405,-6.48338 19.1392,-9.21349 18.4399,-33.539597 -1.1826,-41.137287 -19.2228,-7.44288 -35.3637,10.37864 -27.557,30.426267 1.4213,3.64988 1.929,7.20223 1.269,8.8778 -0.2462,0.62504 -0.3378,1.3888 -0.2038,1.69725 0.3658,0.84116 3.0279,1.7523 3.2765,1.12143 z m 11.4765,-3.73405 c 2.5729,-3.87531 5.0768,-7.67317 5.5644,-8.43974 0.8825,-1.38764 0.8665,-1.40151 -3.6823,-3.19333 l -4.5687,-1.79965 -0.5397,2.55862 c -0.2968,1.40718 -1.0189,5.666 -1.6046,9.46392 -0.5857,3.79794 -1.1471,7.11397 -1.2476,7.36896 -1.3036,3.30934 2.2154,-0.14037 6.0785,-5.95878 z"
       style="fill:#002255;stroke-width:2.45158"
       id="path1-4" /><path
       d="m 81.512234,72.308175 c -0.2329,-0.5856 -0.8837,-2.2649 -1.4463,-3.73177 -1.4662,-3.82293 -4.055,-6.43197 -8.7024,-8.77036 -5.1303,-2.58135 -5.1393,-3.10838 -0.096,-5.5989 5.6953,-2.81226 7.9504,-5.35248 9.5582,-10.76674 1.2339,-4.15496 2.8648,-4.20332 4.0108,-0.1189 1.4621,5.21096 3.9166,8.0611 9.4105,10.92753 4.3163,2.25196 4.3687,2.76892 0.4894,4.82384 -5.8321,3.08932 -7.6827,5.19335 -9.8519,11.20057 -1.1367,3.1482 -2.5831,4.02076 -3.3727,2.03476 z m 2.2627,-9.44638 c 0.8465,-1.47494 3.5306,-4.0364 5.9593,-5.68702 0.5418,-0.36821 0.5608,-0.5198 0.089,-0.70973 -1.3509,-0.54395 -4.5107,-3.27462 -5.5078,-4.75987 -1.3934,-2.07533 -1.5124,-2.0863 -2.7602,-0.25407 -0.5831,0.85628 -2.1848,2.45424 -3.5593,3.55105 -2.742,2.188 -2.9163,2.49857 -1.6314,2.9064 0.4773,0.15154 1.9173,1.32495 3.2001,2.6077 1.2827,1.28275 2.4562,2.72277 2.6077,3.20005 0.373,1.17526 0.466,1.12568 1.6025,-0.85451 z"
       style="fill:#002255;stroke-width:1.73582"
       id="path1-06-0" /><path
       d="m 447.66023,318.79555 c -0.2329,-0.5856 -0.8837,-2.2649 -1.4463,-3.73177 -1.4662,-3.82293 -4.055,-6.43197 -8.7024,-8.77036 -5.1303,-2.58135 -5.1393,-3.10838 -0.096,-5.5989 5.6953,-2.81226 7.9504,-5.35248 9.5582,-10.76674 1.2339,-4.15496 2.8648,-4.20332 4.0108,-0.1189 1.4621,5.21096 3.9166,8.0611 9.4105,10.92753 4.3163,2.25196 4.3687,2.76892 0.4894,4.82384 -5.8321,3.08932 -7.6827,5.19335 -9.8519,11.20057 -1.1367,3.1482 -2.5831,4.02076 -3.3727,2.03476 z m 2.2627,-9.44638 c 0.8465,-1.47494 3.5306,-4.0364 5.9593,-5.68702 0.5418,-0.36821 0.5608,-0.5198 0.089,-0.70973 -1.3509,-0.54395 -4.5107,-3.27462 -5.5078,-4.75987 -1.3934,-2.07533 -1.5124,-2.0863 -2.7602,-0.25407 -0.5831,0.85628 -2.1848,2.45424 -3.5593,3.55105 -2.742,2.188 -2.9163,2.49857 -1.6314,2.9064 0.4773,0.15154 1.9173,1.32495 3.2001,2.6077 1.2827,1.28275 2.4562,2.72277 2.6077,3.20005 0.373,1.17526 0.466,1.12568 1.6025,-0.85451 z"
       style="fill:#002255;stroke-width:1.73582"
       id="path1-06-8" /><path
       d="m 135.81453,150.0714 c -0.1491,-0.58788 -0.073,-0.80058 0.5981,-1.6724 l 0.7689,-0.99887 -0.5476,-0.42174 c -3.0207,-2.32638 -2.6583,-6.33962 1.0195,-11.28865 2.9152,-3.9217 2.9081,-3.39039 0.07,-5.58041 -3.2478,-2.50627 -3.6311,-1.35739 3.5778,-10.72295 7.2545,-9.42462 6.1813,-8.73969 9.5855,-6.11936 l 2.4155,1.85922 2.0904,-2.6847 c 3.9201,-5.03538 6.9299,-6.27158 10.4632,-4.29776 0.8854,0.4946 0.8949,0.49362 1.3883,-0.14738 1.2299,-1.59794 3.0792,-0.16883 1.9092,1.47592 l -0.4966,0.69757 1.9789,1.52569 1.9795,1.52496 0.3891,-0.50554 c 0.9629,-1.25087 3.0345,-0.32316 2.7642,1.23781 -0.049,0.28449 -0.2102,0.67387 -0.3576,0.86533 -0.2559,0.33247 -0.177,0.41808 1.7543,1.90467 l 2.0222,1.55656 0.3891,-0.50555 c 0.5287,-0.68677 1.4361,-0.77315 2.172,-0.20674 0.7357,0.56634 0.8844,1.46568 0.3558,2.15245 l -0.3891,0.50555 1.5871,1.22169 c 0.8729,0.67187 1.6717,1.36002 1.775,1.52911 0.1522,0.24917 0.2874,0.17809 0.7132,-0.37507 0.3958,-0.51429 0.6674,-0.67615 1.1018,-0.65661 1.3183,0.0593 2.0452,1.44918 1.2786,2.445 l -0.3891,0.50555 1.6009,1.23224 1.6009,1.2323 0.3892,-0.50554 c 0.5199,-0.67547 1.437,-0.77243 2.1457,-0.22688 0.6977,0.53701 0.7867,1.29812 0.2357,2.01398 l -0.4114,0.53442 1.6637,1.28055 1.6637,1.28061 0.6217,-0.58648 c 1.3601,-1.28296 3.3088,0.45037 2.1698,1.93008 l -0.3892,0.50555 1.7597,1.35448 1.7598,1.35454 0.6027,-0.67656 c 1.1615,-1.30245 3.0562,0.2723 2.3295,1.93608 l -0.326,0.74657 1.7398,1.33917 1.7397,1.33911 0.454,-0.58981 c 0.4976,-0.64647 1.4484,-0.89785 1.9464,-0.51449 0.6185,0.47607 0.6732,1.29491 0.1333,1.99634 l -0.5115,0.66451 2.1064,1.6214 2.1066,1.62146 0.4987,-0.64796 c 0.7874,-1.02298 2.0144,-0.89513 2.3464,0.24456 0.093,0.31957 -0.032,0.67884 -0.4054,1.16393 -0.504,0.65471 -0.5092,0.72545 -0.072,1.06178 1.4021,1.0792 2.1142,4.4248 1.4347,6.73995 -0.3635,1.23833 -21.4398,29.00883 -23.2031,30.57264 -2.2307,1.97837 -6.2561,2.57105 -8.0554,1.18607 -0.3675,-0.2829 -0.4455,-0.23767 -1.1428,0.66339 -1.2049,1.54897 -2.708,1.45158 -2.6088,-0.17367 0.01,-0.15306 0.3706,-0.74015 0.8029,-1.30458 l 0.7806,-1.03048 -1.9928,-1.59475 -1.9928,-1.59475 -0.768,0.99772 c -1.2252,1.5917 -2.5635,1.71084 -2.9097,0.25906 -0.1307,-0.54797 -0.046,-0.73969 0.7488,-1.69714 l 0.8964,-1.07924 -0.8612,-0.54889 c -0.4736,-0.30183 -1.3261,-0.90112 -1.8944,-1.33157 l -1.0334,-0.78283 -0.7736,0.94763 c -1.8854,2.31176 -4.2802,0.40528 -2.6032,-2.07245 l 0.7157,-1.05772 -1.6947,-1.30824 -1.6947,-1.30824 -0.8029,1.04309 c -1.4114,1.83367 -4.0271,0.85849 -2.7355,-1.01985 0.1466,-0.21348 0.4902,-0.69912 0.7637,-1.07901 l 0.4966,-0.69114 -1.6059,-1.31287 -1.6059,-1.31295 -0.7889,1.02487 c -0.6646,0.86345 -0.904,1.04 -1.5209,1.12011 -1.7136,0.22295 -2.2743,-1.41926 -1.0345,-3.02993 l 0.7612,-0.98896 -1.5088,-1.14168 -1.5087,-1.14162 -0.8769,0.9999 c -0.6599,0.75243 -1.0067,0.99977 -1.401,0.99952 -1.9533,-10e-4 -2.4237,-1.7571 -0.906,-3.38259 l 0.5802,-0.62098 -1.7948,-1.46056 -1.7948,-1.46051 -0.8395,1.09066 c -0.7525,0.97752 -0.9134,1.09149 -1.5524,1.09814 -1.7192,0.018 -2.1736,-1.48701 -0.9349,-3.0963 l 0.7808,-1.01442 -2.0512,-1.51883 -2.0513,-1.51876 -0.8013,1.041 c -0.7112,0.92388 -0.8815,1.04188 -1.5143,1.04845 -1.7294,0.0182 -2.1089,-1.57109 -0.7856,-3.29028 l 0.6467,-0.84018 -1.9324,-1.41164 -1.9326,-1.41171 -0.6921,0.80904 c -1.3994,1.63385 -2.338,1.7934 -2.6773,0.45514 z m 8.3894,-1.72742 0.6077,0.30005 1.3642,-1.77225 c 1.3416,-1.74297 1.3615,-1.78683 1.2327,-2.63036 -0.5636,-3.67735 4.7531,-5.29938 6.3288,-1.93086 0.6347,1.35695 -0.3781,3.69272 -1.8715,4.31622 -0.4063,0.16956 -1.0319,0.83875 -2.225,2.3799 l -1.6618,2.1425 1.7695,1.36198 1.7695,1.36204 1.731,-2.24887 c 2.1178,-2.75132 2.2686,-2.80787 4.0043,-1.50209 1.7085,1.28519 1.6616,1.60286 -0.6268,4.25683 l -1.7758,2.05944 1.2693,0.97703 c 1.5235,1.17271 1.4658,1.19933 3.5174,-1.6166 1.7025,-2.33645 1.7784,-2.35796 3.5405,-1.00159 1.8131,1.39558 1.7978,1.54189 -0.4543,4.32394 l -1.6852,2.08107 1.0535,0.81036 1.0536,0.81042 1.7418,-2.26296 c 2.1752,-2.82594 2.6325,-2.96114 4.3627,-1.28931 1.1229,1.08507 1.1048,1.15902 -0.9341,3.80787 l -1.8002,2.33862 1.0954,0.84315 1.0954,0.84315 1.5969,-2.05825 c 2.2814,-2.96384 2.2168,-2.93071 4.0157,-1.78895 1.8742,1.18953 1.8261,1.60679 -0.5195,4.49778 l -1.6332,2.01363 0.6178,0.50483 c 0.3398,0.27767 0.7694,0.62151 0.9549,0.76424 0.8797,0.67718 0.7709,0.74167 2.4668,-1.46164 1.0257,-1.33245 1.7175,-2.08864 1.9371,-2.11719 0.2565,-0.0334 0.4351,-0.27675 0.7177,-0.97832 1.3897,-3.44913 6.0389,-3.05803 6.2705,0.52747 0.1375,2.12737 -1.9991,4.20975 -3.7714,3.67566 -0.5053,-0.15227 -0.5583,-0.10523 -2.0138,1.78576 l -1.4949,1.94212 5.6901,4.37988 c 8.1309,6.25861 8.0198,6.25966 12.396,-0.11947 l 1.2651,-1.84397 -2.9247,-2.30856 -2.9247,-2.30851 -0.8136,1.05699 c -1.181,1.53435 -1.4978,1.57221 -3.0646,0.3662 -1.731,-1.33246 -1.7423,-1.24471 0.5605,-4.38381 l 1.9308,-2.63133 1.5446,1.0804 c 1.8511,1.29477 2.1026,1.57576 1.7827,1.99136 -0.2302,0.299 -0.07,0.45169 2.7667,2.63505 l 3.0111,2.31772 1.0273,-1.4232 1.0273,-1.42322 -2.8403,-2.25958 c -2.7213,-2.16503 -2.8591,-2.251 -3.2932,-2.05541 -0.4148,0.18689 -0.5808,0.0993 -1.9654,-1.0369 l -1.5124,-1.24112 1.2724,-1.75136 1.2723,-1.75136 1.4616,1.03794 c 1.8269,1.29746 1.9569,1.44939 1.6716,1.95408 -0.2255,0.39788 -0.1619,0.46477 2.3434,2.46797 3.5007,2.79902 3.1692,2.72698 4.4969,0.97704 l 1.096,-1.44519 -2.9912,-2.30242 c -2.5778,-1.98421 -3.0188,-2.2666 -3.1905,-2.04355 -0.1681,0.21842 -0.4502,0.0537 -1.8051,-1.05405 l -1.606,-1.31287 1.4118,-1.93243 1.4117,-1.93242 1.4242,1.09628 c 1.8065,1.39047 1.9109,1.56663 1.3566,2.28673 l -0.4431,0.57567 3.0266,2.25645 3.0266,2.25638 1.1619,-1.44225 1.1618,-1.44223 -3.0075,-2.39377 c -2.2894,-1.82214 -3.0655,-2.35835 -3.2504,-2.24511 -2.4405,1.49397 -3.2257,-2.57409 -1.0663,-5.52412 2.6298,-3.59256 5.32,-4.13934 5.7076,-1.16014 0.1127,0.86616 -1.6227,2.90251 -2.1365,2.50701 -0.4265,-0.32828 -0.3297,-0.81894 0.3333,-1.6891 0.5837,-0.77475 -0.552,-1.52089 -1.2014,-0.78974 -0.253,0.28448 -0.6265,0.69101 -0.8298,0.90357 -0.353,0.36843 -0.3328,0.41605 0.5426,1.11799 1.5466,1.2403 1.5106,1.17532 1.009,1.82689 l -0.457,0.5937 3.0242,2.25463 3.0244,2.2546 0.9521,-1.35007 c 0.5236,-0.74257 1.4366,-1.79092 2.0282,-2.33006 1.2796,-1.16508 1.8037,-2.23017 1.7465,-3.54757 -0.073,-1.66938 -0.07,-1.66641 -6.3496,-6.50022 l -5.738,-4.41672 -1.3586,1.7651 -1.3587,1.76511 0.2939,0.62837 c 0.6733,1.43913 -0.6451,4.04589 -2.2778,4.50375 -3.7509,1.05212 -5.8836,-3.79044 -2.5676,-5.83022 0.365,-0.22455 0.5161,-0.42089 0.4883,-0.63448 -0.024,-0.18259 0.6667,-1.22753 1.685,-2.55057 l 1.7252,-2.24122 -1.1797,-0.90805 -1.1796,-0.90798 -1.811,2.35268 c -2.2753,2.956 -2.484,3.03161 -4.2274,1.53205 -1.5294,-1.31546 -1.517,-1.39064 0.7083,-4.28165 l 1.7912,-2.32704 -1.1099,-0.85437 -1.11,-0.85437 -1.7752,2.41777 c -2.2062,3.00555 -2.4438,3.09128 -4.1336,1.4924 -1.3836,-1.30914 -1.3737,-1.36197 0.7762,-4.15509 l 1.7912,-2.32704 -1.011,-0.77825 -1.0111,-0.77825 -1.7368,2.25632 c -2.2227,2.88773 -2.3723,2.94599 -4.1668,1.61677 -1.5731,-1.16527 -1.6903,-1.78365 -0.5847,-3.08696 0.3817,-0.44999 1.1638,-1.45288 1.7373,-2.22912 l 1.0432,-1.41101 -1.2879,-0.9913 -1.2877,-0.99119 -1.6697,2.34931 c -2.0827,2.93051 -2.2445,3.00609 -3.9678,1.84618 -1.8026,-1.21328 -1.7773,-1.43655 0.499,-4.39374 l 1.816,-2.35925 -1.7695,-1.36198 -1.7694,-1.36198 -1.6704,2.17015 c -1.1914,1.5478 -1.7319,2.39915 -1.8834,2.96964 -0.9041,3.39552 -5.051,3.87494 -6.2625,0.72409 -0.8109,-2.10886 0.9868,-4.66787 3.3472,-4.76483 0.5361,-0.0221 0.682,-0.14276 1.1758,-0.97346 0.3104,-0.5213 0.8696,-1.34685 1.2434,-1.83405 l 0.681,-0.88472 -2.9942,-2.30468 c -4.0224,-3.09621 -5.7237,-3.18285 -7.4354,-0.37872 -0.3422,0.5609 -1.2069,1.86785 -1.9214,2.90459 l -1.299,1.88501 2.0559,1.58248 c 4.4579,3.43139 4.2977,4.73974 -1.5039,12.27983 -5.7917,7.52427 -7.0226,7.99333 -11.6566,4.42641 l -1.8559,-1.42859 -1.6943,1.98328 c -0.9318,1.09086 -2.0132,2.30462 -2.4029,2.69742 -2.5384,2.55873 -0.4107,6.55927 4.8772,9.17007 z m -4.4098,-5.60482 c -0.4065,-1.09913 -0.299,-1.8312 0.4027,-2.74279 2.0042,-2.6038 6.0567,0.0139 4.5641,2.94815 -0.9772,1.92094 -4.2301,1.78647 -4.9668,-0.20536 z m 48.5746,37.48729 c -0.5117,-1.15512 -0.025,-2.71013 1.084,-3.46224 2.1769,-1.47658 5.1406,0.93064 4.1343,3.35805 -0.9358,2.25736 -4.2356,2.32322 -5.2183,0.10419 z m -22.7429,-28.26602 c -0.2403,-1.09888 -0.1408,-1.18753 1.615,-1.43828 l 1.4952,-0.21359 -0.1635,-1.14878 -0.1634,-1.14878 -1.5299,0.18276 c -1.6584,0.1981 -1.7777,0.12636 -1.7957,-1.07951 l -0.012,-0.80319 1.5202,-0.32055 1.5204,-0.3205 -0.3304,-2.58575 c -0.4039,-3.16197 -0.5168,-3.01807 2.6902,-3.42768 l 2.6309,-0.33614 -0.2409,-1.6019 -0.241,-1.60197 1.1122,-0.1911 1.1122,-0.19115 0.2264,1.63508 0.2266,1.63512 1.0981,-0.21294 c 1.3719,-0.26596 1.2883,-0.11762 1.0481,-1.86032 l -0.2036,-1.47706 0.9649,-0.14086 c 1.2649,-0.18471 1.3531,-0.0875 1.485,1.63723 0.1052,1.37592 0.1429,1.46138 0.628,1.42271 0.6606,-0.0527 0.9444,0.17259 1.0664,0.84643 0.093,0.51278 0.1193,0.5298 0.5373,0.34653 0.2416,-0.10611 0.9563,-0.2624 1.5879,-0.34748 1.2672,-0.17063 1.364,-0.064 1.3079,1.44054 l -0.028,0.76281 -1.4519,0.2001 -1.4519,0.2001 0.1398,1.18449 0.1398,1.18442 1.5865,-0.18983 1.5863,-0.18996 0.069,1.11475 0.069,1.11474 -1.4884,0.19368 -1.4884,0.19362 0.3085,2.72235 c 0.3736,3.29749 0.6142,2.99027 -2.6578,3.39216 l -2.7062,0.33251 0.1122,1.46858 c 0.133,1.73994 0.1846,1.64452 -0.9922,1.83658 -1.099,0.1793 -1.2401,-0.006 -1.383,-1.81837 l -0.094,-1.18806 -1.0024,0.11455 c -1.2764,0.14582 -1.3003,0.18593 -1.0972,1.84464 l 0.1697,1.38651 -1.1069,0.18246 -1.1068,0.18247 -0.1764,-1.55779 c -0.1621,-1.43055 -0.2165,-1.55464 -0.6658,-1.51882 -0.6585,0.0525 -0.9912,-0.23979 -1.0453,-0.91841 -0.044,-0.55545 -0.063,-0.55936 -1.1961,-0.25459 -1.6634,0.4473 -2.0133,0.34169 -2.2354,-0.67452 z m -7.5689,-7.18543 c -0.5293,-0.62296 -0.3509,-1.37762 0.626,-2.64677 l 0.8913,-1.15794 0.7446,0.75555 c 1.2292,1.24715 1.4707,1.24747 2.4283,0.003 0.8548,-1.11042 0.8701,-1.35363 0.1217,-1.92968 -0.2834,-0.21812 -0.421,-0.12189 -1.1156,0.78051 l -0.7924,1.02937 -0.3725,-0.47131 c -0.6642,-0.84025 0.7638,-3.25184 2.0226,-3.41563 0.634,-0.0825 2.5717,1.19991 2.8131,1.86181 0.2577,0.70672 -4.1352,6.65181 -4.937,6.68123 -0.3805,0.014 -1.9912,-0.97393 -2.4301,-1.49051 z m 25.3275,15.45754 c -0.3087,-0.95922 -0.2433,-1.39476 0.3218,-2.14067 1.1887,-1.56889 3.5759,-0.92299 3.8286,1.03611 0.073,0.56364 0.3127,0.85776 1.6049,1.96652 1.713,1.46979 1.8771,1.90779 0.9071,2.4217 -0.5127,0.27163 -0.5869,0.24022 -2.0128,-0.85268 -1.3615,-1.04419 -1.571,-1.14016 -2.6089,-1.20301 -1.2884,-0.078 -1.7625,-0.36329 -2.0407,-1.22797 z m -2.4006,-3.41843 c -0.3973,-1.26713 0.6262,-1.51551 1.9728,-0.47894 l 0.9774,0.75232 -0.5037,0.65443 c -0.6706,0.87118 -2.0461,0.34953 -2.4465,-0.92781 z m 6.932,-3.90745 c -0.1025,-0.78843 -0.2324,-0.984 -1.0939,-1.64709 -1.1092,-0.85382 -1.2644,-1.37073 -0.5754,-1.91542 0.4069,-0.32158 0.4974,-0.29154 1.5411,0.51184 1.0147,0.78105 1.1819,0.84137 1.9701,0.71137 1.8125,-0.2988 2.5551,1.34712 1.3275,2.942 -1.172,1.52252 -2.9365,1.187 -3.1694,-0.6027 z m -22.8384,-18.5379 c -0.069,-0.52812 1.8683,-3.23907 2.1561,-3.01753 0.088,0.0678 0.4877,0.50938 0.888,0.98122 0.8952,1.05522 1.1046,1.01716 1.9906,-0.36187 1.0953,-1.70461 0.375,-2.5014 -0.8986,-0.9941 -1.4064,1.66477 -2.093,0.42796 -0.7923,-1.42728 1.2709,-1.81171 4.3708,-1.25575 4.3207,0.7752 -0.021,0.86919 -4.3729,6.37089 -4.9616,6.27307 -0.7391,-0.12278 -2.632,-1.68358 -2.7029,-2.22871 z m -4.8122,-19.06196 c -0.1855,-1.42525 0.2438,-2.36188 1.3386,-2.9203 2.4595,-1.25467 5.0026,1.41483 3.5837,3.76184 -1.3675,2.26199 -4.5902,1.71098 -4.9223,-0.84154 z m 48.7156,37.72042 c -0.5215,-2.65132 2.2357,-4.45937 4.3357,-2.84298 0.8918,0.68645 1.2438,2.12961 0.8015,3.28692 -0.8732,2.28608 -4.6645,1.95844 -5.1372,-0.44394 z m -31.1066,18.51671 c 0.2076,-0.29426 0.2203,-0.38777 0.033,-0.24294 -0.1669,0.12988 -0.3942,0.16804 -0.5044,0.0855 -0.117,-0.0875 -0.1474,-0.001 -0.073,0.20803 0.1732,0.488 0.1643,0.4888 0.5444,-0.0505 z m -27.2361,-26.57465 c 1.2305,-0.0981 1.5213,-1.79182 0.3932,-2.29073 -0.6252,-0.27651 -0.938,-0.18666 -1.3957,0.40102 -0.6766,0.86271 -0.084,1.97636 1.0025,1.88971 z m 31.3177,23.63907 c 1.5267,-0.083 1.4114,-2.19317 -0.1261,-2.31022 -0.8471,-0.0645 -1.4845,0.69995 -1.238,1.4854 0.2331,0.74389 0.4497,0.87486 1.3645,0.82513 z m 9.2806,1.45126 c 0.7228,0.21541 1.069,-0.71095 0.3908,-1.04582 -0.3342,-0.16501 -0.7119,-0.38026 -0.8394,-0.4784 -0.3986,-0.30681 -0.763,0.43788 -0.4096,0.83717 0.1777,0.20072 0.3657,0.41421 0.4179,0.47452 0.052,0.0602 0.2503,0.15596 0.4403,0.21253 z m -46.0754,-47.75184 c 4.6297,-6.11137 4.6754,-6.1921 3.5617,-6.2878 -0.3489,-0.0299 -8.848,10.57015 -8.9436,11.15455 -0.015,0.0895 0.2055,0.33109 0.4891,0.53686 l 0.5159,0.37427 z m 4.3767,12.12798 c 0.8654,-0.0377 8.5517,-9.85045 8.429,-10.76107 -0.069,-0.5143 -0.3948,-0.8134 -3.6786,-3.37988 l -3.6024,-2.81559 -4.3008,5.48406 c -2.3657,3.01602 -4.3403,5.6158 -4.3886,5.77688 -0.149,0.5 6.7742,5.72875 7.541,5.69539 z m -3.6071,-5.98498 c -0.2917,-0.3295 -0.2484,-0.46186 0.4463,-1.36428 l 0.7692,-0.99939 1.2639,0.97283 1.2638,0.97282 -0.8431,1.09536 -0.8432,1.09537 -0.867,-0.70386 c -0.4769,-0.38718 -1.0124,-0.86813 -1.19,-1.06881 z m 3.99,2.08308 c -0.022,-0.60288 0.8165,-0.93627 1.2467,-0.4956 0.4637,0.4749 -0.2656,1.45112 -0.8414,1.12593 -0.2147,-0.12124 -0.3972,-0.40496 -0.4055,-0.63045 z m -0.7597,-6.83192 c -0.014,-0.10939 0.3147,-0.64114 0.7308,-1.1818 l 0.7567,-0.98305 1.2639,0.97283 1.2638,0.97282 -0.8431,1.09537 -0.8432,1.09537 -1.1515,-0.88634 c -0.6333,-0.48754 -1.1632,-0.97586 -1.1774,-1.08523 z m 4.3722,1.93052 c 0.2353,-0.64762 1.166,-0.78822 1.4243,-0.21519 0.2995,0.66474 -0.4686,1.33333 -1.0978,0.95543 -0.3659,-0.21979 -0.4481,-0.40611 -0.3265,-0.74024 z m 41.7557,39.50231 c 0.8233,-0.50292 0.8125,-0.7767 -0.057,-1.45706 -0.8903,-0.69669 -1.1478,-0.63466 -1.3054,0.31353 -0.097,0.58366 0.9042,1.42372 1.3627,1.14357 z m 4.4062,-5.68669 c 0.3555,-0.46186 0.3364,-0.52384 -0.3248,-1.05974 -0.6912,-0.56017 -1.4518,-0.26701 -1.3494,0.52016 0.083,0.63711 1.2977,1.02867 1.6742,0.53958 z m 3.8171,-5.57968 c -0.4741,-0.6505 -0.6748,-0.76885 -0.8711,-0.51381 -0.2174,0.28238 0.5353,1.09855 0.9098,0.9865 0.139,-0.0412 0.1216,-0.25298 -0.039,-0.47269 z m -36.7388,-29.99821 c 1.1581,0.0521 1.6456,-1.53596 0.6958,-2.26699 -0.8945,-0.68853 -2.0632,0.13894 -1.9057,1.34933 0.075,0.57537 0.483,0.88491 1.2099,0.91775 z m 31.2708,23.95111 c 1.6526,-0.21504 1.368,-2.59872 -0.2945,-2.46621 -1.0328,0.0823 -1.4699,1.64481 -0.639,2.28441 0.1854,0.14267 0.6055,0.2245 0.9335,0.1818 z m -15.2812,-18.39048 c -0.2282,-0.25867 -0.2194,-0.51701 0.032,-0.94495 0.3331,-0.56561 0.3263,-0.56494 -0.1671,0.0222 -0.4785,0.5691 -0.4773,0.63647 -0.032,0.94496 0.3968,0.27539 0.4262,0.27141 0.1671,-0.0222 z m -4.859,-5.76676 c 0.042,-0.15184 -0.069,-0.0865 -0.2472,0.14521 -0.1783,0.2317 -0.2132,0.35577 -0.077,0.27609 0.1359,-0.0799 0.2819,-0.26945 0.3243,-0.4213 z m 6.4758,4.60447 c 0.333,-0.43252 0.52,-0.77547 0.416,-0.76176 -0.3276,0.0426 -1.3669,1.28218 -1.1893,1.41887 0.093,0.0712 0.4406,-0.22439 0.7736,-0.65693 z m -4.3238,-7.97979 c 0.071,-0.0927 0.054,-0.22708 -0.039,-0.29826 -0.093,-0.0713 -0.2269,-0.0538 -0.2982,0.0388 -0.071,0.0927 -0.054,0.22707 0.039,0.29819 0.093,0.0714 0.227,0.0539 0.2983,-0.0388 z"
       style="fill:#002255;stroke-width:0.803751"
       id="path1-9" /><path
       d="m 402.28783,202.41861 c -0.8247,-0.33168 -0.4454,-0.97591 0.5745,-0.97591 0.6537,0 0.8331,0.10007 0.8331,0.46475 0,0.35795 -0.5406,0.85178 -0.818,0.74725 -0.023,-0.008 -0.2881,-0.1148 -0.5896,-0.23609 z m 62.3034,-0.10587 c -0.3937,-0.4744 -0.1186,-0.87004 0.6049,-0.87004 0.7621,0 0.9621,0.35309 0.4757,0.83949 -0.4809,0.48093 -0.7016,0.48716 -1.0806,0.0305 z m -56.8528,-0.14625 c -0.3464,-0.56057 0.3554,-0.74148 2.6078,-0.67215 1.8584,0.0572 2.3104,0.14315 2.3104,0.43938 0,0.46719 -4.6376,0.68669 -4.9182,0.23277 z m 7.0103,-0.10359 c -0.171,-0.20608 -0.5941,-0.37469 -0.9402,-0.37469 -0.3461,0 -0.859,-0.21579 -1.1397,-0.47955 -0.4958,-0.46572 -3.7466,-0.7188 -9.2803,-0.72245 -0.8487,-5e-4 -1.1662,-0.0966 -1.1662,-0.35281 0,-0.554 0.8007,-0.64786 5.5573,-0.65144 3.4671,-0.003 4.6082,-0.0845 5.1558,-0.37011 0.3867,-0.20173 1.1921,-0.36744 1.7897,-0.36828 l 1.0866,-0.002 -2.2532,-1.48438 c -2.1625,-1.42465 -4.0216,-3.29397 -5.1124,-5.14055 -0.2468,-0.41786 -1.0442,-1.09576 -1.7719,-1.50644 -8.6345,-4.87302 -12.3511,-17.22812 -5.6373,-18.7402 l 1.1534,-0.25975 -1.1007,-1.71746 c -4.8713,-7.60148 -5.1049,-13.62478 -0.5283,-13.62478 0.6639,0 0.6507,-0.3029 -0.068,-1.57697 -2.9733,-5.26832 -1.9202,-9.80288 2.3589,-10.15774 1.593,-0.13211 1.5671,0.0907 0.3444,-2.9568 -2.4881,-6.20152 -0.6218,-10.9338 4.3119,-10.9338 h 1.5258 l -0.028,-1.97944 c -0.06,-4.17763 1.8175,-6.37744 5.3388,-6.25646 1.1838,0.0406 1.4841,-0.0213 1.4115,-0.29078 -1.319,-4.89477 0.7405,-9.18086 4.4114,-9.18086 1.646,0 1.6589,-0.006 1.8035,-0.73654 0.7352,-3.7166 3.5872,-5.39532 6.8106,-4.00867 1.1227,0.48297 1.2606,0.49577 1.4621,0.1357 1.9255,-3.44061 6.9598,-3.38276 8.1185,0.0933 0.082,0.2446 0.3989,0.19298 1.3628,-0.22173 3.1958,-1.37477 6.2121,0.3366 6.8105,3.86411 l 0.1483,0.87384 h 1.665 c 3.5802,0 5.2581,3.26949 4.45,8.67106 l -0.1219,0.81468 1.8602,0.0446 c 3.3155,0.0795 4.8827,2.0386 4.8872,6.10945 v 2.13667 l 1.1777,-0.13948 c 5.6153,-0.66506 7.2665,5.57761 3.5878,13.56534 -0.078,0.17014 0.2667,0.27372 0.9459,0.28399 4.1063,0.0621 5.5622,4.29 3.1828,9.24257 -0.577,1.20093 -1.0189,2.20381 -0.982,2.22861 0.037,0.0248 0.4305,0.18991 0.8749,0.36692 4.1491,1.65268 3.7166,6.48633 -1.238,13.83739 -0.5304,0.78684 -0.9267,1.4544 -0.8809,1.48347 0.046,0.029 0.6358,0.19001 1.311,0.35765 6.3977,1.58855 2.7494,13.32153 -5.7854,18.60581 -0.9894,0.61262 -1.7193,1.35399 -2.6474,2.68892 -1.2614,1.81439 -4.1478,4.26834 -5.9686,5.0743 -1.0567,0.46772 -0.8635,0.57223 1.0971,0.5934 0.9871,0.0107 2.0294,0.14498 2.3162,0.29848 0.306,0.16377 1.7332,0.2791 3.4537,0.2791 2.2247,0 3.0016,0.0836 3.2198,0.34641 0.4996,0.60204 -0.1322,0.71934 -5.0047,0.92909 -6.2757,0.27017 -6.7119,0.33478 -6.8078,1.00822 l -0.077,0.53967 -18.0711,0.0678 c -15.9564,0.0598 -18.1075,0.0239 -18.3821,-0.30689 z m 22.9331,-3.9316 c 1.916,-0.67606 2.8606,-1.35333 1.8874,-1.35333 -0.3119,0 -0.8945,0.23314 -1.2947,0.51809 -1.0854,0.77293 -1.7255,-0.0387 -0.7254,-0.91998 0.4056,-0.35746 0.5127,-0.56749 0.2918,-0.5724 -0.192,-0.005 -0.5671,0.18558 -0.8337,0.42188 -0.4714,0.41792 -0.4764,0.41398 -0.1836,-0.14378 0.4281,-0.8151 0.121,-0.96122 -0.5989,-0.28495 -0.337,0.31664 -0.6128,0.45949 -0.6128,0.31746 0,-0.14203 0.1773,-0.40541 0.3941,-0.58528 1.3693,-1.13647 -2.8062,-0.93801 -5.8194,0.27659 -2.0724,0.8354 -2.3396,1.19542 -1.2649,1.70418 2.8954,1.37062 6.0107,1.59164 8.7601,0.62152 z m -5.016,-0.49404 c 0,-0.20254 0.1473,-0.36827 0.3273,-0.36827 0.1801,0 0.3274,0.16573 0.3274,0.36827 0,0.20255 -0.1473,0.36827 -0.3274,0.36827 -0.18,0 -0.3273,-0.16572 -0.3273,-0.36827 z m 1.1436,0.20246 c -0.2976,-0.29755 -0.1656,-0.77339 0.1996,-0.71978 0.5587,0.082 0.6651,0.29777 0.2973,0.60296 -0.1845,0.15311 -0.4081,0.20567 -0.4969,0.11682 z m 1.4343,-0.0797 c 0.083,-0.13504 0.2004,-0.24551 0.26,-0.24551 0.06,0 0.1082,0.11047 0.1082,0.24551 0,0.13503 -0.117,0.24551 -0.26,0.24551 -0.143,0 -0.1917,-0.11048 -0.1082,-0.24551 z m -4.051,-0.24551 c 0,-0.13503 0.1105,-0.24552 0.2455,-0.24552 0.1351,0 0.2455,0.11049 0.2455,0.24552 0,0.13503 -0.1104,0.24551 -0.2455,0.24551 -0.135,0 -0.2455,-0.11048 -0.2455,-0.24551 z m -1.2276,-0.24552 c 0,-0.13503 0.1723,-0.24551 0.3828,-0.24551 0.2105,0 0.3145,0.11048 0.231,0.24551 -0.083,0.13503 -0.2557,0.24552 -0.3827,0.24552 -0.1271,0 -0.2311,-0.11049 -0.2311,-0.24552 z m 6.1572,-0.38872 c 0.012,-0.28601 0.07,-0.34419 0.1484,-0.14833 0.071,0.17722 0.062,0.38898 -0.019,0.47056 -0.082,0.0816 -0.1396,-0.0635 -0.129,-0.32223 z m -1.2469,-0.1023 c 0,-0.13503 0.1105,-0.24552 0.2455,-0.24552 0.135,0 0.2455,0.11049 0.2455,0.24552 0,0.13503 -0.1105,0.24551 -0.2455,0.24551 -0.135,0 -0.2455,-0.11048 -0.2455,-0.24551 z m -11.0481,1.57829 c 0,-0.41656 -0.7317,-0.77698 -1.3683,-0.67401 -0.5403,0.0874 -0.6289,0.0538 -0.3574,-0.13517 0.5453,-0.37948 0.06,-0.67492 -0.5165,-0.31469 -0.4532,0.28304 -0.4859,0.26447 -0.3405,-0.19343 0.1966,-0.61965 -0.043,-0.64638 -0.6895,-0.0768 -0.4706,0.41473 -0.4827,0.41046 -0.3492,-0.12276 0.1516,-0.60536 -0.2573,-0.74916 -0.7446,-0.26188 -0.4096,0.40958 -0.6802,0.0464 -0.3036,-0.40734 0.2557,-0.30812 0.2428,-0.3742 -0.073,-0.3742 -0.2111,0 -0.4521,0.11048 -0.5356,0.24551 -0.2438,0.39456 -0.6419,0.28241 -0.5632,-0.15866 0.04,-0.2223 -0.066,-0.45246 -0.2347,-0.51149 -0.1688,-0.059 -0.3069,0.0123 -0.3069,0.15866 0,0.14629 -0.1223,0.26598 -0.2718,0.26598 -0.1495,0 -0.209,-0.16358 -0.1322,-0.36351 0.2053,-0.53527 -3.7597,-2.67446 -4.1794,-2.25479 -0.2206,0.2206 1.1461,1.54563 2.1599,2.0941 3.8379,2.07628 5.3902,2.68382 7.8248,3.06249 0.3376,0.0525 0.6966,0.11052 0.7979,0.12891 0.1013,0.0184 0.1841,-0.0297 0.1841,-0.10686 z m -8.3474,-3.55687 c 0,-0.143 0.1105,-0.19173 0.2456,-0.10827 0.135,0.0834 0.2455,0.20045 0.2455,0.26 0,0.0596 -0.1105,0.10826 -0.2455,0.10826 -0.1351,0 -0.2456,-0.117 -0.2456,-0.25999 z m 32.5553,2.9582 c 3.4153,-1.1064 9.0231,-4.76295 6.6124,-4.3115 -1.6141,0.30226 -2.3931,0.81214 -2.203,1.44192 0.1328,0.43999 0.1033,0.48298 -0.1594,0.23275 -0.4836,-0.46062 -0.9739,-0.38385 -0.7841,0.12276 0.1456,0.38844 0.1179,0.39451 -0.2886,0.0633 -0.4184,-0.34088 -0.4369,-0.32382 -0.2661,0.24552 0.1796,0.59869 0.1748,0.60129 -0.2228,0.12083 -0.4017,-0.48536 -0.4046,-0.48464 -0.2544,0.0613 0.1108,0.40256 0.048,0.5524 -0.2328,0.5524 -0.2116,0 -0.3848,-0.11048 -0.3848,-0.24551 0,-0.13503 -0.1105,-0.24552 -0.2455,-0.24552 -0.135,0 -0.2455,0.22486 -0.2455,0.49967 0,0.41792 -0.078,0.45808 -0.4749,0.24551 -0.6706,-0.35892 -0.8637,-0.31548 -0.5072,0.11412 0.3556,0.42843 0.1638,0.47319 -0.5016,0.11707 -0.3787,-0.20268 -0.4416,-0.17897 -0.3259,0.12276 0.092,0.23932 0,0.37394 -0.251,0.37394 -0.217,0 -0.3945,-0.11047 -0.3945,-0.24551 0,-0.13502 -0.1223,-0.2455 -0.2718,-0.2455 -0.1495,0 -0.2035,0.17801 -0.12,0.39558 0.1237,0.32247 0.034,0.36602 -0.4853,0.23566 -0.3827,-0.0961 -0.5791,-0.0659 -0.4917,0.0754 0.08,0.12945 -0.1869,0.30839 -0.5932,0.39762 -0.4063,0.0893 -0.7387,0.24367 -0.7387,0.34318 0,0.24212 2.6307,-0.0792 3.8304,-0.4679 z m -9.7209,-0.98118 c 0.3124,-0.27092 0.5026,-0.55797 0.4227,-0.6379 -0.1644,-0.16434 -1.3869,0.66279 -1.3988,0.94635 -0.014,0.32574 0.3931,0.19721 0.9761,-0.30845 z m 8.9311,-3.66986 c 2.3493,-0.5361 4.8158,-2.06778 4.8158,-2.99051 0,-0.34803 -0.6526,-0.24104 -0.987,0.16179 -0.1708,0.20581 -0.3677,0.31697 -0.4377,0.24702 -0.07,-0.07 0.078,-0.35356 0.3281,-0.63025 0.4453,-0.49205 0.4435,-0.50615 -0.083,-0.64392 -0.2963,-0.0775 -0.5386,-0.22072 -0.5386,-0.31835 0,-0.0976 -0.7674,-0.32228 -1.7053,-0.49926 -5.1147,-0.96507 -13.1091,1.54546 -10.4562,3.28367 0.8297,0.54363 1.0453,0.50715 2.0102,-0.34004 0.4614,-0.40509 0.9731,-0.73323 1.1372,-0.7292 0.1641,0.004 -0.1988,0.44265 -0.8064,0.97472 -1.0767,0.94275 -1.088,0.96758 -0.4442,0.97472 0.3634,0.004 0.727,0.1146 0.808,0.24572 0.081,0.13112 0.6977,0.3114 1.3704,0.40063 0.6726,0.0893 1.2723,0.24218 1.3327,0.33989 0.1146,0.18538 1.609,-0.009 3.6563,-0.47663 z m -3.4088,-0.25678 c 0.083,-0.13503 0.2004,-0.2455 0.26,-0.2455 0.06,0 0.1082,0.11047 0.1082,0.2455 0,0.13503 -0.117,0.24552 -0.26,0.24552 -0.143,0 -0.1917,-0.11049 -0.1082,-0.24552 z m -1.2276,-0.6283 c 0.4051,-0.33703 1.2337,-1.08991 1.8414,-1.67304 1.3248,-1.27141 1.7196,-1.52202 1.7155,-1.08893 0,0.17676 -0.3884,0.57098 -0.8593,0.87604 -0.8474,0.54891 -1.2273,1.48161 -0.488,1.1979 0.2257,-0.0866 0.3683,1.3e-4 0.3683,0.22391 0,0.26108 -0.165,0.32383 -0.5786,0.22003 -0.3664,-0.092 -0.8841,0.041 -1.4117,0.36267 -1.1419,0.69612 -1.4839,0.6271 -0.5876,-0.11858 z m 2.884,0.32141 c 0.144,-0.43527 1.9709,-1.66182 2.3032,-1.54633 0.1523,0.053 0.7463,-0.34144 1.3201,-0.87641 0.5736,-0.53496 1.1118,-0.90388 1.1959,-0.8198 0.084,0.0841 -0.2154,0.48186 -0.6654,0.884 -0.4501,0.40213 -0.7621,0.87765 -0.6934,1.05672 0.088,0.22832 -0.028,0.28566 -0.3861,0.19194 -0.3194,-0.0835 -0.4517,-0.0375 -0.3526,0.12273 0.1945,0.3147 -0.5145,0.94826 -0.7628,0.68164 -0.098,-0.10524 -0.04,-0.24067 0.1287,-0.30096 0.1688,-0.0603 0.3052,-0.29373 0.3032,-0.51879 0,-0.2457 -0.076,-0.3059 -0.1842,-0.15069 -0.5607,0.80354 -2.4027,1.86864 -2.2066,1.27595 z m -3.4978,-1.28893 c 1.1347,-1.15614 1.2276,-1.22527 1.2276,-0.91351 0,0.29762 -1.7419,2.01832 -2.0432,2.01832 -0.1478,0 0.2193,-0.49716 0.8156,-1.10481 z m -3.6826,0.024 c 0,-0.0543 0.359,-0.21851 0.7979,-0.36489 0.73,-0.24351 0.7573,-0.2351 0.3213,0.0987 -0.4392,0.3363 -1.1192,0.49801 -1.1192,0.26616 z m 11.048,-0.006 c 0,-0.0676 0.221,-0.24101 0.491,-0.38554 0.2701,-0.14454 0.491,-0.20755 0.491,-0.14004 0,0.0676 -0.2209,0.24101 -0.491,0.38555 -0.27,0.14453 -0.491,0.20754 -0.491,0.14003 z m -2.4497,-1.50263 c -0.01,-0.50549 0.4137,-1.09252 0.7802,-1.09252 0.3166,0 0.219,0.32539 -0.2946,0.98204 -0.449,0.57396 -0.4805,0.58113 -0.4856,0.11048 z m 1.4714,-0.242 c 0.01,-0.42266 0.4555,-0.96409 0.6434,-0.77618 0.1006,0.10057 0,0.36962 -0.2321,0.59789 -0.2283,0.22827 -0.4134,0.3085 -0.4113,0.17829 z m -21.9192,3.77423 c 2.2914,-0.55927 3.134,-0.90107 3.1049,-1.25958 -0.019,-0.23811 0.1314,-0.31415 0.4548,-0.22957 0.7716,0.20176 0.9835,-0.46249 0.3607,-1.13064 -2.9982,-3.21647 -14.4125,-3.45184 -14.4125,-0.29718 0,0.80992 3.3145,2.50186 5.6076,2.86245 0.4941,0.0777 0.9445,0.186 1.0007,0.24064 0.2151,0.20893 2.766,0.0867 3.8838,-0.18612 z m -6.3677,-0.8554 c -0.6348,-0.187 -1.2214,-0.44873 -1.3035,-0.58161 -0.2036,-0.32943 0.4524,-0.3072 0.7863,0.0266 0.1917,0.19176 0.4084,0.19323 0.7598,0.006 0.3751,-0.20075 0.5614,-0.179 0.7861,0.0918 0.5282,0.63639 0.1493,0.8051 -1.0287,0.45804 z m 2.443,0.13137 c -0.4413,-0.24901 -0.5996,-0.95458 -0.2142,-0.95458 0.312,0 0.8277,0.67857 0.7284,0.95853 -0.054,0.15352 -0.2376,0.15211 -0.5142,-0.004 z m 1.5891,-0.10921 c -0.5281,-0.36987 -0.7376,-0.85457 -0.3615,-0.83654 0.1012,0.005 0.5155,0.28051 0.9206,0.61256 0.8235,0.67501 0.3536,0.86326 -0.5591,0.22398 z m 1.2842,-0.37296 c -0.257,-0.41584 0.087,-0.57155 0.5022,-0.22716 0.3183,0.26422 0.3558,0.25257 0.2312,-0.0719 -0.1222,-0.31855 -0.028,-0.35497 0.5308,-0.20548 0.3737,0.0999 0.7173,0.29553 0.7637,0.43467 0.1124,0.33718 -1.8215,0.40384 -2.0279,0.0699 z m 2.4521,-0.34185 c -0.2621,-0.19825 -0.3595,-0.36397 -0.2166,-0.36826 0.143,-0.005 0.4744,0.15439 0.7366,0.35264 0.2621,0.19826 0.3596,0.36398 0.2166,0.36828 -0.143,0.005 -0.4745,-0.1544 -0.7366,-0.35266 z m 0.7331,-0.49356 c -0.4154,-0.31425 -0.4224,-0.35887 -0.058,-0.36573 0.2283,-0.005 0.488,0.11002 0.577,0.25404 0.2674,0.43273 -0.014,0.49341 -0.5191,0.11169 z m 8.3653,-4.45485 c 0.8102,-0.34786 1.915,-0.7168 2.4552,-0.81984 6.8598,-1.30878 3.5797,-5.11265 -4.6178,-5.355 -8.3322,-0.24634 -13.3076,2.66742 -7.9313,4.64488 1.7807,0.65498 2.221,0.65992 1.5788,0.0177 -0.1598,-0.15979 -0.2224,-0.35867 -0.1391,-0.44196 0.2436,-0.2436 0.6751,0.13535 0.6751,0.59286 0,1.42401 5.6057,2.38042 7.9791,1.36136 z m -5.4852,-1.07443 c -0.3984,-0.53894 -0.4518,-0.73654 -0.199,-0.73654 0.3807,0 0.7384,0.38332 0.9737,1.04343 0.2386,0.66935 -0.1737,0.50603 -0.7747,-0.30689 z m 1.8012,-0.002 c -0.4985,-0.55085 -0.3999,-0.82649 0.2117,-0.59179 0.2219,0.0851 0.4034,0.36394 0.4034,0.61956 0,0.58364 -0.065,0.58072 -0.6151,-0.0277 z m 1.1979,0.13188 c -0.1966,-0.51216 0.086,-0.8387 0.6074,-0.70232 0.2977,0.0779 0.6711,-0.14058 1.0887,-0.63683 0.7798,-0.92667 0.9683,-0.94828 0.8677,-0.0995 -0.1085,0.91649 -2.2937,2.1426 -2.5638,1.43861 z m -4.3868,-0.37438 c -0.3768,-0.41631 -0.3869,-0.49253 -0.066,-0.49253 0.209,0 0.4497,0.18153 0.5348,0.4034 0.232,0.60456 0.032,0.6426 -0.4692,0.0892 z m 6.9957,0.13215 c 0,-0.0615 0.2682,-0.50708 0.596,-0.99013 0.3278,-0.48305 0.6382,-1.00468 0.6896,-1.15918 0.052,-0.15449 0.2187,-0.20365 0.3714,-0.10924 0.4155,0.25675 -0.099,1.52163 -0.8075,1.98593 -0.598,0.39186 -0.8495,0.47257 -0.8495,0.27262 z m 2.2855,-1.15987 c 0.5191,-1.18433 1.1517,-1.8359 1.1517,-1.18619 0,0.41783 -1.2381,2.45791 -1.4917,2.45791 -0.1195,0 0.033,-0.57227 0.34,-1.27172 z m 1.5546,-0.0726 c 0.5052,-0.60433 0.9616,-1.05571 1.0142,-1.00308 0.1696,0.16962 -0.4767,1.22973 -1.0162,1.66675 -0.9375,0.75934 -0.9365,0.45916 0,-0.66367 z m -13.7833,0.60775 c -0.083,-0.13503 0.021,-0.24552 0.231,-0.24552 0.2105,0 0.3827,0.11049 0.3827,0.24552 0,0.13503 -0.1039,0.24551 -0.231,0.24551 -0.1271,0 -0.2993,-0.11048 -0.3827,-0.24551 z m 31.2782,1.97348 c 4.7591,-1.2937 7.3443,-5.34015 4.6274,-7.24311 -2.1917,-1.53516 -13.6868,1.92689 -13.6868,4.12216 0,0.6252 0.681,1.39298 1.2355,1.39298 0.2326,0 0.5605,0.16572 0.7286,0.36827 0.1681,0.20255 0.4885,0.36826 0.7119,0.36826 0.2235,0 0.6429,0.1657 0.9321,0.36822 0.2891,0.20252 0.7004,0.30118 0.9139,0.21925 0.2547,-0.0977 0.3882,-0.0133 0.3882,0.24556 0,0.53282 0.3226,0.4966 0.8593,-0.0965 0.4666,-0.51563 0.8593,-0.6409 0.8593,-0.27414 0,0.11928 -0.2209,0.27465 -0.491,0.34527 -0.2701,0.0706 -0.491,0.24555 -0.491,0.38873 0,0.31992 1.9019,0.20569 3.4126,-0.20496 z m -3.9037,-0.62783 c 0,-0.30121 0.8391,-1.59117 1.035,-1.59117 0.3271,0 0.2171,0.2683 -0.4212,1.02683 -0.3376,0.40118 -0.6138,0.65514 -0.6138,0.56434 z m 2.7007,-0.1181 c 0,-0.13503 0.117,-0.24551 0.26,-0.24551 0.143,0 0.1917,0.11048 0.1082,0.24551 -0.083,0.13504 -0.2004,0.24552 -0.26,0.24552 -0.059,0 -0.1082,-0.11048 -0.1082,-0.24552 z m -3.6827,-0.647 c 0,-0.26926 1.2386,-1.31747 1.5471,-1.30928 0.1647,0.005 0.1051,0.15136 -0.1354,0.33396 -0.2363,0.17938 -0.4297,0.44025 -0.4297,0.5797 0,0.13946 -0.1747,0.32062 -0.3883,0.40258 -0.4909,0.18838 -0.5937,0.18718 -0.5937,-0.007 z m 2.3854,0.005 c -0.083,-0.0833 0.4108,-0.66335 1.098,-1.28894 1.831,-1.66688 2.2721,-2.20023 2.4089,-2.91256 0.1902,-0.99097 0.7365,-0.99896 0.7365,-0.0107 0,1.38325 -3.5492,4.90644 -4.2434,4.21227 z m 2.2793,-0.23185 c 0,-0.094 0.3923,-0.62623 0.8716,-1.18272 0.4794,-0.5565 0.9866,-1.15598 1.1271,-1.33219 0.1405,-0.1762 0.3387,-0.83909 0.4404,-1.47307 0.1377,-0.85885 0.2338,-1.04018 0.3767,-0.71134 0.3501,0.80543 -0.043,2.34213 -0.8751,3.42132 -0.4443,0.57616 -0.8141,1.06146 -0.8219,1.07845 -0.065,0.14276 -1.1188,0.33075 -1.1188,0.19955 z m -6.8743,-0.32691 c 0,-0.12059 0.1747,-0.28631 0.3883,-0.36828 0.6006,-0.23046 0.68,-0.1805 0.3482,0.21925 -0.3387,0.40813 -0.7365,0.48863 -0.7365,0.14903 z m 1.3764,-0.12852 c 0.082,-0.21383 0.2571,-0.38878 0.3889,-0.38878 0.3227,0 0.1206,0.55799 -0.2464,0.68033 -0.1794,0.0599 -0.2342,-0.0524 -0.1425,-0.29155 z m 7.7075,0.0335 c 0,-0.0401 0.221,-0.50633 0.4911,-1.03604 0.27,-0.52971 0.4925,-1.29882 0.4943,-1.70912 0,-0.98419 0.2462,-1.85081 0.5163,-1.85081 0.7239,0 -0.1676,3.83576 -1.0144,4.36459 -0.268,0.16737 -0.4873,0.27149 -0.4873,0.23138 z m 1.4747,-0.25427 c 0,-0.11015 0.1233,-0.43376 0.2761,-0.71913 0.1527,-0.28537 0.3599,-1.07908 0.4604,-1.76382 l 0.1827,-1.24497 0.029,1.22757 c 0.02,0.85177 -0.1203,1.45303 -0.4588,1.9641 -0.2682,0.40509 -0.4885,0.6464 -0.4894,0.53625 z m -51.0135,2.15045 c -0.3001,-0.2102 -0.5439,-0.51402 -0.5419,-0.67515 0,-0.20863 0.056,-0.21448 0.1842,-0.0203 0.4379,0.66186 1.8011,1.10403 2.8971,0.93968 1.4004,-0.21001 1.4774,-0.36949 0.5889,-1.22067 -0.4003,-0.38351 -0.7278,-0.86476 -0.7278,-1.06945 0,-0.23814 0.3353,-0.0448 0.931,0.53696 0.9801,0.95694 1.6902,1.15633 1.9264,0.54085 0.078,-0.20255 0.361,-0.36828 0.6295,-0.36828 0.6847,0 1.9144,-0.92947 1.9144,-1.44698 0,-2.31458 -11.9135,-5.94976 -14.3236,-4.37058 -2.0291,1.32951 -0.6976,4.4602 2.6009,6.11546 2.2544,1.13133 5.1474,1.89757 3.9209,1.0385 z m 0.8792,-0.80317 c -0.7677,-0.49582 -1.4024,-0.9785 -1.4103,-1.07262 -0.026,-0.31043 2.061,-0.11162 2.6324,0.25074 0.8025,0.50891 0.4873,0.64404 -0.4145,0.1777 -0.9933,-0.51367 -0.9745,-0.093 0.031,0.69397 1.247,0.9759 0.6993,0.94338 -0.8386,-0.0498 z m -3.9375,-1.01705 c -0.6131,-0.55774 -0.7006,-0.73104 -0.3721,-0.73654 0.2363,-0.004 0.4297,0.10565 0.4297,0.24358 0,0.13793 0.2762,0.37662 0.6138,0.53044 0.3375,0.15381 0.6137,0.3724 0.6137,0.48575 0,0.39875 -0.4915,0.19862 -1.2851,-0.52323 z m 1.7148,0.46416 c -0.2363,-0.13764 -0.4297,-0.41047 -0.4297,-0.60631 0,-0.55993 0.3846,-0.41667 0.6919,0.25771 0.1538,0.33758 0.2544,0.61042 0.2235,0.60631 -0.031,-0.004 -0.2494,-0.12007 -0.4857,-0.25771 z m -3.2336,-0.74755 c -0.2593,-0.2521 -0.4152,-0.51473 -0.3463,-0.58361 0.069,-0.0689 0.3265,0.0971 0.5724,0.36878 0.5776,0.63826 0.3915,0.81511 -0.2261,0.21483 z m 8.2394,0.0225 -0.5796,-0.48286 0.5796,0.006 c 0.3187,0.003 0.8558,0.2215 1.1934,0.48556 l 0.6137,0.4801 -0.6137,-0.003 c -0.3376,-0.002 -0.8747,-0.22 -1.1934,-0.48557 z m 1.9319,-0.4764 c -0.261,-0.16504 -0.2904,-0.30727 -0.1024,-0.49531 0.3332,-0.33323 1.0824,-0.0616 1.0824,0.39236 0,0.39296 -0.447,0.43993 -0.98,0.10295 z m 8.8364,-5.50627 c 1.3929,-0.50363 2.0703,-0.91657 2.7811,-1.69532 0.7752,-0.8492 0.8475,-0.88976 0.4129,-0.2316 -0.4087,0.61909 -0.4469,0.79791 -0.1704,0.79791 0.196,0 0.4141,-0.22096 0.4847,-0.49102 0.071,-0.27007 0.2714,-0.49103 0.446,-0.49103 0.247,0 0.2522,0.0655 0.023,0.29461 -0.6828,0.68284 -0.017,0.95538 0.8247,0.33741 2.0395,-1.498 -7.0509,-3.8085 -13.9242,-3.53913 -2.3112,0.0906 -3.2623,0.51676 -3.6813,1.64947 -0.2725,0.73648 1.2198,2.36487 1.9537,2.13193 0.2857,-0.0906 0.6231,0.04 0.9034,0.3498 0.517,0.57125 1.0778,0.68147 0.612,0.1203 -0.6013,-0.72452 -0.064,-0.59895 1.0077,0.23561 0.6656,0.51815 1.7476,1.02676 2.8027,1.31737 1.8967,0.52243 1.9096,0.52059 5.524,-0.78631 z m -4.9102,0.40761 c -0.3913,-0.15215 -0.9612,-0.79975 -0.9743,-1.10697 -0.014,-0.34042 0.3552,-0.16871 1.2105,0.56237 0.7797,0.66641 0.6782,0.90019 -0.2362,0.5446 z m 1.1662,-0.4278 c -0.7428,-0.65377 -0.8327,-0.86411 -0.3683,-0.86176 0.1688,7.4e-4 0.4951,0.3323 0.7251,0.73654 0.23,0.40424 0.3958,0.73149 0.3683,0.72722 -0.027,-0.005 -0.3538,-0.27516 -0.7251,-0.602 z m -3.3144,-0.27026 c -0.4389,-0.19192 -0.798,-0.48121 -0.798,-0.64285 0,-0.21723 0.072,-0.22205 0.2755,-0.0185 0.1514,0.15148 0.407,0.22492 0.5678,0.1632 0.1609,-0.0617 0.496,0.11262 0.7447,0.38745 0.5206,0.57528 0.3326,0.60164 -0.79,0.11068 z m 4.4192,-0.0191 c -0.5697,-0.22987 -0.3121,-0.57394 0.4296,-0.57394 0.7871,0 0.9894,0.34146 0.3482,0.58751 -0.2136,0.0819 -0.4069,0.1403 -0.4296,0.12964 -0.023,-0.0107 -0.1794,-0.0751 -0.3482,-0.14321 z m 1.8409,-0.43694 c -0.5172,-0.37817 -0.5519,-0.62802 -0.087,-0.62802 0.1881,0 0.4117,0.18153 0.4968,0.40341 0.208,0.54214 0.1033,0.5996 -0.4095,0.22461 z m 1.6868,-0.44389 c 0.6292,-1.06762 0.9092,-1.39178 1.1002,-1.27376 0.2396,0.14812 -0.7276,1.58065 -1.0673,1.58065 -0.1176,0 -0.1324,-0.1381 -0.033,-0.30689 z m 21.8214,2.05619 c 0.8102,-0.25112 2.2188,-0.75919 3.1303,-1.12904 1.6182,-0.65667 1.7879,-0.84739 1.6989,-1.90919 -0.02,-0.23631 0.073,-0.42965 0.2067,-0.42965 0.1334,0 0.2426,0.28365 0.2426,0.63033 0,1.11025 1.2854,0.45898 1.6271,-0.82436 0.6613,-2.48444 -7.6531,-2.98604 -14.8488,-0.89581 -2.0196,0.58665 -3.2669,2.14586 -1.9387,2.42353 1.1527,0.241 2.5456,0.41637 3.3183,0.41779 0.441,7.3e-4 0.7459,0.0919 0.6776,0.2023 -0.068,0.11046 0.5101,0.45223 1.2851,0.75949 0.7751,0.30727 1.5197,0.6405 1.6547,0.74051 0.1351,0.10002 0.5217,0.23263 0.8593,0.2947 0.3376,0.0621 0.6138,0.12704 0.6138,0.1444 0,0.0174 0.6629,-0.1739 1.4731,-0.425 z m -2.0869,-0.71092 c 0,-0.44769 0.7297,-0.85194 1.2786,-0.70838 0.3256,0.0851 0.7149,-0.0116 0.9679,-0.24059 0.4616,-0.41773 0.9452,-0.26763 0.9452,0.29335 0,0.19457 -0.2486,0.36802 -0.5524,0.38544 -1.2451,0.0713 -1.8017,0.15407 -2.2096,0.32833 -0.2426,0.10363 -0.4297,0.0783 -0.4297,-0.0582 z m -1.1662,-0.21892 c -0.4811,-0.19413 -0.3592,-0.57395 0.1842,-0.57395 0.2728,0 0.491,0.16368 0.491,0.36827 0,0.37833 -0.1409,0.42125 -0.6752,0.20568 z m -1.6572,-0.32843 c -0.083,-0.13503 0.021,-0.24552 0.2311,-0.24552 0.2105,0 0.3827,0.11049 0.3827,0.24552 0,0.13503 -0.104,0.24551 -0.231,0.24551 -0.1271,0 -0.2993,-0.11048 -0.3828,-0.24551 z m 6.5495,-0.40333 c 0.091,-0.46017 0.8388,-1.00596 1.0666,-0.77808 0.2244,0.22434 -0.439,1.18141 -0.8188,1.18141 -0.18,0 -0.2915,-0.1815 -0.2478,-0.40333 z m 1.6752,-0.54866 c 0,-0.32 0.6341,-0.78717 0.8184,-0.60293 0.1842,0.18426 -0.283,0.81838 -0.603,0.81838 -0.1185,0 -0.2154,-0.097 -0.2154,-0.21545 z m 2.4589,-1.059 c 0,-0.36336 0.1067,-0.72894 0.2417,-0.8124 0.3135,-0.19375 0.3135,0.61971 0,1.1048 -0.1861,0.28804 -0.2388,0.22435 -0.2417,-0.2924 z m 14.3652,1.66496 c 1.1077,-2.65114 -0.4958,-4.0301 -3.1325,-2.69396 -1.38,0.69928 -1.381,0.69381 0.3077,1.63038 0.4281,0.23745 0.836,0.65175 0.9063,0.92067 0.1797,0.68697 0.4872,0.60859 0.9236,-0.23541 0.5272,-1.01945 0.4753,-1.48526 -0.1656,-1.48526 -0.42,0 -0.4746,0.0654 -0.2455,0.29461 0.393,0.39294 0.3727,0.68744 -0.047,0.68744 -0.5427,0 -0.648,-0.65318 -0.1745,-1.08174 1.3106,-1.18603 1.8279,0.898 0.6639,2.67447 -0.2161,0.32977 -0.3929,0.7841 -0.3929,1.00961 0,0.5533 0.8651,-0.5438 1.3569,-1.72081 z m -67.0328,0.59817 c 0.1679,-0.76444 1.2835,-1.86355 2.2734,-2.23993 0.7204,-0.27388 0.5474,-0.57971 -0.683,-1.20738 -2.5333,-1.29241 -3.8598,0.18454 -2.6635,2.96552 0.6004,1.39562 0.848,1.50678 1.0731,0.48179 z m 34.6511,-7.44172 c 1.0273,-1.0866 1.9676,-2.3807 2.4065,-3.31198 0.7496,-1.59081 1.1248,-1.91909 1.1156,-0.97613 -0.01,1.03553 -0.965,2.66959 -2.4849,4.2525 -2.1348,2.22315 -1.5795,2.29964 0.6257,0.0862 1.7866,-1.79321 2.0051,-2.18767 2.4719,-4.46145 0.2031,-0.98938 0.6206,-0.82346 0.6179,0.24551 0,1.22184 -0.9533,3.17436 -2.0544,4.22187 -0.9148,0.87022 -1.0974,1.24077 -0.6115,1.24077 0.973,0 3.1526,-3.5808 3.1569,-5.18644 0,-0.785 0.075,-0.88998 0.6162,-0.88998 0.7126,0 0.7481,0.0849 0.2455,0.58747 -0.2026,0.20255 -0.3683,0.69731 -0.3683,1.09947 0,0.82674 -0.5499,2.03566 -1.2982,2.85406 -0.707,0.77332 -0.3574,0.95579 0.8168,0.42629 2.1302,-0.96058 3.1693,-3.05949 2.2739,-4.59277 -2.5664,-4.39418 -19.2238,-3.15107 -19.2238,1.43463 0,1.10427 2.7299,3.35403 3.4956,2.88079 0.1024,-0.0633 0.4319,0.0571 0.7322,0.26746 0.3004,0.21037 0.8167,0.38249 1.1473,0.38249 0.3307,0 0.7987,0.17874 1.0402,0.39721 0.4528,0.40981 1.3757,0.66395 2.7837,0.76654 0.7165,0.0523 1.0021,-0.14513 2.4952,-1.72451 z m -5.4233,-0.25873 c -0.688,-1.17393 -0.7459,-1.39012 -0.3726,-1.39012 0.1384,0 0.3629,0.30382 0.4988,0.67515 0.136,0.37134 0.5475,0.9232 0.9146,1.22635 0.6427,0.53082 0.6474,0.55122 0.1253,0.5524 -0.3804,7.4e-4 -0.7281,-0.31624 -1.1661,-1.06378 z m 3.0585,0.81949 c 0,-0.13504 0.1471,-0.24551 0.3268,-0.24551 0.1797,0 0.4836,-0.299 0.6751,-0.66443 0.1916,-0.36543 0.7603,-1.03899 1.2637,-1.4968 0.5034,-0.45781 1.1598,-1.22793 1.4586,-1.71141 0.2988,-0.48346 0.5839,-0.75724 0.6335,-0.60839 0.1385,0.41564 -0.7989,2.06295 -1.6419,2.88519 -0.4153,0.4051 -1.0551,1.04036 -1.4218,1.4117 -0.6706,0.67897 -1.294,0.88598 -1.294,0.42965 z m -4.9129,-1.28894 c -0.5357,-0.87857 -0.6016,-1.16618 -0.2671,-1.16618 0.194,0 1.2518,1.56783 1.2518,1.85536 0,0.38465 -0.5756,-0.0182 -0.9847,-0.68918 z m 3.0911,0.0148 c -0.207,-0.29567 -0.3286,-0.58552 -0.27,-0.64411 0.2072,-0.20723 0.8357,0.17864 1.1024,0.67681 0.3834,0.71659 -0.3271,0.68868 -0.8324,-0.0327 z m -4.6075,-0.13606 c -0.6273,-0.73035 -0.7412,-1.04493 -0.3782,-1.04493 0.3566,0 1.0898,1.13479 0.8732,1.35145 -0.069,0.0686 -0.2913,-0.0694 -0.495,-0.30652 z m 5.9938,0.13879 c 0.1331,-0.39924 0.8668,-0.8343 1.0678,-0.63322 0.091,0.0907 0.099,0.33534 0.019,0.54371 -0.1681,0.4383 -1.2328,0.52593 -1.0873,0.0895 z m 8.5991,-0.6927 c 0.2162,-0.33758 0.4689,-1.0293 0.5618,-1.53716 0.093,-0.50786 0.2785,-0.99122 0.4126,-1.07414 0.1561,-0.0964 0.179,0.14787 0.064,0.67787 -0.2756,1.26653 -0.5167,1.79726 -0.9943,2.18904 -0.4142,0.33971 -0.4165,0.32652 -0.044,-0.25561 z m -28.8883,1.29898 c 0.8661,-0.23079 1.5765,-0.53461 1.5786,-0.67516 0.01,-0.45469 1.8824,-2.42148 2.0503,-2.14993 0.1642,0.26582 0,0.46781 -1.2236,1.52042 -0.943,0.81021 -0.2844,0.9746 1.0918,0.27249 3.4355,-1.75261 2.5173,-3.01903 -4.1004,-5.65549 -5.4796,-2.18308 -9.361,-1.73398 -9.361,1.08313 0,3.62717 5.5886,6.77051 9.9643,5.60454 z m -2.8739,-1.31718 c -0.1619,-0.10003 -0.418,-0.13442 -0.5691,-0.0765 -0.3546,0.13608 -1.2968,-0.54699 -1.0689,-0.77492 0.095,-0.0952 0.3713,-0.0873 0.6134,0.0175 0.5182,0.22449 0.7423,0.27337 1.4837,0.32356 0.3038,0.0206 0.5524,0.1847 0.5524,0.36473 0,0.35675 -0.5432,0.43487 -1.0115,0.14547 z m 1.6224,0.0136 c -0.3105,-0.50245 0.318,-0.88321 0.8793,-0.53268 0.419,0.26166 0.6046,0.23217 1.1979,-0.19029 0.9147,-0.65131 1.0436,-0.63048 0.7044,0.11384 -0.215,0.47186 -0.4646,0.61378 -1.0794,0.61378 -0.44,0 -0.9634,0.0628 -1.1634,0.13949 -0.1999,0.0767 -0.4424,0.0119 -0.5388,-0.14414 z m -4.8603,-0.58544 c -0.9155,-0.56278 -0.9221,-0.57721 -0.3161,-0.69307 0.4257,-0.0814 0.7752,0.0479 1.1192,0.41412 0.9471,1.00819 0.5868,1.13335 -0.8031,0.27895 z m 52.7969,1.9106 c 3.1522,-0.75909 5.7107,-3.1568 5.7107,-5.35203 0,-3.85709 -5.0026,-3.68558 -13.2214,0.45332 -3.273,1.64825 -2.7134,3.12938 1.6804,4.44752 0.87,0.26102 0.2579,-0.45819 -0.7428,-0.87269 -0.4006,-0.16594 -0.7284,-0.39879 -0.7284,-0.51744 0,-0.30601 0.1798,-0.27012 0.8515,0.16999 0.4698,0.30783 0.6964,0.32807 1.122,0.10028 0.5628,-0.30122 2.2002,-0.12604 2.2002,0.23539 0,0.41142 -0.827,0.52897 -1.0403,0.14787 -0.3307,-0.59091 -0.9238,-0.45654 -0.9238,0.20928 0,1.2846 1.4536,1.17338 2.6007,-0.199 0.4987,-0.59651 1.2223,-1.31794 1.6081,-1.60318 1.3039,-0.96398 0.8156,0.18296 -0.6488,1.52432 -1.8533,1.69743 -1.5007,1.98662 1.5319,1.25637 z m -0.4271,-1.55236 c 0,-0.12752 0.391,-0.6523 0.869,-1.16618 0.478,-0.51389 0.998,-1.40388 1.1557,-1.97776 0.1577,-0.57388 0.3743,-1.04343 0.4813,-1.04343 0.3012,0 0.2128,1.53533 -0.121,2.10178 -0.9356,1.58745 -2.385,2.85492 -2.385,2.08559 z m 1.9641,-0.49019 c 0,-0.12707 0.112,-0.30029 0.249,-0.38493 0.42,-0.25963 1.2479,-2.07479 1.4284,-3.13183 0.2351,-1.3772 0.7777,-1.51184 0.7777,-0.19299 0,1.29083 -0.4947,2.46902 -1.382,3.2918 -0.7296,0.67653 -1.0731,0.81033 -1.0731,0.41795 z m 3.0533,-2.36603 c 0.1342,-0.73213 0.3381,-1.33115 0.4532,-1.33115 0.115,0 0.1548,0.19334 0.088,0.42965 -0.066,0.2363 -0.193,0.78744 -0.2809,1.22475 -0.088,0.4373 -0.2375,0.84298 -0.3322,0.9015 -0.095,0.0586 -0.062,-0.49261 0.072,-1.22475 z m -38.0388,-4.42261 c 0.9452,-0.34778 2.0013,-0.73823 2.3469,-0.86768 0.3457,-0.12946 0.8259,-0.56978 1.0674,-0.9785 0.2414,-0.40872 0.4992,-0.6829 0.5728,-0.6093 0.074,0.0736 -0.01,0.30488 -0.1817,0.51395 -0.3768,0.45411 -0.1769,0.73421 0.3734,0.52304 1.6586,-0.63647 -0.6784,-2.81958 -3.6878,-3.44492 -10.3258,-2.14571 -18.1555,0.72232 -11.5949,4.24727 1.6918,0.90898 2.0369,0.95831 1.0475,0.14972 -0.3998,-0.32675 -0.6461,-0.67495 -0.5473,-0.77377 0.099,-0.0988 0.6511,0.28296 1.2273,0.84842 0.6687,0.65631 1.2706,1.02811 1.6643,1.02811 0.3393,0 0.7218,0.10386 0.85,0.23079 0.7073,0.69978 3.5952,0.33485 6.8621,-0.86713 z m -6.7516,-0.3457 -0.6138,-0.4801 0.6752,-0.006 c 0.3713,-0.003 0.6752,0.0407 0.6752,0.0972 0,0.0565 0.067,0.27743 0.149,0.49103 0.1998,0.52061 -0.139,0.48134 -0.8856,-0.10268 z m 2.2096,0.32943 c -0.2025,-0.0676 -0.5248,-0.17294 -0.7162,-0.23418 -0.245,-0.0784 -0.271,-0.18829 -0.088,-0.37156 0.1833,-0.18327 0.4074,-0.18147 0.7578,0.007 0.3725,0.19937 0.5271,0.18967 0.6151,-0.0386 0.065,-0.16771 0.1053,-0.0563 0.09,0.24748 -0.028,0.5755 -0.056,0.59196 -0.6592,0.39081 z m -3.8195,-0.43211 c -0.2619,-0.19152 -0.4211,-0.39959 -0.3538,-0.46241 0.1989,-0.18562 1.2272,0.28128 1.2272,0.55718 0,0.35051 -0.3105,0.31682 -0.8734,-0.0948 z m 4.9348,0.11964 c -0.1594,-0.25794 0.3147,-0.63288 0.5292,-0.41845 0.076,0.0763 0.3384,0.0318 0.5825,-0.0988 0.5425,-0.2903 0.9568,0.19904 0.4437,0.52402 -0.4486,0.28414 -1.3781,0.28012 -1.5554,-0.007 z m 2.1223,-0.69212 c 0.045,-0.23631 0.3379,-0.46608 0.6509,-0.51061 0.507,-0.0721 0.5392,-0.0253 0.2957,0.42965 -0.3354,0.62669 -1.0625,0.68887 -0.9466,0.081 z m 1.4272,0.299 c 0,-0.41102 0.7521,-1.83345 0.9695,-1.83345 0.341,0 0.3299,0.0781 -0.1557,1.09647 -0.3544,0.74308 -0.8138,1.15917 -0.8138,0.73698 z m 1.7511,-1.21967 c 0.4406,-0.74678 0.9495,-1.13501 0.9495,-0.72435 0,0.42882 -0.8042,1.58365 -1.1029,1.58365 -0.2787,0 -0.2462,-0.18218 0.1534,-0.8593 z m 21.9673,2.68175 c 1.5658,-0.42806 2.1136,-1.15716 3.2904,-4.37894 0.1796,-0.4918 0.3404,-0.63597 0.5147,-0.46162 0.4246,0.42451 -0.034,2.00841 -0.9154,3.16338 -1.0024,1.31321 -0.593,1.43466 0.9273,0.27508 3.6773,-2.80481 0.5126,-5.41352 -6.0531,-4.98968 -6.4418,0.41584 -9.9433,1.59844 -9.9433,3.35829 0,0.77002 -0.076,0.73091 2.8234,1.45429 1.2153,0.30321 2.624,0.76148 3.1304,1.01838 2.2194,1.12577 3.6784,1.2572 6.2256,0.56082 z m -1.6224,-0.58031 c 0,-0.14228 0.3637,-0.6733 0.8081,-1.18007 0.4445,-0.50675 0.9421,-1.23142 1.1059,-1.61037 0.3857,-0.89248 0.818,-0.64448 0.5437,0.3119 -0.354,1.23421 -2.4577,3.35578 -2.4577,2.47854 z m -2.5165,-0.18383 c -0.2363,-0.0618 -0.4296,-0.19624 -0.4296,-0.29887 0,-0.39045 0.3153,-0.47449 0.7535,-0.20082 0.3713,0.23187 0.5961,0.18 1.2204,-0.28158 0.95,-0.70235 1.2555,-0.48752 0.4803,0.3377 -0.5472,0.5825 -1.0616,0.69521 -2.0246,0.44357 z m -1.8428,-0.23938 c -0.1697,-0.0684 -0.2524,-0.21502 -0.1839,-0.32584 0.1568,-0.25378 1.1061,-0.0203 1.1061,0.27207 0,0.23211 -0.4193,0.25655 -0.9222,0.0537 z m 6.3234,0.0783 c 0,-0.0937 0.2596,-0.58254 0.5768,-1.08622 0.3172,-0.50369 0.7261,-1.3301 0.9086,-1.83647 0.1825,-0.50636 0.4201,-0.92066 0.528,-0.92066 0.3476,0 0.2093,0.9761 -0.2709,1.9125 -0.4398,0.85762 -1.7425,2.30111 -1.7425,1.93085 z m -49.3479,0.65439 c 0,-0.22686 0.5013,-0.87929 1.114,-1.44983 l 1.1139,-1.03736 -0.6843,-0.48205 c -2.1844,-1.53879 -3.3592,-0.12051 -2.2419,2.70658 0.2964,0.75002 0.6983,0.90118 0.6983,0.26266 z m 67.751,-2.05708 c 0.019,-1.59106 -0.487,-1.93648 -1.816,-1.24037 -1.2887,0.67497 -1.354,0.87724 -0.4999,1.54906 0.341,0.26821 0.7911,0.89176 1.0001,1.38565 l 0.3801,0.89798 0.4627,-0.85929 c 0.2545,-0.4726 0.4674,-1.25247 0.473,-1.73303 z m -1.2172,0.51996 c 0,-0.26208 0.101,-0.53897 0.2245,-0.61531 0.2691,-0.1663 0.4855,0.35347 0.3268,0.78496 -0.1754,0.47694 -0.5513,0.36125 -0.5513,-0.16965 z m -57.9409,-5.07014 c 0,-0.08 -0.2209,-0.42631 -0.491,-0.76964 -0.8365,-1.0635 -0.5322,-1.22895 0.3491,-0.18975 0.9406,1.10929 1.5044,1.0034 0.6695,-0.12577 -0.6658,-0.90059 -0.2699,-0.98487 0.4324,-0.092 0.4018,0.51079 0.6364,0.60838 1.1516,0.47908 0.7292,-0.18302 0.6781,-0.34777 -0.1576,-0.50872 -0.3122,-0.0601 -0.6807,-0.22237 -0.8189,-0.36057 -0.3714,-0.37147 0.5731,-0.31774 1.3265,0.0754 0.644,0.3361 1.2211,0.28806 1.2211,-0.10166 0,-0.12379 -0.1276,-0.22506 -0.2835,-0.22506 -0.7053,0 -5.1452,-3.29148 -6.7366,-4.99408 -2.6406,-2.82509 -4.7645,-2.82583 -4.7645,-0.002 0,2.34966 4.3214,6.85903 6.347,6.62318 0.4031,-0.0469 0.88,0.008 1.0598,0.12189 0.384,0.24345 0.6951,0.27448 0.6951,0.0693 z m -3.5253,-1.34852 c -0.6267,-0.5516 -1.1394,-1.12468 -1.1394,-1.27349 0,-0.14882 0.3038,0.012 0.6752,0.35735 0.3713,0.34537 0.979,0.82066 1.3503,1.05622 0.6541,0.41491 0.8951,0.86283 0.4642,0.86283 -0.116,0 -0.7237,-0.45131 -1.3503,-1.00291 z m 1.6826,0.26487 c -0.2451,-0.27088 -0.3734,-0.56482 -0.285,-0.65319 0.179,-0.17903 1.1457,0.61262 1.1457,0.93826 0,0.35842 -0.3975,0.22677 -0.8607,-0.28507 z m 54.3041,0.67667 c 0.4462,-0.30382 0.8121,-0.64532 0.813,-0.75889 0,-0.11357 0.3824,-0.65123 0.8477,-1.19481 0.8786,-1.02644 1.6064,-2.76804 1.6129,-3.85956 0.01,-0.94394 0.3658,-1.41867 0.6674,-0.87971 0.4208,0.75182 -0.6017,4.2515 -1.3397,4.58582 -0.4667,0.21136 -1.6058,1.67751 -1.3035,1.67751 0.9255,0 3.1548,-3.218 3.6983,-5.33853 0.7985,-3.11562 -2.0864,-3.82255 -4.1092,-1.00695 -1.0137,1.41094 -2.7497,2.88058 -5.3445,4.5243 -1.7482,1.10743 -1.8128,1.18022 -1.2915,1.45541 0.3038,0.16038 0.6529,0.19707 0.782,0.0822 0.3696,-0.32874 0.6238,-0.24165 0.4694,0.16079 -0.078,0.20256 -0.015,0.36827 0.1381,0.36827 0.1537,0 0.3415,-0.16151 0.4172,-0.35892 0.1429,-0.37242 0.9926,-0.75777 1.4724,-0.66777 0.1513,0.0284 0.6758,-0.39188 1.1655,-0.93393 0.9289,-1.02816 1.1372,-1.16079 1.1372,-0.7242 0,0.39445 -2.0419,2.68456 -2.3938,2.6847 -0.1687,7e-5 -0.3068,0.1106 -0.3068,0.24563 0,1.2198 2.9892,-1.6512 3.9622,-3.80543 0.7342,-1.62581 1.4354,-2.56903 1.4374,-1.93358 0,1.50147 -1.6629,4.24495 -3.3764,5.55489 -1.1141,0.85167 -0.3823,0.95801 0.8447,0.12275 z m -2.8679,-0.75214 c 0,-0.12577 -0.1658,-0.0911 -0.3683,0.077 -0.2026,0.16811 -0.3648,0.48545 -0.3605,0.70522 0.01,0.44549 0.7288,-0.32737 0.7288,-0.7822 z m -26.7608,0.55937 c 0,-0.1752 0.1475,-0.1752 0.4748,0 0.6061,0.32436 1.7348,0.32998 1.7348,0.008 0,-0.13503 0.1657,-0.24551 0.3682,-0.24551 0.2026,0 0.3683,0.12336 0.3683,0.27413 0,0.17448 0.2455,0.21551 0.6752,0.11289 0.3713,-0.0887 0.8408,-0.17035 1.0434,-0.18148 0.2025,-0.0111 1.0311,-0.23933 1.8413,-0.5071 0.8102,-0.26777 1.6941,-0.51305 1.9641,-0.54504 2.4443,-0.28964 4.1923,-2.87271 3.215,-4.75099 -2.7835,-5.34975 -19.787,-4.44603 -19.787,1.05167 0,1.28795 0.5864,2.22768 1.8537,2.97037 1.2539,0.73481 1.645,0.65711 0.8716,-0.17309 -0.5764,-0.61873 -0.6748,-1.04191 -0.2088,-0.89837 0.1687,0.052 0.4726,0.44637 0.6751,0.8764 0.2592,0.55026 0.6592,0.8825 1.3503,1.12164 3.7899,1.31129 3.56,1.25407 3.56,0.88584 z m -1.4782,-1.34683 c -0.6139,-0.62556 -0.9249,-1.09775 -0.7212,-1.09523 0.3639,0.005 2.0917,1.9036 1.9034,2.09199 -0.057,0.0566 -0.5886,-0.39195 -1.1822,-0.99676 z m 5.049,-0.15792 c 0.099,-0.31541 0.4302,-0.80687 0.736,-1.09214 0.3057,-0.28527 0.7351,-0.86528 0.9542,-1.28894 0.2191,-0.42365 0.506,-0.77026 0.6376,-0.77026 0.8355,0 -0.8297,2.82048 -2.0551,3.48078 -0.3969,0.2139 -0.4306,0.17322 -0.2727,-0.32944 z m -7.0892,-0.31097 c -0.3757,-0.34811 -0.6079,-0.75442 -0.5161,-0.90289 0.1079,-0.17466 0.3831,-0.0536 0.7796,0.34284 0.8523,0.85231 0.6092,1.36889 -0.2635,0.56005 z m 3.2387,0.1269 c -0.3188,-0.25843 -0.4954,-0.55444 -0.3924,-0.65778 0.2329,-0.23371 1.8996,0.53682 1.8996,0.87819 0,0.41175 -0.8876,0.28197 -1.5072,-0.22041 z m 2.4226,0.19198 c -0.5446,-0.3048 -0.5765,-1.06058 -0.036,-0.85316 0.2136,0.0819 0.4898,0.14902 0.6138,0.14902 0.273,0 0.3019,0.66033 0.036,0.8246 -0.1041,0.0644 -0.3803,0.0102 -0.6138,-0.12046 z m 3.2583,-0.11383 c 0,-0.0805 0.1993,-0.43949 0.4429,-0.79792 0.2436,-0.35843 0.6471,-1.12122 0.8966,-1.6951 0.4218,-0.97021 1.1225,-1.43505 1.1102,-0.73654 -0.023,1.30624 -2.4497,4.50554 -2.4497,3.22956 z m 1.7186,0.10365 c 0,-0.0848 0.2751,-0.74517 0.6114,-1.46749 0.3362,-0.72233 0.6124,-1.7211 0.6138,-2.2195 0,-1.0125 0.376,-1.44612 0.6101,-0.70857 0.2427,0.76447 -0.5182,3.23266 -1.2097,3.92413 -0.3441,0.34408 -0.6256,0.55623 -0.6256,0.47143 z m 1.2276,-0.007 c 0,-0.0739 0.2262,-0.64592 0.5028,-1.2712 0.2766,-0.62527 0.5252,-1.63486 0.5524,-2.24353 0.06,-1.34411 0.5111,-1.57817 0.6158,-0.31961 0.1071,1.28789 -0.337,2.71539 -1.0545,3.38948 -0.3391,0.31856 -0.6165,0.51875 -0.6165,0.44486 z m 2.1372,-3.17455 c 0.074,-0.59024 0.2451,-1.18363 0.3803,-1.31866 0.1641,-0.16391 0.1905,0.12173 0.079,0.85929 -0.2185,1.44805 -0.6354,1.86496 -0.4594,0.45937 z m -27.2831,0.96951 c -1.244,-1.45332 -1.0926,-1.7666 0.2012,-0.41639 0.5938,0.61967 1.3304,1.19225 1.6369,1.27241 0.4392,0.11484 0.3661,-0.0119 -0.3447,-0.5978 -0.9277,-0.76467 -1.7688,-1.94193 -1.1074,-1.54997 0.1823,0.10801 0.9114,0.68716 1.6204,1.287 1.5346,1.2985 1.7055,1.04307 0.277,-0.41414 -0.5565,-0.56773 -0.9488,-1.09521 -0.8718,-1.17219 0.077,-0.077 0.4299,0.1766 0.7843,0.56351 l 0.6444,0.70349 -0.1394,-0.73654 c -0.1012,-0.53439 0.067,-0.34235 0.6121,0.69973 0.8697,1.66202 1.2818,1.70198 0.5048,0.0489 -0.5874,-1.24956 -0.6125,-1.36243 -0.3037,-1.36243 0.1204,0 0.3957,0.44192 0.6118,0.98205 0.4807,1.20117 0.7189,1.27075 0.5083,0.14845 -0.1092,-0.58229 -0.031,-1.02445 0.2585,-1.46669 l 0.4148,-0.6331 -3.734,-1.84772 c -3.9525,-1.9558 -4.2574,-2.04474 -5.0242,-1.46515 -1.3032,0.98507 -0.274,3.30956 2.5136,5.67722 1.8514,1.5725 2.11,1.64958 0.9371,0.27934 z m 35.7201,0.77148 c 0.2618,-0.14011 0.821,-0.9411 1.2426,-1.77996 0.8768,-1.74482 1.6857,-2.95801 1.8575,-2.78618 0.065,0.0647 -0.1683,0.60554 -0.5178,1.20189 -0.6934,1.18321 -0.8666,1.84872 -0.2532,0.973 0.3747,-0.53506 0.8453,-0.73233 0.8453,-0.35436 0,0.10522 -0.3698,0.57476 -0.8217,1.04343 -1.0762,1.11593 -1.5348,1.95693 -1.0672,1.95693 1.145,0 4.0985,-4.11671 4.0985,-5.71254 0,-1.78152 -0.7056,-1.7996 -4.1245,-0.1057 -1.4449,0.71588 -3.0966,1.48834 -3.6705,1.71659 -1.1574,0.46033 -1.214,0.60438 -0.6596,1.67665 0.2422,0.4682 0.3256,1.0076 0.226,1.46088 -0.2422,1.10285 0.1536,0.84473 1.2211,-0.79633 0.5344,-0.82152 1.0127,-1.3705 1.0629,-1.21997 0.05,0.15055 -0.2541,0.78547 -0.6763,1.41095 -0.4221,0.62547 -0.7059,1.19882 -0.6307,1.27408 0.2326,0.23253 1.5958,-1.23274 2.35,-2.52595 0.4044,-0.69336 0.7195,-1.03797 0.7225,-0.79017 0.01,0.60505 -0.8153,2.16253 -1.4415,2.7289 -0.8197,0.74128 -0.6779,1.11733 0.2366,0.62786 z m -2.2231,-2.00174 c 0,-0.22833 0.1067,-0.48344 0.2418,-0.5669 0.3107,-0.19203 0.3107,0.13299 0,0.61379 -0.2051,0.31737 -0.2385,0.31089 -0.2418,-0.0469 z m -26.519,-5.34829 c 0,-0.1532 0.2358,-0.14977 0.6548,0.009 0.3601,0.13692 0.7192,0.15586 0.7979,0.0421 0.079,-0.11378 1.5682,-0.75315 3.3099,-1.42084 5.0386,-1.93151 5.2987,-2.84223 1.5156,-5.30681 -5.6264,-3.66552 -12.9656,-1.7889 -11.6797,2.98647 0.4801,1.78285 3.5933,4.16594 4.395,3.36425 0.1963,-0.19631 0.2699,-0.15608 0.2699,0.14739 0,0.22955 0.1658,0.41736 0.3683,0.41736 0.2026,0 0.3683,-0.10774 0.3683,-0.23943 z m 0.8593,-0.49711 c -0.083,-0.13503 0.027,-0.24551 0.2455,-0.24551 0.2185,0 0.3289,0.11048 0.2455,0.24551 -0.083,0.13503 -0.1939,0.24552 -0.2455,0.24552 -0.052,0 -0.1621,-0.11049 -0.2455,-0.24552 z m -1.1048,-0.58953 c 0,-0.0542 0.3627,-0.3125 0.806,-0.57405 l 0.806,-0.47556 0.4593,0.63544 c 0.2526,0.34949 0.3097,0.49733 0.1269,0.32855 -0.3963,-0.3659 -1.4617,-0.41064 -1.4617,-0.0614 0,0.13503 -0.1657,0.24551 -0.3683,0.24551 -0.2025,0 -0.3682,-0.0444 -0.3682,-0.0985 z m 2.579,-0.77829 c -0.4083,-0.30854 -0.4311,-0.40646 -0.1369,-0.58828 0.2382,-0.14718 0.4549,-0.0842 0.6662,0.19383 0.6119,0.80479 0.3107,1.02923 -0.5293,0.39445 z m 1.2658,-0.30721 c -0.4603,-0.50864 -0.5197,-0.78009 -0.1708,-0.78009 0.2624,0 0.8453,0.9638 0.6817,1.12734 -0.057,0.0568 -0.2867,-0.0995 -0.5109,-0.34725 z m 0.9607,-0.51164 c -0.2933,-0.32591 -0.3858,-0.61274 -0.2434,-0.75505 0.3625,-0.36252 0.8905,0.11789 0.7992,0.72724 l -0.083,0.55337 z m -5.1124,-0.28811 c -0.9259,-0.53924 -0.3864,-2.18994 0.7156,-2.18994 1.0045,0 1.3509,1.18653 0.5733,1.96409 -0.5549,0.55488 -0.6849,0.57767 -1.2889,0.22585 z m 6.3628,0.1015 c -0.09,-0.09 -0.1636,-0.27784 -0.1636,-0.41737 0,-0.15384 0.1143,-0.13934 0.2905,0.0368 0.1598,0.15978 0.2334,0.3476 0.1636,0.41736 -0.07,0.0698 -0.2005,0.0532 -0.2905,-0.0368 z m 1.1982,-0.63579 c 0.2023,-0.66981 0.5413,-1.06191 0.7433,-0.85987 0.2406,0.24053 -0.1265,1.11021 -0.5347,1.26684 -0.2931,0.11247 -0.3387,0.0236 -0.2086,-0.40697 z m -1.3158,-0.44344 c 0.059,-0.17723 0.2524,-0.37056 0.4296,-0.42964 0.1842,-0.0614 0.2762,0.0307 0.2149,0.21482 -0.059,0.17723 -0.2525,0.37057 -0.4297,0.42964 -0.1841,0.0613 -0.2762,-0.0307 -0.2148,-0.21482 z m 20.0819,3.70009 c 4.8123,-2.45506 3.7605,-7.85897 -1.6136,-8.29035 -4.1811,-0.33562 -10.0166,2.86294 -9.3063,5.10094 0.1926,0.60678 1.8896,1.44282 2.0361,1.00314 0.05,-0.149 0.1881,-0.27092 0.3077,-0.27092 0.1195,0 0.158,0.15466 0.085,0.34368 -0.09,0.23352 0.1686,0.43704 0.8056,0.63495 1.0512,0.32661 2.4299,0.88448 3.1027,1.25552 0.3513,0.19374 0.7179,0.0612 1.7186,-0.62101 2.2913,-1.56227 3.1133,-2.51931 3.1133,-3.62483 0,-0.39486 0.099,-0.65674 0.22,-0.58198 0.7664,0.47367 -0.755,3.0479 -2.573,4.35348 -1.2441,0.89342 -1.0977,1.20334 0.2632,0.55751 1.0215,-0.48474 2.4836,-2.07988 2.9922,-3.26452 0.1947,-0.45345 0.4117,-0.76673 0.4822,-0.69619 0.071,0.0705 0.01,0.35143 -0.1371,0.62418 -0.371,0.69317 -0.3325,0.85045 0.1642,0.67112 0.2363,-0.0853 -0.3879,0.62098 -1.3873,1.56956 -1.8707,1.7757 -1.9393,2.08535 -0.2739,1.23572 z m -4.408,-0.90881 c 0,-0.16114 0.2369,-0.46394 0.5352,-0.67289 0.4182,-0.29293 0.4758,-0.44656 0.2513,-0.671 -0.2244,-0.22444 -0.3907,-0.20351 -0.7265,0.0914 -0.5203,0.45704 -1.5418,0.80178 -1.5365,0.51853 0.01,-0.44727 0.4258,-0.82263 0.7686,-0.69112 0.2006,0.077 0.6889,-0.029 1.0851,-0.23568 0.9013,-0.46996 1.0887,-0.47243 1.0887,-0.0143 0,0.43512 -1.4555,2.09824 -1.4659,1.675 z m -3.0629,-1.03336 c -0.4426,-0.1732 -0.4336,-0.19888 0.1227,-0.34766 0.8711,-0.23298 0.9694,-0.20866 0.8122,0.20092 -0.156,0.40649 -0.2382,0.4194 -0.9349,0.14674 z m 4.9855,-0.6151 c -0.5113,-1.12214 0,-2.23228 1.0255,-2.23228 1.2459,0 1.3034,0.93443 0.1258,2.0429 l -0.8661,0.81533 z m -35.6772,0.85359 c -0.078,-0.12571 -0.036,-0.29323 0.091,-0.37228 0.1279,-0.0791 0.3019,-0.0315 0.3868,0.10579 0.2692,0.43562 0.6157,0.26953 0.6318,-0.30288 l 0.016,-0.5524 0.222,0.5524 c 0.2763,0.6873 0.8351,0.73945 0.6578,0.0613 -0.1553,-0.59399 -0.084,-0.60376 0.6935,-0.0945 0.8462,0.5544 0.78,0.38845 -0.7135,-1.78862 -1.7087,-2.49079 -2.2652,-3.61546 -2.7982,-5.65461 -0.9802,-3.75012 -5.0984,-1.99848 -4.6381,1.97276 0.298,2.57104 3.3402,6.77855 4.0596,5.61459 0.1419,-0.22957 0.3027,-0.18176 0.6392,0.19011 0.4495,0.49671 1.019,0.69978 0.7523,0.26828 z m 51.4534,-2.02645 c 0.8124,-1.266 0.8302,-1.3506 0.8302,-3.95094 0,-2.62263 0.01,-2.64994 0.4536,-2.09705 0.7548,0.93221 0.4919,3.63876 -0.5464,5.62341 -0.5888,1.1256 -0.6884,1.45291 -0.3489,1.14755 3.6736,-3.30445 1.4949,-10.96122 -2.259,-7.93897 l -0.7365,0.59299 0.4538,0.85214 c 0.5121,0.96155 0.6376,4.45478 0.1767,4.91572 -0.3091,0.30908 -0.3081,0.31659 -0.2642,-1.98423 0.021,-1.11698 -0.063,-1.77996 -0.2275,-1.77996 -0.1439,0 -0.2616,0.37126 -0.2616,0.82503 0,1.31079 -0.2939,3.10316 -0.5089,3.10316 -0.1082,0 -0.1432,-0.4143 -0.078,-0.92067 l 0.1189,-0.92067 -0.6163,1.13909 c -0.3389,0.62651 -1.007,1.55342 -1.4846,2.05982 -0.9781,1.03708 -1.0067,1.09755 -0.5193,1.09755 0.1921,0 0.7445,-0.46181 1.2276,-1.02624 0.9338,-1.0909 1.2359,-0.96752 0.3594,0.14677 -0.8707,1.10701 -0.231,1.07238 0.761,-0.0412 0.5113,-0.57388 0.9974,-1.04343 1.0803,-1.04343 0.3306,0 0.1188,0.46987 -0.4587,1.01766 -0.9777,0.92741 -0.5657,1.41281 0.4387,0.51679 0.4654,-0.41521 0.4756,-0.41049 0.304,0.14054 -0.3208,1.03021 1.1667,-0.0117 2.1055,-1.47486 z m -1.7477,0.79641 c 0,-0.12706 0.1092,-0.29852 0.2427,-0.38102 0.1392,-0.086 0.1803,0.0125 0.097,0.23102 -0.1632,0.42533 -0.3392,0.50316 -0.3392,0.15 z m 0.6479,-2.34635 c -0.3623,-0.94431 -0.1673,-4.45408 0.2192,-3.94314 0.233,0.30806 0.3591,1.04594 0.3567,2.08684 0,1.70033 -0.2864,2.61067 -0.5759,1.8563 z m 0.9785,-2.21929 c -0.1631,-2.32134 -0.1045,-2.84715 0.2754,-2.46733 0.283,0.28303 0.3871,3.97431 0.1252,4.44222 -0.1655,0.29577 -0.2809,-0.27325 -0.4006,-1.97489 z m -1.4627,-2.48685 c -0.2347,-0.23465 -0.2019,-0.57287 0.055,-0.57287 0.1206,0 0.2829,0.16572 0.3606,0.36827 0.1436,0.37423 -0.1179,0.5028 -0.4161,0.2046 z m 1.0639,-0.80389 c 0,-0.12707 0.1092,-0.29852 0.2426,-0.38102 0.1392,-0.086 0.1804,0.0125 0.097,0.23102 -0.1632,0.42534 -0.3391,0.50315 -0.3391,0.15 z m -25.1159,2.49131 c 0.4244,-0.26975 1.4619,-1.75337 1.9075,-2.72763 0.2102,-0.45959 0.4365,-0.78133 0.5028,-0.71497 0.2321,0.23209 -0.4449,1.80207 -1.0657,2.47125 -0.7946,0.85657 -0.26,0.91102 0.943,0.096 0.4702,-0.31852 1.086,-0.65185 1.3685,-0.74076 4.4796,-1.4099 -1.7317,-5.28443 -7.0183,-4.37788 -4.7504,0.81461 -6.6701,2.68492 -4.1256,4.01952 3.879,2.0346 6.3628,2.68954 7.4878,1.97443 z m -1.1539,-0.57903 c 0,-0.29716 1.9535,-2.16284 2.271,-2.16882 0.4518,-0.008 0.1045,0.63925 -0.8083,1.50762 -1.012,0.96272 -1.4627,1.16645 -1.4627,0.6612 z m -2.9462,-0.25792 c 0,-0.10767 -0.1657,-0.19578 -0.3682,-0.19578 -0.2026,0 -0.3683,-0.11048 -0.3683,-0.24551 0,-0.35567 1.1602,-0.30212 1.3299,0.0613 0.1145,0.24552 0.1718,0.24552 0.2864,0 0.2106,-0.4514 0.5921,-0.37345 0.6008,0.12275 0.01,0.4092 0.019,0.4092 0.2577,0 0.1376,-0.2363 0.3633,-0.42964 0.5015,-0.42964 0.1383,0 0.2141,0.19334 0.1685,0.42964 -0.086,0.44473 -2.4083,0.69274 -2.4083,0.25717 z m -1.5958,-0.93232 c -0.083,-0.13503 -0.041,-0.2455 0.094,-0.2455 0.135,0 0.3138,0.11047 0.3972,0.2455 0.083,0.13504 0.041,0.24551 -0.094,0.24551 -0.135,0 -0.3137,-0.11047 -0.3972,-0.24551 z m 7.9791,0.0477 c 0,-0.1088 0.2762,-0.57218 0.6138,-1.02974 0.5428,-0.73574 0.6138,-0.76964 0.6138,-0.29321 0,0.29629 -0.103,0.53872 -0.229,0.53872 -0.1259,0 -0.2991,0.22096 -0.3848,0.49103 -0.1506,0.47453 -0.6138,0.6958 -0.6138,0.2932 z m -8.8844,-0.46092 c 0.1772,-0.0709 0.3889,-0.0622 0.4705,0.0194 0.082,0.0816 -0.063,0.13961 -0.3222,0.12895 -0.286,-0.0118 -0.3442,-0.07 -0.1483,-0.14833 z m 10.3822,-0.25077 c 0.1787,-0.29767 0.3778,-0.48839 0.4424,-0.4238 0.065,0.0646 -0.082,0.30815 -0.325,0.54124 -0.4228,0.40492 -0.428,0.39968 -0.1174,-0.11744 z m -24.0849,0.17294 c -0.5851,-0.54014 -0.9924,-1.05346 -0.9052,-1.1407 0.087,-0.0872 0.6493,0.29366 1.249,0.84645 l 1.0904,1.00505 0.9401,-0.44598 c 0.5171,-0.2453 1.5219,-0.58236 2.2328,-0.74905 l 1.2927,-0.30304 -2.0292,-2.14208 c -1.4326,-1.51227 -2.3029,-2.6949 -2.96,-4.02232 -1.0251,-2.07086 -1.3918,-2.37775 -2.8407,-2.37775 -2.117,0 -2.7369,2.92356 -1.2712,5.99467 0.7188,1.5063 3.2974,4.31683 3.9605,4.31683 0.1675,0 -0.1741,-0.44194 -0.7592,-0.98208 z m 37.8708,-0.0355 c 1.3286,-1.39656 1.9401,-2.90704 2.0731,-5.12024 0.1346,-2.23919 0.2391,-2.63435 0.6008,-2.27257 0.8123,0.81229 -0.052,4.96817 -1.3398,6.44628 -0.3918,0.44948 -0.3141,0.41663 0.2903,-0.12275 2.2445,-2.00337 2.6484,-7.26764 0.6281,-8.18815 -1.5255,-0.69508 -2.2898,-0.1762 -3.6988,2.51135 -0.8825,1.6832 -1.6493,2.71493 -3.0866,4.15273 -2.2511,2.25201 -2.1659,2.03397 -0.8689,2.2239 0.5739,0.0841 1.2841,0.22036 1.5782,0.30292 0.4137,0.11612 0.7891,-0.10408 1.6573,-0.97225 0.6173,-0.61732 1.1223,-0.97509 1.1223,-0.79506 0,0.18003 -0.3855,0.7019 -0.8567,1.15972 -0.9208,0.89479 -1.0556,1.20066 -0.5289,1.20066 0.9913,0 3.0343,-3.77161 3.3139,-6.11796 0.2623,-2.20074 0.8689,-1.9868 0.7235,0.25515 -0.1336,2.06117 -0.5275,2.96965 -2.0741,4.78448 -0.5878,0.68971 -1.0687,1.32497 -1.0687,1.4117 0,0.42726 0.6649,0.0547 1.535,-0.85991 z m -28.6616,-4.62651 c -0.3868,-0.40368 -0.6299,-0.80724 -0.5404,-0.89677 0.089,-0.0895 0.3933,0.13027 0.6751,0.48845 0.6529,0.83005 1.1118,0.85398 0.5718,0.0298 -0.5629,-0.85906 -0.2693,-1.0277 0.3713,-0.2133 0.2873,0.3653 0.5939,0.59276 0.6812,0.50546 0.087,-0.0873 -0.019,-0.35528 -0.2366,-0.59549 -0.2585,-0.28572 -0.3205,-0.55774 -0.179,-0.78661 0.1702,-0.27533 0.2805,-0.20877 0.518,0.31249 0.166,0.36429 0.4625,0.66235 0.6589,0.66235 0.2972,0 0.2873,-0.10644 -0.059,-0.63508 -0.5165,-0.78824 -0.3651,-1.01218 0.2355,-0.34847 0.6702,0.74058 1.1982,0.64689 0.9916,-0.17596 l -0.1677,-0.66849 0.5295,0.47924 c 0.5022,0.45443 0.5422,0.45671 0.7732,0.044 0.16,-0.28595 0.4058,-0.38382 0.7164,-0.28524 1.7738,0.56297 -0.3544,-1.46086 -2.6611,-2.53058 -5.0509,-2.3424 -8.0983,1.46211 -3.6349,4.538 1.4569,1.00404 1.6652,1.02503 0.7562,0.0762 z m 20.2526,-0.21494 c 10e-5,-0.0857 0.2741,-0.47424 0.6087,-0.86334 1.8714,-2.17607 0.4112,-4.54861 -2.5731,-4.1807 -2.6019,0.32076 -6.9098,3.29232 -4.773,3.29232 0.3969,0 0.5664,0.10012 0.4603,0.27181 -0.1131,0.18292 0,0.21766 0.3537,0.10622 0.3135,-0.0995 0.5218,-0.0591 0.5218,0.10113 0,0.16192 0.2412,0.2062 0.6138,0.11268 0.4641,-0.11649 0.6138,-0.0578 0.6138,0.24083 0,0.53979 0.3098,0.49597 0.6795,-0.0961 0.1687,-0.27006 0.4907,-0.49101 0.7157,-0.49101 0.3371,0 0.3078,0.10769 -0.1668,0.6128 -0.3166,0.33705 -0.5147,0.67377 -0.4402,0.74828 0.074,0.0745 0.5353,-0.33162 1.0239,-0.90252 0.6263,-0.73168 0.8885,-0.90911 0.8885,-0.60126 0,0.24019 -0.3431,0.75724 -0.7625,1.149 -0.5364,0.50109 -0.6456,0.71228 -0.3683,0.71228 0.2169,0 0.3943,0.124 0.3943,0.27557 0,0.18665 0.1226,0.17384 0.3798,-0.0397 0.2407,-0.19971 0.2868,-0.37288 0.1257,-0.47242 -0.1527,-0.0944 0.035,-0.49543 0.4694,-1.00372 0.495,-0.57909 0.7268,-0.72032 0.7337,-0.44699 0.01,0.21977 -0.1558,0.53712 -0.3583,0.70522 -0.4508,0.37412 -0.4851,0.76596 -0.053,0.59997 0.1736,-0.0666 0.5228,-0.50575 0.776,-0.97581 0.2531,-0.47006 0.5008,-0.81408 0.5504,-0.76448 0.1819,0.18189 -0.3938,1.28134 -1.0093,1.92752 -0.8011,0.84111 -0.8088,1.05798 -0.019,0.54054 0.3376,-0.22119 0.6139,-0.47232 0.614,-0.55807 z m -6.8133,-6.46887 c 4.9824,-2.37089 -2.2373,-5.81123 -7.7002,-3.66934 -3.0841,1.20919 -3.0762,2.23591 0.028,3.65752 3.0664,1.40429 4.7405,1.40687 7.6722,0.0118 z m -3.5158,0.0847 c 0.135,-0.25231 0.184,-0.52021 0.1089,-0.59536 -0.075,-0.0752 -0.01,-0.33825 0.1483,-0.58468 0.2571,-0.40433 0.2731,-0.39278 0.1646,0.11836 -0.1715,0.80726 0.3212,0.55603 0.8525,-0.43471 0.8553,-1.59477 1.232,-1.64405 0.5766,-0.0754 -0.2068,0.49489 -0.3221,1.04021 -0.2562,1.21181 0.1489,0.38812 -0.2589,0.67355 -0.4713,0.32986 -0.098,-0.15913 -0.2912,-0.11555 -0.5255,0.11874 -0.5285,0.52845 -0.8988,0.47359 -0.5979,-0.0886 z m -2.3151,0.0191 c -0.8579,-0.17303 -1.0083,-0.54241 -0.2209,-0.54241 0.405,0 0.8691,0.13259 1.0311,0.29462 0.2291,0.22915 0.2946,0.22915 0.2946,0 0,-0.16203 0.1749,-0.29462 0.3887,-0.29462 0.2138,0 0.3428,0.13811 0.2867,0.3069 -0.1036,0.31156 -0.8884,0.41539 -1.7802,0.23551 z m -1.5958,-0.54241 c 0,-0.13503 0.1105,-0.2455 0.2455,-0.2455 0.135,0 0.2455,0.11047 0.2455,0.2455 0,0.13504 -0.1105,0.24552 -0.2455,0.24552 -0.135,0 -0.2455,-0.11048 -0.2455,-0.24552 z m 5.6468,0.11058 c 0,-0.22708 0.7414,-1.58365 0.8656,-1.58365 0.064,0 0.1164,0.38669 0.1164,0.8593 0,0.69562 -0.093,0.85929 -0.491,0.85929 -0.2701,0 -0.491,-0.0607 -0.491,-0.13494 z m -7.1199,-0.60159 c 0,-0.13503 0.1105,-0.24552 0.2455,-0.24552 0.1351,0 0.2455,0.11049 0.2455,0.24552 0,0.13503 -0.1104,0.24551 -0.2455,0.24551 -0.135,0 -0.2455,-0.11048 -0.2455,-0.24551 z m 9.084,0.17388 c 0,-0.0553 0.1249,-0.45919 0.2777,-0.89745 0.2768,-0.79391 0.6968,-0.65373 0.6968,0.23254 0,0.32735 -0.026,0.32735 -0.238,0 -0.2051,-0.31737 -0.2385,-0.31089 -0.2418,0.0469 0,0.22834 -0.1142,0.48344 -0.2492,0.56689 -0.1351,0.0834 -0.2455,0.10646 -0.2455,0.0511 z m -0.6166,-0.67378 c -0.1122,-0.35326 -0.034,-0.67337 0.2285,-0.93589 0.3683,-0.3683 0.3864,-0.33315 0.2355,0.45703 -0.2074,1.08596 -0.2556,1.13567 -0.464,0.47886 z m -17.9733,1.54332 c -0.1394,-0.37212 -0.107,-0.38572 0.2425,-0.10162 0.472,0.38373 1.0096,0.14735 0.8155,-0.35854 -0.1069,-0.27847 -0.036,-0.29654 0.3515,-0.0893 0.2911,0.1558 0.4855,0.16589 0.4855,0.0252 0,-0.12905 0.3315,-0.30745 0.7366,-0.39641 0.9061,-0.19903 0.9063,-0.22624 0.01,-1.8635 -0.4011,-0.73048 -0.8554,-1.9358 -1.0095,-2.67847 -0.4001,-1.92857 -0.598,-2.20961 -1.5559,-2.20961 -2.0845,0 -2.5338,4.30382 -0.7451,7.13727 0.6418,1.01673 0.942,1.25571 0.6719,0.53498 z m 30.2668,-1.57992 c 0.9732,-2.93011 0.1737,-6.20423 -1.4757,-6.04286 -0.7201,0.0704 -0.7561,0.13019 -0.931,1.54636 -0.1068,0.8646 -0.5124,2.13226 -0.982,3.0689 -0.4401,0.87771 -0.837,1.67869 -0.882,1.77996 -0.045,0.10127 0.2047,0.18414 0.5548,0.18414 0.3502,0 0.821,0.21529 1.0463,0.47844 0.2254,0.26315 0.5005,0.42234 0.6114,0.35378 0.3347,-0.20683 0.2268,-0.58671 -0.1665,-0.58671 -0.418,0 -0.493,-0.90025 -0.1228,-1.47308 0.1863,-0.28827 0.2388,-0.22542 0.2418,0.28936 0,0.36169 0.1694,0.82334 0.372,1.02589 0.2025,0.20254 0.3683,0.61424 0.3683,0.91488 0,0.90751 0.8836,-0.0884 1.3654,-1.53906 z m -1.1199,0.45758 c 0,-0.18915 0.9634,-1.98864 0.9722,-1.81591 0.015,0.30409 -0.6871,1.89483 -0.837,1.89483 -0.074,0 -0.1352,-0.0355 -0.1352,-0.0789 z m -0.5989,-0.65762 c 0.2012,-0.75749 0.5989,-1.22879 0.5989,-0.70981 0,0.20375 -0.1715,0.5849 -0.381,0.84702 -0.3661,0.458 -0.3746,0.45266 -0.2179,-0.13721 z m -21.4407,-4.5663 c -1.8676,-1.47182 -2.1226,-5.07015 -0.3336,-4.70637 0.4063,0.0826 0.4273,0.36952 0.1351,1.83975 -0.1205,0.6058 0,1.05261 0.4936,1.90271 0.6947,1.18529 1.4099,1.51817 1.2003,0.5586 -0.1182,-0.54106 -0.1105,-0.53988 0.3745,0.0577 0.2723,0.33557 0.5782,0.52706 0.6797,0.42556 0.1015,-0.10151 0.054,-0.3153 -0.106,-0.47508 -0.5898,-0.58977 -0.3254,-1.04725 0.2777,-0.48063 0.5833,0.54793 1.2384,0.76914 0.7085,0.2392 -0.5204,-0.52041 -0.3139,-0.78052 0.2349,-0.29584 0.5262,0.46471 0.5286,0.46398 0.3839,-0.1128 l -0.1457,-0.58052 0.5982,0.56193 c 1.0171,0.95553 0.664,0.16177 -0.8337,-1.87391 -2.9521,-4.01272 -4.4288,-4.72023 -5.6677,-2.71555 -1.0808,1.74876 -0.3929,4.5043 1.4314,5.7337 1.1332,0.76361 1.5623,0.70444 0.5689,-0.0784 z m 14.5142,-1.8e-4 c 0.2496,-0.34257 0.3997,-0.6769 0.3337,-0.74295 -0.066,-0.0661 -0.3607,0.2177 -0.6546,0.63057 -0.294,0.41286 -0.4442,0.74719 -0.3337,0.74295 0.1104,-0.005 0.405,-0.288 0.6546,-0.63057 z m 1.4501,-0.1772 c 2.5007,-2.50061 1.3748,-7.56038 -1.389,-6.24243 -0.8306,0.39609 -5.0044,5.47364 -4.7272,5.75082 0.076,0.0759 0.3169,-0.0408 0.5355,-0.2595 0.5002,-0.50024 0.883,-0.51478 0.6957,-0.0264 -0.1059,0.27576 -0.03,0.3281 0.2934,0.20379 0.3154,-0.12103 0.3823,-0.0806 0.2421,0.14628 -0.1464,0.23691 -0.051,0.26902 0.3894,0.13139 0.3207,-0.10019 0.66,-0.30217 0.7539,-0.44884 0.094,-0.14668 0.2595,-0.178 0.3679,-0.0696 0.1084,0.10841 -0.017,0.35379 -0.2791,0.5453 -0.3814,0.27894 -0.3993,0.3482 -0.09,0.3482 0.9339,0 2.1623,-1.88334 2.1623,-3.31511 0,-1.45695 0.3228,-1.72832 1.1143,-0.93685 0.6556,0.6557 0.3624,2.54792 -0.6033,3.89266 -0.9251,1.28811 -0.6294,1.44342 0.5337,0.28034 z m -3.9907,-1.01137 c 0,-0.2105 0.1105,-0.38274 0.2455,-0.38274 0.135,0 0.2455,0.10395 0.2455,0.23101 0,0.12707 -0.1105,0.29931 -0.2455,0.38276 -0.135,0.0834 -0.2455,-0.0205 -0.2455,-0.23103 z m -4.8947,-4.31093 c 0.1265,0 0.2445,0.35907 0.2623,0.79792 l 0.032,0.7979 0.1809,-0.85929 0.1809,-0.85929 0.048,0.85929 c 0.044,0.79494 0.065,0.81623 0.2783,0.28423 0.1267,-0.3163 0.1579,-0.69243 0.069,-0.83586 -0.095,-0.15347 -0.044,-0.18869 0.1223,-0.0856 0.1559,0.0963 0.2965,0.47248 0.3125,0.83584 l 0.029,0.66067 0.1874,-0.73653 c 0.8293,-3.25901 -0.8092,-5.37156 -2.556,-3.29557 -0.7792,0.92597 -0.7946,1.46753 -0.083,2.91117 l 0.5524,1.12093 0.077,-0.79791 c 0.042,-0.43885 0.1804,-0.79792 0.3069,-0.79792 z m 18.8889,90.74734 c 0,-0.51117 1.1489,-0.64447 5.5547,-0.64447 3.8565,0 4.0202,0.02 4.0202,0.49103 0,0.47423 -0.1637,0.49101 -4.7875,0.49101 -3.8984,0 -4.7874,-0.0627 -4.7874,-0.33757 z m -57.1283,-0.55508 c -0.2784,-0.72546 0.2699,-1.19419 1.397,-1.19419 1.2208,0 1.789,0.55108 1.2447,1.20697 -0.4512,0.54367 -2.4319,0.53409 -2.6417,-0.0128 z m 73.315,0.0128 c -0.6936,-0.83575 0.6364,-1.59722 2.1336,-1.22147 0.6313,0.15845 0.7783,0.82684 0.2895,1.31571 -0.429,0.42892 -2.041,0.36623 -2.4231,-0.0942 z m -3.9862,-1.24115 c -0.2292,-0.22912 0.048,-0.57953 0.4579,-0.57953 0.1946,0 0.3537,0.16572 0.3537,0.36826 0,0.36981 -0.5182,0.5047 -0.8116,0.21127 z"
       style="fill:#002255;stroke-width:0.92792"
       id="path1-87" /></g></svg>
