<?xml version="1.0" encoding="UTF-8" standalone="no"?>
<!-- Created with Inkscape (http://www.inkscape.org/) -->

<svg
   width="180"
   height="55"
   viewBox="0 0 47.624999 14.552083"
   version="1.1"
   id="svg5"
   sodipodi:docname="logo_new_2.svg"
   inkscape:version="1.2.2 (b0a8486541, 2022-12-01)"
   xmlns:inkscape="http://www.inkscape.org/namespaces/inkscape"
   xmlns:sodipodi="http://sodipodi.sourceforge.net/DTD/sodipodi-0.dtd"
   xmlns="http://www.w3.org/2000/svg"
   xmlns:svg="http://www.w3.org/2000/svg">
  <sodipodi:namedview
     id="namedview35"
     pagecolor="#505050"
     bordercolor="#eeeeee"
     borderopacity="1"
     inkscape:showpageshadow="0"
     inkscape:pageopacity="0"
     inkscape:pagecheckerboard="0"
     inkscape:deskcolor="#505050"
     showgrid="false"
     inkscape:zoom="7.8888889"
     inkscape:cx="66.422535"
     inkscape:cy="27.570423"
     inkscape:window-width="1920"
     inkscape:window-height="1058"
     inkscape:window-x="0"
     inkscape:window-y="0"
     inkscape:window-maximized="1"
     inkscape:current-layer="text234" />
  <defs
     id="defs2">
    <rect
       x="322.93433"
       y="258.34744"
       width="202.80275"
       height="52.961227"
       id="rect1211" />
    <rect
       x="94.296822"
       y="121.4233"
       width="426.27328"
       height="136.92415"
       id="rect236" />
    <rect
       x="94.296822"
       y="121.4233"
       width="426.27328"
       height="136.92415"
       id="rect236-0" />
    <rect
       x="322.93433"
       y="258.34744"
       width="202.80275"
       height="52.961227"
       id="rect1211-9" />
  </defs>
  <g
     id="layer2"
     style="display:none">
    <text
       xml:space="preserve"
       transform="matrix(0.26458333,0,0,0.26458333,-8.858727,-29.257374)"
       id="text234-3"
       style="font-style:normal;font-variant:normal;font-weight:500;font-stretch:normal;font-size:40px;line-height:1.25;font-family:Roboto;-inkscape-font-specification:'Roboto, Medium';font-variant-ligatures:normal;font-variant-caps:normal;font-variant-numeric:normal;font-variant-east-asian:normal;letter-spacing:0px;word-spacing:0px;white-space:pre;shape-inside:url(#rect236-0);display:inline;fill:#003f85;fill-opacity:1;stroke:none"><tspan
         x="94.296875"
         y="158.20465"
         id="tspan352">pine64</tspan></text>
    <text
       xml:space="preserve"
       transform="matrix(0.23242318,0,0,0.23242318,-73.929978,-44.988644)"
       id="text1209-6"
       style="font-style:normal;font-variant:normal;font-weight:normal;font-stretch:normal;font-size:13.3333px;line-height:1;font-family:Roboto;-inkscape-font-specification:'Roboto, Normal';font-variant-ligatures:normal;font-variant-caps:normal;font-variant-numeric:normal;font-variant-east-asian:normal;letter-spacing:0px;word-spacing:0px;white-space:pre;shape-inside:url(#rect1211-9);display:inline;fill:#003f85;fill-opacity:1;stroke:none"
       x="124.15334"
       y="0"><tspan
         x="437.91754"
         y="268.94124"
         id="tspan356"><tspan
           style="text-align:end;text-anchor:end"
           id="tspan354">Open. Friendly.
</tspan></tspan><tspan
         x="412.9176"
         y="282.27455"
         id="tspan360"><tspan
           style="text-align:end;text-anchor:end"
           id="tspan358">Community-Driven.</tspan></tspan></text>
  </g>
  <g
     id="layer1"
     transform="translate(-70.035943,-50.789019)">
    <g
       aria-label="pine64"
       transform="matrix(0.22107219,0,0,0.22107219,60.827041,24.448042)"
       id="text234"
       style="font-weight:500;font-size:40px;line-height:1.25;font-family:Roboto;-inkscape-font-specification:'Roboto, Medium';letter-spacing:0px;word-spacing:0px;white-space:pre;shape-inside:url(#rect236);display:inline;fill:#003f85"
       inkscape:label="text234">
      <path
         d="m 111.59335,150.88728 q 0,4.90234 -2.22657,7.83203 -2.22656,2.91016 -5.97656,2.91016 -3.476556,0 -5.566406,-2.28516 v 10.01953 h -4.74609 v -29.25781 h 4.375 l 0.19531,2.14844 q 2.08985,-2.53907 5.683596,-2.53907 3.86718,0 6.05468,2.89063 2.20704,2.87109 2.20704,7.98828 z m -4.72657,-0.41016 q 0,-3.16406 -1.26953,-5.01953 -1.25,-1.85547 -3.59375,-1.85547 -2.910146,0 -4.179686,2.40235 v 9.375 q 1.28907,2.46093 4.218746,2.46093 2.26563,0 3.53516,-1.8164 1.28906,-1.83594 1.28906,-5.54688 z"
         id="path659"
         style="fill:#002255" />
      <path
         d="m 120.65585,161.23884 h -4.7461 v -21.13281 h 4.7461 z m -5.03907,-26.62109 q 0,-1.09375 0.6836,-1.81641 0.70312,-0.72266 1.99218,-0.72266 1.28907,0 1.99219,0.72266 0.70313,0.72266 0.70313,1.81641 0,1.07422 -0.70313,1.79687 -0.70312,0.70313 -1.99219,0.70313 -1.28906,0 -1.99218,-0.70313 -0.6836,-0.72265 -0.6836,-1.79687 z"
         id="path661"
         style="fill:#002255" />
      <path
         d="m 130.22616,140.10603 0.13672,2.4414 q 2.34375,-2.83203 6.15234,-2.83203 6.60156,0 6.71875,7.5586 v 13.96484 h -4.74609 v -13.69141 q 0,-2.01171 -0.87891,-2.96875 -0.85938,-0.97656 -2.83203,-0.97656 -2.8711,0 -4.27735,2.59766 v 15.03906 h -4.74609 v -21.13281 z"
         id="path663"
         style="fill:#002255" />
      <path
         d="m 157.37459,161.62947 q -4.51171,0 -7.32421,-2.83204 -2.79297,-2.85156 -2.79297,-7.57812 v -0.58594 q 0,-3.16406 1.21093,-5.64453 1.23047,-2.5 3.4375,-3.88672 2.20704,-1.38672 4.92188,-1.38672 4.31641,0 6.66016,2.75391 2.36328,2.75391 2.36328,7.79297 v 1.91406 h -13.8086 q 0.21485,2.61719 1.73828,4.14063 1.54297,1.52343 3.86719,1.52343 3.26172,0 5.3125,-2.63672 l 2.5586,2.44141 q -1.26954,1.89453 -3.39844,2.94922 -2.10938,1.03516 -4.7461,1.03516 z m -0.5664,-18.10547 q -1.95313,0 -3.16406,1.36718 -1.19141,1.36719 -1.52344,3.8086 h 9.04297 v -0.35156 q -0.15625,-2.38282 -1.26953,-3.59375 -1.11329,-1.23047 -3.08594,-1.23047 z"
         id="path665"
         style="fill:#002255" />
      <path
         d="m 183.99569,132.66462 v 3.92578 h -0.58594 q -3.98437,0.0586 -6.36719,2.1875 -2.38281,2.12891 -2.83203,6.03516 2.28516,-2.40234 5.83985,-2.40234 3.76953,0 5.9375,2.65625 2.1875,2.65625 2.1875,6.85546 0,4.33594 -2.5586,7.03125 -2.53906,2.67579 -6.67969,2.67579 -4.25781,0 -6.91406,-3.14454 -2.63672,-3.14453 -2.63672,-8.24218 v -1.6211 q 0,-7.48047 3.63282,-11.71875 3.65234,-4.23828 10.48828,-4.23828 z m -5.09766,13.57422 q -1.5625,0 -2.87109,0.87891 -1.28906,0.8789 -1.89453,2.34375 v 1.44531 q 0,3.16406 1.32812,5.03906 1.32813,1.85547 3.4375,1.85547 2.10938,0 3.33985,-1.58203 1.23046,-1.58203 1.23046,-4.16016 0,-2.57812 -1.25,-4.19922 -1.25,-1.62109 -3.32031,-1.62109 z"
         id="path667"
         style="fill:#002255" />
      <path
         d="m 208.01913,151.10212 h 3.53515 v 3.8086 h -3.53515 v 6.32812 h -4.7461 v -6.32812 h -12.28515 l -0.13672,-2.89063 12.26562,-19.21875 h 4.90235 z m -12.1875,0 h 7.4414 v -11.875 l -0.35156,0.625 z"
         id="path669"
         style="fill:#002255" />
    </g>
    <g
       class="a"
       id="g26"
       style="isolation:isolate"
       transform="matrix(0.1804034,0,0,0.1804034,70.035943,50.789019)">
      <path
         class="b"
         d="m 239.073,61.61 3.738,9.374 -12.121,-5.347 z"
         transform="translate(-199.243,-53.212)"
         id="path6"
         style="fill:#4d90e6;fill-opacity:1" />
      <path
         class="c"
         d="m 229.33,163.263 19,-8.343 v 16.767 z"
         transform="translate(-198.069,-133.802)"
         id="path8"
         style="fill:#0069b5;fill-opacity:1" />
      <path
         class="d"
         d="m 227.81,296.973 15.859,6.979 7.268,-16.643 z"
         transform="translate(-196.756,-248.145)"
         id="path10"
         style="fill:#003f85;fill-opacity:1" />
      <path
         class="e"
         d="M 152.633,10.342 146.85,7.789 153.928,0 h -0.011 l 7.078,7.789 -5.823,2.571 a 3.282,3.282 0 0 1 -0.363,0.147 c -0.079,0.027 -0.155,0.05 -0.23,0.07 a 2.365,2.365 0 0 1 -1.088,0.02 c -0.059,-0.012 -0.119,-0.026 -0.179,-0.041 a 5.974,5.974 0 0 1 -0.6,-0.181 c -0.025,-0.01 -0.052,-0.02 -0.079,-0.033 z"
         transform="translate(-126.832)"
         id="path12"
         style="fill:#4d90e6;fill-opacity:1" />
      <path
         class="b"
         d="m 81.6,61.61 -3.74,9.374 12.12,-5.348 z"
         transform="translate(-67.246,-53.212)"
         id="path14"
         style="fill:#4d90e6;fill-opacity:1" />
      <path
         class="b"
         d="m 89.856,114.695 a 1.412,1.412 0 0 1 -0.243,-0.082 L 73.3,107.5 v 0 l 16.351,-7.127 a 1.4,1.4 0 0 1 0.209,-0.074 2.327,2.327 0 0 1 0.543,-0.063 2.218,2.218 0 0 1 0.532,0.063 1.46,1.46 0 0 1 0.209,0.074 l 16.351,7.127 v 0 q -8.159,3.556 -16.318,7.113 a 1.435,1.435 0 0 1 -0.211,0.074 h -0.005 a 2.2,2.2 0 0 1 -1.028,0.022 z"
         transform="translate(-63.308,-86.576)"
         id="path16"
         style="fill:#4d90e6;fill-opacity:1" />
      <path
         class="c"
         d="m 47.777,163.263 -19,-8.343 v 16.767 z"
         transform="translate(-24.857,-133.802)"
         id="path18"
         style="fill:#0069b5;fill-opacity:1" />
      <path
         class="d"
         d="M 23.126,296.973 7.268,303.953 0,287.31 Z"
         transform="translate(0,-248.145)"
         id="path20"
         style="fill:#003f85;fill-opacity:1" />
      <path
         class="d"
         d="m 90.662,368.291 a 1.821,1.821 0 0 0 -0.281,0.044 3.462,3.462 0 0 0 -0.552,0.17 l -16.209,7.226 14.841,6.554 a 0.634,0.634 0 0 1 0.378,0.579 v 8.58 h 3.674 v -8.58 a 0.634,0.634 0 0 1 0.378,-0.579 l 14.841,-6.554 -16.211,-7.231 a 3.414,3.414 0 0 0 -0.552,-0.17 1.843,1.843 0 0 0 -0.281,-0.044"
         transform="translate(-63.584,-318.086)"
         id="path22"
         style="fill:#003f85;fill-opacity:1" />
      <path
         class="c"
         d="m 75.246,243.634 c -0.438,-0.2 -8.175,-3.531 -18.816,-8.115 0,0 18,-7.82 18.538,-8.054 a 2.216,2.216 0 0 1 1.723,0 c 0.543,0.232 18.538,8.054 18.538,8.054 l -18.816,8.115 a 1.724,1.724 0 0 1 -0.484,0.123 0.715,0.715 0 0 1 -0.187,0 1.933,1.933 0 0 1 -0.496,-0.123 z"
         transform="translate(-48.738,-196.308)"
         id="path24"
         style="fill:#0069b5;fill-opacity:1" />
    </g>
  </g>
</svg>
