<svg width="1400" height="1000" xmlns="http://www.w3.org/2000/svg"><g><path d="M-122.84091503268121,-56.717232491725554L-130.17248619604516,522.5833839586238L-94.21886486620073,410.1892908639926Z" fill="#dae2d6" stroke="#dae2d6"/><path d="M-122.84091503268121,-56.717232491725554L-94.21886486620073,410.1892908639926L-54.90618583774267,127.82303339175162Z" fill="#c9e6d8" stroke="#c9e6d8"/><path d="M-122.84091503268121,-56.717232491725554L-54.90618583774267,127.82303339175162L36.01840999548646,-62.50817106072637Z" fill="#afdfdb" stroke="#afdfdb"/><path d="M-122.84091503268121,-56.717232491725554L36.01840999548646,-62.50817106072637L491.06159105869483,-113.19256010794305Z" fill="#8accd4" stroke="#8accd4"/><path d="M36.01840999548646,-62.50817106072637L-54.90618583774267,127.82303339175162L102.42460993423067,74.77414600018446Z" fill="#a9d9d6" stroke="#a9d9d6"/><path d="M36.01840999548646,-62.50817106072637L102.42460993423067,74.77414600018446L219.45467894337716,37.301836114551996Z" fill="#98d0d2" stroke="#98d0d2"/><path d="M36.01840999548646,-62.50817106072637L219.45467894337716,37.301836114551996L270.70672666900646,-28.048547054138467Z" fill="#8bcad0" stroke="#8bcad0"/><path d="M36.01840999548646,-62.50817106072637L270.70672666900646,-28.048547054138467L491.06159105869483,-113.19256010794305Z" fill="#78c1cd" stroke="#78c1cd"/><path d="M270.70672666900646,-28.048547054138467L219.45467894337716,37.301836114551996L408.9079602533957,98.78965999016488Z" fill="#80bfc9" stroke="#80bfc9"/><path d="M270.70672666900646,-28.048547054138467L408.9079602533957,98.78965999016488L336.32178112531585,-38.74033135908054Z" fill="#78bbc7" stroke="#78bbc7"/><path d="M270.70672666900646,-28.048547054138467L336.32178112531585,-38.74033135908054L491.06159105869483,-113.19256010794305Z" fill="#6ab8c8" stroke="#6ab8c8"/><path d="M336.32178112531585,-38.74033135908054L408.9079602533957,98.78965999016488L489.7643256037784,47.16463685607963Z" fill="#70b5c3" stroke="#70b5c3"/><path d="M336.32178112531585,-38.74033135908054L489.7643256037784,47.16463685607963L491.06159105869483,-113.19256010794305Z" fill="#63b1c4" stroke="#63b1c4"/><path d="M491.06159105869483,-113.19256010794305L489.7643256037784,47.16463685607963L640.1417909664754,-67.64102356844393Z" fill="#69b6bf" stroke="#69b6bf"/><path d="M491.06159105869483,-113.19256010794305L640.1417909664754,-67.64102356844393L843.8732197177385,-91.20393222159966Z" fill="#76c3bb" stroke="#76c3bb"/><path d="M491.06159105869483,-113.19256010794305L843.8732197177385,-91.20393222159966L963.2092488376117,-132.2891461953696Z" fill="#84ceb7" stroke="#84ceb7"/><path d="M640.1417909664754,-67.64102356844393L489.7643256037784,47.16463685607963L706.1926184455275,69.07080962684522Z" fill="#7dc0ba" stroke="#7dc0ba"/><path d="M640.1417909664754,-67.64102356844393L706.1926184455275,69.07080962684522L843.8732197177385,-91.20393222159966Z" fill="#89ccb6" stroke="#89ccb6"/><path d="M843.8732197177385,-91.20393222159966L706.1926184455275,69.07080962684522L854.5774436179561,104.86871646808488Z" fill="#9cd5b1" stroke="#9cd5b1"/><path d="M843.8732197177385,-91.20393222159966L854.5774436179561,104.86871646808488L955.4268813951039,70.45572561902479Z" fill="#a9dead" stroke="#a9dead"/><path d="M843.8732197177385,-91.20393222159966L955.4268813951039,70.45572561902479L963.2092488376117,-132.2891461953696Z" fill="#a5e0ae" stroke="#a5e0ae"/><path d="M963.2092488376117,-132.2891461953696L955.4268813951039,70.45572561902479L1172.69248256482,-46.767975556584645Z" fill="#b8eda9" stroke="#b8eda9"/><path d="M963.2092488376117,-132.2891461953696L1172.69248256482,-46.767975556584645L1305.7428948332297,-74.23621873447553Z" fill="#c4f1a5" stroke="#c4f1a5"/><path d="M963.2092488376117,-132.2891461953696L1305.7428948332297,-74.23621873447553L1444.3034199665947,-126.80111685244054Z" fill="#c5f1a2" stroke="#c5f1a2"/><path d="M1172.69248256482,-46.767975556584645L955.4268813951039,70.45572561902479L1175.0492675152404,97.70661965630431Z" fill="#cdf3a4" stroke="#cdf3a4"/><path d="M1172.69248256482,-46.767975556584645L1175.0492675152404,97.70661965630431L1291.9834920831313,33.8816475510037Z" fill="#d7f39f" stroke="#d7f39f"/><path d="M1172.69248256482,-46.767975556584645L1291.9834920831313,33.8816475510037L1305.7428948332297,-74.23621873447553Z" fill="#d0f29f" stroke="#d0f29f"/><path d="M1305.7428948332297,-74.23621873447553L1291.9834920831313,33.8816475510037L1444.3034199665947,-126.80111685244054Z" fill="#cdf29b" stroke="#cdf29b"/><path d="M1444.3034199665947,-126.80111685244054L1291.9834920831313,33.8816475510037L1476.1782658361772,113.98970785127425Z" fill="#d5f397" stroke="#d5f397"/><path d="M1444.3034199665947,-126.80111685244054L1476.1782658361772,113.98970785127425L1539.74955538353,-69.12286444225371Z" fill="#d0f294" stroke="#d0f294"/><path d="M1539.74955538353,-69.12286444225371L1476.1782658361772,113.98970785127425L1625.8316381143222,130.18476601391978Z" fill="#dbf48f" stroke="#dbf48f"/><path d="M-54.90618583774267,127.82303339175162L-94.21886486620073,410.1892908639926L-16.629647503533505,198.53545645212398Z" fill="#cde0d4" stroke="#cde0d4"/><path d="M-54.90618583774267,127.82303339175162L-16.629647503533505,198.53545645212398L102.42460993423067,74.77414600018446Z" fill="#b7dcd4" stroke="#b7dcd4"/><path d="M102.42460993423067,74.77414600018446L-16.629647503533505,198.53545645212398L121.78893367138828,262.50356596335666Z" fill="#b4d7d0" stroke="#b4d7d0"/><path d="M102.42460993423067,74.77414600018446L121.78893367138828,262.50356596335666L227.70699414429018,216.52556443617877Z" fill="#a9cfcc" stroke="#a9cfcc"/><path d="M102.42460993423067,74.77414600018446L227.70699414429018,216.52556443617877L219.45467894337716,37.301836114551996Z" fill="#9bcbcc" stroke="#9bcbcc"/><path d="M219.45467894337716,37.301836114551996L227.70699414429018,216.52556443617877L377.8517602653634,178.22095426092258Z" fill="#92c3c6" stroke="#92c3c6"/><path d="M219.45467894337716,37.301836114551996L377.8517602653634,178.22095426092258L408.9079602533957,98.78965999016488Z" fill="#84bdc5" stroke="#84bdc5"/><path d="M408.9079602533957,98.78965999016488L377.8517602653634,178.22095426092258L578.5482443010505,198.18337728398703Z" fill="#7ab3bd" stroke="#7ab3bd"/><path d="M408.9079602533957,98.78965999016488L578.5482443010505,198.18337728398703L489.7643256037784,47.16463685607963Z" fill="#77b4bd" stroke="#77b4bd"/><path d="M489.7643256037784,47.16463685607963L578.5482443010505,198.18337728398703L706.1926184455275,69.07080962684522Z" fill="#85bfb9" stroke="#85bfb9"/><path d="M706.1926184455275,69.07080962684522L578.5482443010505,198.18337728398703L636.4481050092197,237.22483423640392Z" fill="#95c5b4" stroke="#95c5b4"/><path d="M706.1926184455275,69.07080962684522L636.4481050092197,237.22483423640392L791.4278479691894,251.37468625019045Z" fill="#a2ceb1" stroke="#a2ceb1"/><path d="M706.1926184455275,69.07080962684522L791.4278479691894,251.37468625019045L854.5774436179561,104.86871646808488Z" fill="#a8d5ae" stroke="#a8d5ae"/><path d="M854.5774436179561,104.86871646808488L791.4278479691894,251.37468625019045L1030.6399671231998,170.28190085841032Z" fill="#bee1a9" stroke="#bee1a9"/><path d="M854.5774436179561,104.86871646808488L1030.6399671231998,170.28190085841032L955.4268813951039,70.45572561902479Z" fill="#bee6a8" stroke="#bee6a8"/><path d="M955.4268813951039,70.45572561902479L1030.6399671231998,170.28190085841032L1175.0492675152404,97.70661965630431Z" fill="#cff2a3" stroke="#cff2a3"/><path d="M1175.0492675152404,97.70661965630431L1030.6399671231998,170.28190085841032L1109.8695616819286,278.86507403562587Z" fill="#e0f69f" stroke="#e0f69f"/><path d="M1175.0492675152404,97.70661965630431L1109.8695616819286,278.86507403562587L1315.969217616976,223.71345042869473Z" fill="#eef69a" stroke="#eef69a"/><path d="M1175.0492675152404,97.70661965630431L1315.969217616976,223.71345042869473L1291.9834920831313,33.8816475510037Z" fill="#e3f59a" stroke="#e3f59a"/><path d="M1291.9834920831313,33.8816475510037L1315.969217616976,223.71345042869473L1476.1782658361772,113.98970785127425Z" fill="#e4f595" stroke="#e4f595"/><path d="M1476.1782658361772,113.98970785127425L1315.969217616976,223.71345042869473L1459.9381357275868,247.09158061956754Z" fill="#edf690" stroke="#edf690"/><path d="M1476.1782658361772,113.98970785127425L1459.9381357275868,247.09158061956754L1583.5041278111512,229.65804564373272Z" fill="#edf68c" stroke="#edf68c"/><path d="M1476.1782658361772,113.98970785127425L1583.5041278111512,229.65804564373272L1625.8316381143222,130.18476601391978Z" fill="#e8f68b" stroke="#e8f68b"/><path d="M1625.8316381143222,130.18476601391978L1583.5041278111512,229.65804564373272L1560.8227214182627,483.64650107876565Z" fill="#f5f186" stroke="#f5f186"/><path d="M1625.8316381143222,130.18476601391978L1560.8227214182627,483.64650107876565L1598.893232095485,724.8405603356362Z" fill="#ffe580" stroke="#ffe580"/><path d="M1625.8316381143222,130.18476601391978L1598.893232095485,724.8405603356362L1595.8749291568529,926.9395535898182Z" fill="#ffd57a" stroke="#ffd57a"/><path d="M-16.629647503533505,198.53545645212398L-94.21886486620073,410.1892908639926L65.47713242180558,416.85755289195464Z" fill="#d0d6cf" stroke="#d0d6cf"/><path d="M-16.629647503533505,198.53545645212398L65.47713242180558,416.85755289195464L121.78893367138828,262.50356596335666Z" fill="#c1d3cd" stroke="#c1d3cd"/><path d="M121.78893367138828,262.50356596335666L65.47713242180558,416.85755289195464L238.5049694206951,403.2043503747651Z" fill="#bbc6c7" stroke="#bbc6c7"/><path d="M121.78893367138828,262.50356596335666L238.5049694206951,403.2043503747651L227.70699414429018,216.52556443617877Z" fill="#adc6c6" stroke="#adc6c6"/><path d="M227.70699414429018,216.52556443617877L238.5049694206951,403.2043503747651L416.6286429415281,367.8897551494725Z" fill="#a2bac0" stroke="#a2bac0"/><path d="M227.70699414429018,216.52556443617877L416.6286429415281,367.8897551494725L377.8517602653634,178.22095426092258Z" fill="#94bbc0" stroke="#94bbc0"/><path d="M377.8517602653634,178.22095426092258L416.6286429415281,367.8897551494725L544.171472412649,329.66972258056Z" fill="#89afb9" stroke="#89afb9"/><path d="M377.8517602653634,178.22095426092258L544.171472412649,329.66972258056L578.5482443010505,198.18337728398703Z" fill="#86b4b9" stroke="#86b4b9"/><path d="M578.5482443010505,198.18337728398703L544.171472412649,329.66972258056L636.4481050092197,237.22483423640392Z" fill="#96bcb4" stroke="#96bcb4"/><path d="M636.4481050092197,237.22483423640392L544.171472412649,329.66972258056L646.1286923351103,340.0886686053487Z" fill="#9dbcb1" stroke="#9dbcb1"/><path d="M636.4481050092197,237.22483423640392L646.1286923351103,340.0886686053487L791.4278479691894,251.37468625019045Z" fill="#a8c7af" stroke="#a8c7af"/><path d="M791.4278479691894,251.37468625019045L646.1286923351103,340.0886686053487L781.4033824093824,433.1416973349811Z" fill="#b5c8aa" stroke="#b5c8aa"/><path d="M791.4278479691894,251.37468625019045L781.4033824093824,433.1416973349811L948.0986258589916,376.4624718817094Z" fill="#c6d2a5" stroke="#c6d2a5"/><path d="M791.4278479691894,251.37468625019045L948.0986258589916,376.4624718817094L1030.6399671231998,170.28190085841032Z" fill="#cce1a5" stroke="#cce1a5"/><path d="M1030.6399671231998,170.28190085841032L948.0986258589916,376.4624718817094L1109.8695616819286,278.86507403562587Z" fill="#ddec9f" stroke="#ddec9f"/><path d="M1109.8695616819286,278.86507403562587L948.0986258589916,376.4624718817094L1143.0986287400492,428.4649648086628Z" fill="#eaeb9b" stroke="#eaeb9b"/><path d="M1109.8695616819286,278.86507403562587L1143.0986287400492,428.4649648086628L1238.5890323602355,398.95297300216004Z" fill="#fbeb96" stroke="#fbeb96"/><path d="M1109.8695616819286,278.86507403562587L1238.5890323602355,398.95297300216004L1315.969217616976,223.71345042869473Z" fill="#f7f096" stroke="#f7f096"/><path d="M1315.969217616976,223.71345042869473L1238.5890323602355,398.95297300216004L1471.608933099715,380.9239410040534Z" fill="#faee8f" stroke="#faee8f"/><path d="M1315.969217616976,223.71345042869473L1471.608933099715,380.9239410040534L1459.9381357275868,247.09158061956754Z" fill="#f5f18e" stroke="#f5f18e"/><path d="M1459.9381357275868,247.09158061956754L1471.608933099715,380.9239410040534L1527.215766841138,319.2788832012372Z" fill="#f8ef89" stroke="#f8ef89"/><path d="M1459.9381357275868,247.09158061956754L1527.215766841138,319.2788832012372L1583.5041278111512,229.65804564373272Z" fill="#f3f28a" stroke="#f3f28a"/><path d="M1583.5041278111512,229.65804564373272L1527.215766841138,319.2788832012372L1560.8227214182627,483.64650107876565Z" fill="#faed86" stroke="#faed86"/><path d="M-94.21886486620073,410.1892908639926L-130.17248619604516,522.5833839586238L28.595895190493362,516.2351710384356Z" fill="#dccecd" stroke="#dccecd"/><path d="M-94.21886486620073,410.1892908639926L28.595895190493362,516.2351710384356L65.47713242180558,416.85755289195464Z" fill="#d3ccca" stroke="#d3ccca"/><path d="M65.47713242180558,416.85755289195464L28.595895190493362,516.2351710384356L214.01998367493232,547.9655218383317Z" fill="#c4bec4" stroke="#c4bec4"/><path d="M65.47713242180558,416.85755289195464L214.01998367493232,547.9655218383317L238.5049694206951,403.2043503747651Z" fill="#babbc2" stroke="#babbc2"/><path d="M238.5049694206951,403.2043503747651L214.01998367493232,547.9655218383317L382.5931300356702,545.7403120691239Z" fill="#aaadbb" stroke="#aaadbb"/><path d="M238.5049694206951,403.2043503747651L382.5931300356702,545.7403120691239L416.6286429415281,367.8897551494725Z" fill="#a1adb9" stroke="#a1adb9"/><path d="M416.6286429415281,367.8897551494725L382.5931300356702,545.7403120691239L568.5090591481493,496.8589895336291Z" fill="#91a0b3" stroke="#91a0b3"/><path d="M416.6286429415281,367.8897551494725L568.5090591481493,496.8589895336291L544.171472412649,329.66972258056Z" fill="#96abb3" stroke="#96abb3"/><path d="M544.171472412649,329.66972258056L568.5090591481493,496.8589895336291L646.1286923351103,340.0886686053487Z" fill="#a1b3b0" stroke="#a1b3b0"/><path d="M646.1286923351103,340.0886686053487L568.5090591481493,496.8589895336291L638.3449205578773,550.8493789560794Z" fill="#a7b0ab" stroke="#a7b0ab"/><path d="M646.1286923351103,340.0886686053487L638.3449205578773,550.8493789560794L781.4033824093824,433.1416973349811Z" fill="#b2baa9" stroke="#b2baa9"/><path d="M781.4033824093824,433.1416973349811L638.3449205578773,550.8493789560794L851.7522663053014,531.7856534611864Z" fill="#bdbba4" stroke="#bdbba4"/><path d="M781.4033824093824,433.1416973349811L851.7522663053014,531.7856534611864L948.0986258589916,376.4624718817094Z" fill="#cdcca1" stroke="#cdcca1"/><path d="M948.0986258589916,376.4624718817094L851.7522663053014,531.7856534611864L1020.2208334267883,584.1939885630445Z" fill="#dad09c" stroke="#dad09c"/><path d="M948.0986258589916,376.4624718817094L1020.2208334267883,584.1939885630445L1143.0986287400492,428.4649648086628Z" fill="#e9de99" stroke="#e9de99"/><path d="M1143.0986287400492,428.4649648086628L1020.2208334267883,584.1939885630445L1153.9780932780648,527.2307250361995Z" fill="#f4de94" stroke="#f4de94"/><path d="M1143.0986287400492,428.4649648086628L1153.9780932780648,527.2307250361995L1238.5890323602355,398.95297300216004Z" fill="#ffe493" stroke="#ffe493"/><path d="M1238.5890323602355,398.95297300216004L1153.9780932780648,527.2307250361995L1237.5542474414947,550.3760355275033Z" fill="#ffe090" stroke="#ffe090"/><path d="M1238.5890323602355,398.95297300216004L1237.5542474414947,550.3760355275033L1448.2447123139311,512.6767814063813Z" fill="#ffe08b" stroke="#ffe08b"/><path d="M1238.5890323602355,398.95297300216004L1448.2447123139311,512.6767814063813L1471.608933099715,380.9239410040534Z" fill="#ffe68a" stroke="#ffe68a"/><path d="M1471.608933099715,380.9239410040534L1448.2447123139311,512.6767814063813L1560.8227214182627,483.64650107876565Z" fill="#ffe385" stroke="#ffe385"/><path d="M1471.608933099715,380.9239410040534L1560.8227214182627,483.64650107876565L1527.215766841138,319.2788832012372Z" fill="#ffea85" stroke="#ffea85"/><path d="M-130.17248619604516,522.5833839586238L-119.47976544850698,720.2934639952128L28.595895190493362,516.2351710384356Z" fill="#ddc5c9" stroke="#ddc5c9"/><path d="M28.595895190493362,516.2351710384356L-119.47976544850698,720.2934639952128L107.32401575319327,656.2849489031094Z" fill="#d2b9c3" stroke="#d2b9c3"/><path d="M28.595895190493362,516.2351710384356L107.32401575319327,656.2849489031094L214.01998367493232,547.9655218383317Z" fill="#c2b4c0" stroke="#c2b4c0"/><path d="M214.01998367493232,547.9655218383317L107.32401575319327,656.2849489031094L169.67353323393323,683.8407200951192Z" fill="#bbabbb" stroke="#bbabbb"/><path d="M214.01998367493232,547.9655218383317L169.67353323393323,683.8407200951192L406.64895288155105,622.8227010159683Z" fill="#ada2b6" stroke="#ada2b6"/><path d="M214.01998367493232,547.9655218383317L406.64895288155105,622.8227010159683L382.5931300356702,545.7403120691239Z" fill="#a2a0b5" stroke="#a2a0b5"/><path d="M382.5931300356702,545.7403120691239L406.64895288155105,622.8227010159683L568.5090591481493,496.8589895336291Z" fill="#9197af" stroke="#9197af"/><path d="M568.5090591481493,496.8589895336291L406.64895288155105,622.8227010159683L512.4262181686368,708.0831996291103Z" fill="#9494ab" stroke="#9494ab"/><path d="M568.5090591481493,496.8589895336291L512.4262181686368,708.0831996291103L638.3449205578773,550.8493789560794Z" fill="#a09ea9" stroke="#a09ea9"/><path d="M638.3449205578773,550.8493789560794L512.4262181686368,708.0831996291103L655.6096254625561,702.6031276486823Z" fill="#a59ca5" stroke="#a59ca5"/><path d="M638.3449205578773,550.8493789560794L655.6096254625561,702.6031276486823L851.7522663053014,531.7856534611864Z" fill="#b6ada2" stroke="#b6ada2"/><path d="M851.7522663053014,531.7856534611864L655.6096254625561,702.6031276486823L863.1170828271058,732.2849322235968Z" fill="#c2b19c" stroke="#c2b19c"/><path d="M851.7522663053014,531.7856534611864L863.1170828271058,732.2849322235968L1020.2208334267883,584.1939885630445Z" fill="#d5c199" stroke="#d5c199"/><path d="M1020.2208334267883,584.1939885630445L863.1170828271058,732.2849322235968L1027.7627805176598,729.9866467660316Z" fill="#dfc393" stroke="#dfc393"/><path d="M1020.2208334267883,584.1939885630445L1027.7627805176598,729.9866467660316L1103.07100232621,675.4433929500149Z" fill="#ebcd90" stroke="#ebcd90"/><path d="M1020.2208334267883,584.1939885630445L1103.07100232621,675.4433929500149L1153.9780932780648,527.2307250361995Z" fill="#f2d591" stroke="#f2d591"/><path d="M1153.9780932780648,527.2307250361995L1103.07100232621,675.4433929500149L1240.3494205512686,648.7142491754821Z" fill="#fdd38d" stroke="#fdd38d"/><path d="M1153.9780932780648,527.2307250361995L1240.3494205512686,648.7142491754821L1237.5542474414947,550.3760355275033Z" fill="#ffd78d" stroke="#ffd78d"/><path d="M1237.5542474414947,550.3760355275033L1240.3494205512686,648.7142491754821L1448.2447123139311,512.6767814063813Z" fill="#ffd888" stroke="#ffd888"/><path d="M1448.2447123139311,512.6767814063813L1240.3494205512686,648.7142491754821L1484.8537038705,718.9807894289133Z" fill="#ffd383" stroke="#ffd383"/><path d="M1448.2447123139311,512.6767814063813L1484.8537038705,718.9807894289133L1560.8227214182627,483.64650107876565Z" fill="#ffd880" stroke="#ffd880"/><path d="M1560.8227214182627,483.64650107876565L1484.8537038705,718.9807894289133L1598.893232095485,724.8405603356362Z" fill="#ffd27b" stroke="#ffd27b"/><path d="M-119.47976544850698,720.2934639952128L-111.9273114690774,850.5977741733914L44.72047721291119,875.5586306851114Z" fill="#dcb2be" stroke="#dcb2be"/><path d="M-119.47976544850698,720.2934639952128L44.72047721291119,875.5586306851114L107.32401575319327,656.2849489031094Z" fill="#d1b0bd" stroke="#d1b0bd"/><path d="M107.32401575319327,656.2849489031094L44.72047721291119,875.5586306851114L169.67353323393323,683.8407200951192Z" fill="#c3a8b9" stroke="#c3a8b9"/><path d="M169.67353323393323,683.8407200951192L44.72047721291119,875.5586306851114L252.89657061115588,795.0725048542538Z" fill="#bca0b4" stroke="#bca0b4"/><path d="M169.67353323393323,683.8407200951192L252.89657061115588,795.0725048542538L406.64895288155105,622.8227010159683Z" fill="#ab9bb2" stroke="#ab9bb2"/><path d="M406.64895288155105,622.8227010159683L252.89657061115588,795.0725048542538L361.7300094230503,865.9765929123731Z" fill="#a291ac" stroke="#a291ac"/><path d="M406.64895288155105,622.8227010159683L361.7300094230503,865.9765929123731L512.4262181686368,708.0831996291103Z" fill="#958ba9" stroke="#958ba9"/><path d="M512.4262181686368,708.0831996291103L361.7300094230503,865.9765929123731L550.9397288985716,806.6029304192514Z" fill="#9184a4" stroke="#9184a4"/><path d="M512.4262181686368,708.0831996291103L550.9397288985716,806.6029304192514L655.6096254625561,702.6031276486823Z" fill="#a092a2" stroke="#a092a2"/><path d="M655.6096254625561,702.6031276486823L550.9397288985716,806.6029304192514L632.0358922931558,815.1551974410601Z" fill="#a6949f" stroke="#a6949f"/><path d="M655.6096254625561,702.6031276486823L632.0358922931558,815.1551974410601L776.3996384216534,780.6640697867495Z" fill="#b29d9c" stroke="#b29d9c"/><path d="M655.6096254625561,702.6031276486823L776.3996384216534,780.6640697867495L863.1170828271058,732.2849322235968Z" fill="#bea89a" stroke="#bea89a"/><path d="M863.1170828271058,732.2849322235968L776.3996384216534,780.6640697867495L848.9518987145702,948.6435983008939Z" fill="#c8a993" stroke="#c8a993"/><path d="M863.1170828271058,732.2849322235968L848.9518987145702,948.6435983008939L980.6778971372792,856.4996304565462Z" fill="#d3ae8f" stroke="#d3ae8f"/><path d="M863.1170828271058,732.2849322235968L980.6778971372792,856.4996304565462L1027.7627805176598,729.9866467660316Z" fill="#ddba8f" stroke="#ddba8f"/><path d="M1027.7627805176598,729.9866467660316L980.6778971372792,856.4996304565462L1178.6157790894147,815.1986428520803Z" fill="#edc489" stroke="#edc489"/><path d="M1027.7627805176598,729.9866467660316L1178.6157790894147,815.1986428520803L1103.07100232621,675.4433929500149Z" fill="#f3ca8a" stroke="#f3ca8a"/><path d="M1103.07100232621,675.4433929500149L1178.6157790894147,815.1986428520803L1240.3494205512686,648.7142491754821Z" fill="#ffcc88" stroke="#ffcc88"/><path d="M1240.3494205512686,648.7142491754821L1178.6157790894147,815.1986428520803L1288.8540383437917,847.9534425898478Z" fill="#ffc883" stroke="#ffc883"/><path d="M1240.3494205512686,648.7142491754821L1288.8540383437917,847.9534425898478L1484.8537038705,718.9807894289133Z" fill="#ffca80" stroke="#ffca80"/><path d="M1484.8537038705,718.9807894289133L1288.8540383437917,847.9534425898478L1437.4392542543148,867.3274325338084Z" fill="#ffc57a" stroke="#ffc57a"/><path d="M1484.8537038705,718.9807894289133L1437.4392542543148,867.3274325338084L1528.0407536692665,802.1917281588854Z" fill="#ffc676" stroke="#ffc676"/><path d="M1484.8537038705,718.9807894289133L1528.0407536692665,802.1917281588854L1598.893232095485,724.8405603356362Z" fill="#ffca77" stroke="#ffca77"/><path d="M1598.893232095485,724.8405603356362L1528.0407536692665,802.1917281588854L1595.8749291568529,926.9395535898182Z" fill="#ffc471" stroke="#ffc471"/><path d="M-111.9273114690774,850.5977741733914L-91.14869007836958,1120.4481971023647L-21.129497420890516,959.0568560951765Z" fill="#dea7b8" stroke="#dea7b8"/><path d="M-111.9273114690774,850.5977741733914L-21.129497420890516,959.0568560951765L44.72047721291119,875.5586306851114Z" fill="#d7a9b9" stroke="#d7a9b9"/><path d="M44.72047721291119,875.5586306851114L-21.129497420890516,959.0568560951765L24.971910839227974,937.1098016142307Z" fill="#d0a2b5" stroke="#d0a2b5"/><path d="M44.72047721291119,875.5586306851114L24.971910839227974,937.1098016142307L166.14721344138454,994.9824125283512Z" fill="#c79cb2" stroke="#c79cb2"/><path d="M44.72047721291119,875.5586306851114L166.14721344138454,994.9824125283512L252.89657061115588,795.0725048542538Z" fill="#bc99b0" stroke="#bc99b0"/><path d="M252.89657061115588,795.0725048542538L166.14721344138454,994.9824125283512L361.7300094230503,865.9765929123731Z" fill="#ad8fab" stroke="#ad8fab"/><path d="M361.7300094230503,865.9765929123731L166.14721344138454,994.9824125283512L383.8366715899686,1010.1407800181672Z" fill="#a785a5" stroke="#a785a5"/><path d="M361.7300094230503,865.9765929123731L383.8366715899686,1010.1407800181672L561.8162879016425,925.6535194694716Z" fill="#947ba0" stroke="#947ba0"/><path d="M361.7300094230503,865.9765929123731L561.8162879016425,925.6535194694716L550.9397288985716,806.6029304192514Z" fill="#9380a0" stroke="#9380a0"/><path d="M550.9397288985716,806.6029304192514L561.8162879016425,925.6535194694716L632.0358922931558,815.1551974410601Z" fill="#a18b9d" stroke="#a18b9d"/><path d="M632.0358922931558,815.1551974410601L561.8162879016425,925.6535194694716L657.1341665141732,946.2945239423293Z" fill="#a78c99" stroke="#a78c99"/><path d="M632.0358922931558,815.1551974410601L657.1341665141732,946.2945239423293L776.3996384216534,780.6640697867495Z" fill="#b29798" stroke="#b29798"/><path d="M776.3996384216534,780.6640697867495L657.1341665141732,946.2945239423293L848.9518987145702,948.6435983008939Z" fill="#be9c93" stroke="#be9c93"/><path d="M980.6778971372792,856.4996304565462L848.9518987145702,948.6435983008939L1027.678452458245,996.8636271009159Z" fill="#dcae88" stroke="#dcae88"/><path d="M980.6778971372792,856.4996304565462L1027.678452458245,996.8636271009159L1122.7168638950038,973.7150239065722Z" fill="#eab784" stroke="#eab784"/><path d="M980.6778971372792,856.4996304565462L1122.7168638950038,973.7150239065722L1178.6157790894147,815.1986428520803Z" fill="#f2c085" stroke="#f2c085"/><path d="M1178.6157790894147,815.1986428520803L1122.7168638950038,973.7150239065722L1288.8540383437917,847.9534425898478Z" fill="#ffc080" stroke="#ffc080"/><path d="M1288.8540383437917,847.9534425898478L1122.7168638950038,973.7150239065722L1309.8789298146894,1024.2162928867351Z" fill="#ffbb7b" stroke="#ffbb7b"/><path d="M1288.8540383437917,847.9534425898478L1309.8789298146894,1024.2162928867351L1397.0113075883933,986.0900255926471Z" fill="#ffba76" stroke="#ffba76"/><path d="M1288.8540383437917,847.9534425898478L1397.0113075883933,986.0900255926471L1437.4392542543148,867.3274325338084Z" fill="#ffbe77" stroke="#ffbe77"/><path d="M1437.4392542543148,867.3274325338084L1397.0113075883933,986.0900255926471L1595.8749291568529,926.9395535898182Z" fill="#ffbc71" stroke="#ffbc71"/><path d="M1437.4392542543148,867.3274325338084L1595.8749291568529,926.9395535898182L1528.0407536692665,802.1917281588854Z" fill="#ffc172" stroke="#ffc172"/><path d="M-21.129497420890516,959.0568560951765L-91.14869007836958,1120.4481971023647L54.9602991605409,1178.020968328543Z" fill="#d69ab0" stroke="#d69ab0"/><path d="M-21.129497420890516,959.0568560951765L54.9602991605409,1178.020968328543L24.971910839227974,937.1098016142307Z" fill="#d09ab1" stroke="#d09ab1"/><path d="M24.971910839227974,937.1098016142307L54.9602991605409,1178.020968328543L166.14721344138454,994.9824125283512Z" fill="#c794ad" stroke="#c794ad"/><path d="M166.14721344138454,994.9824125283512L54.9602991605409,1178.020968328543L282.4652272190703,1167.6250646760052Z" fill="#ba86a5" stroke="#ba86a5"/><path d="M166.14721344138454,994.9824125283512L282.4652272190703,1167.6250646760052L383.8366715899686,1010.1407800181672Z" fill="#ab80a2" stroke="#ab80a2"/><path d="M383.8366715899686,1010.1407800181672L282.4652272190703,1167.6250646760052L364.9164849575439,1144.9176142637928Z" fill="#a1779c" stroke="#a1779c"/><path d="M383.8366715899686,1010.1407800181672L364.9164849575439,1144.9176142637928L474.16720895303905,1080.9112868415107Z" fill="#98739b" stroke="#98739b"/><path d="M383.8366715899686,1010.1407800181672L474.16720895303905,1080.9112868415107L561.8162879016425,925.6535194694716Z" fill="#90739a" stroke="#90739a"/><path d="M561.8162879016425,925.6535194694716L474.16720895303905,1080.9112868415107L657.1341665141732,946.2945239423293Z" fill="#9f7f97" stroke="#9f7f97"/><path d="M657.1341665141732,946.2945239423293L474.16720895303905,1080.9112868415107L668.8570728185196,1171.482014743795Z" fill="#a47d92" stroke="#a47d92"/><path d="M657.1341665141732,946.2945239423293L668.8570728185196,1171.482014743795L847.1662612303385,1134.2675301093332Z" fill="#b8898c" stroke="#b8898c"/><path d="M657.1341665141732,946.2945239423293L847.1662612303385,1134.2675301093332L848.9518987145702,948.6435983008939Z" fill="#c1968c" stroke="#c1968c"/><path d="M848.9518987145702,948.6435983008939L847.1662612303385,1134.2675301093332L1027.678452458245,996.8636271009159Z" fill="#d5a286" stroke="#d5a286"/><path d="M1027.678452458245,996.8636271009159L847.1662612303385,1134.2675301093332L1034.4789083227324,1078.3508782294953Z" fill="#dea682" stroke="#dea682"/><path d="M1027.678452458245,996.8636271009159L1034.4789083227324,1078.3508782294953L1122.7168638950038,973.7150239065722Z" fill="#edb480" stroke="#edb480"/><path d="M1122.7168638950038,973.7150239065722L1034.4789083227324,1078.3508782294953L1173.788278297286,1164.262755024133Z" fill="#f5b17b" stroke="#f5b17b"/><path d="M1122.7168638950038,973.7150239065722L1173.788278297286,1164.262755024133L1309.8789298146894,1024.2162928867351Z" fill="#ffb378" stroke="#ffb378"/><path d="M1309.8789298146894,1024.2162928867351L1173.788278297286,1164.262755024133L1309.2297235806404,1117.8243175674133Z" fill="#ffaf73" stroke="#ffaf73"/><path d="M1309.8789298146894,1024.2162928867351L1309.2297235806404,1117.8243175674133L1397.0113075883933,986.0900255926471Z" fill="#ffb472" stroke="#ffb472"/><path d="M1397.0113075883933,986.0900255926471L1309.2297235806404,1117.8243175674133L1459.3727208449345,1129.7019701604415Z" fill="#ffb16e" stroke="#ffb16e"/><path d="M1397.0113075883933,986.0900255926471L1459.3727208449345,1129.7019701604415L1577.7700077456966,1124.7986647523476Z" fill="#ffb16a" stroke="#ffb16a"/><path d="M1397.0113075883933,986.0900255926471L1577.7700077456966,1124.7986647523476L1595.8749291568529,926.9395535898182Z" fill="#ffb66b" stroke="#ffb66b"/><path d="M54.9602991605409,1178.020968328543L668.8570728185196,1171.482014743795L282.4652272190703,1167.6250646760052Z" fill="#a2729a" stroke="#a2729a"/><path d="M282.4652272190703,1167.6250646760052L668.8570728185196,1171.482014743795L364.9164849575439,1144.9176142637928Z" fill="#936a95" stroke="#936a95"/><path d="M364.9164849575439,1144.9176142637928L668.8570728185196,1171.482014743795L474.16720895303905,1080.9112868415107Z" fill="#956d94" stroke="#956d94"/><path d="M668.8570728185196,1171.482014743795L1173.788278297286,1164.262755024133L847.1662612303385,1134.2675301093332Z" fill="#d39781" stroke="#d39781"/><path d="M847.1662612303385,1134.2675301093332L1173.788278297286,1164.262755024133L1034.4789083227324,1078.3508782294953Z" fill="#e6a77d" stroke="#e6a77d"/><path d="M1173.788278297286,1164.262755024133L1577.7700077456966,1124.7986647523476L1459.3727208449345,1129.7019701604415Z" fill="#ffac6b" stroke="#ffac6b"/><path d="M1173.788278297286,1164.262755024133L1459.3727208449345,1129.7019701604415L1309.2297235806404,1117.8243175674133Z" fill="#ffac6f" stroke="#ffac6f"/></g></svg>