<?xml version="1.0" encoding="UTF-8" standalone="no"?>
<!-- Created with Inkscape (http://www.inkscape.org/) -->

<svg
   width="1289.8796"
   height="781.22699"
   viewBox="0 0 1289.8796 781.22699"
   version="1.1"
   id="svg1"
   xml:space="preserve"
   inkscape:version="1.3.2 (091e20ef0f, 2023-11-25)"
   sodipodi:docname="step2.svg"
   xmlns:inkscape="http://www.inkscape.org/namespaces/inkscape"
   xmlns:sodipodi="http://sodipodi.sourceforge.net/DTD/sodipodi-0.dtd"
   xmlns="http://www.w3.org/2000/svg"
   xmlns:svg="http://www.w3.org/2000/svg"><sodipodi:namedview
     id="namedview1"
     pagecolor="#ffffff"
     bordercolor="#eeeeee"
     borderopacity="1"
     inkscape:showpageshadow="0"
     inkscape:pageopacity="0"
     inkscape:pagecheckerboard="0"
     inkscape:deskcolor="#505050"
     inkscape:document-units="px"
     inkscape:zoom="0.353125"
     inkscape:cx="884.95575"
     inkscape:cy="140.17699"
     inkscape:window-width="1920"
     inkscape:window-height="1058"
     inkscape:window-x="0"
     inkscape:window-y="0"
     inkscape:window-maximized="0"
     inkscape:current-layer="layer2" /><defs
     id="defs1"><rect
       x="702.85162"
       y="112.13587"
       width="498.75687"
       height="376.45615"
       id="rect6" /><rect
       x="922.5011"
       y="335.35187"
       width="361.05417"
       height="204.64813"
       id="rect5" /></defs><g
     inkscape:groupmode="layer"
     id="layer2"
     inkscape:label="Layer 2"
     transform="translate(-245.02477,-193.31339)"><path
       style="fill:none;stroke:#ececec;stroke-width:3.91135;stroke-linecap:round;stroke-linejoin:round;stroke-miterlimit:20;stroke-dasharray:3.91135, 11.7341;stroke-dashoffset:0"
       d="M 1515.263,207.65882 H 842.40202 c 0,0 -4.11438,5.20738 -8.37852,20.90622 -4.26413,15.69884 -5.91427,16.53052 -11.3357,16.53052 H 351.43893 c 0,0 -1.96898,-11.39221 -3.12623,-17.05484 -0.77081,-3.77169 -2.54163,-11.26582 -2.54163,-11.26582 0,0 0.36555,-9.36181 -9.79751,-9.36181 H 265.6761 c 0,0 -8.68904,5.28645 -8.68904,18.62807 v 721.96557 c 0,0 -0.73938,14.2527 14.44806,14.2527 H 1511.6282 c 6.541,-0.002 10.4257,-2.08198 11.2496,-7.28023 l 0.071,-741.07721 c -0.2393,-3.98479 -3.5838,-6.43961 -7.6852,-6.24317 z"
       id="path1-3"
       sodipodi:nodetypes="ccsscacscscsccccc" /><path
       style="fill:none;stroke:#e6e6e6;stroke-width:4;stroke-linecap:round;stroke-linejoin:round;stroke-miterlimit:20;stroke-dasharray:none"
       d="m 907.61062,214.32746 11.08661,21.42083 h 151.71927 305.8667 l 11.685,-20.15763"
       id="path4"
       sodipodi:nodetypes="ccccc" /><rect
       style="display:inline;fill:#666666;stroke:#333333;stroke-width:3.76072;stroke-linecap:round;stroke-linejoin:round;stroke-miterlimit:20;stroke-dasharray:none"
       id="rect1"
       width="82.33876"
       height="40.301529"
       x="988.07776"
       y="195.44676" /><path
       style="fill:none;stroke:#333333;stroke-width:4;stroke-linecap:round;stroke-linejoin:round;stroke-miterlimit:20;stroke-dasharray:none"
       d="M 1525.0979,195.5664 H 835.55959 c 0,0 -4.1791,5.36179 -8.5103,21.52609 -4.3312,16.16429 -6.0073,17.02062 -11.514,17.02062 h -456.8035 c 0,0 -1.9998,-11.72938 -3.1754,-17.56049 -0.7828,-3.88308 -2.5816,-11.59984 -2.5816,-11.59984 0,0 0.3713,-9.63939 -9.95159,-9.63939 h -87.166 c 0,0 -8.8257,5.4432 -8.8257,19.18039 v 743.37128 c 0,0 -0.751,14.67529 14.6753,14.67529 h 1259.6991 c 6.6438,-0.002 10.5896,-2.14372 11.4265,-7.49609 l 0.072,-763.04957 c -0.243,-4.10293 -3.6401,-6.63055 -7.806,-6.42829 z"
       id="path1"
       sodipodi:nodetypes="ccsscacscscsccccc" /><rect
       style="fill:#1a1a1a;stroke:#1a1a1a;stroke-width:3.53856;stroke-linecap:round;stroke-linejoin:round;stroke-miterlimit:20;stroke-dasharray:none"
       id="rect2"
       width="86.24662"
       height="495.39798"
       x="1332.7451"
       y="346.67194"
       ry="15.230403" /><rect
       style="fill:none;stroke:#e6e6e6;stroke-width:3.9589;stroke-linecap:round;stroke-linejoin:round;stroke-miterlimit:20;stroke-dasharray:none"
       id="rect3"
       width="554.25592"
       height="666.05914"
       x="924.48053"
       y="261.34137"
       ry="23.451033" /><path
       style="fill:none;stroke:#e6e6e6;stroke-width:4;stroke-linecap:round;stroke-linejoin:round;stroke-miterlimit:20;stroke-dasharray:none"
       d="M 889.96458,215.59753 V 950.15127"
       id="path3"
       sodipodi:nodetypes="cc" /><path
       style="fill:none;stroke:#e6e6e6;stroke-width:3.65431;stroke-linecap:square;stroke-linejoin:miter;stroke-miterlimit:20;stroke-dasharray:none"
       d="m 1320.226,239.41754 v 18.27513"
       id="path3-25"
       sodipodi:nodetypes="cc" /><path
       style="fill:none;stroke:#e6e6e6;stroke-width:3.86797;stroke-linecap:round;stroke-linejoin:round;stroke-miterlimit:20;stroke-dasharray:none"
       d="M 384.93449,261.23207 V 950.28112"
       id="path3-2" /><path
       style="fill:none;stroke:#e6e6e6;stroke-width:3.86797;stroke-linecap:round;stroke-linejoin:round;stroke-miterlimit:20;stroke-dasharray:none"
       d="M 420.82722,261.23207 V 950.28109"
       id="path3-2-5" /><path
       style="fill:none;stroke:#e6e6e6;stroke-width:3.86797;stroke-linecap:round;stroke-linejoin:round;stroke-miterlimit:20;stroke-dasharray:none"
       d="M 456.71995,261.23207 V 950.28109"
       id="path3-2-5-6" /><path
       style="fill:none;stroke:#e6e6e6;stroke-width:4;stroke-linecap:square;stroke-linejoin:miter;stroke-miterlimit:20;stroke-dasharray:none"
       d="m 1318.3988,929.37753 v 23.69854"
       id="path3-25-4"
       sodipodi:nodetypes="cc" /></g></svg>
