<?xml version="1.0" encoding="UTF-8" standalone="no"?><!-- Generator: Gravit.io --><svg xmlns="http://www.w3.org/2000/svg" xmlns:xlink="http://www.w3.org/1999/xlink" style="isolation:isolate" viewBox="0 0 425.197 793.701" width="425.197pt" height="793.701pt"><defs><clipPath id="_clipPath_HD8s2j21TT1jMdj2HaW4jIebxgCHFcPd"><rect width="425.197" height="793.701"/></clipPath></defs><g clip-path="url(#_clipPath_HD8s2j21TT1jMdj2HaW4jIebxgCHFcPd)"><g style="isolation:isolate"><path d="M 107.696 102 L 302.304 102 C 324.213 102 342 119.787 342 141.696 L 342 643.304 C 342 665.213 324.213 683 302.304 683 L 107.696 683 C 85.787 683 68 665.213 68 643.304 L 68 141.696 C 68 119.787 85.787 102 107.696 102 Z" style="fill:none;stroke:#828282;stroke-width:2;stroke-linecap:square;stroke-miterlimit:2;"/><rect x="79.333" y="144" width="253.667" height="498" transform="matrix(1,0,0,1,0,0)" fill="none" vector-effect="non-scaling-stroke" stroke-width="1.5" stroke="rgb(130,130,130)" stroke-linejoin="miter" stroke-linecap="square" stroke-miterlimit="2"/><circle vector-effect="non-scaling-stroke" cx="248.09375" cy="122.90625" r="5.53125" fill="none" stroke-width="1" stroke="rgb(130,130,130)" stroke-linejoin="miter" stroke-linecap="square" stroke-miterlimit="3"/><path d="M 188.963 120.563 L 221.912 120.563 C 222.858 120.563 223.625 121.33 223.625 122.275 L 223.625 124.287 C 223.625 125.233 222.858 126 221.912 126 L 188.963 126 C 188.017 126 187.25 125.233 187.25 124.287 L 187.25 122.275 C 187.25 121.33 188.017 120.563 188.963 120.563 Z" style="fill:none;stroke:#828282;stroke-width:1;stroke-linecap:square;stroke-miterlimit:2;"/><rect x="342" y="198" width="5.75" height="69.75" transform="matrix(1,0,0,1,0,0)" fill="none" vector-effect="non-scaling-stroke" stroke-width="1" stroke="rgb(130,130,130)" stroke-linejoin="miter" stroke-linecap="square" stroke-miterlimit="2"/><rect x="342" y="297" width="5.75" height="33" transform="matrix(1,0,0,1,0,0)" fill="none" vector-effect="non-scaling-stroke" stroke-width="1" stroke="rgb(130,130,130)" stroke-linejoin="miter" stroke-linecap="square" stroke-miterlimit="2"/><path d=" M 110.122 109.108 L 56.623 67.647 L 58.92 64.683 L 112.419 106.144 L 117.365 99.762 L 121.175 109.087 L 124.986 118.413 L 115.004 117.05 L 105.023 115.687 L 110.122 109.108 Z " fill-rule="evenodd" fill="rgb(66,66,66)"/><circle vector-effect="non-scaling-stroke" cx="42.83333333333333" cy="55.33333333333326" r="13.666666666666686" fill="none" stroke-width="1" stroke="rgb(96,96,96)" stroke-linejoin="miter" stroke-linecap="square" stroke-miterlimit="3"/><text transform="matrix(1,0,0,1,36.779,61.614)" style="font-family:'Open Sans';font-weight:700;font-size:18px;font-style:normal;fill:#606060;stroke:none;">1</text><circle vector-effect="non-scaling-stroke" cx="131.09375" cy="122.90625" r="5.53125" fill="none" stroke-width="1" stroke="rgb(130,130,130)" stroke-linejoin="miter" stroke-linecap="square" stroke-miterlimit="3"/><path d=" M 266.843 104.996 L 320.738 64.051 L 323.006 67.037 L 269.112 107.982 L 273.996 114.411 L 264.002 115.678 L 254.008 116.945 L 257.908 107.656 L 261.808 98.368 L 266.843 104.996 Z " fill-rule="evenodd" fill="rgb(66,66,66)"/><circle vector-effect="non-scaling-stroke" cx="334.5" cy="53.33333333333326" r="13.666666666666686" fill="none" stroke-width="1" stroke="rgb(96,96,96)" stroke-linejoin="miter" stroke-linecap="square" stroke-miterlimit="3"/><text transform="matrix(1,0,0,1,328.446,59.614)" style="font-family:'Open Sans';font-weight:700;font-size:18px;font-style:normal;fill:#606060;stroke:none;">3</text><path d=" M 192.334 101.742 L 158.964 42.856 L 162.226 41.007 L 195.596 99.893 L 202.621 95.913 L 202.54 105.986 L 202.459 116.06 L 193.776 110.953 L 185.092 105.846 L 192.334 101.742 Z " fill-rule="evenodd" fill="rgb(66,66,66)"/><circle vector-effect="non-scaling-stroke" cx="150.5000000000001" cy="27.999999999999922" r="13.666666666666686" fill="none" stroke-width="1" stroke="rgb(96,96,96)" stroke-linejoin="miter" stroke-linecap="square" stroke-miterlimit="3"/><text transform="matrix(1,0,0,1,144.446,34.281)" style="font-family:'Open Sans';font-weight:700;font-size:18px;font-style:normal;fill:#606060;stroke:none;">2</text><path d=" M 360.145 207.092 L 394.268 148.639 L 397.507 150.53 L 363.383 208.982 L 370.356 213.053 L 361.608 218.048 L 352.859 223.043 L 352.908 212.969 L 352.956 202.895 L 360.145 207.092 Z " fill-rule="evenodd" fill="rgb(66,66,66)"/><circle vector-effect="non-scaling-stroke" cx="404.5" cy="133.66666666666663" r="13.666666666666686" fill="none" stroke-width="1" stroke="rgb(96,96,96)" stroke-linejoin="miter" stroke-linecap="square" stroke-miterlimit="3"/><text transform="matrix(1,0,0,1,398.446,139.948)" style="font-family:'Open Sans';font-weight:700;font-size:18px;font-style:normal;fill:#606060;stroke:none;">4</text><path d=" M 361.061 296.16 L 396.331 238.392 L 399.531 240.346 L 364.261 298.114 L 371.153 302.322 L 362.307 307.143 L 353.462 311.964 L 353.709 301.893 L 353.956 291.823 L 361.061 296.16 Z " fill-rule="evenodd" fill="rgb(66,66,66)"/><circle vector-effect="non-scaling-stroke" cx="405.83333333333337" cy="223.3333333333333" r="13.666666666666686" fill="none" stroke-width="1" stroke="rgb(96,96,96)" stroke-linejoin="miter" stroke-linecap="square" stroke-miterlimit="3"/><text transform="matrix(1,0,0,1,399.779,229.614)" style="font-family:'Open Sans';font-weight:700;font-size:18px;font-style:normal;fill:#606060;stroke:none;">5</text><path d=" M 196.399 706.031 L 155.278 759.792 L 152.3 757.513 L 193.421 703.753 L 187.007 698.848 L 196.309 694.978 L 205.61 691.109 L 204.31 701.099 L 203.011 711.088 L 196.399 706.031 Z " fill-rule="evenodd" fill="rgb(66,66,66)"/><circle vector-effect="non-scaling-stroke" cx="142.5" cy="773.6666666666665" r="13.666666666666686" fill="none" stroke-width="1" stroke="rgb(96,96,96)" stroke-linejoin="miter" stroke-linecap="square" stroke-miterlimit="3"/><text transform="matrix(1,0,0,1,136.446,779.948)" style="font-family:'Open Sans';font-weight:700;font-size:18px;font-style:normal;fill:#606060;stroke:none;">6</text><path d=" M 247.712 702.574 L 288.998 756.208 L 286.027 758.495 L 244.741 704.862 L 238.343 709.787 L 237.013 699.801 L 235.682 689.815 L 244.995 693.656 L 254.308 697.497 L 247.712 702.574 Z " fill-rule="evenodd" fill="rgb(66,66,66)"/><circle vector-effect="non-scaling-stroke" cx="298.5" cy="772.6666666666665" r="13.666666666666686" fill="none" stroke-width="1" stroke="rgb(96,96,96)" stroke-linejoin="miter" stroke-linecap="square" stroke-miterlimit="3"/><text transform="matrix(1,0,0,1,292.446,778.948)" style="font-family:'Open Sans';font-weight:700;font-size:18px;font-style:normal;fill:#606060;stroke:none;">7</text></g></g></svg>