<?xml version="1.0" encoding="UTF-8" standalone="no"?><!-- Generator: Gravit.io --><svg xmlns="http://www.w3.org/2000/svg" xmlns:xlink="http://www.w3.org/1999/xlink" style="isolation:isolate" viewBox="0 0 595.276 841.89" width="595.276pt" height="841.89pt"><defs><clipPath id="_clipPath_PeQLxgyffXRNOpbxFFaa1Z7PntgieT43"><rect width="595.276" height="841.89"/></clipPath></defs><g clip-path="url(#_clipPath_PeQLxgyffXRNOpbxFFaa1Z7PntgieT43)"><g style="isolation:isolate"><path d="M 201.696 132 L 396.304 132 C 418.213 132 436 149.787 436 171.696 L 436 673.304 C 436 695.213 418.213 713 396.304 713 L 201.696 713 C 179.787 713 162 695.213 162 673.304 L 162 171.696 C 162 149.787 179.787 132 201.696 132 Z" style="fill:none;stroke:#828282;stroke-width:2;stroke-linecap:square;stroke-miterlimit:2;"/><circle vector-effect="non-scaling-stroke" cx="269.90625" cy="159.78124999999997" r="5.90625" fill="none" stroke-width="1" stroke="rgb(130,130,130)" stroke-linejoin="miter" stroke-linecap="butt" stroke-miterlimit="3"/><circle vector-effect="non-scaling-stroke" cx="225.65625" cy="159.15625" r="7.40625" fill="none" stroke-width="1" stroke="rgb(130,130,130)" stroke-linejoin="miter" stroke-linecap="butt" stroke-miterlimit="3"/><path d="M 224.077 142.333 L 269.59 142.333 C 279.015 142.333 286.667 149.985 286.667 159.41 L 286.667 160.257 C 286.667 169.682 279.015 177.333 269.59 177.333 L 224.077 177.333 C 214.652 177.333 207 169.682 207 160.257 L 207 159.41 C 207 149.985 214.652 142.333 224.077 142.333 Z" style="fill:none;stroke:#828282;stroke-width:2;stroke-linecap:square;stroke-miterlimit:2;"/><rect x="187.333" y="373.333" width="220" height="279.333" transform="matrix(1,0,0,1,0,0)" fill="none" vector-effect="non-scaling-stroke" stroke-width="1" stroke="rgb(130,130,130)" stroke-linejoin="miter" stroke-linecap="square" stroke-miterlimit="2"/><rect x="203.5" y="226.833" width="111.833" height="111.833" transform="matrix(1,0,0,1,0,0)" fill="none" vector-effect="non-scaling-stroke" stroke-width="1" stroke="rgb(130,130,130)" stroke-linejoin="miter" stroke-linecap="square" stroke-miterlimit="2"/><path d="M 339.55 216 L 369.95 216 C 371.081 216 372 216.919 372 218.05 L 372 234.45 C 372 235.581 371.081 236.5 369.95 236.5 L 339.55 236.5 C 338.419 236.5 337.5 235.581 337.5 234.45 L 337.5 218.05 C 337.5 216.919 338.419 216 339.55 216 Z" style="fill:none;stroke:#828282;stroke-width:1;stroke-linecap:square;stroke-miterlimit:2;"/><circle vector-effect="non-scaling-stroke" cx="343.8125" cy="221.75000000000006" r="1.546875" fill="rgb(130,130,130)"/><circle vector-effect="non-scaling-stroke" cx="343.8125" cy="230.7500000000001" r="1.546875" fill="rgb(130,130,130)"/><circle vector-effect="non-scaling-stroke" cx="354.8124999999998" cy="221.75" r="1.546875" fill="rgb(130,130,130)"/><circle vector-effect="non-scaling-stroke" cx="354.8124999999999" cy="230.75000000000009" r="1.546875" fill="rgb(130,130,130)"/><circle vector-effect="non-scaling-stroke" cx="364.8124999999999" cy="221.75" r="1.546875" fill="rgb(130,130,130)"/><circle vector-effect="non-scaling-stroke" cx="364.81249999999994" cy="230.75000000000009" r="1.546875" fill="rgb(130,130,130)"/><rect x="358.5" y="260.25" width="34.5" height="20.5" transform="matrix(1,0,0,1,0,0)" fill="none" vector-effect="non-scaling-stroke" stroke-width="1" stroke="rgb(130,130,130)" stroke-linejoin="miter" stroke-linecap="square" stroke-miterlimit="2"/><rect x="357.812" y="325.25" width="42.437" height="45" transform="matrix(1,0,0,1,0,0)" fill="none" vector-effect="non-scaling-stroke" stroke-width="1" stroke="rgb(130,130,130)" stroke-linejoin="miter" stroke-linecap="square" stroke-miterlimit="2"/><path d=" M 363.25 370.25 Q 361.75 351.5 370.25 351.5 Q 378.75 351.5 388.25 351.5 Q 395.25 351.875 395.25 370.25" fill="none" vector-effect="non-scaling-stroke" stroke-width="1" stroke="rgb(130,130,130)" stroke-linejoin="miter" stroke-linecap="square" stroke-miterlimit="3"/><path d="M 354.683 668.5 L 378.035 668.5 C 381.112 668.5 383.609 670.998 383.609 674.074 L 383.609 687.176 C 383.609 690.252 381.112 692.75 378.035 692.75 L 354.683 692.75 C 351.607 692.75 349.109 690.252 349.109 687.176 L 349.109 674.074 C 349.109 670.998 351.607 668.5 354.683 668.5 Z" style="fill:none;stroke:#828282;stroke-width:1;stroke-linecap:square;stroke-miterlimit:2;"/><rect x="362.25" y="266.625" width="2.562" height="7.875" transform="matrix(1,0,0,1,0,0)" fill="none" vector-effect="non-scaling-stroke" stroke-width="1" stroke="rgb(130,130,130)" stroke-linejoin="miter" stroke-linecap="square" stroke-miterlimit="2"/><rect x="367.25" y="266.625" width="2.562" height="7.875" transform="matrix(1,0,0,1,0,0)" fill="none" vector-effect="non-scaling-stroke" stroke-width="1" stroke="rgb(130,130,130)" stroke-linejoin="miter" stroke-linecap="square" stroke-miterlimit="2"/><rect x="372.25" y="266.625" width="2.563" height="7.875" transform="matrix(1,0,0,1,0,0)" fill="none" vector-effect="non-scaling-stroke" stroke-width="1" stroke="rgb(130,130,130)" stroke-linejoin="miter" stroke-linecap="square" stroke-miterlimit="2"/><rect x="377.25" y="266.625" width="2.562" height="7.875" transform="matrix(1,0,0,1,0,0)" fill="none" vector-effect="non-scaling-stroke" stroke-width="1" stroke="rgb(130,130,130)" stroke-linejoin="miter" stroke-linecap="square" stroke-miterlimit="2"/><rect x="382.25" y="266.625" width="2.562" height="7.875" transform="matrix(1,0,0,1,0,0)" fill="none" vector-effect="non-scaling-stroke" stroke-width="1" stroke="rgb(130,130,130)" stroke-linejoin="miter" stroke-linecap="square" stroke-miterlimit="2"/><rect x="387.25" y="266.625" width="2.563" height="7.875" transform="matrix(1,0,0,1,0,0)" fill="none" vector-effect="non-scaling-stroke" stroke-width="1" stroke="rgb(130,130,130)" stroke-linejoin="miter" stroke-linecap="square" stroke-miterlimit="2"/><rect x="362.25" y="266.625" width="2.813" height="2.813" transform="matrix(1,0,0,1,0,0)" fill="rgb(130,130,130)"/><rect x="367.25" y="266.625" width="2.813" height="2.813" transform="matrix(1,0,0,1,0,0)" fill="rgb(130,130,130)"/><rect x="372.25" y="266.625" width="2.813" height="2.813" transform="matrix(1,0,0,1,0,0)" fill="rgb(130,130,130)"/><rect x="377.25" y="266.625" width="2.813" height="2.813" transform="matrix(1,0,0,1,0,0)" fill="rgb(130,130,130)"/><rect x="382.25" y="266.625" width="2.813" height="2.813" transform="matrix(1,0,0,1,0,0)" fill="rgb(130,130,130)"/><rect x="387.25" y="266.625" width="2.813" height="2.813" transform="matrix(1,0,0,1,0,0)" fill="rgb(130,130,130)"/><path d=" M 242.68 652.858 Q 253.625 656.945 259.375 656.945 Q 265.125 656.945 275.18 652.858" fill="none" vector-effect="non-scaling-stroke" stroke-width="1" stroke="rgb(130,130,130)" stroke-linejoin="miter" stroke-linecap="square" stroke-miterlimit="3"/></g></g></svg>