<?xml version="1.0" encoding="UTF-8" standalone="no"?><!-- Generator: Gravit.io --><svg xmlns="http://www.w3.org/2000/svg" xmlns:xlink="http://www.w3.org/1999/xlink" style="isolation:isolate" viewBox="0 0 425.197 623.622" width="425.197pt" height="623.622pt"><defs><clipPath id="_clipPath_Ad93T4q3QAYg4MSncBOqXh687qcCMFqq"><rect width="425.197" height="623.622"/></clipPath></defs><g clip-path="url(#_clipPath_Ad93T4q3QAYg4MSncBOqXh687qcCMFqq)"><g style="isolation:isolate"><path d="M 103.696 23 L 298.304 23 C 320.213 23 338 40.787 338 62.696 L 338 564.304 C 338 586.213 320.213 604 298.304 604 L 103.696 604 C 81.787 604 64 586.213 64 564.304 L 64 62.696 C 64 40.787 81.787 23 103.696 23 Z" style="fill:none;stroke:#828282;stroke-width:2;stroke-linecap:square;stroke-miterlimit:2;"/><circle vector-effect="non-scaling-stroke" cx="171.90625000000003" cy="50.78124999999996" r="5.90625" fill="none" stroke-width="1.5" stroke="rgb(130,130,130)" stroke-linejoin="miter" stroke-linecap="butt" stroke-miterlimit="3"/><circle vector-effect="non-scaling-stroke" cx="127.65625" cy="50.15625" r="7.40625" fill="none" stroke-width="1.5" stroke="rgb(130,130,130)" stroke-linejoin="miter" stroke-linecap="butt" stroke-miterlimit="3"/><path d="M 126.077 33.333 L 171.59 33.333 C 181.015 33.333 188.667 40.985 188.667 50.41 L 188.667 51.257 C 188.667 60.682 181.015 68.333 171.59 68.333 L 126.077 68.333 C 116.652 68.333 109 60.682 109 51.257 L 109 50.41 C 109 40.985 116.652 33.333 126.077 33.333 Z" style="fill:none;stroke:#828282;stroke-width:2;stroke-linecap:square;stroke-miterlimit:2;"/><rect x="89.333" y="264.333" width="220" height="279.333" transform="matrix(1,0,0,1,0,0)" fill="none" vector-effect="non-scaling-stroke" stroke-width="1.5" stroke="rgb(130,130,130)" stroke-linejoin="miter" stroke-linecap="square" stroke-miterlimit="2"/><rect x="105.5" y="117.833" width="111.833" height="111.833" transform="matrix(1,0,0,1,0,0)" fill="none" vector-effect="non-scaling-stroke" stroke-width="1.5" stroke="rgb(130,130,130)" stroke-linejoin="miter" stroke-linecap="square" stroke-miterlimit="2"/><path d="M 241.55 107 L 271.95 107 C 273.081 107 274 107.919 274 109.05 L 274 125.45 C 274 126.581 273.081 127.5 271.95 127.5 L 241.55 127.5 C 240.419 127.5 239.5 126.581 239.5 125.45 L 239.5 109.05 C 239.5 107.919 240.419 107 241.55 107 Z" style="fill:none;stroke:#828282;stroke-width:1.5;stroke-linecap:square;stroke-miterlimit:2;"/><circle vector-effect="non-scaling-stroke" cx="245.8125" cy="112.75000000000009" r="1.546875" fill="rgb(130,130,130)"/><circle vector-effect="non-scaling-stroke" cx="245.81249999999994" cy="121.75000000000011" r="1.546875" fill="rgb(130,130,130)"/><circle vector-effect="non-scaling-stroke" cx="256.8124999999998" cy="112.75" r="1.546875" fill="rgb(130,130,130)"/><circle vector-effect="non-scaling-stroke" cx="256.8124999999999" cy="121.75000000000009" r="1.546875" fill="rgb(130,130,130)"/><circle vector-effect="non-scaling-stroke" cx="266.8124999999999" cy="112.75" r="1.546875" fill="rgb(130,130,130)"/><circle vector-effect="non-scaling-stroke" cx="266.81249999999994" cy="121.75000000000009" r="1.546875" fill="rgb(130,130,130)"/><rect x="260.5" y="151.25" width="34.5" height="20.5" transform="matrix(1,0,0,1,0,0)" fill="none" vector-effect="non-scaling-stroke" stroke-width="1.5" stroke="rgb(130,130,130)" stroke-linejoin="miter" stroke-linecap="square" stroke-miterlimit="2"/><rect x="259.812" y="216.25" width="42.437" height="45" transform="matrix(1,0,0,1,0,0)" fill="none" vector-effect="non-scaling-stroke" stroke-width="1.5" stroke="rgb(130,130,130)" stroke-linejoin="miter" stroke-linecap="square" stroke-miterlimit="2"/><path d=" M 265.25 261.25 Q 263.75 242.5 272.25 242.5 Q 280.75 242.5 290.25 242.5 Q 297.25 242.875 297.25 261.25" fill="none" vector-effect="non-scaling-stroke" stroke-width="1.5" stroke="rgb(130,130,130)" stroke-linejoin="miter" stroke-linecap="square" stroke-miterlimit="3"/><path d="M 256.683 559.5 L 280.035 559.5 C 283.112 559.5 285.609 561.998 285.609 565.074 L 285.609 578.176 C 285.609 581.252 283.112 583.75 280.035 583.75 L 256.683 583.75 C 253.607 583.75 251.109 581.252 251.109 578.176 L 251.109 565.074 C 251.109 561.998 253.607 559.5 256.683 559.5 Z" style="fill:none;stroke:#828282;stroke-width:1.5;stroke-linecap:square;stroke-miterlimit:2;"/><rect x="264.25" y="157.625" width="2.562" height="7.875" transform="matrix(1,0,0,1,0,0)" fill="none" vector-effect="non-scaling-stroke" stroke-width="1.5" stroke="rgb(130,130,130)" stroke-linejoin="miter" stroke-linecap="square" stroke-miterlimit="2"/><rect x="269.25" y="157.625" width="2.563" height="7.875" transform="matrix(1,0,0,1,0,0)" fill="none" vector-effect="non-scaling-stroke" stroke-width="1.5" stroke="rgb(130,130,130)" stroke-linejoin="miter" stroke-linecap="square" stroke-miterlimit="2"/><rect x="274.25" y="157.625" width="2.562" height="7.875" transform="matrix(1,0,0,1,0,0)" fill="none" vector-effect="non-scaling-stroke" stroke-width="1.5" stroke="rgb(130,130,130)" stroke-linejoin="miter" stroke-linecap="square" stroke-miterlimit="2"/><rect x="279.25" y="157.625" width="2.562" height="7.875" transform="matrix(1,0,0,1,0,0)" fill="none" vector-effect="non-scaling-stroke" stroke-width="1.5" stroke="rgb(130,130,130)" stroke-linejoin="miter" stroke-linecap="square" stroke-miterlimit="2"/><rect x="284.25" y="157.625" width="2.563" height="7.875" transform="matrix(1,0,0,1,0,0)" fill="none" vector-effect="non-scaling-stroke" stroke-width="1.5" stroke="rgb(130,130,130)" stroke-linejoin="miter" stroke-linecap="square" stroke-miterlimit="2"/><rect x="289.25" y="157.625" width="2.562" height="7.875" transform="matrix(1,0,0,1,0,0)" fill="none" vector-effect="non-scaling-stroke" stroke-width="1.5" stroke="rgb(130,130,130)" stroke-linejoin="miter" stroke-linecap="square" stroke-miterlimit="2"/><rect x="264.25" y="157.625" width="2.813" height="2.813" transform="matrix(1,0,0,1,0,0)" fill="rgb(130,130,130)"/><rect x="269.25" y="157.625" width="2.813" height="2.813" transform="matrix(1,0,0,1,0,0)" fill="rgb(130,130,130)"/><rect x="274.25" y="157.625" width="2.813" height="2.813" transform="matrix(1,0,0,1,0,0)" fill="rgb(130,130,130)"/><rect x="279.25" y="157.625" width="2.813" height="2.813" transform="matrix(1,0,0,1,0,0)" fill="rgb(130,130,130)"/><rect x="284.25" y="157.625" width="2.813" height="2.813" transform="matrix(1,0,0,1,0,0)" fill="rgb(130,130,130)"/><rect x="289.25" y="157.625" width="2.813" height="2.813" transform="matrix(1,0,0,1,0,0)" fill="rgb(130,130,130)"/><path d=" M 144.609 543.928 Q 155.555 548.016 161.305 548.016 Q 167.055 548.016 177.109 543.928" fill="none" vector-effect="non-scaling-stroke" stroke-width="2" stroke="rgb(130,130,130)" stroke-linejoin="bevel" stroke-linecap="round" stroke-miterlimit="3"/><path d=" M 111.928 151.008 L 44.858 141.914 L 45.362 138.198 L 112.432 147.292 L 113.517 139.292 L 121.485 145.455 L 129.453 151.619 L 120.131 155.438 L 110.81 159.257 L 111.928 151.008 Z " fill-rule="evenodd" fill="rgb(66,66,66)"/><circle vector-effect="non-scaling-stroke" cx="27.166666666666643" cy="136.33333333333326" r="13.666666666666686" fill="none" stroke-width="1" stroke="rgb(96,96,96)" stroke-linejoin="miter" stroke-linecap="square" stroke-miterlimit="3"/><text transform="matrix(1,0,0,1,21.113,142.614)" style="font-family:'Open Sans';font-weight:700;font-size:18px;font-style:normal;fill:#606060;stroke:none;">1</text><path d=" M 312.325 143.82 L 374.956 118.161 L 376.378 121.631 L 313.747 147.291 L 316.807 154.762 L 306.825 153.408 L 296.842 152.055 L 303.006 144.086 L 309.169 136.118 L 312.325 143.82 Z " fill-rule="evenodd" fill="rgb(66,66,66)"/><circle vector-effect="non-scaling-stroke" cx="391.66666666666646" cy="113.83333333333326" r="13.666666666666686" fill="none" stroke-width="1" stroke="rgb(96,96,96)" stroke-linejoin="miter" stroke-linecap="square" stroke-miterlimit="3"/><text transform="matrix(1,0,0,1,385.613,120.448)" style="font-family:'Open Sans';font-weight:700;font-size:18px;font-style:normal;fill:#606060;stroke:none;">3</text><path d=" M 308.08 256.971 L 370.51 283.114 L 369.062 286.573 L 306.631 260.43 L 303.512 267.877 L 297.411 259.861 L 291.309 251.845 L 301.302 250.569 L 311.295 249.293 L 308.08 256.971 Z " fill-rule="evenodd" fill="rgb(66,66,66)"/><circle vector-effect="non-scaling-stroke" cx="385.6666666666666" cy="291.83333333333326" r="13.666666666666686" fill="none" stroke-width="1" stroke="rgb(96,96,96)" stroke-linejoin="miter" stroke-linecap="square" stroke-miterlimit="3"/><text transform="matrix(1,0,0,1,380.738,298.864)" style="font-family:'Open Sans';font-weight:700;font-size:18px;font-style:normal;fill:#606060;stroke:none;">5</text><path d=" M 305.659 227.814 L 372.013 214.463 L 372.753 218.139 L 306.399 231.491 L 307.992 239.406 L 298.445 236.189 L 288.899 232.972 L 296.458 226.313 L 304.017 219.654 L 305.659 227.814 Z " fill-rule="evenodd" fill="rgb(66,66,66)"/><circle vector-effect="non-scaling-stroke" cx="388.16666666666663" cy="213.33333333333326" r="13.666666666666686" fill="none" stroke-width="1" stroke="rgb(96,96,96)" stroke-linejoin="miter" stroke-linecap="square" stroke-miterlimit="3"/><text transform="matrix(1,0,0,1,382.113,219.614)" style="font-family:'Open Sans';font-weight:700;font-size:18px;font-style:normal;fill:#606060;stroke:none;">4</text><path d=" M 291.951 93.231 L 345.807 52.235 L 348.078 55.219 L 294.222 96.214 L 299.112 102.639 L 289.12 103.915 L 279.127 105.191 L 283.018 95.899 L 286.909 86.607 L 291.951 93.231 Z " fill-rule="evenodd" fill="rgb(66,66,66)"/><circle vector-effect="non-scaling-stroke" cx="363.04166666666663" cy="44.45833333333326" r="13.666666666666686" fill="none" stroke-width="1" stroke="rgb(96,96,96)" stroke-linejoin="miter" stroke-linecap="square" stroke-miterlimit="3"/><text transform="matrix(1,0,0,1,356.988,50.739)" style="font-family:'Open Sans';font-weight:700;font-size:18px;font-style:normal;fill:#606060;stroke:none;">2</text></g></g></svg>