<?xml version="1.0" encoding="UTF-8" standalone="no"?><!-- Generator: Gravit.io --><svg xmlns="http://www.w3.org/2000/svg" xmlns:xlink="http://www.w3.org/1999/xlink" style="isolation:isolate" viewBox="0 0 425.197 623.622" width="425.197pt" height="623.622pt"><defs><clipPath id="_clipPath_OAo51H7ydeZ4LWvznmZCKXYm66xhQXmn"><rect width="425.197" height="623.622"/></clipPath></defs><g clip-path="url(#_clipPath_OAo51H7ydeZ4LWvznmZCKXYm66xhQXmn)"><g style="isolation:isolate"><path d="M 115.196 26 L 309.804 26 C 331.713 26 349.5 43.787 349.5 65.696 L 349.5 567.304 C 349.5 589.213 331.713 607 309.804 607 L 115.196 607 C 93.287 607 75.5 589.213 75.5 567.304 L 75.5 65.696 C 75.5 43.787 93.287 26 115.196 26 Z" style="fill:none;stroke:#828282;stroke-width:2;stroke-linecap:square;stroke-miterlimit:2;"/><rect x="69.5" y="122" width="5.75" height="69.75" transform="matrix(1,0,0,1,0,0)" fill="none" vector-effect="non-scaling-stroke" stroke-width="1" stroke="rgb(130,130,130)" stroke-linejoin="miter" stroke-linecap="square" stroke-miterlimit="2"/><rect x="69.5" y="221" width="5.75" height="33" transform="matrix(1,0,0,1,0,0)" fill="none" vector-effect="non-scaling-stroke" stroke-width="1" stroke="rgb(130,130,130)" stroke-linejoin="miter" stroke-linecap="square" stroke-miterlimit="2"/><circle vector-effect="non-scaling-stroke" cx="183.40624999999983" cy="53.781249999999936" r="5.90625" fill="none" stroke-width="1" stroke="rgb(130,130,130)" stroke-linejoin="miter" stroke-linecap="butt" stroke-miterlimit="3"/><circle vector-effect="non-scaling-stroke" cx="139.15625" cy="54.15624999999994" r="7.40625" fill="none" stroke-width="1" stroke="rgb(130,130,130)" stroke-linejoin="miter" stroke-linecap="butt" stroke-miterlimit="3"/><circle vector-effect="non-scaling-stroke" cx="129.53515625" cy="551.80859375" r="1.51171875" fill="rgb(130,130,130)"/><circle vector-effect="non-scaling-stroke" cx="129.53515625" cy="557.80859375" r="1.51171875" fill="rgb(130,130,130)"/><circle vector-effect="non-scaling-stroke" cx="129.53515625" cy="563.80859375" r="1.51171875" fill="rgb(130,130,130)"/><circle vector-effect="non-scaling-stroke" cx="135.53515625" cy="551.80859375" r="1.51171875" fill="rgb(130,130,130)"/><circle vector-effect="non-scaling-stroke" cx="135.53515625" cy="557.80859375" r="1.51171875" fill="rgb(130,130,130)"/><circle vector-effect="non-scaling-stroke" cx="135.53515625" cy="563.80859375" r="1.51171875" fill="rgb(130,130,130)"/><circle vector-effect="non-scaling-stroke" cx="141.53515625000003" cy="551.80859375" r="1.51171875" fill="rgb(130,130,130)"/><circle vector-effect="non-scaling-stroke" cx="141.53515625000003" cy="557.80859375" r="1.51171875" fill="rgb(130,130,130)"/><circle vector-effect="non-scaling-stroke" cx="141.53515625000003" cy="563.80859375" r="1.51171875" fill="rgb(130,130,130)"/><circle vector-effect="non-scaling-stroke" cx="147.53515624999997" cy="551.80859375" r="1.51171875" fill="rgb(130,130,130)"/><circle vector-effect="non-scaling-stroke" cx="147.53515624999997" cy="557.80859375" r="1.51171875" fill="rgb(130,130,130)"/><circle vector-effect="non-scaling-stroke" cx="147.53515624999997" cy="563.80859375" r="1.51171875" fill="rgb(130,130,130)"/><circle vector-effect="non-scaling-stroke" cx="153.53515624999997" cy="551.80859375" r="1.51171875" fill="rgb(130,130,130)"/><circle vector-effect="non-scaling-stroke" cx="153.53515624999997" cy="557.80859375" r="1.51171875" fill="rgb(130,130,130)"/><circle vector-effect="non-scaling-stroke" cx="153.53515624999997" cy="563.80859375" r="1.51171875" fill="rgb(130,130,130)"/><circle vector-effect="non-scaling-stroke" cx="159.53515624999997" cy="551.80859375" r="1.51171875" fill="rgb(130,130,130)"/><circle vector-effect="non-scaling-stroke" cx="159.53515624999997" cy="557.80859375" r="1.51171875" fill="rgb(130,130,130)"/><circle vector-effect="non-scaling-stroke" cx="159.53515624999997" cy="563.80859375" r="1.51171875" fill="rgb(130,130,130)"/><circle vector-effect="non-scaling-stroke" cx="165.53515625" cy="551.80859375" r="1.51171875" fill="rgb(130,130,130)"/><circle vector-effect="non-scaling-stroke" cx="165.53515625" cy="557.80859375" r="1.51171875" fill="rgb(130,130,130)"/><circle vector-effect="non-scaling-stroke" cx="165.53515625" cy="563.80859375" r="1.51171875" fill="rgb(130,130,130)"/><circle vector-effect="non-scaling-stroke" cx="171.53515624999994" cy="551.80859375" r="1.51171875" fill="rgb(130,130,130)"/><circle vector-effect="non-scaling-stroke" cx="171.53515624999994" cy="557.80859375" r="1.51171875" fill="rgb(130,130,130)"/><circle vector-effect="non-scaling-stroke" cx="171.53515624999994" cy="563.80859375" r="1.51171875" fill="rgb(130,130,130)"/><circle vector-effect="non-scaling-stroke" cx="177.53515624999986" cy="551.80859375" r="1.51171875" fill="rgb(130,130,130)"/><circle vector-effect="non-scaling-stroke" cx="177.53515624999986" cy="557.80859375" r="1.51171875" fill="rgb(130,130,130)"/><circle vector-effect="non-scaling-stroke" cx="177.53515624999986" cy="563.80859375" r="1.51171875" fill="rgb(130,130,130)"/><circle vector-effect="non-scaling-stroke" cx="183.53515624999986" cy="551.80859375" r="1.51171875" fill="rgb(130,130,130)"/><circle vector-effect="non-scaling-stroke" cx="183.53515624999986" cy="557.80859375" r="1.51171875" fill="rgb(130,130,130)"/><circle vector-effect="non-scaling-stroke" cx="183.53515624999986" cy="563.80859375" r="1.51171875" fill="rgb(130,130,130)"/><circle vector-effect="non-scaling-stroke" cx="189.53515624999986" cy="551.80859375" r="1.51171875" fill="rgb(130,130,130)"/><circle vector-effect="non-scaling-stroke" cx="189.53515624999986" cy="557.80859375" r="1.51171875" fill="rgb(130,130,130)"/><circle vector-effect="non-scaling-stroke" cx="189.53515624999986" cy="563.80859375" r="1.51171875" fill="rgb(130,130,130)"/><circle vector-effect="non-scaling-stroke" cx="195.53515624999986" cy="551.80859375" r="1.51171875" fill="rgb(130,130,130)"/><circle vector-effect="non-scaling-stroke" cx="195.53515624999986" cy="557.80859375" r="1.51171875" fill="rgb(130,130,130)"/><circle vector-effect="non-scaling-stroke" cx="195.53515624999986" cy="563.80859375" r="1.51171875" fill="rgb(130,130,130)"/><circle vector-effect="non-scaling-stroke" cx="201.5351562499998" cy="551.80859375" r="1.51171875" fill="rgb(130,130,130)"/><circle vector-effect="non-scaling-stroke" cx="201.5351562499998" cy="557.80859375" r="1.51171875" fill="rgb(130,130,130)"/><circle vector-effect="non-scaling-stroke" cx="201.5351562499998" cy="563.80859375" r="1.51171875" fill="rgb(130,130,130)"/><circle vector-effect="non-scaling-stroke" cx="225.5351562499999" cy="551.80859375" r="1.51171875" fill="rgb(130,130,130)"/><circle vector-effect="non-scaling-stroke" cx="225.5351562499999" cy="557.80859375" r="1.51171875" fill="rgb(130,130,130)"/><circle vector-effect="non-scaling-stroke" cx="225.5351562499999" cy="563.80859375" r="1.51171875" fill="rgb(130,130,130)"/><circle vector-effect="non-scaling-stroke" cx="231.5351562499999" cy="551.80859375" r="1.51171875" fill="rgb(130,130,130)"/><circle vector-effect="non-scaling-stroke" cx="231.5351562499999" cy="557.80859375" r="1.51171875" fill="rgb(130,130,130)"/><circle vector-effect="non-scaling-stroke" cx="231.5351562499999" cy="563.80859375" r="1.51171875" fill="rgb(130,130,130)"/><circle vector-effect="non-scaling-stroke" cx="237.5351562499999" cy="551.80859375" r="1.51171875" fill="rgb(130,130,130)"/><circle vector-effect="non-scaling-stroke" cx="237.5351562499999" cy="557.80859375" r="1.51171875" fill="rgb(130,130,130)"/><circle vector-effect="non-scaling-stroke" cx="237.5351562499999" cy="563.80859375" r="1.51171875" fill="rgb(130,130,130)"/><circle vector-effect="non-scaling-stroke" cx="243.5351562499999" cy="551.80859375" r="1.51171875" fill="rgb(130,130,130)"/><circle vector-effect="non-scaling-stroke" cx="243.5351562499999" cy="557.80859375" r="1.51171875" fill="rgb(130,130,130)"/><circle vector-effect="non-scaling-stroke" cx="243.5351562499999" cy="563.80859375" r="1.51171875" fill="rgb(130,130,130)"/><circle vector-effect="non-scaling-stroke" cx="249.5351562499999" cy="551.80859375" r="1.51171875" fill="rgb(130,130,130)"/><circle vector-effect="non-scaling-stroke" cx="249.5351562499999" cy="557.80859375" r="1.51171875" fill="rgb(130,130,130)"/><circle vector-effect="non-scaling-stroke" cx="249.5351562499999" cy="563.80859375" r="1.51171875" fill="rgb(130,130,130)"/><circle vector-effect="non-scaling-stroke" cx="255.5351562499999" cy="551.80859375" r="1.51171875" fill="rgb(130,130,130)"/><circle vector-effect="non-scaling-stroke" cx="255.5351562499999" cy="557.80859375" r="1.51171875" fill="rgb(130,130,130)"/><circle vector-effect="non-scaling-stroke" cx="255.5351562499999" cy="563.80859375" r="1.51171875" fill="rgb(130,130,130)"/><circle vector-effect="non-scaling-stroke" cx="261.5351562499999" cy="551.80859375" r="1.51171875" fill="rgb(130,130,130)"/><circle vector-effect="non-scaling-stroke" cx="261.5351562499999" cy="557.80859375" r="1.51171875" fill="rgb(130,130,130)"/><circle vector-effect="non-scaling-stroke" cx="261.5351562499999" cy="563.80859375" r="1.51171875" fill="rgb(130,130,130)"/><circle vector-effect="non-scaling-stroke" cx="267.53515624999983" cy="551.80859375" r="1.51171875" fill="rgb(130,130,130)"/><circle vector-effect="non-scaling-stroke" cx="267.53515624999983" cy="557.80859375" r="1.51171875" fill="rgb(130,130,130)"/><circle vector-effect="non-scaling-stroke" cx="267.53515624999983" cy="563.80859375" r="1.51171875" fill="rgb(130,130,130)"/><circle vector-effect="non-scaling-stroke" cx="273.5351562499998" cy="551.80859375" r="1.51171875" fill="rgb(130,130,130)"/><circle vector-effect="non-scaling-stroke" cx="273.5351562499998" cy="557.80859375" r="1.51171875" fill="rgb(130,130,130)"/><circle vector-effect="non-scaling-stroke" cx="273.5351562499998" cy="563.80859375" r="1.51171875" fill="rgb(130,130,130)"/><circle vector-effect="non-scaling-stroke" cx="279.5351562499998" cy="551.80859375" r="1.51171875" fill="rgb(130,130,130)"/><circle vector-effect="non-scaling-stroke" cx="279.5351562499998" cy="557.80859375" r="1.51171875" fill="rgb(130,130,130)"/><circle vector-effect="non-scaling-stroke" cx="279.5351562499998" cy="563.80859375" r="1.51171875" fill="rgb(130,130,130)"/><circle vector-effect="non-scaling-stroke" cx="285.5351562499998" cy="551.80859375" r="1.51171875" fill="rgb(130,130,130)"/><circle vector-effect="non-scaling-stroke" cx="285.5351562499998" cy="557.80859375" r="1.51171875" fill="rgb(130,130,130)"/><circle vector-effect="non-scaling-stroke" cx="285.5351562499998" cy="563.80859375" r="1.51171875" fill="rgb(130,130,130)"/><circle vector-effect="non-scaling-stroke" cx="291.5351562499998" cy="551.80859375" r="1.51171875" fill="rgb(130,130,130)"/><circle vector-effect="non-scaling-stroke" cx="291.5351562499998" cy="557.80859375" r="1.51171875" fill="rgb(130,130,130)"/><circle vector-effect="non-scaling-stroke" cx="291.5351562499998" cy="563.80859375" r="1.51171875" fill="rgb(130,130,130)"/><circle vector-effect="non-scaling-stroke" cx="207.53515624999986" cy="551.80859375" r="1.51171875" fill="rgb(130,130,130)"/><circle vector-effect="non-scaling-stroke" cx="207.53515624999986" cy="557.80859375" r="1.51171875" fill="rgb(130,130,130)"/><circle vector-effect="non-scaling-stroke" cx="207.53515624999986" cy="563.80859375" r="1.51171875" fill="rgb(130,130,130)"/><circle vector-effect="non-scaling-stroke" cx="213.5351562499999" cy="551.80859375" r="1.51171875" fill="rgb(130,130,130)"/><circle vector-effect="non-scaling-stroke" cx="213.5351562499999" cy="557.80859375" r="1.51171875" fill="rgb(130,130,130)"/><circle vector-effect="non-scaling-stroke" cx="213.5351562499999" cy="563.80859375" r="1.51171875" fill="rgb(130,130,130)"/><circle vector-effect="non-scaling-stroke" cx="219.5351562499998" cy="551.80859375" r="1.51171875" fill="rgb(130,130,130)"/><circle vector-effect="non-scaling-stroke" cx="219.5351562499998" cy="557.80859375" r="1.51171875" fill="rgb(130,130,130)"/><circle vector-effect="non-scaling-stroke" cx="219.5351562499998" cy="563.80859375" r="1.51171875" fill="rgb(130,130,130)"/><path d="M 137.577 36.333 L 183.09 36.333 C 192.515 36.333 200.167 43.985 200.167 53.41 L 200.167 54.257 C 200.167 63.682 192.515 71.333 183.09 71.333 L 137.577 71.333 C 128.152 71.333 120.5 63.682 120.5 54.257 L 120.5 53.41 C 120.5 43.985 128.152 36.333 137.577 36.333 Z" style="fill:none;stroke:#828282;stroke-width:2;stroke-linecap:square;stroke-miterlimit:2;"/><path d=" M 76.75 574.875 L 80.563 573.625 Q 84.254 585.458 88.25 589.938 Q 92.375 594.563 102.625 599.875 L 100.125 603.563" fill="none" vector-effect="non-scaling-stroke" stroke-width="2" stroke="rgb(130,130,130)" stroke-linejoin="miter" stroke-linecap="square" stroke-miterlimit="3"/><path d=" M 96.744 565.481 L 122.762 502.997 L 126.223 504.438 L 100.206 566.922 L 107.66 570.026 L 99.656 576.143 L 91.653 582.261 L 90.356 572.271 L 89.06 562.281 L 96.744 565.481 Z " fill-rule="evenodd" fill="rgb(66,66,66)"/></g></g></svg>