<?xml version="1.0" encoding="UTF-8" standalone="no"?><!-- Generator: Gravit.io --><svg xmlns="http://www.w3.org/2000/svg" xmlns:xlink="http://www.w3.org/1999/xlink" style="isolation:isolate" viewBox="0 0 595.276 841.89" width="595.276pt" height="841.89pt"><defs><clipPath id="_clipPath_5Wmd1lMyUF04K8HrjGASdrBlZSQPFNlT"><rect width="595.276" height="841.89"/></clipPath></defs><g clip-path="url(#_clipPath_5Wmd1lMyUF04K8HrjGASdrBlZSQPFNlT)"><g style="isolation:isolate"><path d="M 201.696 132 L 396.304 132 C 418.213 132 436 149.787 436 171.696 L 436 673.304 C 436 695.213 418.213 713 396.304 713 L 201.696 713 C 179.787 713 162 695.213 162 673.304 L 162 171.696 C 162 149.787 179.787 132 201.696 132 Z" style="fill:none;stroke:#828282;stroke-width:2;stroke-linecap:square;stroke-miterlimit:2;"/><rect x="156" y="228" width="5.75" height="69.75" transform="matrix(1,0,0,1,0,0)" fill="none" vector-effect="non-scaling-stroke" stroke-width="1" stroke="rgb(130,130,130)" stroke-linejoin="miter" stroke-linecap="square" stroke-miterlimit="2"/><rect x="156" y="327" width="5.75" height="33" transform="matrix(1,0,0,1,0,0)" fill="none" vector-effect="non-scaling-stroke" stroke-width="1" stroke="rgb(130,130,130)" stroke-linejoin="miter" stroke-linecap="square" stroke-miterlimit="2"/><circle vector-effect="non-scaling-stroke" cx="269.90625" cy="160.78125" r="5.90625" fill="none" stroke-width="1" stroke="rgb(130,130,130)" stroke-linejoin="miter" stroke-linecap="butt" stroke-miterlimit="3"/><circle vector-effect="non-scaling-stroke" cx="225.65625" cy="161.15625" r="7.40625" fill="none" stroke-width="1" stroke="rgb(130,130,130)" stroke-linejoin="miter" stroke-linecap="butt" stroke-miterlimit="3"/><circle vector-effect="non-scaling-stroke" cx="216.03515625" cy="657.8085937500001" r="1.51171875" fill="rgb(130,130,130)"/><circle vector-effect="non-scaling-stroke" cx="216.03515625" cy="663.8085937500001" r="1.51171875" fill="rgb(130,130,130)"/><circle vector-effect="non-scaling-stroke" cx="216.03515625" cy="669.8085937500001" r="1.51171875" fill="rgb(130,130,130)"/><circle vector-effect="non-scaling-stroke" cx="222.03515625" cy="657.8085937500001" r="1.51171875" fill="rgb(130,130,130)"/><circle vector-effect="non-scaling-stroke" cx="222.03515625" cy="663.8085937500001" r="1.51171875" fill="rgb(130,130,130)"/><circle vector-effect="non-scaling-stroke" cx="222.03515625" cy="669.8085937500001" r="1.51171875" fill="rgb(130,130,130)"/><circle vector-effect="non-scaling-stroke" cx="228.03515625000003" cy="657.8085937500001" r="1.51171875" fill="rgb(130,130,130)"/><circle vector-effect="non-scaling-stroke" cx="228.03515625000003" cy="663.8085937500001" r="1.51171875" fill="rgb(130,130,130)"/><circle vector-effect="non-scaling-stroke" cx="228.03515625000003" cy="669.8085937500001" r="1.51171875" fill="rgb(130,130,130)"/><circle vector-effect="non-scaling-stroke" cx="234.03515624999997" cy="657.8085937500001" r="1.51171875" fill="rgb(130,130,130)"/><circle vector-effect="non-scaling-stroke" cx="234.03515624999997" cy="663.8085937500001" r="1.51171875" fill="rgb(130,130,130)"/><circle vector-effect="non-scaling-stroke" cx="234.03515624999997" cy="669.8085937500001" r="1.51171875" fill="rgb(130,130,130)"/><circle vector-effect="non-scaling-stroke" cx="240.03515624999997" cy="657.8085937500001" r="1.51171875" fill="rgb(130,130,130)"/><circle vector-effect="non-scaling-stroke" cx="240.03515624999997" cy="663.8085937500001" r="1.51171875" fill="rgb(130,130,130)"/><circle vector-effect="non-scaling-stroke" cx="240.03515624999997" cy="669.8085937500001" r="1.51171875" fill="rgb(130,130,130)"/><circle vector-effect="non-scaling-stroke" cx="246.03515624999997" cy="657.8085937500001" r="1.51171875" fill="rgb(130,130,130)"/><circle vector-effect="non-scaling-stroke" cx="246.03515624999997" cy="663.8085937500001" r="1.51171875" fill="rgb(130,130,130)"/><circle vector-effect="non-scaling-stroke" cx="246.03515624999997" cy="669.8085937500001" r="1.51171875" fill="rgb(130,130,130)"/><circle vector-effect="non-scaling-stroke" cx="252.03515624999997" cy="657.8085937500001" r="1.51171875" fill="rgb(130,130,130)"/><circle vector-effect="non-scaling-stroke" cx="252.03515624999997" cy="663.8085937500001" r="1.51171875" fill="rgb(130,130,130)"/><circle vector-effect="non-scaling-stroke" cx="252.03515624999997" cy="669.8085937500001" r="1.51171875" fill="rgb(130,130,130)"/><circle vector-effect="non-scaling-stroke" cx="258.03515624999994" cy="657.8085937500001" r="1.51171875" fill="rgb(130,130,130)"/><circle vector-effect="non-scaling-stroke" cx="258.03515624999994" cy="663.8085937500001" r="1.51171875" fill="rgb(130,130,130)"/><circle vector-effect="non-scaling-stroke" cx="258.03515624999994" cy="669.8085937500001" r="1.51171875" fill="rgb(130,130,130)"/><circle vector-effect="non-scaling-stroke" cx="264.0351562499999" cy="657.8085937500001" r="1.51171875" fill="rgb(130,130,130)"/><circle vector-effect="non-scaling-stroke" cx="264.0351562499999" cy="663.8085937500001" r="1.51171875" fill="rgb(130,130,130)"/><circle vector-effect="non-scaling-stroke" cx="264.0351562499999" cy="669.8085937500001" r="1.51171875" fill="rgb(130,130,130)"/><circle vector-effect="non-scaling-stroke" cx="270.0351562499999" cy="657.8085937500001" r="1.51171875" fill="rgb(130,130,130)"/><circle vector-effect="non-scaling-stroke" cx="270.0351562499999" cy="663.8085937500001" r="1.51171875" fill="rgb(130,130,130)"/><circle vector-effect="non-scaling-stroke" cx="270.0351562499999" cy="669.8085937500001" r="1.51171875" fill="rgb(130,130,130)"/><circle vector-effect="non-scaling-stroke" cx="276.0351562499999" cy="657.8085937500001" r="1.51171875" fill="rgb(130,130,130)"/><circle vector-effect="non-scaling-stroke" cx="276.0351562499999" cy="663.8085937500001" r="1.51171875" fill="rgb(130,130,130)"/><circle vector-effect="non-scaling-stroke" cx="276.0351562499999" cy="669.8085937500001" r="1.51171875" fill="rgb(130,130,130)"/><circle vector-effect="non-scaling-stroke" cx="282.0351562499999" cy="657.8085937500001" r="1.51171875" fill="rgb(130,130,130)"/><circle vector-effect="non-scaling-stroke" cx="282.0351562499999" cy="663.8085937500001" r="1.51171875" fill="rgb(130,130,130)"/><circle vector-effect="non-scaling-stroke" cx="282.0351562499999" cy="669.8085937500001" r="1.51171875" fill="rgb(130,130,130)"/><circle vector-effect="non-scaling-stroke" cx="288.0351562499999" cy="657.8085937500001" r="1.51171875" fill="rgb(130,130,130)"/><circle vector-effect="non-scaling-stroke" cx="288.0351562499999" cy="663.8085937500001" r="1.51171875" fill="rgb(130,130,130)"/><circle vector-effect="non-scaling-stroke" cx="288.0351562499999" cy="669.8085937500001" r="1.51171875" fill="rgb(130,130,130)"/><circle vector-effect="non-scaling-stroke" cx="312.0351562499999" cy="657.8085937500001" r="1.51171875" fill="rgb(130,130,130)"/><circle vector-effect="non-scaling-stroke" cx="312.0351562499999" cy="663.8085937500001" r="1.51171875" fill="rgb(130,130,130)"/><circle vector-effect="non-scaling-stroke" cx="312.0351562499999" cy="669.8085937500001" r="1.51171875" fill="rgb(130,130,130)"/><circle vector-effect="non-scaling-stroke" cx="318.0351562499999" cy="657.8085937500001" r="1.51171875" fill="rgb(130,130,130)"/><circle vector-effect="non-scaling-stroke" cx="318.0351562499999" cy="663.8085937500001" r="1.51171875" fill="rgb(130,130,130)"/><circle vector-effect="non-scaling-stroke" cx="318.0351562499999" cy="669.8085937500001" r="1.51171875" fill="rgb(130,130,130)"/><circle vector-effect="non-scaling-stroke" cx="324.0351562499999" cy="657.8085937500001" r="1.51171875" fill="rgb(130,130,130)"/><circle vector-effect="non-scaling-stroke" cx="324.0351562499999" cy="663.8085937500001" r="1.51171875" fill="rgb(130,130,130)"/><circle vector-effect="non-scaling-stroke" cx="324.0351562499999" cy="669.8085937500001" r="1.51171875" fill="rgb(130,130,130)"/><circle vector-effect="non-scaling-stroke" cx="330.0351562499999" cy="657.8085937500001" r="1.51171875" fill="rgb(130,130,130)"/><circle vector-effect="non-scaling-stroke" cx="330.0351562499999" cy="663.8085937500001" r="1.51171875" fill="rgb(130,130,130)"/><circle vector-effect="non-scaling-stroke" cx="330.0351562499999" cy="669.8085937500001" r="1.51171875" fill="rgb(130,130,130)"/><circle vector-effect="non-scaling-stroke" cx="336.0351562499999" cy="657.8085937500001" r="1.51171875" fill="rgb(130,130,130)"/><circle vector-effect="non-scaling-stroke" cx="336.0351562499999" cy="663.8085937500001" r="1.51171875" fill="rgb(130,130,130)"/><circle vector-effect="non-scaling-stroke" cx="336.0351562499999" cy="669.8085937500001" r="1.51171875" fill="rgb(130,130,130)"/><circle vector-effect="non-scaling-stroke" cx="342.0351562499999" cy="657.8085937500001" r="1.51171875" fill="rgb(130,130,130)"/><circle vector-effect="non-scaling-stroke" cx="342.0351562499999" cy="663.8085937500001" r="1.51171875" fill="rgb(130,130,130)"/><circle vector-effect="non-scaling-stroke" cx="342.0351562499999" cy="669.8085937500001" r="1.51171875" fill="rgb(130,130,130)"/><circle vector-effect="non-scaling-stroke" cx="348.0351562499999" cy="657.8085937500001" r="1.51171875" fill="rgb(130,130,130)"/><circle vector-effect="non-scaling-stroke" cx="348.0351562499999" cy="663.8085937500001" r="1.51171875" fill="rgb(130,130,130)"/><circle vector-effect="non-scaling-stroke" cx="348.0351562499999" cy="669.8085937500001" r="1.51171875" fill="rgb(130,130,130)"/><circle vector-effect="non-scaling-stroke" cx="354.03515624999983" cy="657.8085937500001" r="1.51171875" fill="rgb(130,130,130)"/><circle vector-effect="non-scaling-stroke" cx="354.03515624999983" cy="663.8085937500001" r="1.51171875" fill="rgb(130,130,130)"/><circle vector-effect="non-scaling-stroke" cx="354.03515624999983" cy="669.8085937500001" r="1.51171875" fill="rgb(130,130,130)"/><circle vector-effect="non-scaling-stroke" cx="360.0351562499998" cy="657.8085937500001" r="1.51171875" fill="rgb(130,130,130)"/><circle vector-effect="non-scaling-stroke" cx="360.0351562499998" cy="663.8085937500001" r="1.51171875" fill="rgb(130,130,130)"/><circle vector-effect="non-scaling-stroke" cx="360.0351562499998" cy="669.8085937500001" r="1.51171875" fill="rgb(130,130,130)"/><circle vector-effect="non-scaling-stroke" cx="366.0351562499998" cy="657.8085937500001" r="1.51171875" fill="rgb(130,130,130)"/><circle vector-effect="non-scaling-stroke" cx="366.0351562499998" cy="663.8085937500001" r="1.51171875" fill="rgb(130,130,130)"/><circle vector-effect="non-scaling-stroke" cx="366.0351562499998" cy="669.8085937500001" r="1.51171875" fill="rgb(130,130,130)"/><circle vector-effect="non-scaling-stroke" cx="372.0351562499998" cy="657.8085937500001" r="1.51171875" fill="rgb(130,130,130)"/><circle vector-effect="non-scaling-stroke" cx="372.0351562499998" cy="663.8085937500001" r="1.51171875" fill="rgb(130,130,130)"/><circle vector-effect="non-scaling-stroke" cx="372.0351562499998" cy="669.8085937500001" r="1.51171875" fill="rgb(130,130,130)"/><circle vector-effect="non-scaling-stroke" cx="378.0351562499998" cy="657.8085937500001" r="1.51171875" fill="rgb(130,130,130)"/><circle vector-effect="non-scaling-stroke" cx="378.0351562499998" cy="663.8085937500001" r="1.51171875" fill="rgb(130,130,130)"/><circle vector-effect="non-scaling-stroke" cx="378.0351562499998" cy="669.8085937500001" r="1.51171875" fill="rgb(130,130,130)"/><circle vector-effect="non-scaling-stroke" cx="294.0351562499999" cy="657.8085937500001" r="1.51171875" fill="rgb(130,130,130)"/><circle vector-effect="non-scaling-stroke" cx="294.0351562499999" cy="663.8085937500001" r="1.51171875" fill="rgb(130,130,130)"/><circle vector-effect="non-scaling-stroke" cx="294.0351562499999" cy="669.8085937500001" r="1.51171875" fill="rgb(130,130,130)"/><circle vector-effect="non-scaling-stroke" cx="300.0351562499999" cy="657.8085937500001" r="1.51171875" fill="rgb(130,130,130)"/><circle vector-effect="non-scaling-stroke" cx="300.0351562499999" cy="663.8085937500001" r="1.51171875" fill="rgb(130,130,130)"/><circle vector-effect="non-scaling-stroke" cx="300.0351562499999" cy="669.8085937500001" r="1.51171875" fill="rgb(130,130,130)"/><circle vector-effect="non-scaling-stroke" cx="306.03515624999983" cy="657.8085937500001" r="1.51171875" fill="rgb(130,130,130)"/><circle vector-effect="non-scaling-stroke" cx="306.03515624999983" cy="663.8085937500001" r="1.51171875" fill="rgb(130,130,130)"/><circle vector-effect="non-scaling-stroke" cx="306.03515624999983" cy="669.8085937500001" r="1.51171875" fill="rgb(130,130,130)"/><path d="M 224.077 142.333 L 269.59 142.333 C 279.015 142.333 286.667 149.985 286.667 159.41 L 286.667 160.257 C 286.667 169.682 279.015 177.333 269.59 177.333 L 224.077 177.333 C 214.652 177.333 207 169.682 207 160.257 L 207 159.41 C 207 149.985 214.652 142.333 224.077 142.333 Z" style="fill:none;stroke:#828282;stroke-width:2;stroke-linecap:square;stroke-miterlimit:2;"/><rect x="286.667" y="708" width="32.88" height="5" transform="matrix(1,0,0,1,0,0)" fill="none" vector-effect="non-scaling-stroke" stroke-width="1" stroke="rgb(130,130,130)" stroke-linejoin="miter" stroke-linecap="square" stroke-miterlimit="2"/><path d=" M 162 662.75 C 161.862 691.254 183.25 712.875 205.625 713" fill="none" vector-effect="non-scaling-stroke" stroke-width="2" stroke="rgb(130,130,130)" stroke-linejoin="miter" stroke-linecap="square" stroke-miterlimit="3"/></g></g></svg>