<?xml version="1.0" encoding="UTF-8" standalone="no"?><!-- Generator: Gravit.io --><svg xmlns="http://www.w3.org/2000/svg" xmlns:xlink="http://www.w3.org/1999/xlink" style="isolation:isolate" viewBox="0 0 849.547 839.311" width="849.547pt" height="839.311pt"><defs><clipPath id="_clipPath_nXkBGyVP7oDMabyPMw6Zs8iTfsEe2RHI"><rect width="849.547" height="839.311"/></clipPath></defs><g clip-path="url(#_clipPath_nXkBGyVP7oDMabyPMw6Zs8iTfsEe2RHI)"><g style="isolation:isolate"><path d="M 843.734 138.281 L 843.734 138.281 C 846.942 138.281 849.547 140.886 849.547 144.094 L 849.547 238.125 C 849.547 241.333 846.942 243.938 843.734 243.938 L 843.734 243.938 C 840.526 243.938 837.922 241.333 837.922 238.125 L 837.922 144.094 C 837.922 140.886 840.526 138.281 843.734 138.281 Z" style="stroke:none;fill:#363636;stroke-miterlimit:10;"/><path d="M 842.009 278.25 L 845.459 278.25 C 847.715 278.25 849.547 280.082 849.547 282.338 L 849.547 326.412 C 849.547 328.668 847.715 330.5 845.459 330.5 L 842.009 330.5 C 839.753 330.5 837.922 328.668 837.922 326.412 L 837.922 282.338 C 837.922 280.082 839.753 278.25 842.009 278.25 Z" style="stroke:none;fill:#363636;stroke-miterlimit:10;"/><path d="M 513.561 0 L 793.908 0 C 822.477 0 845.672 23.195 845.672 51.764 L 845.672 787.236 C 845.672 815.805 822.477 839 793.908 839 L 513.561 839 C 484.992 839 461.797 815.805 461.797 787.236 L 461.797 51.764 C 461.797 23.195 484.992 0 513.561 0 Z" style="stroke:none;fill:#363636;stroke-miterlimit:10;"/><rect x="472.098" y="58.916" width="362.426" height="725.045" transform="matrix(1,0,0,1,0,0)" fill="rgb(0,0,0)"/><circle vector-effect="non-scaling-stroke" cx="714.9921874999998" cy="32.320312500000114" r="8.5078125" fill="rgb(59,62,67)"/><path d="M 634.133 27.469 L 675.758 27.469 C 677.97 27.469 679.766 29.265 679.766 31.477 L 679.766 31.477 C 679.766 33.689 677.97 35.484 675.758 35.484 L 634.133 35.484 C 631.921 35.484 630.125 33.689 630.125 31.477 L 630.125 31.477 C 630.125 29.265 631.921 27.469 634.133 27.469 Z" style="stroke:none;fill:#212429;stroke-miterlimit:10;"/></g><g style="isolation:isolate"><path d="M 5.812 138.592 L 5.812 138.592 C 2.604 138.592 0 141.196 0 144.404 L 0 238.436 C 0 241.644 2.604 244.248 5.812 244.248 L 5.812 244.248 C 9.021 244.248 11.625 241.644 11.625 238.436 L 11.625 144.404 C 11.625 141.196 9.021 138.592 5.812 138.592 Z" style="stroke:none;fill:#363636;stroke-miterlimit:10;"/><path d="M 7.537 278.561 L 4.088 278.561 C 1.832 278.561 0 280.392 0 282.648 L 0 326.723 C 0 328.979 1.832 330.811 4.088 330.811 L 7.537 330.811 C 9.793 330.811 11.625 328.979 11.625 326.723 L 11.625 282.648 C 11.625 280.392 9.793 278.561 7.537 278.561 Z" style="stroke:none;fill:#363636;stroke-miterlimit:10;"/><path d=" M 335.986 0.311 L 55.639 0.311 C 27.07 0.311 3.875 23.505 3.875 52.075 L 3.875 787.547 C 3.875 816.116 27.07 839.311 55.639 839.311 L 179.652 839.311 L 182.183 834.938 L 228.402 834.938 L 231.152 839.311 L 335.986 839.311 C 364.555 839.311 387.75 816.116 387.75 787.547 L 387.75 52.075 C 387.75 23.505 364.555 0.311 335.986 0.311 Z " fill="rgb(54,54,54)"/><path d="M 98.933 14.25 L 161.933 14.25 C 174.61 14.25 184.902 24.542 184.902 37.219 L 184.902 37.219 C 184.902 49.896 174.61 60.188 161.933 60.188 L 98.933 60.188 C 86.256 60.188 75.964 49.896 75.964 37.219 L 75.964 37.219 C 75.964 24.542 86.256 14.25 98.933 14.25 Z" style="stroke:none;fill:#212121;stroke-miterlimit:10;"/><circle vector-effect="non-scaling-stroke" cx="167.12417140151518" cy="36.20040246212176" r="9.597656250000085" fill="rgb(210,210,210)"/><circle vector-effect="non-scaling-stroke" cx="98.68667140151508" cy="36.20040246212176" r="11.402343749999886" fill="rgb(210,210,210)"/><g style="isolation:isolate"><path d=" M 128.485 24.576 L 130.81 21.918 C 130.863 21.858 130.949 21.857 131.003 21.915 L 133.394 24.506 C 133.448 24.565 133.434 24.64 133.362 24.675 L 131.106 25.771 C 131.035 25.805 130.918 25.807 130.846 25.775 L 128.522 24.742 C 128.449 24.71 128.433 24.635 128.485 24.576 Z " fill="rgb(255,255,255)"/><path d=" M 126.037 25.176 L 124.816 28.179 C 124.786 28.253 124.821 28.287 124.894 28.255 L 129.098 26.451 C 129.171 26.42 129.171 26.369 129.098 26.338 L 126.223 25.1 C 126.15 25.069 126.067 25.103 126.037 25.176 Z " fill="rgb(255,255,255)"/><path d=" M 122.211 29.821 L 122.176 35.713 C 122.176 35.792 122.235 35.831 122.308 35.8 L 129.192 32.859 C 129.265 32.828 129.265 32.777 129.193 32.745 L 122.343 29.735 C 122.27 29.703 122.211 29.742 122.211 29.821 Z " fill="rgb(255,255,255)"/><path d=" M 120.795 36.491 L 123.341 42.478 C 123.372 42.551 123.456 42.585 123.529 42.554 L 129.264 40.116 C 129.337 40.085 129.337 40.034 129.264 40.003 L 120.871 36.416 C 120.798 36.385 120.764 36.418 120.795 36.491 Z " fill="rgb(255,255,255)"/><path d=" M 124.678 29.476 L 130.881 26.789 C 130.954 26.757 131.072 26.758 131.144 26.791 L 137.097 29.475 C 137.169 29.507 137.169 29.56 137.097 29.592 L 131.036 32.313 C 130.964 32.345 130.846 32.345 130.774 32.313 L 124.678 29.592 C 124.605 29.56 124.606 29.508 124.678 29.476 Z " fill="rgb(255,255,255)"/><path d=" M 123.888 36.338 L 130.773 33.327 C 130.846 33.296 130.964 33.295 131.037 33.327 L 137.958 36.338 C 138.031 36.369 138.031 36.421 137.958 36.453 L 130.965 39.534 C 130.892 39.566 130.775 39.566 130.702 39.533 L 123.887 36.454 C 123.815 36.422 123.815 36.369 123.888 36.338 Z " fill="rgb(255,255,255)"/><path d=" M 124.677 43.269 L 130.81 40.478 C 130.882 40.445 131 40.445 131.072 40.477 L 137.204 43.198 C 137.277 43.231 137.277 43.283 137.204 43.314 L 131.647 45.75 C 131.575 45.781 131.516 45.872 131.517 45.951 L 131.55 48.933 C 131.551 49.012 131.487 49.076 131.408 49.076 L 130.402 49.076 C 130.323 49.076 130.258 49.012 130.258 48.933 L 130.258 45.951 C 130.258 45.872 130.199 45.782 130.127 45.75 L 124.678 43.386 C 124.606 43.354 124.605 43.302 124.677 43.269 Z " fill="rgb(255,255,255)"/><path d=" M 135.609 25.176 L 136.83 28.179 C 136.859 28.253 136.825 28.287 136.752 28.255 L 132.548 26.451 C 132.475 26.42 132.475 26.369 132.548 26.338 L 135.422 25.1 C 135.495 25.069 135.579 25.103 135.609 25.176 Z " fill="rgb(255,255,255)"/><path d=" M 139.435 29.821 L 139.469 35.713 C 139.47 35.792 139.411 35.831 139.338 35.8 L 132.453 32.859 C 132.38 32.828 132.38 32.777 132.453 32.745 L 139.303 29.735 C 139.375 29.703 139.435 29.742 139.435 29.821 Z " fill="rgb(255,255,255)"/><path d=" M 140.851 36.491 L 138.305 42.478 C 138.274 42.551 138.19 42.585 138.117 42.554 L 132.382 40.116 C 132.309 40.085 132.309 40.034 132.382 40.003 L 140.775 36.416 C 140.848 36.385 140.882 36.418 140.851 36.491 Z " fill="rgb(255,255,255)"/></g><g style="isolation:isolate"/><g style="isolation:isolate"><circle vector-effect="non-scaling-stroke" cx="87.44839015151527" cy="771.6093749999999" r="2.976562500000014" fill="rgb(0,0,0)"/><circle vector-effect="non-scaling-stroke" cx="87.44839015151527" cy="780.2578124999997" r="2.976562500000014" fill="rgb(0,0,0)"/><circle vector-effect="non-scaling-stroke" cx="87.44839015151527" cy="780.2578125000003" r="2.976562500000014" fill="rgb(0,0,0)"/><circle vector-effect="non-scaling-stroke" cx="87.44839015151527" cy="788.9062500000001" r="2.976562500000014" fill="rgb(0,0,0)"/><path d=" M 104.745 768.633 C 106.388 768.633 107.722 769.967 107.722 771.609 C 107.722 773.252 106.388 774.586 104.745 774.586 C 103.102 774.586 101.769 773.252 101.769 771.609 C 101.769 769.967 103.102 768.633 104.745 768.633 Z " fill="rgb(0,0,0)"/><path d=" M 96.097 768.633 C 97.74 768.633 99.073 769.967 99.073 771.609 C 99.073 773.252 97.74 774.586 96.097 774.586 C 94.454 774.586 93.12 773.252 93.12 771.609 C 93.12 769.967 94.454 768.633 96.097 768.633 Z " fill="rgb(0,0,0)"/><path d=" M 96.097 768.633 C 97.74 768.633 99.073 769.967 99.073 771.609 C 99.073 773.252 97.74 774.586 96.097 774.586 C 94.454 774.586 93.12 773.252 93.12 771.609 C 93.12 769.967 94.454 768.633 96.097 768.633 Z " fill="rgb(0,0,0)"/><path d=" M 104.745 777.281 C 106.388 777.281 107.722 778.615 107.722 780.258 C 107.722 781.901 106.388 783.234 104.745 783.234 C 103.102 783.234 101.769 781.901 101.769 780.258 C 101.769 778.615 103.102 777.281 104.745 777.281 Z " fill="rgb(0,0,0)"/><path d=" M 96.097 777.281 C 97.74 777.281 99.073 778.615 99.073 780.258 C 99.073 781.901 97.74 783.234 96.097 783.234 C 94.454 783.234 93.12 781.901 93.12 780.258 C 93.12 778.615 94.454 777.281 96.097 777.281 Z " fill="rgb(0,0,0)"/><path d=" M 96.097 777.281 C 97.74 777.281 99.073 778.615 99.073 780.258 C 99.073 781.901 97.74 783.234 96.097 783.234 C 94.454 783.234 93.12 781.901 93.12 780.258 C 93.12 778.615 94.454 777.281 96.097 777.281 Z " fill="rgb(0,0,0)"/><path d=" M 104.745 785.824 C 106.388 785.824 107.722 787.158 107.722 788.801 C 107.722 790.444 106.388 791.777 104.745 791.777 C 103.102 791.777 101.769 790.444 101.769 788.801 C 101.769 787.158 103.102 785.824 104.745 785.824 Z " fill="rgb(0,0,0)"/><path d=" M 96.097 785.824 C 97.74 785.824 99.073 787.158 99.073 788.801 C 99.073 790.444 97.74 791.777 96.097 791.777 C 94.454 791.777 93.12 790.444 93.12 788.801 C 93.12 787.158 94.454 785.824 96.097 785.824 Z " fill="rgb(0,0,0)"/><path d=" M 96.097 785.824 C 97.74 785.824 99.073 787.158 99.073 788.801 C 99.073 790.444 97.74 791.777 96.097 791.777 C 94.454 791.777 93.12 790.444 93.12 788.801 C 93.12 787.158 94.454 785.824 96.097 785.824 Z " fill="rgb(0,0,0)"/><circle vector-effect="non-scaling-stroke" cx="104.74526515151572" cy="780.2578124999995" r="2.976562500000014" fill="rgb(0,0,0)"/><path d=" M 122.042 768.633 C 123.685 768.633 125.019 769.967 125.019 771.609 C 125.019 773.252 123.685 774.586 122.042 774.586 C 120.399 774.586 119.066 773.252 119.066 771.609 C 119.066 769.967 120.399 768.633 122.042 768.633 Z " fill="rgb(0,0,0)"/><path d=" M 113.394 768.633 C 115.037 768.633 116.37 769.967 116.37 771.609 C 116.37 773.252 115.037 774.586 113.394 774.586 C 111.751 774.586 110.417 773.252 110.417 771.609 C 110.417 769.967 111.751 768.633 113.394 768.633 Z " fill="rgb(0,0,0)"/><path d=" M 113.394 768.633 C 115.037 768.633 116.37 769.967 116.37 771.609 C 116.37 773.252 115.037 774.586 113.394 774.586 C 111.751 774.586 110.417 773.252 110.417 771.609 C 110.417 769.967 111.751 768.633 113.394 768.633 Z " fill="rgb(0,0,0)"/><path d=" M 122.042 777.281 C 123.685 777.281 125.019 778.615 125.019 780.258 C 125.019 781.901 123.685 783.234 122.042 783.234 C 120.399 783.234 119.066 781.901 119.066 780.258 C 119.066 778.615 120.399 777.281 122.042 777.281 Z " fill="rgb(0,0,0)"/><path d=" M 113.394 777.281 C 115.037 777.281 116.37 778.615 116.37 780.258 C 116.37 781.901 115.037 783.234 113.394 783.234 C 111.751 783.234 110.417 781.901 110.417 780.258 C 110.417 778.615 111.751 777.281 113.394 777.281 Z " fill="rgb(0,0,0)"/><path d=" M 113.394 777.281 C 115.037 777.281 116.37 778.615 116.37 780.258 C 116.37 781.901 115.037 783.234 113.394 783.234 C 111.751 783.234 110.417 781.901 110.417 780.258 C 110.417 778.615 111.751 777.281 113.394 777.281 Z " fill="rgb(0,0,0)"/><path d=" M 122.042 785.824 C 123.685 785.824 125.019 787.158 125.019 788.801 C 125.019 790.444 123.685 791.777 122.042 791.777 C 120.399 791.777 119.066 790.444 119.066 788.801 C 119.066 787.158 120.399 785.824 122.042 785.824 Z " fill="rgb(0,0,0)"/><path d=" M 113.394 785.824 C 115.037 785.824 116.37 787.158 116.37 788.801 C 116.37 790.444 115.037 791.777 113.394 791.777 C 111.751 791.777 110.417 790.444 110.417 788.801 C 110.417 787.158 111.751 785.824 113.394 785.824 Z " fill="rgb(0,0,0)"/><path d=" M 113.394 785.824 C 115.037 785.824 116.37 787.158 116.37 788.801 C 116.37 790.444 115.037 791.777 113.394 791.777 C 111.751 791.777 110.417 790.444 110.417 788.801 C 110.417 787.158 111.751 785.824 113.394 785.824 Z " fill="rgb(0,0,0)"/><circle vector-effect="non-scaling-stroke" cx="122.04214015151621" cy="780.2578124999995" r="2.976562500000014" fill="rgb(0,0,0)"/><path d=" M 139.339 768.633 C 140.982 768.633 142.316 769.967 142.316 771.609 C 142.316 773.252 140.982 774.586 139.339 774.586 C 137.696 774.586 136.362 773.252 136.362 771.609 C 136.362 769.967 137.696 768.633 139.339 768.633 Z " fill="rgb(0,0,0)"/><path d=" M 130.691 768.633 C 132.333 768.633 133.667 769.967 133.667 771.609 C 133.667 773.252 132.333 774.586 130.691 774.586 C 129.048 774.586 127.714 773.252 127.714 771.609 C 127.714 769.967 129.048 768.633 130.691 768.633 Z " fill="rgb(0,0,0)"/><path d=" M 130.691 768.633 C 132.333 768.633 133.667 769.967 133.667 771.609 C 133.667 773.252 132.333 774.586 130.691 774.586 C 129.048 774.586 127.714 773.252 127.714 771.609 C 127.714 769.967 129.048 768.633 130.691 768.633 Z " fill="rgb(0,0,0)"/><path d=" M 139.339 777.281 C 140.982 777.281 142.316 778.615 142.316 780.258 C 142.316 781.901 140.982 783.234 139.339 783.234 C 137.696 783.234 136.362 781.901 136.362 780.258 C 136.362 778.615 137.696 777.281 139.339 777.281 Z " fill="rgb(0,0,0)"/><path d=" M 130.691 777.281 C 132.333 777.281 133.667 778.615 133.667 780.258 C 133.667 781.901 132.333 783.234 130.691 783.234 C 129.048 783.234 127.714 781.901 127.714 780.258 C 127.714 778.615 129.048 777.281 130.691 777.281 Z " fill="rgb(0,0,0)"/><path d=" M 130.691 777.281 C 132.333 777.281 133.667 778.615 133.667 780.258 C 133.667 781.901 132.333 783.234 130.691 783.234 C 129.048 783.234 127.714 781.901 127.714 780.258 C 127.714 778.615 129.048 777.281 130.691 777.281 Z " fill="rgb(0,0,0)"/><path d=" M 139.339 785.824 C 140.982 785.824 142.316 787.158 142.316 788.801 C 142.316 790.444 140.982 791.777 139.339 791.777 C 137.696 791.777 136.362 790.444 136.362 788.801 C 136.362 787.158 137.696 785.824 139.339 785.824 Z " fill="rgb(0,0,0)"/><path d=" M 130.691 785.824 C 132.333 785.824 133.667 787.158 133.667 788.801 C 133.667 790.444 132.333 791.777 130.691 791.777 C 129.048 791.777 127.714 790.444 127.714 788.801 C 127.714 787.158 129.048 785.824 130.691 785.824 Z " fill="rgb(0,0,0)"/><path d=" M 130.691 785.824 C 132.333 785.824 133.667 787.158 133.667 788.801 C 133.667 790.444 132.333 791.777 130.691 791.777 C 129.048 791.777 127.714 790.444 127.714 788.801 C 127.714 787.158 129.048 785.824 130.691 785.824 Z " fill="rgb(0,0,0)"/><circle vector-effect="non-scaling-stroke" cx="139.3390151515167" cy="780.2578124999997" r="2.9765625" fill="rgb(0,0,0)"/><path d=" M 156.636 768.633 C 158.279 768.633 159.612 769.967 159.612 771.609 C 159.612 773.252 158.279 774.586 156.636 774.586 C 154.993 774.586 153.659 773.252 153.659 771.609 C 153.659 769.967 154.993 768.633 156.636 768.633 Z " fill="rgb(0,0,0)"/><path d=" M 147.987 768.633 C 149.63 768.633 150.964 769.967 150.964 771.609 C 150.964 773.252 149.63 774.586 147.987 774.586 C 146.345 774.586 145.011 773.252 145.011 771.609 C 145.011 769.967 146.345 768.633 147.987 768.633 Z " fill="rgb(0,0,0)"/><path d=" M 147.987 768.633 C 149.63 768.633 150.964 769.967 150.964 771.609 C 150.964 773.252 149.63 774.586 147.987 774.586 C 146.345 774.586 145.011 773.252 145.011 771.609 C 145.011 769.967 146.345 768.633 147.987 768.633 Z " fill="rgb(0,0,0)"/><path d=" M 156.636 777.281 C 158.279 777.281 159.612 778.615 159.612 780.258 C 159.612 781.901 158.279 783.234 156.636 783.234 C 154.993 783.234 153.659 781.901 153.659 780.258 C 153.659 778.615 154.993 777.281 156.636 777.281 Z " fill="rgb(0,0,0)"/><path d=" M 147.987 777.281 C 149.63 777.281 150.964 778.615 150.964 780.258 C 150.964 781.901 149.63 783.234 147.987 783.234 C 146.345 783.234 145.011 781.901 145.011 780.258 C 145.011 778.615 146.345 777.281 147.987 777.281 Z " fill="rgb(0,0,0)"/><path d=" M 147.987 777.281 C 149.63 777.281 150.964 778.615 150.964 780.258 C 150.964 781.901 149.63 783.234 147.987 783.234 C 146.345 783.234 145.011 781.901 145.011 780.258 C 145.011 778.615 146.345 777.281 147.987 777.281 Z " fill="rgb(0,0,0)"/><path d=" M 156.636 785.824 C 158.279 785.824 159.612 787.158 159.612 788.801 C 159.612 790.444 158.279 791.777 156.636 791.777 C 154.993 791.777 153.659 790.444 153.659 788.801 C 153.659 787.158 154.993 785.824 156.636 785.824 Z " fill="rgb(0,0,0)"/><path d=" M 147.987 785.824 C 149.63 785.824 150.964 787.158 150.964 788.801 C 150.964 790.444 149.63 791.777 147.987 791.777 C 146.345 791.777 145.011 790.444 145.011 788.801 C 145.011 787.158 146.345 785.824 147.987 785.824 Z " fill="rgb(0,0,0)"/><path d=" M 147.987 785.824 C 149.63 785.824 150.964 787.158 150.964 788.801 C 150.964 790.444 149.63 791.777 147.987 791.777 C 146.345 791.777 145.011 790.444 145.011 788.801 C 145.011 787.158 146.345 785.824 147.987 785.824 Z " fill="rgb(0,0,0)"/><circle vector-effect="non-scaling-stroke" cx="156.63589015151712" cy="780.2578124999995" r="2.9765625" fill="rgb(0,0,0)"/><path d=" M 173.933 768.633 C 175.576 768.633 176.909 769.967 176.909 771.609 C 176.909 773.252 175.576 774.586 173.933 774.586 C 172.29 774.586 170.956 773.252 170.956 771.609 C 170.956 769.967 172.29 768.633 173.933 768.633 Z " fill="rgb(0,0,0)"/><path d=" M 165.284 768.633 C 166.927 768.633 168.261 769.967 168.261 771.609 C 168.261 773.252 166.927 774.586 165.284 774.586 C 163.642 774.586 162.308 773.252 162.308 771.609 C 162.308 769.967 163.642 768.633 165.284 768.633 Z " fill="rgb(0,0,0)"/><path d=" M 165.284 768.633 C 166.927 768.633 168.261 769.967 168.261 771.609 C 168.261 773.252 166.927 774.586 165.284 774.586 C 163.642 774.586 162.308 773.252 162.308 771.609 C 162.308 769.967 163.642 768.633 165.284 768.633 Z " fill="rgb(0,0,0)"/><path d=" M 173.933 777.281 C 175.576 777.281 176.909 778.615 176.909 780.258 C 176.909 781.901 175.576 783.234 173.933 783.234 C 172.29 783.234 170.956 781.901 170.956 780.258 C 170.956 778.615 172.29 777.281 173.933 777.281 Z " fill="rgb(0,0,0)"/><path d=" M 165.284 777.281 C 166.927 777.281 168.261 778.615 168.261 780.258 C 168.261 781.901 166.927 783.234 165.284 783.234 C 163.642 783.234 162.308 781.901 162.308 780.258 C 162.308 778.615 163.642 777.281 165.284 777.281 Z " fill="rgb(0,0,0)"/><path d=" M 165.284 777.281 C 166.927 777.281 168.261 778.615 168.261 780.258 C 168.261 781.901 166.927 783.234 165.284 783.234 C 163.642 783.234 162.308 781.901 162.308 780.258 C 162.308 778.615 163.642 777.281 165.284 777.281 Z " fill="rgb(0,0,0)"/><path d=" M 173.933 785.824 C 175.576 785.824 176.909 787.158 176.909 788.801 C 176.909 790.444 175.576 791.777 173.933 791.777 C 172.29 791.777 170.956 790.444 170.956 788.801 C 170.956 787.158 172.29 785.824 173.933 785.824 Z " fill="rgb(0,0,0)"/><path d=" M 165.284 785.824 C 166.927 785.824 168.261 787.158 168.261 788.801 C 168.261 790.444 166.927 791.777 165.284 791.777 C 163.642 791.777 162.308 790.444 162.308 788.801 C 162.308 787.158 163.642 785.824 165.284 785.824 Z " fill="rgb(0,0,0)"/><path d=" M 165.284 785.824 C 166.927 785.824 168.261 787.158 168.261 788.801 C 168.261 790.444 166.927 791.777 165.284 791.777 C 163.642 791.777 162.308 790.444 162.308 788.801 C 162.308 787.158 163.642 785.824 165.284 785.824 Z " fill="rgb(0,0,0)"/><circle vector-effect="non-scaling-stroke" cx="225.823390151519" cy="771.5039062499999" r="2.9765625" fill="rgb(0,0,0)"/><circle vector-effect="non-scaling-stroke" cx="225.823390151519" cy="780.1523437499997" r="2.9765625" fill="rgb(0,0,0)"/><circle vector-effect="non-scaling-stroke" cx="225.82339015151905" cy="780.1523437500007" r="2.9765625" fill="rgb(0,0,0)"/><circle vector-effect="non-scaling-stroke" cx="225.82339015151905" cy="788.8007812500005" r="2.9765625" fill="rgb(0,0,0)"/><path d=" M 243.12 768.527 C 244.763 768.527 246.097 769.861 246.097 771.504 C 246.097 773.147 244.763 774.48 243.12 774.48 C 241.477 774.48 240.144 773.147 240.144 771.504 C 240.144 769.861 241.477 768.527 243.12 768.527 Z " fill="rgb(0,0,0)"/><path d=" M 234.472 768.527 C 236.115 768.527 237.448 769.861 237.448 771.504 C 237.448 773.147 236.115 774.48 234.472 774.48 C 232.829 774.48 231.495 773.147 231.495 771.504 C 231.495 769.861 232.829 768.527 234.472 768.527 Z " fill="rgb(0,0,0)"/><path d=" M 234.472 768.527 C 236.115 768.527 237.448 769.861 237.448 771.504 C 237.448 773.147 236.115 774.48 234.472 774.48 C 232.829 774.48 231.495 773.147 231.495 771.504 C 231.495 769.861 232.829 768.527 234.472 768.527 Z " fill="rgb(0,0,0)"/><path d=" M 243.12 777.176 C 244.763 777.176 246.097 778.51 246.097 780.152 C 246.097 781.795 244.763 783.129 243.12 783.129 C 241.477 783.129 240.144 781.795 240.144 780.152 C 240.144 778.51 241.477 777.176 243.12 777.176 Z " fill="rgb(0,0,0)"/><path d=" M 234.472 777.176 C 236.115 777.176 237.448 778.51 237.448 780.152 C 237.448 781.795 236.115 783.129 234.472 783.129 C 232.829 783.129 231.495 781.795 231.495 780.152 C 231.495 778.51 232.829 777.176 234.472 777.176 Z " fill="rgb(0,0,0)"/><path d=" M 234.472 777.176 C 236.115 777.176 237.448 778.51 237.448 780.152 C 237.448 781.795 236.115 783.129 234.472 783.129 C 232.829 783.129 231.495 781.795 231.495 780.152 C 231.495 778.51 232.829 777.176 234.472 777.176 Z " fill="rgb(0,0,0)"/><path d=" M 243.12 785.719 C 244.763 785.719 246.097 787.053 246.097 788.695 C 246.097 790.338 244.763 791.672 243.12 791.672 C 241.477 791.672 240.144 790.338 240.144 788.695 C 240.144 787.053 241.477 785.719 243.12 785.719 Z " fill="rgb(0,0,0)"/><path d=" M 234.472 785.719 C 236.115 785.719 237.448 787.053 237.448 788.695 C 237.448 790.338 236.115 791.672 234.472 791.672 C 232.829 791.672 231.495 790.338 231.495 788.695 C 231.495 787.053 232.829 785.719 234.472 785.719 Z " fill="rgb(0,0,0)"/><path d=" M 234.472 785.719 C 236.115 785.719 237.448 787.053 237.448 788.695 C 237.448 790.338 236.115 791.672 234.472 791.672 C 232.829 791.672 231.495 790.338 231.495 788.695 C 231.495 787.053 232.829 785.719 234.472 785.719 Z " fill="rgb(0,0,0)"/><circle vector-effect="non-scaling-stroke" cx="243.1202651515195" cy="780.1523437499998" r="2.9765625" fill="rgb(0,0,0)"/><path d=" M 260.417 768.527 C 262.06 768.527 263.394 769.861 263.394 771.504 C 263.394 773.147 262.06 774.48 260.417 774.48 C 258.774 774.48 257.441 773.147 257.441 771.504 C 257.441 769.861 258.774 768.527 260.417 768.527 Z " fill="rgb(0,0,0)"/><path d=" M 251.769 768.527 C 253.412 768.527 254.745 769.861 254.745 771.504 C 254.745 773.147 253.412 774.48 251.769 774.48 C 250.126 774.48 248.792 773.147 248.792 771.504 C 248.792 769.861 250.126 768.527 251.769 768.527 Z " fill="rgb(0,0,0)"/><path d=" M 251.769 768.527 C 253.412 768.527 254.745 769.861 254.745 771.504 C 254.745 773.147 253.412 774.48 251.769 774.48 C 250.126 774.48 248.792 773.147 248.792 771.504 C 248.792 769.861 250.126 768.527 251.769 768.527 Z " fill="rgb(0,0,0)"/><path d=" M 260.417 777.176 C 262.06 777.176 263.394 778.51 263.394 780.152 C 263.394 781.795 262.06 783.129 260.417 783.129 C 258.774 783.129 257.441 781.795 257.441 780.152 C 257.441 778.51 258.774 777.176 260.417 777.176 Z " fill="rgb(0,0,0)"/><path d=" M 251.769 777.176 C 253.412 777.176 254.745 778.51 254.745 780.152 C 254.745 781.795 253.412 783.129 251.769 783.129 C 250.126 783.129 248.792 781.795 248.792 780.152 C 248.792 778.51 250.126 777.176 251.769 777.176 Z " fill="rgb(0,0,0)"/><path d=" M 251.769 777.176 C 253.412 777.176 254.745 778.51 254.745 780.152 C 254.745 781.795 253.412 783.129 251.769 783.129 C 250.126 783.129 248.792 781.795 248.792 780.152 C 248.792 778.51 250.126 777.176 251.769 777.176 Z " fill="rgb(0,0,0)"/><path d=" M 260.417 785.719 C 262.06 785.719 263.394 787.053 263.394 788.695 C 263.394 790.338 262.06 791.672 260.417 791.672 C 258.774 791.672 257.441 790.338 257.441 788.695 C 257.441 787.053 258.774 785.719 260.417 785.719 Z " fill="rgb(0,0,0)"/><path d=" M 251.769 785.719 C 253.412 785.719 254.745 787.053 254.745 788.695 C 254.745 790.338 253.412 791.672 251.769 791.672 C 250.126 791.672 248.792 790.338 248.792 788.695 C 248.792 787.053 250.126 785.719 251.769 785.719 Z " fill="rgb(0,0,0)"/><path d=" M 251.769 785.719 C 253.412 785.719 254.745 787.053 254.745 788.695 C 254.745 790.338 253.412 791.672 251.769 791.672 C 250.126 791.672 248.792 790.338 248.792 788.695 C 248.792 787.053 250.126 785.719 251.769 785.719 Z " fill="rgb(0,0,0)"/><circle vector-effect="non-scaling-stroke" cx="260.41714015152" cy="780.1523437499998" r="2.9765625" fill="rgb(0,0,0)"/><path d=" M 277.714 768.527 C 279.357 768.527 280.691 769.861 280.691 771.504 C 280.691 773.147 279.357 774.48 277.714 774.48 C 276.071 774.48 274.737 773.147 274.737 771.504 C 274.737 769.861 276.071 768.527 277.714 768.527 Z " fill="rgb(0,0,0)"/><path d=" M 269.066 768.527 C 270.708 768.527 272.042 769.861 272.042 771.504 C 272.042 773.147 270.708 774.48 269.066 774.48 C 267.423 774.48 266.089 773.147 266.089 771.504 C 266.089 769.861 267.423 768.527 269.066 768.527 Z " fill="rgb(0,0,0)"/><path d=" M 269.066 768.527 C 270.708 768.527 272.042 769.861 272.042 771.504 C 272.042 773.147 270.708 774.48 269.066 774.48 C 267.423 774.48 266.089 773.147 266.089 771.504 C 266.089 769.861 267.423 768.527 269.066 768.527 Z " fill="rgb(0,0,0)"/><path d=" M 277.714 777.176 C 279.357 777.176 280.691 778.51 280.691 780.152 C 280.691 781.795 279.357 783.129 277.714 783.129 C 276.071 783.129 274.737 781.795 274.737 780.152 C 274.737 778.51 276.071 777.176 277.714 777.176 Z " fill="rgb(0,0,0)"/><path d=" M 269.066 777.176 C 270.708 777.176 272.042 778.51 272.042 780.152 C 272.042 781.795 270.708 783.129 269.066 783.129 C 267.423 783.129 266.089 781.795 266.089 780.152 C 266.089 778.51 267.423 777.176 269.066 777.176 Z " fill="rgb(0,0,0)"/><path d=" M 269.066 777.176 C 270.708 777.176 272.042 778.51 272.042 780.152 C 272.042 781.795 270.708 783.129 269.066 783.129 C 267.423 783.129 266.089 781.795 266.089 780.152 C 266.089 778.51 267.423 777.176 269.066 777.176 Z " fill="rgb(0,0,0)"/><path d=" M 277.714 785.719 C 279.357 785.719 280.691 787.053 280.691 788.695 C 280.691 790.338 279.357 791.672 277.714 791.672 C 276.071 791.672 274.737 790.338 274.737 788.695 C 274.737 787.053 276.071 785.719 277.714 785.719 Z " fill="rgb(0,0,0)"/><path d=" M 269.066 785.719 C 270.708 785.719 272.042 787.053 272.042 788.695 C 272.042 790.338 270.708 791.672 269.066 791.672 C 267.423 791.672 266.089 790.338 266.089 788.695 C 266.089 787.053 267.423 785.719 269.066 785.719 Z " fill="rgb(0,0,0)"/><path d=" M 269.066 785.719 C 270.708 785.719 272.042 787.053 272.042 788.695 C 272.042 790.338 270.708 791.672 269.066 791.672 C 267.423 791.672 266.089 790.338 266.089 788.695 C 266.089 787.053 267.423 785.719 269.066 785.719 Z " fill="rgb(0,0,0)"/><circle vector-effect="non-scaling-stroke" cx="277.71401515152047" cy="780.1523437499997" r="2.9765625" fill="rgb(0,0,0)"/><path d=" M 295.011 768.527 C 296.654 768.527 297.987 769.861 297.987 771.504 C 297.987 773.147 296.654 774.48 295.011 774.48 C 293.368 774.48 292.034 773.147 292.034 771.504 C 292.034 769.861 293.368 768.527 295.011 768.527 Z " fill="rgb(0,0,0)"/><path d=" M 286.362 768.527 C 288.005 768.527 289.339 769.861 289.339 771.504 C 289.339 773.147 288.005 774.48 286.362 774.48 C 284.72 774.48 283.386 773.147 283.386 771.504 C 283.386 769.861 284.72 768.527 286.362 768.527 Z " fill="rgb(0,0,0)"/><path d=" M 286.362 768.527 C 288.005 768.527 289.339 769.861 289.339 771.504 C 289.339 773.147 288.005 774.48 286.362 774.48 C 284.72 774.48 283.386 773.147 283.386 771.504 C 283.386 769.861 284.72 768.527 286.362 768.527 Z " fill="rgb(0,0,0)"/><path d=" M 295.011 777.176 C 296.654 777.176 297.987 778.51 297.987 780.152 C 297.987 781.795 296.654 783.129 295.011 783.129 C 293.368 783.129 292.034 781.795 292.034 780.152 C 292.034 778.51 293.368 777.176 295.011 777.176 Z " fill="rgb(0,0,0)"/><path d=" M 286.362 777.176 C 288.005 777.176 289.339 778.51 289.339 780.152 C 289.339 781.795 288.005 783.129 286.362 783.129 C 284.72 783.129 283.386 781.795 283.386 780.152 C 283.386 778.51 284.72 777.176 286.362 777.176 Z " fill="rgb(0,0,0)"/><path d=" M 286.362 777.176 C 288.005 777.176 289.339 778.51 289.339 780.152 C 289.339 781.795 288.005 783.129 286.362 783.129 C 284.72 783.129 283.386 781.795 283.386 780.152 C 283.386 778.51 284.72 777.176 286.362 777.176 Z " fill="rgb(0,0,0)"/><path d=" M 295.011 785.719 C 296.654 785.719 297.987 787.053 297.987 788.695 C 297.987 790.338 296.654 791.672 295.011 791.672 C 293.368 791.672 292.034 790.338 292.034 788.695 C 292.034 787.053 293.368 785.719 295.011 785.719 Z " fill="rgb(0,0,0)"/><path d=" M 286.362 785.719 C 288.005 785.719 289.339 787.053 289.339 788.695 C 289.339 790.338 288.005 791.672 286.362 791.672 C 284.72 791.672 283.386 790.338 283.386 788.695 C 283.386 787.053 284.72 785.719 286.362 785.719 Z " fill="rgb(0,0,0)"/><path d=" M 286.362 785.719 C 288.005 785.719 289.339 787.053 289.339 788.695 C 289.339 790.338 288.005 791.672 286.362 791.672 C 284.72 791.672 283.386 790.338 283.386 788.695 C 283.386 787.053 284.72 785.719 286.362 785.719 Z " fill="rgb(0,0,0)"/><circle vector-effect="non-scaling-stroke" cx="295.01089015152087" cy="780.1523437499998" r="2.9765625" fill="rgb(0,0,0)"/><path d=" M 303.659 768.527 C 305.302 768.527 306.636 769.861 306.636 771.504 C 306.636 773.147 305.302 774.48 303.659 774.48 C 302.017 774.48 300.683 773.147 300.683 771.504 C 300.683 769.861 302.017 768.527 303.659 768.527 Z " fill="rgb(0,0,0)"/><path d=" M 303.659 768.527 C 305.302 768.527 306.636 769.861 306.636 771.504 C 306.636 773.147 305.302 774.48 303.659 774.48 C 302.017 774.48 300.683 773.147 300.683 771.504 C 300.683 769.861 302.017 768.527 303.659 768.527 Z " fill="rgb(0,0,0)"/><path d=" M 303.659 777.176 C 305.302 777.176 306.636 778.51 306.636 780.152 C 306.636 781.795 305.302 783.129 303.659 783.129 C 302.017 783.129 300.683 781.795 300.683 780.152 C 300.683 778.51 302.017 777.176 303.659 777.176 Z " fill="rgb(0,0,0)"/><path d=" M 303.659 777.176 C 305.302 777.176 306.636 778.51 306.636 780.152 C 306.636 781.795 305.302 783.129 303.659 783.129 C 302.017 783.129 300.683 781.795 300.683 780.152 C 300.683 778.51 302.017 777.176 303.659 777.176 Z " fill="rgb(0,0,0)"/><path d=" M 303.659 785.719 C 305.302 785.719 306.636 787.053 306.636 788.695 C 306.636 790.338 305.302 791.672 303.659 791.672 C 302.017 791.672 300.683 790.338 300.683 788.695 C 300.683 787.053 302.017 785.719 303.659 785.719 Z " fill="rgb(0,0,0)"/><path d=" M 303.659 785.719 C 305.302 785.719 306.636 787.053 306.636 788.695 C 306.636 790.338 305.302 791.672 303.659 791.672 C 302.017 791.672 300.683 790.338 300.683 788.695 C 300.683 787.053 302.017 785.719 303.659 785.719 Z " fill="rgb(0,0,0)"/><circle vector-effect="non-scaling-stroke" cx="173.9327651515176" cy="780.2578124999997" r="2.9765625" fill="rgb(0,0,0)"/><path d=" M 191.23 768.633 C 192.872 768.633 194.206 769.967 194.206 771.609 C 194.206 773.252 192.872 774.586 191.23 774.586 C 189.587 774.586 188.253 773.252 188.253 771.609 C 188.253 769.967 189.587 768.633 191.23 768.633 Z " fill="rgb(0,0,0)"/><path d=" M 182.581 768.633 C 184.224 768.633 185.558 769.967 185.558 771.609 C 185.558 773.252 184.224 774.586 182.581 774.586 C 180.938 774.586 179.605 773.252 179.605 771.609 C 179.605 769.967 180.938 768.633 182.581 768.633 Z " fill="rgb(0,0,0)"/><path d=" M 182.581 768.633 C 184.224 768.633 185.558 769.967 185.558 771.609 C 185.558 773.252 184.224 774.586 182.581 774.586 C 180.938 774.586 179.605 773.252 179.605 771.609 C 179.605 769.967 180.938 768.633 182.581 768.633 Z " fill="rgb(0,0,0)"/><path d=" M 191.23 777.281 C 192.872 777.281 194.206 778.615 194.206 780.258 C 194.206 781.901 192.872 783.234 191.23 783.234 C 189.587 783.234 188.253 781.901 188.253 780.258 C 188.253 778.615 189.587 777.281 191.23 777.281 Z " fill="rgb(0,0,0)"/><path d=" M 182.581 777.281 C 184.224 777.281 185.558 778.615 185.558 780.258 C 185.558 781.901 184.224 783.234 182.581 783.234 C 180.938 783.234 179.605 781.901 179.605 780.258 C 179.605 778.615 180.938 777.281 182.581 777.281 Z " fill="rgb(0,0,0)"/><path d=" M 182.581 777.281 C 184.224 777.281 185.558 778.615 185.558 780.258 C 185.558 781.901 184.224 783.234 182.581 783.234 C 180.938 783.234 179.605 781.901 179.605 780.258 C 179.605 778.615 180.938 777.281 182.581 777.281 Z " fill="rgb(0,0,0)"/><path d=" M 191.23 785.824 C 192.872 785.824 194.206 787.158 194.206 788.801 C 194.206 790.444 192.872 791.777 191.23 791.777 C 189.587 791.777 188.253 790.444 188.253 788.801 C 188.253 787.158 189.587 785.824 191.23 785.824 Z " fill="rgb(0,0,0)"/><path d=" M 182.581 785.824 C 184.224 785.824 185.558 787.158 185.558 788.801 C 185.558 790.444 184.224 791.777 182.581 791.777 C 180.938 791.777 179.605 790.444 179.605 788.801 C 179.605 787.158 180.938 785.824 182.581 785.824 Z " fill="rgb(0,0,0)"/><path d=" M 182.581 785.824 C 184.224 785.824 185.558 787.158 185.558 788.801 C 185.558 790.444 184.224 791.777 182.581 791.777 C 180.938 791.777 179.605 790.444 179.605 788.801 C 179.605 787.158 180.938 785.824 182.581 785.824 Z " fill="rgb(0,0,0)"/><circle vector-effect="non-scaling-stroke" cx="191.2296401515181" cy="780.2578124999997" r="2.9765625" fill="rgb(0,0,0)"/><path d=" M 208.527 768.633 C 210.169 768.633 211.503 769.967 211.503 771.609 C 211.503 773.252 210.169 774.586 208.527 774.586 C 206.884 774.586 205.55 773.252 205.55 771.609 C 205.55 769.967 206.884 768.633 208.527 768.633 Z " fill="rgb(0,0,0)"/><path d=" M 199.878 768.633 C 201.521 768.633 202.855 769.967 202.855 771.609 C 202.855 773.252 201.521 774.586 199.878 774.586 C 198.235 774.586 196.902 773.252 196.902 771.609 C 196.902 769.967 198.235 768.633 199.878 768.633 Z " fill="rgb(0,0,0)"/><path d=" M 199.878 768.633 C 201.521 768.633 202.855 769.967 202.855 771.609 C 202.855 773.252 201.521 774.586 199.878 774.586 C 198.235 774.586 196.902 773.252 196.902 771.609 C 196.902 769.967 198.235 768.633 199.878 768.633 Z " fill="rgb(0,0,0)"/><path d=" M 208.527 777.281 C 210.169 777.281 211.503 778.615 211.503 780.258 C 211.503 781.901 210.169 783.234 208.527 783.234 C 206.884 783.234 205.55 781.901 205.55 780.258 C 205.55 778.615 206.884 777.281 208.527 777.281 Z " fill="rgb(0,0,0)"/><path d=" M 199.878 777.281 C 201.521 777.281 202.855 778.615 202.855 780.258 C 202.855 781.901 201.521 783.234 199.878 783.234 C 198.235 783.234 196.902 781.901 196.902 780.258 C 196.902 778.615 198.235 777.281 199.878 777.281 Z " fill="rgb(0,0,0)"/><path d=" M 199.878 777.281 C 201.521 777.281 202.855 778.615 202.855 780.258 C 202.855 781.901 201.521 783.234 199.878 783.234 C 198.235 783.234 196.902 781.901 196.902 780.258 C 196.902 778.615 198.235 777.281 199.878 777.281 Z " fill="rgb(0,0,0)"/><path d=" M 208.527 785.824 C 210.169 785.824 211.503 787.158 211.503 788.801 C 211.503 790.444 210.169 791.777 208.527 791.777 C 206.884 791.777 205.55 790.444 205.55 788.801 C 205.55 787.158 206.884 785.824 208.527 785.824 Z " fill="rgb(0,0,0)"/><path d=" M 199.878 785.824 C 201.521 785.824 202.855 787.158 202.855 788.801 C 202.855 790.444 201.521 791.777 199.878 791.777 C 198.235 791.777 196.902 790.444 196.902 788.801 C 196.902 787.158 198.235 785.824 199.878 785.824 Z " fill="rgb(0,0,0)"/><path d=" M 199.878 785.824 C 201.521 785.824 202.855 787.158 202.855 788.801 C 202.855 790.444 201.521 791.777 199.878 791.777 C 198.235 791.777 196.902 790.444 196.902 788.801 C 196.902 787.158 198.235 785.824 199.878 785.824 Z " fill="rgb(0,0,0)"/><circle vector-effect="non-scaling-stroke" cx="208.52651515151854" cy="780.2578124999995" r="2.9765625" fill="rgb(0,0,0)"/><path d=" M 217.175 768.633 C 218.818 768.633 220.152 769.967 220.152 771.609 C 220.152 773.252 218.818 774.586 217.175 774.586 C 215.532 774.586 214.198 773.252 214.198 771.609 C 214.198 769.967 215.532 768.633 217.175 768.633 Z " fill="rgb(0,0,0)"/><path d=" M 217.175 768.633 C 218.818 768.633 220.152 769.967 220.152 771.609 C 220.152 773.252 218.818 774.586 217.175 774.586 C 215.532 774.586 214.198 773.252 214.198 771.609 C 214.198 769.967 215.532 768.633 217.175 768.633 Z " fill="rgb(0,0,0)"/><path d=" M 217.175 777.281 C 218.818 777.281 220.152 778.615 220.152 780.258 C 220.152 781.901 218.818 783.234 217.175 783.234 C 215.532 783.234 214.198 781.901 214.198 780.258 C 214.198 778.615 215.532 777.281 217.175 777.281 Z " fill="rgb(0,0,0)"/><path d=" M 217.175 777.281 C 218.818 777.281 220.152 778.615 220.152 780.258 C 220.152 781.901 218.818 783.234 217.175 783.234 C 215.532 783.234 214.198 781.901 214.198 780.258 C 214.198 778.615 215.532 777.281 217.175 777.281 Z " fill="rgb(0,0,0)"/><path d=" M 217.175 785.824 C 218.818 785.824 220.152 787.158 220.152 788.801 C 220.152 790.444 218.818 791.777 217.175 791.777 C 215.532 791.777 214.198 790.444 214.198 788.801 C 214.198 787.158 215.532 785.824 217.175 785.824 Z " fill="rgb(0,0,0)"/><path d=" M 217.175 785.824 C 218.818 785.824 220.152 787.158 220.152 788.801 C 220.152 790.444 218.818 791.777 217.175 791.777 C 215.532 791.777 214.198 790.444 214.198 788.801 C 214.198 787.158 215.532 785.824 217.175 785.824 Z " fill="rgb(0,0,0)"/><path d=" M 312.308 768.527 C 313.951 768.527 315.284 769.861 315.284 771.504 C 315.284 773.147 313.951 774.48 312.308 774.48 C 310.665 774.48 309.331 773.147 309.331 771.504 C 309.331 769.861 310.665 768.527 312.308 768.527 Z " fill="rgb(0,0,0)"/><path d=" M 303.659 768.527 C 305.302 768.527 306.636 769.861 306.636 771.504 C 306.636 773.147 305.302 774.48 303.659 774.48 C 302.017 774.48 300.683 773.147 300.683 771.504 C 300.683 769.861 302.017 768.527 303.659 768.527 Z " fill="rgb(0,0,0)"/><path d=" M 303.659 768.527 C 305.302 768.527 306.636 769.861 306.636 771.504 C 306.636 773.147 305.302 774.48 303.659 774.48 C 302.017 774.48 300.683 773.147 300.683 771.504 C 300.683 769.861 302.017 768.527 303.659 768.527 Z " fill="rgb(0,0,0)"/><path d=" M 312.308 777.176 C 313.951 777.176 315.284 778.51 315.284 780.152 C 315.284 781.795 313.951 783.129 312.308 783.129 C 310.665 783.129 309.331 781.795 309.331 780.152 C 309.331 778.51 310.665 777.176 312.308 777.176 Z " fill="rgb(0,0,0)"/><path d=" M 303.659 777.176 C 305.302 777.176 306.636 778.51 306.636 780.152 C 306.636 781.795 305.302 783.129 303.659 783.129 C 302.017 783.129 300.683 781.795 300.683 780.152 C 300.683 778.51 302.017 777.176 303.659 777.176 Z " fill="rgb(0,0,0)"/><path d=" M 303.659 777.176 C 305.302 777.176 306.636 778.51 306.636 780.152 C 306.636 781.795 305.302 783.129 303.659 783.129 C 302.017 783.129 300.683 781.795 300.683 780.152 C 300.683 778.51 302.017 777.176 303.659 777.176 Z " fill="rgb(0,0,0)"/><path d=" M 312.308 785.719 C 313.951 785.719 315.284 787.053 315.284 788.695 C 315.284 790.338 313.951 791.672 312.308 791.672 C 310.665 791.672 309.331 790.338 309.331 788.695 C 309.331 787.053 310.665 785.719 312.308 785.719 Z " fill="rgb(0,0,0)"/><path d=" M 303.659 785.719 C 305.302 785.719 306.636 787.053 306.636 788.695 C 306.636 790.338 305.302 791.672 303.659 791.672 C 302.017 791.672 300.683 790.338 300.683 788.695 C 300.683 787.053 302.017 785.719 303.659 785.719 Z " fill="rgb(0,0,0)"/><path d=" M 303.659 785.719 C 305.302 785.719 306.636 787.053 306.636 788.695 C 306.636 790.338 305.302 791.672 303.659 791.672 C 302.017 791.672 300.683 790.338 300.683 788.695 C 300.683 787.053 302.017 785.719 303.659 785.719 Z " fill="rgb(0,0,0)"/><circle vector-effect="non-scaling-stroke" cx="312.3077651515221" cy="780.1523437499995" r="2.9765625" fill="rgb(0,0,0)"/><path d=" M 320.956 768.527 C 322.599 768.527 323.933 769.861 323.933 771.504 C 323.933 773.147 322.599 774.48 320.956 774.48 C 319.313 774.48 317.98 773.147 317.98 771.504 C 317.98 769.861 319.313 768.527 320.956 768.527 Z " fill="rgb(0,0,0)"/><path d=" M 320.956 768.527 C 322.599 768.527 323.933 769.861 323.933 771.504 C 323.933 773.147 322.599 774.48 320.956 774.48 C 319.313 774.48 317.98 773.147 317.98 771.504 C 317.98 769.861 319.313 768.527 320.956 768.527 Z " fill="rgb(0,0,0)"/><path d=" M 320.956 777.176 C 322.599 777.176 323.933 778.51 323.933 780.152 C 323.933 781.795 322.599 783.129 320.956 783.129 C 319.313 783.129 317.98 781.795 317.98 780.152 C 317.98 778.51 319.313 777.176 320.956 777.176 Z " fill="rgb(0,0,0)"/><path d=" M 320.956 777.176 C 322.599 777.176 323.933 778.51 323.933 780.152 C 323.933 781.795 322.599 783.129 320.956 783.129 C 319.313 783.129 317.98 781.795 317.98 780.152 C 317.98 778.51 319.313 777.176 320.956 777.176 Z " fill="rgb(0,0,0)"/><path d=" M 320.956 785.719 C 322.599 785.719 323.933 787.053 323.933 788.695 C 323.933 790.338 322.599 791.672 320.956 791.672 C 319.313 791.672 317.98 790.338 317.98 788.695 C 317.98 787.053 319.313 785.719 320.956 785.719 Z " fill="rgb(0,0,0)"/><path d=" M 320.956 785.719 C 322.599 785.719 323.933 787.053 323.933 788.695 C 323.933 790.338 322.599 791.672 320.956 791.672 C 319.313 791.672 317.98 790.338 317.98 788.695 C 317.98 787.053 319.313 785.719 320.956 785.719 Z " fill="rgb(0,0,0)"/></g></g></g></svg>