<?xml version="1.0" encoding="UTF-8" standalone="no"?><!-- Generator: Gravit.io --><svg xmlns="http://www.w3.org/2000/svg" xmlns:xlink="http://www.w3.org/1999/xlink" style="isolation:isolate" viewBox="0 0 595.276 841.89" width="595.276pt" height="841.89pt"><defs><clipPath id="_clipPath_wy912tdMelgIDExW57Mzh7A3c8RSWNCq"><rect width="595.276" height="841.89"/></clipPath></defs><g clip-path="url(#_clipPath_wy912tdMelgIDExW57Mzh7A3c8RSWNCq)"><g style="isolation:isolate"><path d="M 201.696 132 L 396.304 132 C 418.213 132 436 149.787 436 171.696 L 436 673.304 C 436 695.213 418.213 713 396.304 713 L 201.696 713 C 179.787 713 162 695.213 162 673.304 L 162 171.696 C 162 149.787 179.787 132 201.696 132 Z" style="fill:none;stroke:#828282;stroke-width:2;stroke-linecap:square;stroke-miterlimit:2;"/><rect x="173.333" y="174" width="253.667" height="498" transform="matrix(1,0,0,1,0,0)" fill="none" vector-effect="non-scaling-stroke" stroke-width="1" stroke="rgb(130,130,130)" stroke-linejoin="miter" stroke-linecap="square" stroke-miterlimit="2"/><circle vector-effect="non-scaling-stroke" cx="342.09375" cy="152.90625" r="5.53125" fill="none" stroke-width="1" stroke="rgb(130,130,130)" stroke-linejoin="miter" stroke-linecap="square" stroke-miterlimit="3"/><path d="M 282.963 150.563 L 315.912 150.563 C 316.858 150.563 317.625 151.33 317.625 152.275 L 317.625 154.287 C 317.625 155.233 316.858 156 315.912 156 L 282.963 156 C 282.017 156 281.25 155.233 281.25 154.287 L 281.25 152.275 C 281.25 151.33 282.017 150.563 282.963 150.563 Z" style="fill:none;stroke:#828282;stroke-width:1;stroke-linecap:square;stroke-miterlimit:2;"/><rect x="436" y="228" width="5.75" height="69.75" transform="matrix(1,0,0,1,0,0)" fill="none" vector-effect="non-scaling-stroke" stroke-width="1" stroke="rgb(130,130,130)" stroke-linejoin="miter" stroke-linecap="square" stroke-miterlimit="2"/><rect x="436" y="327" width="5.75" height="33" transform="matrix(1,0,0,1,0,0)" fill="none" vector-effect="non-scaling-stroke" stroke-width="1" stroke="rgb(130,130,130)" stroke-linejoin="miter" stroke-linecap="square" stroke-miterlimit="2"/></g></g></svg>